<?xml version="1.0" encoding="utf-8"?>
<!-- Generator: Adobe Illustrator 25.4.1, SVG Export Plug-In . SVG Version: 6.00 Build 0)  -->
<svg version="1.1" id="Слой_1" xmlns="http://www.w3.org/2000/svg" xmlns:xlink="http://www.w3.org/1999/xlink" x="0px" y="0px"
	 viewBox="0 0 57 46" style="enable-background:new 0 0 57 46;" xml:space="preserve">
<style type="text/css">
	.st0{fill:#8CCF3A;}
	.st1{fill:none;stroke:#000000;stroke-miterlimit:10;}
</style>
<polygon class="st0" points="39.1,11.9 42.9,21.6 52.8,18.5 47.7,27.5 56.2,33.3 46,34.9 46.7,45.2 39.1,38.2 31.5,45.2 32.3,34.9 
	22,33.3 30.6,27.5 25.4,18.5 35.3,21.6 "/>
<g>
	<path class="st1" d="M27.7,21c0,4.5-3.7,8.2-8.2,8.2s-8.2-3.7-8.2-8.2"/>
	<g>
		<circle class="st1" cx="19.5" cy="18.7" r="18.1"/>
		<path class="st1" d="M29.5,11.8c0,1.9-1.5,3.4-3.4,3.4s-3.4-1.5-3.4-3.4"/>
		<path class="st1" d="M16.3,11.8c0,1.9-1.5,3.4-3.4,3.4s-3.4-1.5-3.4-3.4"/>
		<polyline class="st1" points="20.2,14.7 16.7,22.3 21.2,22.3 		"/>
	</g>
</g>
</svg>
