<?xml version="1.0" encoding="utf-8"?>
<!-- Generator: Adobe Illustrator 25.4.1, SVG Export Plug-In . SVG Version: 6.00 Build 0)  -->
<svg version="1.1" id="Слой_1" xmlns="http://www.w3.org/2000/svg" xmlns:xlink="http://www.w3.org/1999/xlink" x="0px" y="0px"
	 viewBox="0 0 44 59" style="enable-background:new 0 0 44 59;" xml:space="preserve">
<style type="text/css">
	.st0{fill:#8CCF3A;}
	.st1{fill:none;stroke:#000000;stroke-miterlimit:10;}
</style>
<path class="st0" d="M0.9,39.5c0-2,0.1-4,0.1-6c0-1.1,0.2-2.1,0.7-3.1c0.3-0.6,0.5-1.2,0.8-1.7c0.2-0.5,0.2-1.1,0-1.6
	c-0.3-0.6-0.6-1.3-1-1.9S1,23.9,1,23.2c0-3.1,0.2-6.1,1-9c0.6-2.3,1.7-4.4,3-6.4c0.2-0.3,0.4-0.7,0.6-1.1c0.1-0.4,0.3-0.8-0.2-1
	C5.3,5.6,5.2,5.3,5.2,5.1c0-0.8,0-1.5,0-2.3c0-0.9,0.7-1.6,1.6-1.7c1.6,0,3.2,0,4.8,0c1,0,1.7,0.8,1.7,1.8c0,0.7,0,1.5,0,2.2
	c0,0.2,0,0.4-0.1,0.4c-0.4,0.3-0.3,0.7-0.2,1.1c0.1,0.3,0.3,0.7,0.5,1c1.6,2.4,2.8,5,3.4,7.9c0.5,2.6,0.8,5.3,0.6,8
	c0,0.5-0.2,1-0.4,1.5c-0.3,0.6-0.6,1.2-0.9,1.8c-0.4,0.7-0.4,1.4,0,2.1c0.2,0.5,0.5,1,0.7,1.5c0.5,1,0.7,2,0.7,3.1
	c0,4.3,0,8.5,0,12.8c0,1-0.2,1.9-0.7,2.8c-0.5,1-1.4,1.6-2.6,1.5c-0.8-0.1-1.5-0.3-2.2-0.4c-0.2,0-0.4,0-0.6,0.1
	c-1.5,1-2.9,1-4.4,0.1c-0.3-0.2-0.5-0.2-0.8-0.1c-0.8,0.3-1.7,0.4-2.6,0.3C2.9,50.5,2.4,50,2,49.3c-0.5-0.9-0.8-1.9-0.8-2.9
	C1,44.1,1,39.5,0.9,39.5z"/>
<path class="st1" d="M24.1,36.2c-5.6,2.9-12.7,1.3-16.4-4c-4.2-5.8-2.8-13.9,3-18.1s13.9-2.8,18.1,3c3.7,5.2,3,12.2-1.3,16.6
	l-0.1,0.1l0.1,0.1L42,54.2c0.7,0.9,0.4,2.2-0.5,2.8l0,0c-0.9,0.7-2.2,0.4-2.8-0.5L24.1,36.2L24.1,36.2z M24,32.8
	C19.5,36,13.3,35,10.1,30.5s-2.2-10.7,2.3-13.9s10.7-2.2,13.9,2.3C29.5,23.3,28.5,29.6,24,32.8z"/>
</svg>
