<svg width="36" height="36" viewBox="0 0 36 36" fill="none" xmlns="http://www.w3.org/2000/svg">
<circle cx="17.9519" cy="17.9519" r="16.8879" transform="rotate(-90 17.9519 17.9519)" stroke="#36B0FC" stroke-width="0.823799"/>
<path d="M18.609 26.3606C18.3757 26.3802 18.1357 26.3007 17.9572 26.1222L10.2413 18.4063C9.91957 18.0846 9.91957 17.563 10.2413 17.2413C10.563 16.9196 11.0846 16.9196 11.4063 17.2413L18.568 24.403L25.5316 17.4393C25.8533 17.1176 26.3749 17.1176 26.6967 17.4393C27.0184 17.761 27.0184 18.2826 26.6967 18.6043L19.1816 26.1194C19.0233 26.2777 18.8165 26.3581 18.609 26.3606Z" fill="#36B0FC"/>
<path d="M18.609 20.3606C18.3757 20.3802 18.1357 20.3007 17.9572 20.1222L10.2413 12.4063C9.91957 12.0846 9.91957 11.563 10.2413 11.2413C10.563 10.9196 11.0846 10.9196 11.4063 11.2413L18.568 18.403L25.5316 11.4393C25.8533 11.1176 26.3749 11.1176 26.6967 11.4393C27.0184 11.761 27.0184 12.2826 26.6967 12.6043L19.1816 20.1194C19.0233 20.2777 18.8165 20.3581 18.609 20.3606Z" fill="#36B0FC"/>
</svg>
