<svg width="83" height="176" viewBox="0 0 83 176" fill="none" xmlns="http://www.w3.org/2000/svg">
<g clip-path="url(#clip0_4727_636)">
<path d="M79.7004 16.4843L74.6075 36.911L63.4709 34.1343L53.3079 74.8958L10.5935 64.246L20.7565 23.4844L10.9349 21.0356L16.0278 0.608918L40.0054 6.58721C40.2694 7.08392 40.4919 7.55674 40.7207 8.00946C42.0552 10.7338 42.9371 12.5323 47.126 13.5767C51.5203 14.6723 53.3475 13.3975 56.1132 11.4692C56.4082 11.265 56.708 11.047 57.0327 10.8326L79.7004 16.4843ZM80.3096 16.1186L56.9372 10.2911C53.4837 12.628 51.9562 14.2674 47.2478 13.0935C42.5393 11.9195 42.2974 9.83887 40.3452 6.15432L15.6616 0L10.3257 21.4013L20.1473 23.8501L9.98429 64.6117L53.6728 75.5044L63.8358 34.7429L74.9737 37.5199L80.3096 16.1186Z" fill="#1D1D1B"/>
<path d="M24.0496 47.7445L27.137 48.5075C27.2421 48.5412 27.3563 48.532 27.4547 48.4818C27.5531 48.4317 27.6275 48.3448 27.662 48.24L27.8115 47.6404C27.8293 47.5315 27.8036 47.4199 27.7398 47.3297C27.676 47.2396 27.5794 47.1781 27.4706 47.1584L24.3833 46.3954C24.278 46.3618 24.1636 46.3709 24.0652 46.4209C23.9666 46.471 23.8918 46.5577 23.8569 46.6626L23.7075 47.2622C23.6892 47.3714 23.7149 47.4834 23.7791 47.5738C23.8432 47.6642 23.9404 47.7256 24.0496 47.7445Z" fill="#479799"/>
<path d="M27.2935 48.6468L23.8458 47.7954L21.2422 54.0229L26.6987 55.3725L27.2935 48.6468Z" fill="#479799"/>
<path d="M21.044 54.4967C21.0291 54.5336 21.0233 54.5735 21.0271 54.6132C21.031 54.6528 21.0442 54.6909 21.0659 54.7243C21.1131 54.7985 21.1876 54.8512 21.2734 54.8709L26.2755 56.1073C26.3608 56.1296 26.4514 56.1176 26.5279 56.074C26.5628 56.0548 26.5924 56.0273 26.6141 55.994C26.636 55.9607 26.6492 55.9225 26.6528 55.8829L26.6889 55.4773L21.1965 54.1187L21.044 54.4967Z" fill="#479799"/>
<path d="M28.5294 47.4806C28.5398 47.4748 28.5517 47.4725 28.5635 47.4742L31.4849 48.1959C31.497 48.1997 31.5069 48.208 31.513 48.2191C31.5297 48.2496 31.5394 48.2834 31.5413 48.3182C31.5431 48.3528 31.5373 48.3875 31.524 48.4197L31.459 48.5878L28.4049 47.8331L28.4251 47.6538C28.4287 47.6191 28.4397 47.5855 28.4578 47.5555C28.4758 47.5256 28.5003 47.4999 28.5294 47.4806ZM28.851 55.2844L27.596 54.9715L28.3928 47.9249L31.4227 48.6736L28.851 55.2844ZM28.5835 56.3573C28.5775 56.3752 28.568 56.3918 28.5556 56.406C28.5431 56.4203 28.528 56.4318 28.511 56.4402C28.494 56.4485 28.4755 56.4536 28.4567 56.4547C28.4378 56.4559 28.4189 56.4534 28.401 56.4473L27.395 56.1965C27.3699 56.1925 27.3476 56.179 27.3323 56.1587C27.3171 56.1386 27.3104 56.1132 27.3135 56.0881L27.568 55.0675L28.8268 55.3814L28.5835 56.3573Z" fill="#229DD8"/>
<path d="M26.249 60.7495L24.9809 65.8845C25.4576 66.1196 25.9543 66.3115 26.4653 66.4579C28.2552 66.8933 32.4762 66.7371 32.4762 66.7371C32.5076 66.7301 32.5362 66.7145 32.559 66.6917C32.5817 66.6691 32.5974 66.6405 32.6044 66.6091L33.3324 63.6619C33.3411 63.6306 33.3406 63.5976 33.331 63.5666C33.3214 63.5357 33.3031 63.5081 33.2784 63.4872C33.2784 63.4872 29.6142 61.3826 27.8304 60.9337C27.3098 60.8255 26.7806 60.7637 26.249 60.7495Z" fill="#FF8300"/>
<path d="M25.9455 60.7648C25.2831 60.8164 24.6074 61.0138 24.4463 61.578C24.4365 61.6175 24.2698 62.286 24.1066 62.9404C23.9435 63.5949 23.7768 64.2633 23.7669 64.3029C23.6458 64.8757 24.153 65.3653 24.7139 65.7206L25.9455 60.7648Z" fill="#FF8300"/>
<path d="M19.3831 57.2697C19.6315 56.2354 19.1102 55.6447 18.7123 55.2555L15.8563 54.5435C15.3165 54.7015 14.5873 54.9831 14.3248 56.0139L14.3198 56.0343L12.7285 62.4763C12.6423 62.8221 12.955 63.1995 13.4086 63.3112L16.7972 64.1493C17.2568 64.2639 17.7031 64.073 17.788 63.727L19.3793 57.285C19.3811 57.28 19.3823 57.2749 19.3831 57.2697Z" fill="#479799"/>
<path d="M19.3345 53.2762L16.0534 52.4581C15.9991 52.4446 15.9441 52.4776 15.9306 52.5318L15.5241 54.1622C15.5106 54.2164 15.5436 54.2714 15.5979 54.2849L18.879 55.103C18.9333 55.1165 18.9883 55.0835 19.0018 55.0293L19.4083 53.3989C19.4218 53.3447 19.3888 53.2897 19.3345 53.2762Z" fill="#479799"/>
<path d="M21.9455 57.239L21.956 57.1969C21.9803 57.0967 22.0408 57.009 22.1259 56.9506C22.285 56.8727 22.4665 56.8534 22.6384 56.8963C22.8104 56.9392 22.9616 57.0414 23.0655 57.1849C23.1141 57.2762 23.1264 57.3824 23.0999 57.4821L23.0897 57.5229C23.0875 57.5346 23.0846 57.5461 23.0811 57.5574L24.9285 58.018C25.121 56.528 24.4929 56.0123 23.7974 55.8105C23.3777 55.6882 22.5245 55.4769 22.0981 55.3868C21.3918 55.2446 20.6015 55.4066 20.0886 56.8167L21.9449 57.2795L21.9455 57.239Z" fill="#229DD8"/>
<path d="M20.0134 57.0582C19.8514 57.5688 19.7387 58.0939 19.6768 58.626C19.2722 61.7771 18.9549 64.4745 18.9549 64.4745C18.9555 64.5478 18.9819 64.6187 19.0294 64.6746C19.0769 64.7305 19.1426 64.768 19.2149 64.7805L21.9751 65.4687C22.0455 65.4912 22.1214 65.4885 22.1898 65.461C22.2583 65.4336 22.315 65.3831 22.3503 65.3183C22.3503 65.3183 23.3954 62.6548 24.4439 59.8092C24.6354 59.307 24.7772 58.7874 24.8674 58.2576L20.0134 57.0582Z" fill="#229DD8"/>
<path d="M19.1778 46.5949C19.3916 46.5286 19.6194 46.5222 19.8367 46.5764C20.054 46.6306 20.2521 46.7431 20.4098 46.9021C20.4416 46.9448 20.4634 46.9942 20.4738 47.0465C20.4843 47.0987 20.4829 47.1527 20.47 47.2044L22.8957 47.8092C23.0518 46.2966 22.1751 45.8043 21.2578 45.5458C20.7031 45.3885 19.5828 45.1119 19.0211 44.9881C18.0926 44.7905 17.0967 44.8199 16.5407 46.2341L18.9664 46.8389C18.9802 46.7847 19.0065 46.7343 19.0432 46.692C19.0799 46.6496 19.1259 46.6164 19.1778 46.5949Z" fill="#FF8300"/>
<path d="M16.5038 46.3658C16.3346 46.8752 16.2311 47.4039 16.1955 47.9394C15.9339 51.0774 15.9939 51.5273 15.9939 51.5273C15.9838 51.6603 16.1467 51.812 16.3573 51.8646L20.4357 52.8733C20.6451 52.9255 20.8617 52.867 20.9168 52.7439C20.9168 52.7439 21.2627 52.2543 22.4226 49.4784C22.6383 48.9872 22.7895 48.4702 22.8726 47.9402L16.5038 46.3658Z" fill="#FF8300"/>
<path d="M30.2511 60.9546C31.2884 61.2051 31.6893 60.5327 31.9598 60.3616L32.2778 59.0859C32.1168 58.8073 32.0769 58.0263 31.0412 57.764L31.0297 57.7612L26.2791 56.5876C26.1457 56.5647 26.0086 56.5952 25.8975 56.6725C25.7864 56.7497 25.7101 56.8675 25.6853 57.0005L25.1522 59.1386C25.1125 59.2678 25.1253 59.4075 25.1877 59.5275C25.2501 59.6475 25.3571 59.7382 25.4858 59.78L30.2361 60.9549L30.2511 60.9546Z" fill="#479799"/>
<path d="M32.8501 59.232L32.3481 59.1081L32.0381 60.3641L32.5401 60.4881L32.8501 59.232Z" fill="#479799"/>
<path d="M33.8861 59.4887C33.9206 59.4961 33.9534 59.5102 33.9824 59.5306C34.0114 59.5508 34.036 59.5768 34.0547 59.6066C34.0734 59.6366 34.0859 59.6701 34.0914 59.7049C34.0969 59.7398 34.0953 59.7754 34.0868 59.8097L33.9004 60.5573C33.8919 60.5915 33.8766 60.6236 33.8555 60.6517C33.8343 60.6799 33.8077 60.7034 33.7772 60.7212C33.7468 60.7388 33.7131 60.7502 33.6782 60.7546C33.6432 60.759 33.6077 60.7564 33.5738 60.7469L32.6137 60.5075L32.9267 59.2522L33.8861 59.4887Z" fill="#479799"/>
<path d="M35.4375 51.4281L31.9209 50.5594C31.8521 50.5413 31.7794 50.5454 31.7131 50.5713L31.3131 50.729C31.2724 50.7443 31.2361 50.7697 31.2076 50.8025C31.1791 50.8353 31.1591 50.8747 31.1495 50.9172L30.8194 52.6601C30.8123 52.704 30.8163 52.7489 30.8313 52.7909C30.8462 52.8327 30.8715 52.8701 30.9048 52.8996L31.1488 53.1338C31.1822 53.1637 31.2073 53.2015 31.2219 53.2438C31.2365 53.2862 31.2401 53.3315 31.2323 53.3755L30.9345 54.8473C30.9241 54.8916 30.9024 54.9324 30.8715 54.9658C30.8406 54.9993 30.8015 55.0239 30.7582 55.0378L30.4946 55.1266C30.4498 55.1394 30.4093 55.1638 30.377 55.1975C30.3449 55.2311 30.3222 55.2727 30.3113 55.318L30.0829 56.528C30.0747 56.6025 30.0951 56.6775 30.14 56.7376C30.1848 56.7978 30.2508 56.8388 30.3247 56.8525L33.9269 57.7425C33.9993 57.7652 34.0777 57.7592 34.146 57.7257C34.2141 57.6923 34.2668 57.634 34.2931 57.5628L34.6524 56.3881C34.6644 56.3429 34.664 56.2952 34.6514 56.2502C34.6387 56.2052 34.6144 56.1643 34.5807 56.1318L34.3945 55.9431C34.3609 55.9107 34.3366 55.8701 34.324 55.8252C34.3114 55.7805 34.3109 55.7331 34.3225 55.688L34.7496 54.2308C34.7633 54.1871 34.7883 54.1478 34.8219 54.1167C34.8557 54.0857 34.8968 54.064 34.9415 54.0537L35.2555 53.9694C35.2995 53.9591 35.3401 53.9375 35.3734 53.9069C35.4067 53.8762 35.4315 53.8375 35.4455 53.7946L35.9633 52.1039C35.9758 52.0613 35.9769 52.0163 35.9664 51.9733C35.9559 51.9302 35.9343 51.8907 35.9038 51.8587L35.6074 51.5246C35.5609 51.4772 35.502 51.4439 35.4375 51.4281Z" fill="#229DD8"/>
<path d="M33.012 48.81C33.0233 48.7747 33.0413 48.7419 33.0652 48.7136C33.0892 48.6853 33.1185 48.662 33.1514 48.645C33.1843 48.6281 33.2204 48.6177 33.2573 48.6148C33.2943 48.6118 33.3315 48.616 33.3667 48.6274L35.0724 49.0527C35.1089 49.0592 35.1437 49.0729 35.1749 49.0929C35.2062 49.1128 35.2331 49.1389 35.2542 49.1693C35.2753 49.1997 35.2902 49.2341 35.2982 49.2703C35.3059 49.3066 35.3065 49.344 35.2999 49.3804L34.9468 50.7964L32.659 50.226L33.012 48.81Z" fill="#229DD8"/>
<path d="M34.7879 50.8203L32.7876 50.3256L32.6982 50.6868L34.6985 51.1814L34.7879 50.8203Z" fill="#229DD8"/>
<path d="M44.4818 52.7955L47.5691 53.5585C47.6744 53.5916 47.7884 53.582 47.8868 53.5322C47.9852 53.4822 48.0601 53.3958 48.0955 53.2914L48.245 52.6918C48.2628 52.5828 48.237 52.4713 48.1733 52.3811C48.1095 52.2909 48.0128 52.2294 47.9041 52.2098L44.8183 51.4404C44.713 51.4063 44.5985 51.4153 44.4999 51.4654C44.4013 51.5154 44.3265 51.6025 44.292 51.7076L44.1425 52.3072C44.1227 52.4169 44.1474 52.5299 44.2111 52.6214C44.2747 52.713 44.372 52.7756 44.4818 52.7955Z" fill="#479799"/>
<path d="M47.7256 53.6976L44.2779 52.8461L41.6743 59.0737L47.1312 60.4221L47.7256 53.6976Z" fill="#479799"/>
<path d="M41.4749 59.5526C41.46 59.5896 41.4543 59.6295 41.4581 59.6692C41.4619 59.7087 41.4752 59.7469 41.4968 59.7803C41.5453 59.854 41.6199 59.9065 41.7056 59.9272L46.7064 61.1632C46.7922 61.1854 46.883 61.1736 46.9601 61.1303C46.9946 61.1105 47.0239 61.0829 47.0456 61.0497C47.0673 61.0165 47.0808 60.9786 47.085 60.9392L47.1201 60.5319L41.6275 59.1747L41.4749 59.5526Z" fill="#479799"/>
<path d="M48.9616 52.5315C48.9723 52.5255 48.9849 52.5234 48.997 52.5255L51.9171 53.2468C51.9292 53.2506 51.9392 53.2589 51.9452 53.27C51.9619 53.3005 51.9716 53.3343 51.9735 53.3691C51.9755 53.4039 51.9696 53.4384 51.9562 53.4706L51.8913 53.6387L48.8384 52.8843L48.859 52.7038C48.8627 52.6693 48.8738 52.6362 48.8915 52.6065C48.9092 52.5768 48.9331 52.5511 48.9616 52.5315ZM49.2845 60.3356L48.0282 60.0224L48.8302 52.9771L51.8601 53.7258L49.2845 60.3356ZM49.017 61.4085C49.0112 61.4264 49.0019 61.443 48.9895 61.4572C48.9773 61.4715 48.9622 61.4832 48.9453 61.4916C48.9286 61.5 48.9101 61.5049 48.8914 61.5062C48.8725 61.5074 48.8537 61.5049 48.8358 61.4988L47.8285 61.2477C47.8035 61.2438 47.781 61.2303 47.7658 61.21C47.7506 61.1898 47.7439 61.1644 47.7471 61.1393L48.0015 60.1187L49.2603 60.4326L49.017 61.4085Z" fill="#229DD8"/>
<path d="M46.6812 65.8007L45.4131 70.9357C45.8897 71.1708 46.3865 71.3627 46.8974 71.509C48.6873 71.9445 52.9071 71.7879 52.9071 71.7879C52.9388 71.7813 52.9679 71.7655 52.9907 71.7425C53.0135 71.7196 53.0292 71.6904 53.0356 71.6587L53.7668 68.715C53.7755 68.684 53.7752 68.651 53.7658 68.6202C53.7565 68.5893 53.7385 68.5616 53.714 68.5406C53.714 68.5406 50.0493 66.4331 48.2644 65.9881C47.7434 65.878 47.2135 65.8152 46.6812 65.8007Z" fill="#FF8300"/>
<path d="M46.3777 65.8155C45.7153 65.8672 45.0396 66.0646 44.8786 66.6288C44.8687 66.6683 44.7021 67.3368 44.5389 67.9912C44.3757 68.6457 44.2091 69.3141 44.1992 69.3537C44.0794 69.9268 44.5852 70.416 45.1478 70.7704L46.3777 65.8155Z" fill="#FF8300"/>
<path d="M39.8152 62.3202C40.0636 61.2859 39.5487 60.6968 39.1457 60.3064L36.2884 59.594C35.7499 59.7524 35.0207 60.034 34.7582 61.0648C34.7566 61.0698 34.7553 61.0749 34.7544 61.0801L33.1632 67.5221C33.077 67.8678 33.3897 68.2452 33.8445 68.3573L37.2335 69.1941C37.6918 69.3084 38.1378 69.1188 38.224 68.7731L39.8139 62.3307C39.8146 62.3272 39.815 62.3238 39.8152 62.3202Z" fill="#479799"/>
<path d="M39.8876 58.3181L36.6046 57.5074C36.5503 57.494 36.4954 57.5271 36.482 57.5815L36.0792 59.2128C36.0657 59.267 36.0989 59.3219 36.1532 59.3353L39.4362 60.1459C39.4905 60.1593 39.5454 60.1262 39.5588 60.0719L39.9616 58.4406C39.975 58.3864 39.9419 58.3315 39.8876 58.3181Z" fill="#479799"/>
<path d="M42.3777 62.2898L42.3882 62.2477C42.4119 62.1472 42.4726 62.0592 42.5581 62.0014C42.717 61.9238 42.8983 61.9047 43.0699 61.9475C43.2416 61.9903 43.3926 62.0923 43.4965 62.2354C43.5451 62.3266 43.5577 62.4328 43.5322 62.5329L43.5217 62.575C43.5185 62.5878 43.5159 62.598 43.5134 62.6082L45.3608 63.0688C45.5532 61.5788 44.9251 61.0631 44.2284 60.8609C43.8086 60.7387 42.9555 60.5273 42.5304 60.4376C41.8231 60.2938 41.0338 60.4574 40.5208 61.8675L42.3759 62.33L42.3777 62.2898Z" fill="#229DD8"/>
<path d="M40.4508 62.1101C40.2875 62.6205 40.1747 63.1456 40.1141 63.6779C39.7095 66.8291 39.391 69.5261 39.391 69.5261C39.3922 69.5993 39.4186 69.6698 39.4661 69.7257C39.5135 69.7816 39.5789 69.8191 39.651 69.8321L42.4112 70.5203C42.4816 70.5429 42.5575 70.5401 42.6259 70.5126C42.6945 70.4852 42.7511 70.4347 42.7864 70.3699C42.7864 70.3699 43.8328 67.7067 44.88 64.8608C45.072 64.3611 45.2142 63.8438 45.3045 63.3162L40.4508 62.1101Z" fill="#229DD8"/>
<path d="M39.6113 51.6461C39.8249 51.5797 40.0526 51.5732 40.2696 51.6273C40.4867 51.6814 40.6846 51.794 40.8421 51.9529C40.8753 51.9953 40.8985 52.0446 40.9101 52.0972C40.9215 52.1498 40.9211 52.2045 40.9087 52.2568L43.3344 52.8616C43.4902 51.3503 42.6135 50.858 41.6962 50.5995C41.1427 50.4425 40.0211 50.1656 39.4594 50.0418C38.531 49.8442 37.5363 49.874 36.9793 51.2866L39.4051 51.8914C39.4183 51.8374 39.4438 51.7872 39.4795 51.7446C39.5153 51.7021 39.5604 51.6683 39.6113 51.6461Z" fill="#FF8300"/>
<path d="M36.936 51.417C36.7673 51.9264 36.6642 52.4553 36.629 52.9909C36.3661 56.1286 36.4274 56.5788 36.4274 56.5788C36.416 56.7115 36.5801 56.8635 36.7908 56.916L40.8679 57.9245C41.0786 57.977 41.2952 57.9185 41.349 57.7951C41.349 57.7951 41.6949 57.3054 42.8548 54.5296C43.0702 54.0383 43.2218 53.5215 43.306 52.9917L36.936 51.417Z" fill="#FF8300"/>
<path d="M50.6826 66.0083C51.7212 66.2591 52.1208 65.5864 52.3916 65.4141L52.7097 64.1384C52.5499 63.8601 52.5087 63.0788 51.473 62.8165L51.4628 62.814L46.711 61.64C46.5776 61.6168 46.4405 61.6473 46.3295 61.7247C46.2184 61.802 46.1426 61.9201 46.1184 62.0533L45.5853 64.1913C45.5449 64.3206 45.5571 64.4605 45.6192 64.5807C45.6815 64.701 45.7886 64.7919 45.9174 64.8338L50.668 66.0074L50.6826 66.0083Z" fill="#479799"/>
<path d="M53.2823 64.2828L52.7803 64.1587L52.4702 65.4148L52.9722 65.5387L53.2823 64.2828Z" fill="#479799"/>
<path d="M54.3187 64.5383C54.3532 64.5457 54.386 64.5599 54.415 64.5802C54.444 64.6005 54.4684 64.6264 54.4873 64.6563C54.506 64.6863 54.5184 64.7197 54.5239 64.7546C54.5295 64.7894 54.5279 64.8251 54.5193 64.8594L54.333 65.6069C54.3244 65.6413 54.3091 65.6734 54.2878 65.7016C54.2665 65.7298 54.2399 65.7535 54.2093 65.7711C54.1786 65.7888 54.1448 65.8002 54.1097 65.8044C54.0746 65.8088 54.039 65.8059 54.0051 65.7962L53.045 65.5568L53.358 64.3015L54.3187 64.5383Z" fill="#479799"/>
<path d="M55.8696 56.4788L52.3533 55.6089C52.2842 55.5921 52.2116 55.5966 52.1452 55.6221L51.7452 55.7798C51.7046 55.7951 51.6685 55.8201 51.6401 55.8527C51.6116 55.8854 51.5917 55.9246 51.582 55.9667L51.2528 57.7112C51.2455 57.7549 51.2494 57.7998 51.2641 57.8415C51.2789 57.8834 51.3039 57.9208 51.3369 57.9503L51.5812 58.1833C51.6147 58.2134 51.6399 58.2515 51.6545 58.294C51.669 58.3365 51.6724 58.3821 51.6644 58.4263L51.3678 59.8984C51.3567 59.9432 51.3339 59.9841 51.3019 60.0173C51.2697 60.0505 51.2295 60.0746 51.1852 60.0873L50.9216 60.1761C50.8779 60.19 50.8384 60.2151 50.8075 60.249C50.7763 60.2829 50.7548 60.3243 50.7447 60.3691L50.5153 61.5775C50.5068 61.6522 50.5272 61.7272 50.5721 61.7876C50.617 61.8478 50.6831 61.8887 50.7571 61.902L54.3603 62.7936C54.4326 62.8162 54.5109 62.8101 54.5789 62.7767C54.6468 62.7431 54.6992 62.6847 54.7252 62.6136L55.0858 61.4392C55.0977 61.394 55.0974 61.3465 55.0848 61.3013C55.0721 61.2563 55.0477 61.2154 55.0141 61.1829L54.8304 61.0002C54.7969 60.9679 54.7726 60.9273 54.7599 60.8824C54.7473 60.8376 54.7468 60.7902 54.7584 60.7452L55.1845 59.2863C55.1985 59.2429 55.2235 59.2039 55.2571 59.1731C55.2907 59.1424 55.3317 59.1207 55.3762 59.1106L55.6901 59.0262C55.7344 59.0161 55.7753 58.9947 55.8088 58.9642C55.8423 58.9335 55.8673 58.8948 55.8814 58.8517L56.3992 57.161C56.4106 57.1183 56.4109 57.0734 56.4003 57.0305C56.3896 56.9876 56.3684 56.948 56.3384 56.9155L56.042 56.5814C55.996 56.5308 55.9361 56.4951 55.8696 56.4788Z" fill="#229DD8"/>
<path d="M53.4445 53.8651C53.4556 53.8298 53.4736 53.797 53.4973 53.7688C53.5211 53.7404 53.5502 53.7171 53.583 53.7001C53.6159 53.6831 53.6518 53.6728 53.6887 53.6696C53.7256 53.6667 53.7627 53.6709 53.798 53.6823L55.5049 54.1078C55.5784 54.1213 55.6437 54.1635 55.6863 54.2248C55.7289 54.2862 55.7454 54.362 55.7324 54.4356L55.3793 55.8516L53.0915 55.2812L53.4445 53.8651Z" fill="#229DD8"/>
<path d="M55.2209 55.873L53.2206 55.3783L53.1314 55.7396L55.1316 56.2342L55.2209 55.873Z" fill="#229DD8"/>
<path d="M28.9103 28.0597L31.996 28.8291C32.1013 28.8628 32.2157 28.8536 32.3141 28.8036C32.4127 28.7536 32.4875 28.6668 32.5223 28.5619L32.6737 27.9547C32.6915 27.8458 32.6657 27.7344 32.6018 27.6443C32.538 27.5544 32.4412 27.4932 32.3325 27.474L29.2455 26.7043C29.1404 26.6706 29.0262 26.6798 28.9277 26.7299C28.8294 26.7799 28.755 26.8669 28.7205 26.9717L28.571 27.5713C28.5611 27.6256 28.562 27.6814 28.5736 27.7354C28.5853 27.7894 28.6076 27.8405 28.6391 27.8859C28.6707 27.9313 28.7108 27.97 28.7573 27.9998C28.8038 28.0297 28.8559 28.0499 28.9103 28.0597Z" fill="#479799"/>
<path d="M32.1537 28.9628L28.7064 28.11L26.1024 34.3388L31.5593 35.6872L32.1537 28.9628Z" fill="#479799"/>
<path d="M25.9047 34.8116C25.8896 34.8485 25.8838 34.8886 25.8877 34.9281C25.8915 34.9678 25.9047 35.006 25.9265 35.0393C25.9741 35.114 26.0488 35.1672 26.135 35.1875L31.1358 36.4235C31.2214 36.4457 31.3124 36.4339 31.3895 36.3905C31.4242 36.3709 31.4536 36.343 31.4752 36.3095C31.4967 36.2759 31.5099 36.2376 31.5135 36.1979L31.5495 35.7922L26.0607 34.4359L25.9047 34.8116Z" fill="#479799"/>
<path d="M33.3896 27.7968C33.4003 27.7904 33.4129 27.7877 33.4254 27.7894L36.3439 28.5171C36.3555 28.521 36.3657 28.5288 36.3723 28.5391C36.389 28.5697 36.3986 28.6035 36.4005 28.6381C36.4023 28.6729 36.3965 28.7075 36.3833 28.7397L36.318 28.909L33.2655 28.148L33.2861 27.9675C33.2896 27.9331 33.3007 27.9 33.3187 27.8704C33.3365 27.8409 33.3608 27.8158 33.3896 27.7968ZM33.7125 35.6009L32.4563 35.2877L33.2553 28.243L36.2852 28.9917L33.7125 35.6009ZM33.4451 36.6738C33.4391 36.6917 33.4295 36.7083 33.4172 36.7225C33.4047 36.7367 33.3896 36.7484 33.3726 36.7567C33.3556 36.765 33.3371 36.77 33.3182 36.7712C33.2994 36.7724 33.2805 36.7699 33.2626 36.7638L32.2566 36.5129C32.2441 36.5113 32.2321 36.5073 32.2213 36.501C32.2104 36.4948 32.2009 36.4865 32.1932 36.4764C32.1857 36.4665 32.1801 36.4551 32.1769 36.443C32.1738 36.4309 32.173 36.4183 32.1748 36.4058L32.4292 35.3853L33.6881 35.6991L33.4451 36.6738Z" fill="#229DD8"/>
<path d="M31.1093 41.0659L29.8412 46.201C30.3178 46.436 30.8145 46.6279 31.3255 46.7743C33.1157 47.2084 37.3364 47.0535 37.3364 47.0535C37.3679 47.0464 37.3968 47.0305 37.4195 47.0075C37.4423 46.9846 37.458 46.9557 37.4649 46.9243L38.1917 43.9767C38.2004 43.9457 38.1998 43.9128 38.1903 43.8819C38.1806 43.8512 38.1622 43.8238 38.1373 43.8033C38.1373 43.8033 34.4732 41.6987 32.6893 41.2498C32.1693 41.141 31.6404 41.0795 31.1093 41.0659Z" fill="#FF8300"/>
<path d="M30.8061 41.0797C30.1433 41.1326 29.4676 41.33 29.3069 41.8929C29.2971 41.9325 29.1304 42.6009 28.9672 43.2554C28.8041 43.9098 28.6374 44.5783 28.6275 44.6178C28.5074 45.1922 29.0133 45.6815 29.5758 46.0358L30.8061 41.0797Z" fill="#FF8300"/>
<path d="M24.2437 37.5845C24.4917 36.5515 23.9768 35.9625 23.5738 35.572L20.7166 34.8596C20.178 35.018 19.4475 35.2993 19.1867 36.3291C19.185 36.3341 19.1837 36.3392 19.1829 36.3444L17.5913 42.7877C17.5054 43.1322 17.8181 43.5096 18.2726 43.6229L21.6616 44.4598C22.1199 44.574 22.5659 44.3844 22.6508 44.0384L24.2424 37.5951C24.243 37.5916 24.2435 37.588 24.2437 37.5845Z" fill="#479799"/>
<path d="M24.3157 33.5837L21.0327 32.7732C20.9784 32.7598 20.9235 32.7928 20.9101 32.8471L20.5073 34.4784C20.4939 34.5328 20.5271 34.5876 20.5814 34.601L23.8643 35.4116C23.9187 35.425 23.9736 35.3919 23.987 35.3377L24.3898 33.7064C24.4032 33.652 24.37 33.5971 24.3157 33.5837Z" fill="#479799"/>
<path d="M26.8058 37.5552L26.8163 37.5131C26.84 37.4127 26.9007 37.3247 26.9861 37.2669C27.0631 37.2232 27.1482 37.1956 27.2361 37.1861C27.3241 37.1766 27.413 37.1852 27.4976 37.2115C27.5845 37.2281 27.6671 37.2621 27.7407 37.3114C27.8141 37.3607 27.8769 37.4242 27.9252 37.4983C27.9731 37.5898 27.9859 37.6957 27.9608 37.7958L27.9503 37.8379C27.9489 37.8492 27.9461 37.8604 27.942 37.871L29.7894 38.3317C29.9816 36.843 29.3538 36.326 28.658 36.1254C28.2383 36.0032 27.3851 35.7918 26.96 35.7021C26.2527 35.5582 25.4634 35.7219 24.9492 37.1316L26.8055 37.5944L26.8058 37.5552Z" fill="#229DD8"/>
<path d="M24.8775 37.3752C24.7144 37.8851 24.6014 38.4096 24.5399 38.9414C24.1366 42.0929 23.818 44.7899 23.818 44.7899C23.8186 44.8633 23.8448 44.9344 23.8922 44.9905C23.9397 45.0466 24.0054 45.0844 24.0777 45.0972L26.8379 45.7854C26.9082 45.8076 26.984 45.8047 27.0524 45.7773C27.1208 45.75 27.1777 45.6996 27.2131 45.635C27.2131 45.635 28.2598 42.9651 29.3074 40.1233C29.4988 39.6231 29.6411 39.1053 29.7321 38.5774L24.8775 37.3752Z" fill="#229DD8"/>
<path d="M21.3388 29.3289C21.2677 29.1357 21.2562 28.9257 21.306 28.7259C21.3558 28.5261 21.4645 28.346 21.6181 28.2088C21.6617 28.1781 21.7112 28.157 21.7636 28.1466C21.8159 28.1363 21.8698 28.1372 21.9218 28.1491L22.4708 25.9472C20.9619 25.7715 20.4906 26.5632 20.2526 27.3982C20.1075 27.904 19.8556 28.9252 19.7437 29.4393C19.5666 30.2854 19.6175 31.1965 21.0364 31.7332L21.5879 29.5211C21.5349 29.5091 21.4852 29.4856 21.4421 29.4525C21.3991 29.4193 21.3639 29.3772 21.3388 29.3289Z" fill="#FF8300"/>
<path d="M21.1653 31.7709C21.6757 31.9361 22.2037 32.0419 22.7384 32.0859C25.8675 32.3932 26.3146 32.3461 26.3146 32.3461C26.447 32.3588 26.5946 32.2127 26.6423 32.0213L27.5631 28.3065C27.6108 28.1151 27.5494 27.9155 27.4249 27.8655C27.4249 27.8655 26.9304 27.5376 24.1423 26.417C23.6476 26.2099 23.1304 26.0609 22.6013 25.9731L21.1653 31.7709Z" fill="#FF8300"/>
<path d="M37.3832 41.8348C38.8718 42.1951 39.3682 41.5478 39.7334 41.3991L40.0515 40.1234C39.7972 39.8215 39.6613 39.0179 38.1749 38.6433L38.1583 38.6391L31.3423 36.9546C30.9772 36.8636 30.619 37.0277 30.5481 37.3176L30.0153 39.4544C29.9431 39.744 30.1839 40.0561 30.5494 40.1458L37.3666 41.8306L37.3832 41.8348Z" fill="#479799"/>
<path d="M40.8717 40.3304L40.1512 40.1525L39.8412 41.4086L40.5616 41.5864L40.8717 40.3304Z" fill="#479799"/>
<path d="M41.8137 40.5614C41.8769 40.5811 41.9299 40.6249 41.9607 40.6834C41.9917 40.7419 41.9981 40.8103 41.9787 40.8735L41.7923 41.6211C41.7864 41.6534 41.7743 41.6841 41.7564 41.7116C41.7386 41.739 41.7155 41.7626 41.6883 41.7812C41.6613 41.7997 41.6309 41.8126 41.5987 41.8192C41.5666 41.8257 41.5336 41.8258 41.5014 41.8196L40.6703 41.6123L40.9836 40.3558L41.8137 40.5614Z" fill="#479799"/>
<path d="M40.2927 31.743L36.7764 30.873C36.7075 30.8555 36.635 30.8596 36.5686 30.8849L36.1683 31.0439C36.1277 31.0593 36.0916 31.0843 36.0632 31.1169C36.0347 31.1495 36.0148 31.1887 36.0051 31.2309L35.6762 32.9741C35.669 33.0178 35.6728 33.0627 35.6875 33.1044C35.7023 33.1463 35.7273 33.1837 35.7603 33.2132L36.0043 33.4475C36.0377 33.4774 36.0628 33.5152 36.0774 33.5574C36.092 33.5998 36.0956 33.6452 36.0878 33.6892L35.7897 35.1623C35.7783 35.2067 35.7556 35.2474 35.7235 35.2803C35.6915 35.3133 35.6514 35.3371 35.6073 35.3499L35.3435 35.4399C35.2992 35.4531 35.2595 35.4781 35.2283 35.512C35.1971 35.546 35.1757 35.5878 35.1665 35.6329L34.9371 36.8413C34.9272 36.9168 34.9466 36.993 34.9913 37.0546C35.0359 37.1161 35.1026 37.1582 35.1773 37.1722L38.7805 38.0638C38.8528 38.0858 38.9308 38.0794 38.9986 38.046C39.0664 38.0124 39.1189 37.9545 39.1454 37.8838L39.506 36.7094C39.5183 36.664 39.5181 36.6163 39.5056 36.5709C39.493 36.5256 39.4685 36.4845 39.4346 36.4518L39.2468 36.2695C39.2135 36.2373 39.1893 36.1969 39.1765 36.1522C39.1638 36.1077 39.1632 36.0606 39.1745 36.0157L39.6006 34.5569C39.6146 34.5135 39.6396 34.4745 39.6732 34.4437C39.7068 34.4129 39.7478 34.3913 39.7923 34.3811L40.1065 34.2955C40.1505 34.2855 40.1913 34.2642 40.2247 34.2339C40.2581 34.2035 40.2833 34.165 40.2975 34.1222L40.8153 32.4316C40.8266 32.3889 40.827 32.344 40.8164 32.3011C40.8058 32.2581 40.7845 32.2186 40.7545 32.186L40.4581 31.852C40.4149 31.8001 40.3573 31.7622 40.2927 31.743Z" fill="#229DD8"/>
<path d="M37.8739 29.1249C37.8965 29.0538 37.9463 28.9946 38.0127 28.9603C38.079 28.926 38.1562 28.9194 38.2273 28.942L39.9342 29.3676C39.9707 29.3741 40.0055 29.3878 40.0367 29.4078C40.068 29.4278 40.095 29.4538 40.116 29.4842C40.1372 29.5147 40.1521 29.549 40.16 29.5853C40.1678 29.6215 40.1683 29.6589 40.1617 29.6953L39.8086 31.1114L37.5208 30.5409L37.8739 29.1249Z" fill="#229DD8"/>
<path d="M39.6515 31.1357L37.6513 30.641L37.5619 31.0022L39.5621 31.4969L39.6515 31.1357Z" fill="#229DD8"/>
<path d="M49.3425 33.1102L52.4282 33.8795C52.5335 33.9132 52.6479 33.9041 52.7463 33.8541C52.8449 33.804 52.9197 33.7172 52.9545 33.6124L53.104 33.0128C53.1218 32.904 53.0959 32.7925 53.0321 32.7025C52.9683 32.6126 52.8715 32.5513 52.7628 32.5321L49.6771 31.7627C49.5718 31.7297 49.4577 31.7392 49.3594 31.789C49.261 31.839 49.1862 31.9254 49.1508 32.0298L49.0009 32.6307C48.9835 32.7394 49.0096 32.8506 49.0735 32.9402C49.1373 33.03 49.234 33.091 49.3425 33.1102Z" fill="#479799"/>
<path d="M52.5859 34.0142L49.1398 33.1618L46.5359 39.3906L51.9915 40.7386L52.5859 34.0142Z" fill="#479799"/>
<path d="M46.338 39.8627C46.3233 39.8995 46.3174 39.9394 46.321 39.9789C46.3246 40.0184 46.3375 40.0564 46.3586 40.09C46.4064 40.1645 46.4812 40.2176 46.5672 40.2382L51.5632 41.4717C51.6488 41.4941 51.7398 41.4824 51.8168 41.4387C51.8514 41.4187 51.8807 41.391 51.9024 41.3575C51.9242 41.3242 51.9377 41.2861 51.9421 41.2464L51.9781 40.8407L46.4855 39.4834L46.338 39.8627Z" fill="#479799"/>
<path d="M53.8219 32.8479C53.8326 32.8415 53.8453 32.839 53.8576 32.8406L56.7774 33.5686C56.7888 33.5729 56.7987 33.5805 56.8058 33.5906C56.8219 33.6213 56.8313 33.655 56.8332 33.6897C56.835 33.7243 56.8295 33.7589 56.8169 33.7912L56.7503 33.9602L53.6974 33.2058L53.718 33.0253C53.7209 32.9898 53.7317 32.9555 53.7497 32.9248C53.7677 32.894 53.7924 32.8678 53.8219 32.8479ZM54.1448 40.652L52.8885 40.3388L53.6876 33.2941L56.7159 34.0492L54.1448 40.652ZM53.8773 41.7249C53.8715 41.7428 53.8622 41.7594 53.8498 41.7736C53.8376 41.7879 53.8225 41.7996 53.8056 41.808C53.7889 41.8164 53.7704 41.8214 53.7516 41.8226C53.7328 41.8238 53.714 41.8213 53.6961 41.8152L52.6926 41.5651C52.6678 41.5612 52.6454 41.5479 52.6302 41.5279C52.6149 41.508 52.608 41.4828 52.6109 41.4579L52.8653 40.4374L54.1241 40.7512L53.8773 41.7249Z" fill="#FF8300"/>
<path d="M52.0575 46.2441L50.7894 51.3792C51.2306 51.6056 51.6927 51.7888 52.169 51.9264C53.8313 52.33 57.7778 52.1053 57.7778 52.1053C57.8085 52.0971 57.8363 52.0806 57.8581 52.0576C57.8798 52.0345 57.8948 52.0059 57.9012 51.9748L58.629 49.0289C58.6378 48.9987 58.6382 48.9668 58.6299 48.9365C58.6216 48.9062 58.6051 48.8788 58.5822 48.8574C58.5822 48.8574 55.1942 46.8202 53.5342 46.4023C53.0483 46.3017 52.5538 46.2487 52.0575 46.2441Z" fill="#FF8300"/>
<path d="M51.7726 46.2666C51.152 46.33 50.5184 46.5379 50.3603 47.1014C50.3504 47.141 50.1838 47.8094 50.0206 48.4639C49.8574 49.1183 49.6911 49.7855 49.6809 49.8263C49.5598 50.3991 50.0232 50.8792 50.5436 51.223L51.7726 46.2666Z" fill="#FF8300"/>
<path d="M44.4719 31.9613C44.6856 31.8957 44.913 31.8897 45.1299 31.9438C45.3468 31.9979 45.5448 32.11 45.7026 32.2681C45.7358 32.3108 45.7591 32.3604 45.7707 32.4133C45.7825 32.4661 45.7823 32.5208 45.7702 32.5736L48.1896 33.1768C48.3469 31.6646 47.469 31.172 46.5529 30.9138C45.9979 30.7577 44.8779 30.4799 44.3149 30.3557C43.3864 30.1581 42.3918 30.1879 41.8348 31.6005L44.2605 32.2053C44.2745 32.1511 44.3008 32.1009 44.3375 32.0586C44.3743 32.0162 44.4203 31.9828 44.4719 31.9613Z" fill="#FF8300"/>
<path d="M41.7963 31.7329C41.6278 32.242 41.5248 32.7704 41.4897 33.3055C41.2267 36.4432 41.2877 36.8947 41.2877 36.8947C41.2763 37.0274 41.4405 37.1794 41.6511 37.232L45.7286 38.2391C45.9392 38.2916 46.1555 38.2344 46.2094 38.111C46.2094 38.111 46.5552 37.6213 47.7151 34.8455C47.9312 34.3544 48.0828 33.8376 48.1664 33.3076L41.7963 31.7329Z" fill="#FF8300"/>
<path d="M54.8239 46.1465C56.0849 46.4514 56.5318 45.7904 56.8507 45.6315L57.1688 44.3558C56.9618 44.0657 56.8734 43.2726 55.6194 42.9559L55.6066 42.9527L49.8343 41.5257C49.691 41.4861 49.5378 41.5045 49.408 41.5773C49.2784 41.6501 49.1829 41.7712 49.1422 41.9141L48.6091 44.0522C48.5785 44.1977 48.6067 44.3495 48.6876 44.4742C48.7687 44.5991 48.8957 44.6867 49.0411 44.7182L54.812 46.1449L54.8239 46.1465Z" fill="#479799"/>
<path d="M57.8628 44.5298L57.2534 44.3793L56.9434 45.6354L57.5527 45.7858L57.8628 44.5298Z" fill="#479799"/>
<path d="M59.1211 44.8466C59.1992 44.858 59.2698 44.8993 59.3177 44.962C59.3656 45.0246 59.3873 45.1033 59.378 45.1816L59.1916 45.9292C59.1631 46.0027 59.1069 46.0621 59.0353 46.0948C58.9635 46.1276 58.8818 46.1311 58.8075 46.1044L57.6406 45.8135L57.9536 44.5582L59.1211 44.8466Z" fill="#479799"/>
<path d="M60.7299 36.795L57.2152 35.9186C57.1464 35.9015 57.0739 35.9055 57.0075 35.9305L56.6071 36.0895C56.5664 36.1044 56.5302 36.1294 56.5019 36.1622C56.4735 36.195 56.454 36.2344 56.4451 36.2768L56.115 38.0197C56.1078 38.0634 56.1116 38.1083 56.1263 38.15C56.1411 38.1919 56.1661 38.2293 56.1991 38.2588L56.4431 38.4931C56.4768 38.5229 56.5022 38.5608 56.517 38.6031C56.5318 38.6454 56.5356 38.6909 56.5279 38.7351L56.2298 40.2082C56.2184 40.2526 56.1956 40.2934 56.1636 40.3262C56.1316 40.3592 56.0915 40.3832 56.0474 40.3958L55.7874 40.4922C55.7428 40.5049 55.7025 40.5293 55.6703 40.5627C55.6381 40.596 55.6154 40.6374 55.6044 40.6823L55.3759 41.8923C55.3654 41.9676 55.3843 42.044 55.4289 42.1057C55.4735 42.1672 55.54 42.2093 55.6149 42.2229L59.2183 43.1132C59.2908 43.1359 59.3692 43.13 59.4374 43.0966C59.5056 43.063 59.5582 43.0047 59.5845 42.9335L59.9438 41.7589C59.9561 41.7136 59.956 41.6657 59.9434 41.6204C59.9308 41.575 59.9064 41.5339 59.8725 41.5012L59.6876 41.3129C59.6542 41.2807 59.63 41.2402 59.6172 41.1957C59.6045 41.1511 59.6039 41.1041 59.6152 41.0591L60.0413 39.6002C60.0553 39.5568 60.0803 39.5178 60.1139 39.487C60.1475 39.4563 60.1885 39.4346 60.233 39.4245L60.5472 39.3388C60.5912 39.3288 60.6321 39.3076 60.6654 39.2772C60.6989 39.2468 60.724 39.2085 60.7382 39.1656L61.2561 37.4749C61.2674 37.4322 61.2677 37.3873 61.2571 37.3444C61.2465 37.3015 61.2252 37.262 61.1952 37.2294L60.8988 36.8953C60.8538 36.8456 60.795 36.8107 60.7299 36.795Z" fill="#229DD8"/>
<path d="M58.3061 34.1757C58.3287 34.1047 58.3786 34.0454 58.4449 34.0112C58.5112 33.9769 58.5884 33.9704 58.6595 33.9929L60.3665 34.4185C60.4031 34.4249 60.438 34.4384 60.4693 34.4583C60.5006 34.4783 60.5276 34.5043 60.5487 34.5348C60.5699 34.5652 60.5847 34.5997 60.5925 34.6359C60.6003 34.6723 60.6009 34.7097 60.5939 34.7462L60.2409 36.1622L57.953 35.5918L58.3061 34.1757Z" fill="#229DD8"/>
<path d="M60.0828 36.1899L58.0825 35.6952L57.9933 36.0565L59.9934 36.5511L60.0828 36.1899Z" fill="#229DD8"/>
<path d="M74.7612 17.9603L77.3286 18.6005C77.3771 18.6115 77.4274 18.6129 77.4765 18.6045C77.5255 18.5962 77.5724 18.5782 77.6146 18.5517C77.6567 18.5252 77.6933 18.4907 77.722 18.4501C77.7507 18.4095 77.7712 18.3637 77.7822 18.3152L77.9317 17.7156C77.9569 17.6186 77.943 17.5155 77.8928 17.4287C77.8426 17.3419 77.7603 17.2783 77.6636 17.2517L75.0949 16.6113C75.0463 16.6002 74.9961 16.5988 74.947 16.6072C74.898 16.6156 74.851 16.6335 74.8089 16.66C74.7668 16.6865 74.7304 16.721 74.7015 16.7616C74.6728 16.8022 74.6523 16.8481 74.6413 16.8966L74.4918 17.4961C74.4789 17.5443 74.4757 17.5945 74.4822 17.6439C74.4888 17.6933 74.5051 17.741 74.5301 17.7841C74.5551 17.8272 74.5883 17.865 74.6281 17.8953C74.6678 17.9255 74.713 17.9476 74.7612 17.9603Z" fill="#479799"/>
<path d="M77.4556 18.7269L74.5879 18.0187L72.1528 24.2882L76.6924 25.4106L77.4556 18.7269Z" fill="#479799"/>
<path d="M71.9674 24.7649C71.9532 24.8009 71.9467 24.8395 71.9483 24.8782C71.9498 24.9168 71.9594 24.9547 71.9765 24.9894C71.9934 25.023 72.0171 25.0526 72.0463 25.0763C72.0755 25.0999 72.1094 25.117 72.1458 25.1265L76.3072 26.1559C76.344 26.1644 76.3822 26.1648 76.4191 26.1572C76.4561 26.1496 76.4911 26.1341 76.5216 26.1118C76.553 26.0892 76.5794 26.0603 76.5989 26.0269C76.6185 25.9935 76.6307 25.9563 76.635 25.9179L76.6813 25.5148L72.1149 24.3857L71.9674 24.7649Z" fill="#479799"/>
<path d="M70.3066 27.5378C70.5549 26.5035 70.0337 25.9128 69.6358 25.5236L66.7798 24.8115C66.24 24.9696 65.5107 25.2512 65.2486 26.2807L65.2445 26.2973L63.6532 32.7393C63.567 33.0851 63.8801 33.4612 64.3333 33.5742L67.7223 34.411C68.1819 34.5256 68.6278 34.336 68.7128 33.99L70.304 27.548C70.3051 27.5446 70.306 27.5411 70.3066 27.5378Z" fill="#479799"/>
<path d="M70.379 23.5349L67.0961 22.7243C67.0417 22.7109 66.9868 22.744 66.9734 22.7983L66.5706 24.4295C66.5572 24.4838 66.5904 24.5387 66.6447 24.5521L69.9277 25.3628C69.9819 25.3762 70.0369 25.343 70.0502 25.2888L70.453 23.6575C70.4664 23.6032 70.4333 23.5483 70.379 23.5349Z" fill="#479799"/>
<path d="M72.869 27.5074L72.8795 27.4653C72.9038 27.3651 72.9643 27.2774 73.0493 27.2191C73.2085 27.1414 73.39 27.1223 73.5618 27.1651C73.7337 27.208 73.8849 27.31 73.989 27.4533C74.037 27.5448 74.0496 27.6507 74.0247 27.7509L74.0142 27.793C74.0127 27.8043 74.0099 27.8154 74.0059 27.8261L75.8533 28.2867C76.0454 26.7981 75.4176 26.2811 74.7218 26.0805C74.3021 25.9582 73.4489 25.7469 73.0225 25.6568C72.3166 25.5133 71.5259 25.6766 71.013 27.0867L72.8693 27.5495L72.869 27.5074Z" fill="#229DD8"/>
<path d="M70.9382 27.332C70.7763 27.8423 70.6637 28.3668 70.6019 28.8986C70.1973 32.0497 69.8797 34.7483 69.8797 34.7483C69.8806 34.8217 69.907 34.8924 69.9545 34.9483C70.002 35.0042 70.0675 35.0416 70.1397 35.0544L72.9 35.7426C72.9703 35.7651 73.0461 35.7623 73.1146 35.7348C73.1832 35.7075 73.2398 35.657 73.2751 35.5922C73.2751 35.5922 74.3206 32.9274 75.3688 30.083C75.5601 29.5832 75.7022 29.0659 75.7932 28.5385L70.9382 27.332Z" fill="#229DD8"/>
<path d="M70.7629 17.027C70.9374 16.9512 71.1321 16.935 71.3167 16.9811C71.5015 17.0271 71.6658 17.1328 71.7842 17.2816C71.8108 17.3263 71.8283 17.3757 71.8357 17.427C71.8432 17.4784 71.8404 17.5308 71.8275 17.5811L73.8281 18.0799C74.0196 16.5775 73.3067 16.1246 72.549 15.9059C72.0913 15.7728 71.165 15.5446 70.699 15.4447C69.9251 15.2856 69.0942 15.3548 68.5752 16.7783L70.586 17.2796C70.597 17.2278 70.6183 17.1787 70.6487 17.1353C70.679 17.0919 70.7179 17.0551 70.7629 17.027Z" fill="#FF8300"/>
<path d="M68.5357 16.9095C68.3747 17.42 68.2672 17.9458 68.215 18.4786C67.8691 21.5956 67.9023 22.0388 67.9023 22.0388C67.9068 22.1173 67.9379 22.1918 67.991 22.25C68.0439 22.3081 68.1152 22.3462 68.193 22.3579L71.5622 23.1979C71.6366 23.2231 71.7173 23.2223 71.7911 23.1956C71.865 23.169 71.9277 23.1182 71.9689 23.0514C71.9689 23.0514 72.279 22.5528 73.361 19.7576C73.5621 19.2611 73.7096 18.7446 73.8008 18.2168L68.5357 16.9095Z" fill="#FF8300"/>
<path d="M33.7418 8.49016L36.8292 9.25315C36.9344 9.28686 37.0489 9.27774 37.1473 9.2277C37.2459 9.1777 37.3207 9.09083 37.3555 8.986L37.505 8.38642C37.5232 8.27754 37.4975 8.16588 37.4336 8.07583C37.3696 7.98575 37.2726 7.92458 37.1638 7.90568L34.078 7.13632C33.9728 7.10331 33.8588 7.11279 33.7604 7.16271C33.662 7.21262 33.5871 7.29905 33.5517 7.40347L33.4022 8.00305C33.3829 8.1126 33.4078 8.22534 33.4715 8.31662C33.5351 8.40789 33.6323 8.47031 33.7418 8.49016Z" fill="#479799"/>
<path d="M36.9854 9.39391L33.5393 8.54148L30.9344 14.7687L36.391 16.1183L36.9854 9.39391Z" fill="#479799"/>
<path d="M30.7375 15.2429C30.7228 15.2797 30.7169 15.3195 30.7205 15.359C30.724 15.3985 30.7369 15.4366 30.7581 15.4702C30.8056 15.5447 30.8807 15.5976 30.9669 15.6171L35.9681 16.8519C36.054 16.8739 36.145 16.8616 36.222 16.8176C36.2565 16.7979 36.2858 16.7703 36.3075 16.7371C36.3292 16.7039 36.3427 16.666 36.347 16.6265L36.383 16.2209L30.8904 14.8636L30.7375 15.2429Z" fill="#479799"/>
<path d="M38.2213 8.2278C38.2319 8.22082 38.2446 8.21817 38.2571 8.22045L41.1797 8.93696C41.1911 8.94184 41.2009 8.94993 41.2078 8.96022C41.2239 8.99091 41.2333 9.02472 41.2352 9.05933C41.237 9.09392 41.2315 9.12854 41.2189 9.1608L41.1507 9.33622L38.0994 8.57545L38.1197 8.39622C38.1236 8.36251 38.1346 8.33 38.1521 8.30093C38.1697 8.27188 38.1933 8.24693 38.2213 8.2278ZM38.5443 16.0319L37.2893 15.719L38.0874 8.67271L41.1157 9.42776L38.5443 16.0319ZM38.2768 17.1048C38.2647 17.1407 38.2388 17.1704 38.2049 17.1874C38.1709 17.2043 38.1316 17.2071 38.0956 17.1951L37.0883 16.9439C37.0635 16.9401 37.041 16.9268 37.0258 16.9068C37.0106 16.8869 37.0037 16.8618 37.0065 16.8368L37.2609 15.8163L38.5198 16.1301L38.2768 17.1048Z" fill="#229DD8"/>
<path d="M35.4048 21.363L34.1363 26.4993C34.6516 26.7442 35.1868 26.9451 35.7359 27.1C37.6535 27.5673 42.1643 27.4833 42.1643 27.4833C42.197 27.4775 42.2272 27.4624 42.2512 27.4398C42.2754 27.4172 42.2926 27.3882 42.3005 27.356L43.0272 24.4084C43.0357 24.3766 43.0345 24.3429 43.0236 24.3116C43.0128 24.2805 42.9928 24.2533 42.9665 24.2334C42.9665 24.2334 39.0151 22.0572 37.0994 21.5768C36.5415 21.4578 35.9746 21.3862 35.4048 21.363Z" fill="#FF8300"/>
<path d="M35.0808 21.373C34.3733 21.4148 33.6542 21.6013 33.4922 22.1639C33.4821 22.2047 33.3154 22.8732 33.1522 23.5276C32.9891 24.1821 32.8227 24.8493 32.8125 24.8901C32.694 25.4635 33.2432 25.9636 33.8502 26.3304L35.0808 21.373Z" fill="#FF8300"/>
<path d="M28.8714 7.34105C29.085 7.27553 29.3125 7.26948 29.5294 7.32356C29.7463 7.37764 29.9443 7.48976 30.1021 7.64791C30.1353 7.69065 30.1586 7.74023 30.1702 7.79305C30.182 7.84589 30.1818 7.90064 30.1697 7.95337L32.5954 8.55817C32.7528 7.04592 31.8749 6.55331 30.9588 6.2951C30.4037 6.13909 29.2838 5.8612 28.7208 5.73709C27.7923 5.53948 26.798 5.56799 26.2407 6.98189L28.6664 7.58669C28.6796 7.53282 28.7048 7.48265 28.7404 7.44008C28.7758 7.39748 28.8208 7.36362 28.8714 7.34105Z" fill="#FF8300"/>
<path d="M26.197 7.1133C26.0273 7.62202 25.9238 8.15045 25.889 8.68558C25.6261 11.8233 25.6871 12.2748 25.6871 12.2748C25.6757 12.4075 25.8399 12.5595 26.0508 12.6107L30.128 13.6192C30.3386 13.6717 30.5549 13.6145 30.6087 13.4911C30.6087 13.4911 30.9546 13.0014 32.1161 10.2246C32.3313 9.73321 32.4825 9.21628 32.5661 8.68639L26.197 7.1133Z" fill="#FF8300"/>
<path d="M39.9478 21.7045C40.9863 21.9553 41.386 21.2826 41.6577 21.1119L41.9758 19.8362C41.816 19.5579 41.7748 18.7766 40.7404 18.5146L40.7289 18.5118L35.9774 17.3365C35.911 17.3238 35.8428 17.3243 35.7766 17.3379C35.7104 17.3515 35.6475 17.378 35.5916 17.4159C35.5357 17.4538 35.4878 17.5024 35.4507 17.5588C35.4136 17.6152 35.3879 17.6784 35.3752 17.7447L34.8421 19.8828C34.8021 20.0118 34.8146 20.1515 34.8768 20.2715C34.9389 20.3914 35.046 20.4821 35.1745 20.5239L39.9248 21.6988L39.9478 21.7045Z" fill="#479799"/>
<path d="M42.5428 19.9781L42.0407 19.8542L41.7306 21.1101L42.2326 21.2341L42.5428 19.9781Z" fill="#479799"/>
<path d="M43.5771 20.239C43.6117 20.2464 43.6444 20.2606 43.6734 20.2809C43.7024 20.3012 43.727 20.327 43.7457 20.357C43.7644 20.387 43.7769 20.4204 43.7823 20.4553C43.7879 20.4902 43.7863 20.5258 43.7778 20.5601L43.5914 21.3077C43.5828 21.3419 43.5676 21.374 43.5464 21.402C43.5253 21.4302 43.4987 21.4538 43.4682 21.4715C43.4378 21.4892 43.404 21.5005 43.3691 21.505C43.3341 21.5094 43.2987 21.5068 43.2648 21.4972L42.3034 21.2575L42.6164 20.0022L43.5771 20.239Z" fill="#479799"/>
<path d="M44.0825 17.4184L44.629 15.2267C44.6425 15.181 44.6389 15.1319 44.6186 15.0886L44.5004 14.8342C44.4879 14.8074 44.4692 14.7839 44.446 14.7656C44.4227 14.7474 44.3955 14.7348 44.3666 14.729L43.1423 14.4888C43.1128 14.483 43.0825 14.4844 43.0537 14.4928C43.025 14.5012 42.9987 14.5164 42.977 14.5371L42.8176 14.687C42.7955 14.7079 42.7687 14.7231 42.7395 14.7314C42.7103 14.7397 42.6795 14.7408 42.6498 14.7346L41.6182 14.5208C41.5878 14.5143 41.5596 14.5004 41.536 14.4804C41.5123 14.4603 41.4941 14.4346 41.4828 14.4057L41.4016 14.2418C41.3901 14.2127 41.3713 14.1869 41.3471 14.1669C41.3229 14.1469 41.2942 14.1334 41.2634 14.1274L40.4141 13.9604C40.365 13.9526 40.315 13.964 40.2741 13.9922C40.2333 14.0203 40.2049 14.0631 40.1947 14.1116L39.6349 16.3569C39.6225 16.4048 39.6289 16.4557 39.653 16.499C39.6771 16.5423 39.7167 16.5747 39.764 16.5896L40.5903 16.8377C40.6213 16.8464 40.6539 16.8472 40.6853 16.8401C40.7167 16.833 40.7457 16.8182 40.77 16.7971L40.8985 16.6841C40.9214 16.6614 40.9498 16.6449 40.9809 16.6363C41.012 16.6277 41.0448 16.6272 41.0762 16.6349L42.1036 16.9304C42.1332 16.9391 42.1603 16.9549 42.1823 16.9765C42.2043 16.998 42.2207 17.0247 42.2301 17.0541L42.2957 17.2534C42.3053 17.2824 42.3216 17.3087 42.3434 17.3302C42.3652 17.3517 42.3917 17.3676 42.4209 17.3767L43.6121 17.7333C43.641 17.7418 43.6715 17.7432 43.7011 17.7374C43.7306 17.7315 43.7583 17.7186 43.7818 17.6998L44.0098 17.5195C44.0442 17.4944 44.0697 17.459 44.0825 17.4184Z" fill="#229DD8"/>
<path d="M45.8674 15.9431C45.9145 15.9559 45.9548 15.9867 45.9796 16.0288C46.0043 16.071 46.0115 16.1211 45.9997 16.1685L45.7341 17.2337C45.7286 17.2573 45.7185 17.2795 45.7044 17.2991C45.6903 17.3187 45.6724 17.3354 45.6519 17.3482C45.6313 17.3609 45.6085 17.3695 45.5846 17.3734C45.5607 17.3773 45.5363 17.3765 45.5128 17.371L44.5157 17.1223L44.8713 15.6961L45.8674 15.9431Z" fill="#229DD8"/>
<path d="M44.7696 15.8431L44.5155 15.7798L44.2047 17.0262L44.4588 17.0895L44.7696 15.8431Z" fill="#229DD8"/>
<path d="M48.186 18.2175L48.7213 16.0705C48.7326 15.9789 48.7077 15.8864 48.6519 15.8128C48.596 15.7391 48.5136 15.6901 48.4223 15.6762L47.8223 15.5266C47.7349 15.496 47.6392 15.5009 47.5554 15.54C47.4716 15.5791 47.4066 15.6495 47.3741 15.736L46.8388 17.883C46.8264 17.9751 46.8507 18.0684 46.9064 18.1429C46.9622 18.2173 47.0449 18.267 47.1368 18.2811L47.7369 18.4307C47.8247 18.4617 47.9213 18.4567 48.0055 18.4168C48.0896 18.3768 48.1545 18.3052 48.186 18.2175Z" fill="#479799"/>
<path d="M48.8431 15.9682L48.2509 18.3653L54.5539 20.6658L55.4909 16.8696L48.8431 15.9682Z" fill="#479799"/>
<path d="M55.0326 20.8393C55.104 20.8668 55.1831 20.8673 55.2547 20.8405C55.286 20.8298 55.3142 20.8115 55.3367 20.7874C55.3593 20.7632 55.3755 20.7339 55.3842 20.7021L56.2432 17.2238C56.2501 17.1914 56.2491 17.1579 56.2404 17.126C56.2315 17.0941 56.2152 17.0648 56.1927 17.0405C56.1412 16.9841 56.0715 16.948 55.9957 16.9385L55.5945 16.8832L54.6531 20.6973L55.0326 20.8393Z" fill="#479799"/>
<path d="M56.6393 25.4634L55.1136 31.6426C55.5816 31.899 56.0762 32.1041 56.5884 32.2542C58.3786 32.6883 62.6553 32.3034 62.6553 32.3034C62.6899 32.2908 62.7206 32.2694 62.7444 32.2415C62.7683 32.2134 62.7844 32.1798 62.7914 32.1436L63.6674 28.5978C63.6782 28.5625 63.6797 28.525 63.6715 28.4889C63.6634 28.4529 63.6459 28.4196 63.6209 28.3924C63.6209 28.3924 60.0166 26.0588 58.2305 25.6081C57.7068 25.5024 57.1734 25.454 56.6393 25.4634Z" fill="#FF8300"/>
<path d="M56.3342 25.4959C55.6613 25.5896 54.9684 25.8559 54.7801 26.5352C54.768 26.5837 54.5676 27.3874 54.371 28.1758C54.1745 28.9642 53.9744 29.7666 53.9687 29.8167C53.8186 30.5055 54.3083 31.0653 54.8607 31.4605L56.3342 25.4959Z" fill="#FF8300"/>
<path d="M49.3469 23.7104C49.5721 22.7693 49.0473 22.2197 48.6382 21.8535L45.781 21.1411C45.2476 21.2791 44.5282 21.5157 44.289 22.4534L44.2855 22.4674L42.8383 28.3261C42.76 28.6399 43.0791 28.9919 43.5327 29.1036L46.9213 29.9417C47.3809 30.0563 47.8199 29.8947 47.8978 29.5768L49.345 23.7181C49.3458 23.7155 49.3464 23.713 49.3469 23.7104Z" fill="#479799"/>
<path d="M49.3418 20.0508L46.0486 19.2377C45.9971 19.225 45.9451 19.2564 45.9324 19.3078L45.568 20.7834C45.5553 20.8348 45.5868 20.8869 45.6383 20.8996L48.9315 21.7127C48.983 21.7255 49.035 21.694 49.0477 21.6426L49.4121 20.167C49.4248 20.1156 49.3934 20.0636 49.3418 20.0508Z" fill="#479799"/>
<path d="M52.0715 23.0346L52.082 22.9925C52.1066 22.892 52.1671 22.804 52.2522 22.745C52.4113 22.667 52.5928 22.6478 52.7648 22.6907C52.9368 22.7335 53.088 22.8357 53.1919 22.9792C53.2396 23.0707 53.2518 23.1766 53.2263 23.2764L53.2155 23.3198L53.2072 23.353L55.0546 23.8136C55.2467 22.3249 54.6189 21.808 53.9231 21.6074C53.5037 21.4838 52.6502 21.2737 52.2238 21.1837C51.5175 21.0415 50.7269 21.2048 50.214 22.6148L52.0703 23.0777C52.0687 23.0633 52.0691 23.0489 52.0715 23.0346Z" fill="#229DD8"/>
<path d="M50.1414 22.857C49.9795 23.3671 49.8668 23.8918 49.805 24.4235C49.4004 27.5747 49.0832 30.272 49.0832 30.272C49.0837 30.3454 49.1099 30.4165 49.1574 30.4726C49.2048 30.5287 49.2705 30.5665 49.3429 30.5793L52.1031 31.2675C52.1731 31.29 52.2489 31.2875 52.3173 31.2602C52.3857 31.233 52.4424 31.1829 52.4779 31.1184C52.4779 31.1184 53.5234 28.4536 54.5716 25.6092C54.7626 25.1088 54.9045 24.591 54.995 24.0631L50.1414 22.857Z" fill="#229DD8"/>
<path d="M28.1972 18.4371C28.4211 17.4956 27.8912 16.9448 27.4873 16.5798L24.6313 15.8678C24.0966 16.0054 23.3785 16.2424 23.1393 17.18C23.1377 17.1846 23.1365 17.1894 23.1358 17.1941L21.6886 23.0528C21.6103 23.3666 21.9294 23.7185 22.3842 23.8305L25.7729 24.6687C26.2312 24.7829 26.6702 24.6214 26.7494 24.3037L28.1953 18.4447L28.1972 18.4371Z" fill="#479799"/>
<path d="M28.1897 14.7764L24.8965 13.9633C24.845 13.9506 24.793 13.982 24.7803 14.0334L24.4159 15.509C24.4032 15.5604 24.4347 15.6125 24.4862 15.6252L27.7793 16.4383C27.8309 16.4511 27.883 16.4197 27.8956 16.3682L28.26 14.8926C28.2727 14.8412 28.2412 14.7891 28.1897 14.7764Z" fill="#479799"/>
<path d="M30.918 17.7607L30.9285 17.7186C30.9524 17.6178 31.0132 17.5295 31.0987 17.471C31.2574 17.3929 31.4388 17.3735 31.6107 17.4163C31.7825 17.4592 31.9336 17.5615 32.037 17.705C32.0856 17.7963 32.0983 17.9024 32.0727 18.0025L32.0619 18.0459L32.0536 18.0791L33.8997 18.5393C34.0919 17.0507 33.4654 16.534 32.7683 16.3331C32.3489 16.2096 31.4954 15.9995 31.0703 15.9098C30.3627 15.7672 29.5734 15.9308 29.0604 17.3409L30.9155 17.8034L30.918 17.7607Z" fill="#229DD8"/>
<path d="M28.9891 17.5832C28.8259 18.0931 28.7133 18.6179 28.6528 19.1498C28.2482 22.301 27.9297 24.998 27.9297 24.998C27.9302 25.0714 27.9564 25.1424 28.0039 25.1986C28.0513 25.2547 28.117 25.2925 28.1894 25.3053L30.9496 25.9935C31.0196 26.0159 31.0954 26.0134 31.1637 25.9862C31.2322 25.9589 31.2889 25.9088 31.3244 25.8444C31.3244 25.8444 32.3699 23.1796 33.4181 20.3352C33.6101 19.8351 33.7524 19.3173 33.8428 18.7893L28.9891 17.5832Z" fill="#229DD8"/>
<path d="M17.5147 2.39006C17.5251 2.38423 17.537 2.38198 17.5488 2.38367L20.4686 3.11166C20.4807 3.11548 20.4907 3.12382 20.4967 3.13492C20.5134 3.16542 20.5231 3.19926 20.525 3.23398C20.5269 3.26868 20.521 3.30338 20.5077 3.3355L20.4447 3.49593L17.3921 2.73484L17.4124 2.55561C17.4167 2.52234 17.4281 2.49038 17.4457 2.46184C17.4634 2.43329 17.4869 2.40883 17.5147 2.39006ZM17.8363 10.1938L16.5813 9.88094L17.3794 2.83466L20.4106 3.58364L17.8363 10.1938ZM17.5688 11.2667C17.5631 11.2847 17.5539 11.3014 17.5416 11.3158C17.5294 11.3301 17.5143 11.3419 17.4974 11.3503C17.4805 11.3587 17.4621 11.3637 17.4432 11.3648C17.4244 11.366 17.4055 11.3633 17.3876 11.357L16.3803 11.1059C16.3555 11.102 16.3331 11.0884 16.3181 11.0682C16.3031 11.048 16.2967 11.0227 16.3001 10.9978L16.5546 9.97726L17.8134 10.2911L17.5688 11.2667Z" fill="#479799"/>
<path d="M15.1194 15.6305L13.8512 20.7656C14.2886 20.9919 14.7474 21.1743 15.2207 21.3103C16.8714 21.711 20.7924 21.48 20.7924 21.48C20.823 21.472 20.8506 21.4557 20.8724 21.4328C20.8941 21.4101 20.909 21.3817 20.9155 21.3508L21.6496 18.4064C21.6585 18.3761 21.6588 18.3439 21.6506 18.3136C21.6424 18.2831 21.626 18.2554 21.6032 18.2336C21.6032 18.2336 18.2404 16.2041 16.5918 15.789C16.1074 15.6877 15.6142 15.6347 15.1194 15.6305Z" fill="#FF8300"/>
<path d="M14.837 15.6479C14.2218 15.7114 13.5908 15.9199 13.4326 16.4834C13.4228 16.523 13.2561 17.1915 13.0929 17.8459C12.9298 18.5003 12.7631 19.1688 12.7532 19.2084C12.6305 19.7821 13.0917 20.2602 13.607 20.6028L14.837 15.6479Z" fill="#FF8300"/>
<path d="M19.2358 15.8667C20.2731 16.1172 20.6727 15.4445 20.9444 15.2738L21.2625 13.9981C21.1015 13.7194 21.0616 12.9385 20.0258 12.6762L20.0144 12.6733L15.2638 11.4997C15.1303 11.4765 14.9931 11.5068 14.8819 11.5842C14.7707 11.6615 14.6946 11.7795 14.6699 11.9126L14.1369 14.0507C14.0972 14.1797 14.1098 14.3192 14.172 14.4391C14.2341 14.559 14.3409 14.6498 14.4692 14.6918L19.2208 15.867L19.2358 15.8667Z" fill="#479799"/>
<path d="M21.8035 14.1559L21.3018 14.0308L20.9888 15.2861L21.4905 15.4112L21.8035 14.1559Z" fill="#479799"/>
<path d="M22.8712 14.399C22.9058 14.4064 22.9385 14.4206 22.9675 14.4409C22.9964 14.4612 23.021 14.487 23.0397 14.517C23.0584 14.547 23.0709 14.5804 23.0765 14.6153C23.082 14.6502 23.0804 14.6858 23.0718 14.7201L22.8854 15.4677C22.8769 15.5019 22.8617 15.534 22.8405 15.562C22.8194 15.5902 22.7928 15.6138 22.7623 15.6316C22.7319 15.6492 22.6981 15.6605 22.6632 15.665C22.6282 15.6694 22.5928 15.6668 22.5588 15.6572L21.6 15.4182L21.913 14.1629L22.8712 14.399Z" fill="#479799"/>
<path d="M24.4229 6.33772L20.9062 5.46905C20.8374 5.45092 20.7647 5.45509 20.6985 5.48095L20.2984 5.63866C20.2577 5.65406 20.2215 5.67932 20.1929 5.71216C20.1644 5.74502 20.1444 5.78442 20.1349 5.82688L19.8048 7.56977C19.7975 7.61347 19.8014 7.65832 19.8161 7.70012C19.8308 7.74193 19.8558 7.77935 19.8889 7.8089L20.1345 8.04222C20.1679 8.07225 20.1932 8.11034 20.2077 8.15288C20.2223 8.19542 20.2257 8.24096 20.2176 8.28518L19.9198 9.757C19.9086 9.80173 19.8858 9.84273 19.8538 9.87587C19.8217 9.90903 19.7815 9.93316 19.7371 9.94587L19.4813 10.0311C19.4365 10.0439 19.3959 10.0684 19.3637 10.1021C19.3315 10.1357 19.3088 10.1773 19.2979 10.2225L19.0695 11.4325C19.0596 11.5079 19.079 11.5842 19.1236 11.6458C19.1683 11.7073 19.2349 11.7494 19.3097 11.7634L22.9183 12.6496C22.9908 12.6723 23.0692 12.6663 23.1373 12.6329C23.2055 12.5994 23.2582 12.5411 23.2845 12.4699L23.6438 11.2953C23.6557 11.25 23.6554 11.2024 23.6428 11.1573C23.6302 11.1123 23.6058 11.0714 23.5721 11.0389L23.3843 10.8566C23.3508 10.8242 23.3265 10.7836 23.3138 10.7387C23.3012 10.6939 23.3006 10.6466 23.3123 10.6015L23.7394 9.14428C23.7538 9.10171 23.7789 9.06357 23.8123 9.03345C23.8457 9.00334 23.8862 8.9823 23.9301 8.97231L24.2453 8.8883C24.2893 8.87796 24.33 8.85643 24.3633 8.82581C24.3965 8.79518 24.4214 8.75649 24.4353 8.71346L24.9531 7.02278C24.9646 6.9802 24.9651 6.93544 24.9547 6.89259C24.9443 6.84974 24.9233 6.81019 24.8936 6.77758L24.5972 6.44352C24.5506 6.39206 24.49 6.35528 24.4229 6.33772Z" fill="#229DD8"/>
<path d="M21.9974 3.71914C22.02 3.64807 22.0699 3.58888 22.1362 3.55457C22.2025 3.52028 22.2797 3.51369 22.3508 3.53626L24.0578 3.96185C24.0942 3.96837 24.1291 3.98203 24.1603 4.00206C24.1915 4.02208 24.2185 4.04807 24.2396 4.07851C24.2607 4.10896 24.2756 4.14328 24.2835 4.17949C24.2913 4.21571 24.2919 4.25312 24.2852 4.28956L23.9322 5.7056L21.6443 5.13518L21.9974 3.71914Z" fill="#229DD8"/>
<path d="M23.7763 5.72846L21.776 5.23382L21.6867 5.59502L23.687 6.08966L23.7763 5.72846Z" fill="#229DD8"/>
<path d="M37.6583 47.6498L44.7805 40.2683C44.8757 40.1697 44.9952 40.0977 45.1269 40.0599C45.2588 40.022 45.3983 40.0195 45.5313 40.0527C45.6644 40.0859 45.7863 40.1535 45.885 40.2489C45.9836 40.3442 46.0553 40.4638 46.093 40.5956L48.9162 50.4567C48.9538 50.5881 48.9561 50.7272 48.9231 50.8597C48.8899 50.9924 48.8224 51.1139 48.7275 51.2123C48.6325 51.3107 48.5133 51.3824 48.3819 51.4201C48.2504 51.4579 48.1113 51.4605 47.9785 51.4275L38.0369 48.9488C37.9033 48.9165 37.7808 48.8495 37.6814 48.7547C37.5821 48.6599 37.5094 48.5406 37.4711 48.4088C37.4326 48.277 37.4297 48.1374 37.4626 48.0041C37.4955 47.8708 37.563 47.7486 37.6583 47.6498Z" fill="#479799"/>
<path d="M44.0643 46.1933C44.0295 46.3332 43.9821 46.4519 43.9223 46.5492C43.8625 46.6466 43.7945 46.7218 43.7186 46.7747C43.6435 46.827 43.5641 46.8604 43.4804 46.875C43.3968 46.8889 43.3121 46.8851 43.2266 46.8638C43.1417 46.8426 43.0657 46.8063 42.9984 46.7549C42.9312 46.7026 42.8769 46.6354 42.8354 46.5532C42.7939 46.471 42.7692 46.3732 42.7612 46.2597C42.7539 46.1465 42.7678 46.0195 42.8028 45.8787C42.8381 45.7373 42.8856 45.6182 42.9452 45.5216C43.0056 45.4252 43.073 45.3499 43.1476 45.2959C43.223 45.242 43.3025 45.2082 43.3861 45.1944C43.4708 45.18 43.5554 45.1833 43.6403 45.2045C43.7258 45.2258 43.8018 45.2621 43.8684 45.3134C43.9358 45.3648 43.9904 45.4326 44.0323 45.5164C44.0743 45.5996 44.0989 45.6982 44.1061 45.8122C44.1131 45.9263 44.0992 46.0533 44.0643 46.1933ZM43.6033 46.0783C43.639 45.9353 43.6586 45.8154 43.662 45.7188C43.6654 45.6223 43.6298 45.5647 43.5551 45.5461C43.5044 45.5335 43.46 45.5496 43.4216 45.5945C43.3839 45.6396 43.3536 45.6948 43.3306 45.7601C43.3085 45.8257 43.2862 45.9035 43.2637 45.9937C43.2256 46.1467 43.2051 46.2685 43.2024 46.3586C43.2009 46.4482 43.2374 46.5023 43.3121 46.5209C43.3875 46.5397 43.4451 46.5091 43.485 46.429C43.5257 46.3484 43.5652 46.2314 43.6033 46.0783ZM44.8737 47.2521L44.4314 47.1418L44.8344 45.5256L45.2766 45.6359L44.8737 47.2521Z" fill="white"/>
<path d="M47.7496 49.0224L47.196 47.093L46.4848 47.2965L47.0385 49.2258C47.0518 49.2725 47.0525 49.3219 47.0407 49.3689C47.029 49.416 47.005 49.4591 46.9713 49.494C46.9376 49.529 46.8954 49.5545 46.8487 49.568C46.8021 49.5815 46.7528 49.5825 46.7056 49.571L44.2314 48.9541L44.3904 48.3163L42.4117 48.8825L43.8929 50.3115L44.052 49.6736L46.5262 50.2905C46.6994 50.3336 46.8807 50.3302 47.0521 50.281C47.2236 50.2319 47.3791 50.1385 47.5029 50.0102C47.6268 49.882 47.7147 49.7234 47.758 49.5506C47.8011 49.3776 47.798 49.1964 47.749 49.0249L47.7496 49.0224Z" fill="white"/>
<path d="M40.0272 47.9059C39.98 47.8941 39.9367 47.8702 39.9016 47.8363C39.8667 47.8026 39.8412 47.7602 39.8276 47.7134C39.8142 47.6667 39.8132 47.6173 39.8248 47.57C39.8365 47.5228 39.8604 47.4796 39.8941 47.4445L41.8703 45.3979L42.3423 45.8543L42.8398 43.8591L40.8624 44.4257L41.3376 44.8857L39.363 46.9313C39.2392 47.0597 39.1514 47.2183 39.1083 47.3911C39.0653 47.5641 39.0685 47.7454 39.1176 47.9167C39.1668 48.0881 39.2602 48.2436 39.3886 48.3675C39.5168 48.4915 39.6754 48.5795 39.8485 48.6228L42.084 49.1802L42.2627 48.4632L40.0272 47.9059Z" fill="white"/>
<path d="M46.6378 45.1435L45.8506 42.4106C45.8015 42.2392 45.7081 42.0835 45.5798 41.9595C45.4514 41.8355 45.2927 41.7476 45.1195 41.7044C44.9462 41.6612 44.7648 41.6643 44.5932 41.7135C44.4217 41.7628 44.2662 41.8564 44.1424 41.9847L42.7478 43.4283L43.2789 43.9415L44.6751 42.4969C44.7089 42.462 44.7514 42.4367 44.7981 42.4234C44.8448 42.41 44.8943 42.4092 44.9415 42.421C44.9887 42.4327 45.032 42.4567 45.067 42.4905C45.102 42.5241 45.1275 42.5664 45.1411 42.6131L45.9232 45.3501L45.288 45.5319L46.7679 46.9605L47.266 44.9627L46.6378 45.1435Z" fill="white"/>
<path d="M67.7088 16.7504L60.4038 24.3207C60.3063 24.4219 60.1838 24.4956 60.0487 24.5344C59.9136 24.5732 59.7706 24.5758 59.6341 24.5417C59.4976 24.5077 59.3725 24.4383 59.2714 24.3406C59.1704 24.2429 59.0968 24.1203 59.0582 23.9852L56.1624 13.8715C56.1236 13.7366 56.1211 13.5938 56.155 13.4576C56.1891 13.3214 56.2584 13.1966 56.3559 13.0957C56.4535 12.9947 56.5761 12.9213 56.711 12.8827C56.8461 12.8441 56.9889 12.8417 57.1253 12.8758L67.326 15.4192C67.4622 15.4534 67.5869 15.5228 67.6877 15.6203C67.7886 15.7178 67.8621 15.84 67.9008 15.9748C67.9396 16.1096 67.9423 16.2522 67.9085 16.3883C67.8748 16.5244 67.806 16.6493 67.7088 16.7504Z" fill="#229DD8"/>
<path d="M59.0878 18.3953L60.9316 19.4905C60.9337 19.4919 60.9352 19.4938 60.9361 19.4961C60.9371 19.4984 60.9371 19.5009 60.9365 19.5033C60.9359 19.5057 60.9347 19.5078 60.9328 19.5094C60.9309 19.511 60.9286 19.512 60.9262 19.5122L60.2447 19.7054C60.2421 19.7072 60.2403 19.7099 60.2396 19.713C60.2388 19.716 60.2391 19.7192 60.2406 19.722L60.4521 20.478C60.4598 20.5056 60.4747 20.5306 60.4952 20.5506C60.5157 20.5705 60.5411 20.5847 60.5689 20.5916C60.5967 20.5986 60.6257 20.598 60.6532 20.59C60.6807 20.582 60.7056 20.5669 60.7253 20.5461L61.687 19.5664C61.6991 19.5539 61.7137 19.544 61.7297 19.5373C61.7458 19.5305 61.763 19.5269 61.7805 19.5269C61.7978 19.5268 61.8152 19.5302 61.8313 19.5369C61.8474 19.5435 61.862 19.5533 61.8743 19.5657L62.743 20.4327C62.7678 20.4572 62.7818 20.4905 62.7821 20.5254C62.7822 20.5603 62.7686 20.5938 62.7441 20.6186L61.3695 22.0469C61.3204 22.0978 61.2588 22.135 61.1907 22.1549C61.1229 22.1748 61.0508 22.1766 60.9819 22.1603L59.4678 21.7936C59.3979 21.7769 59.3338 21.7418 59.2821 21.6919C59.2304 21.6421 59.1929 21.5794 59.1736 21.5102L58.7941 20.1663C58.7923 20.1637 58.7896 20.1619 58.7865 20.1611C58.7835 20.1604 58.7803 20.1607 58.7775 20.1621L58.0651 20.3598C58.0628 20.3609 58.0602 20.3611 58.0577 20.3605C58.0553 20.3599 58.053 20.3586 58.0514 20.3567C58.0497 20.3547 58.0488 20.3523 58.0486 20.3498C58.0484 20.3473 58.049 20.3448 58.0504 20.3426L59.0773 18.3995C59.0786 18.398 59.0802 18.3969 59.082 18.3962C59.0838 18.3955 59.0858 18.3952 59.0878 18.3953Z" fill="white"/>
<path d="M62.5643 19.7079L62.6226 17.5652C62.6224 17.5627 62.623 17.5602 62.6244 17.558C62.6257 17.5559 62.6276 17.5542 62.63 17.5533C62.6324 17.5523 62.6351 17.5522 62.6375 17.5528C62.6399 17.5535 62.6421 17.5549 62.6436 17.5569L63.1463 18.0643C63.1481 18.0669 63.1508 18.0687 63.1539 18.0695C63.1569 18.0702 63.1601 18.0699 63.1629 18.0685L63.7209 17.5165C63.7409 17.4966 63.7554 17.4719 63.763 17.4447C63.7706 17.4175 63.7709 17.3889 63.7642 17.3615C63.7573 17.3341 63.7435 17.309 63.7239 17.2885C63.7045 17.2681 63.68 17.253 63.6531 17.2449L62.332 16.8816C62.2981 16.8732 62.2689 16.8516 62.251 16.8217C62.233 16.7918 62.2277 16.756 62.2361 16.7222L62.5705 15.5387C62.579 15.5048 62.6005 15.4757 62.6304 15.4578C62.6603 15.4398 62.6962 15.4345 62.73 15.4429L64.6479 15.9469C64.7165 15.965 64.7792 16.0007 64.8297 16.0504C64.8804 16.1001 64.9172 16.162 64.9366 16.2302L65.3533 17.7298C65.3737 17.7987 65.3753 17.8719 65.3579 17.9416C65.3405 18.0114 65.3048 18.0752 65.2544 18.1265L64.2657 19.1117C64.263 19.1135 64.2613 19.1162 64.2605 19.1192C64.2598 19.1223 64.2601 19.1255 64.2615 19.1283L64.7815 19.6536C64.7836 19.6549 64.7851 19.6569 64.786 19.6592C64.787 19.6615 64.787 19.664 64.7864 19.6664C64.7858 19.6687 64.7846 19.6709 64.7827 19.6725C64.7808 19.6741 64.7786 19.6751 64.7761 19.6753L62.5787 19.7263C62.5762 19.7277 62.5734 19.7282 62.5705 19.7276C62.5678 19.7271 62.5652 19.7255 62.5636 19.7233C62.5619 19.7211 62.5609 19.7183 62.5611 19.7154C62.5613 19.7126 62.5623 19.7099 62.5643 19.7079Z" fill="white"/>
<path d="M61.9694 16.0514L60.0853 17.0817C60.0832 17.0826 60.0808 17.0829 60.0784 17.0826C60.0762 17.0824 60.074 17.0814 60.072 17.08C60.0702 17.0786 60.0688 17.0767 60.068 17.0745C60.067 17.0723 60.0668 17.07 60.0671 17.0677L60.2513 16.3778C60.2521 16.3746 60.2517 16.3713 60.2501 16.3684C60.2487 16.3655 60.2461 16.3633 60.243 16.3622L59.4801 16.1584C59.4525 16.1512 59.4235 16.1513 59.396 16.1588C59.3683 16.1663 59.3433 16.1809 59.3232 16.2011C59.303 16.2213 59.2886 16.2465 59.2811 16.274C59.2739 16.3016 59.2738 16.3306 59.2812 16.3582L59.6298 17.6795C59.6344 17.6963 59.6355 17.7139 59.6333 17.7313C59.631 17.7486 59.6253 17.7653 59.6164 17.7803C59.6076 17.7954 59.5959 17.8086 59.5819 17.8191C59.5681 17.8296 59.5521 17.8372 59.5351 17.8415L58.3448 18.1504C58.3281 18.1549 58.3107 18.1561 58.2935 18.1538C58.2764 18.1515 58.2598 18.1459 58.2449 18.1373C58.2299 18.1287 58.2168 18.1172 58.2062 18.1034C58.1957 18.0897 58.1881 18.0741 58.1836 18.0574L57.6507 16.1481C57.6313 16.08 57.6303 16.008 57.6474 15.9393C57.6645 15.8706 57.6992 15.8076 57.7483 15.7565L58.8324 14.6392C58.8824 14.5875 58.9454 14.5502 59.0149 14.5311C59.0842 14.5119 59.1575 14.5117 59.227 14.5303L60.5768 14.8872C60.5803 14.888 60.5838 14.8875 60.5868 14.8857C60.5897 14.8839 60.5919 14.881 60.5928 14.8776L60.783 14.1635C60.7839 14.1612 60.7853 14.1591 60.7873 14.1576C60.7893 14.1561 60.7916 14.1552 60.7941 14.155C60.7966 14.1547 60.7991 14.1552 60.8012 14.1563C60.8035 14.1574 60.8054 14.1591 60.8066 14.1613L61.9739 16.0336C61.9756 16.0365 61.9762 16.0401 61.9754 16.0434C61.9745 16.0468 61.9723 16.0496 61.9694 16.0514Z" fill="white"/>
</g>
<path d="M39.8408 135.891L34.1883 113.22L34.126 112.97L34.0577 112.696L33.998 112.42L33.9488 112.141C33.8801 111.769 33.8361 111.393 33.7938 111.017C33.7268 110.262 33.7155 109.503 33.7601 108.746C33.9591 105.701 35.1186 102.797 37.0722 100.453C37.5557 99.8698 38.0859 99.3272 38.6575 98.8303C39.2264 98.3284 39.8363 97.875 40.4807 97.4747C41.1223 97.0699 41.7953 96.7173 42.4932 96.4201C43.8863 95.8271 45.3646 95.4586 46.873 95.3281C47.6287 95.2628 48.3885 95.2582 49.145 95.3144C49.902 95.3657 50.6532 95.4797 51.3912 95.6554C52.1292 95.8258 52.8519 96.056 53.5527 96.3436C56.3779 97.4972 58.7648 99.5165 60.3707 102.111C60.7688 102.757 61.1182 103.432 61.4157 104.13C61.5568 104.482 61.6945 104.835 61.8083 105.195L61.8957 105.464L61.964 105.738L62.0324 106.012L62.0946 106.262L67.7467 128.933L60.6422 130.705C57.9416 119.873 54.9914 108.041 54.9495 107.872C54.671 106.815 54.1503 105.836 53.4286 105.014C52.707 104.192 51.8041 103.549 50.7913 103.136C45.4509 100.967 39.8529 105.82 41.3158 111.443L46.9683 134.114L39.8408 135.891Z" fill="white"/>
<path d="M39.6812 136.157L33.8527 112.736L33.7926 112.458L33.7411 112.171C33.6737 111.804 33.6306 111.439 33.5849 111.034C33.5152 110.266 33.5038 109.494 33.5508 108.725C33.754 105.634 34.9317 102.687 36.9149 100.307C37.4059 99.7166 37.9431 99.1662 38.5219 98.6612C39.1005 98.1507 39.7196 97.6882 40.3733 97.2783C41.0266 96.8717 41.7106 96.5163 42.4188 96.2155C43.8332 95.6147 45.3336 95.2406 46.8646 95.1071C47.6311 95.0402 48.4018 95.0328 49.1695 95.0852C50.7075 95.1963 52.2183 95.5497 53.6461 96.1322C56.518 97.3025 58.9444 99.3543 60.5755 101.992C60.9774 102.648 61.3286 103.333 61.6265 104.043C61.7793 104.426 61.9127 104.769 62.026 105.128L62.1126 105.394L62.3336 106.199L68.0403 129.087L60.4826 130.971L58.6383 123.574C56.5662 115.263 54.7768 108.087 54.7383 107.932C54.4444 106.807 53.8676 105.776 53.0627 104.937C52.258 104.097 51.2518 103.478 50.14 103.137C49.0281 102.797 47.8478 102.746 46.7109 102.99C45.5741 103.235 44.5186 103.766 43.645 104.533C42.6878 105.351 41.9801 106.423 41.6034 107.625C41.2267 108.826 41.1958 110.11 41.5145 111.329L47.2354 134.274L39.6812 136.157ZM61.9026 106.31L61.6863 105.524L61.601 105.263C61.4937 104.921 61.3621 104.586 61.2136 104.212C60.9246 103.524 60.5833 102.86 60.1929 102.224C58.6122 99.6682 56.2618 97.6796 53.4797 96.544C52.0964 95.9794 50.6326 95.6373 49.1424 95.5305C48.397 95.4782 47.6486 95.4837 46.9042 95.5468C45.4189 95.6788 43.9636 96.0417 42.5902 96.6224C41.9033 96.9162 41.24 97.2626 40.6064 97.6587C39.9735 98.0542 39.3737 98.5001 38.8127 98.9922C37.4049 100.221 36.2541 101.717 35.4268 103.393C34.5994 105.069 34.1116 106.892 33.9917 108.757C33.9461 109.502 33.9572 110.25 34.0246 110.994C34.069 111.387 34.11 111.743 34.1761 112.097L34.2262 112.379L34.403 113.17L40.0037 135.633L46.701 133.963L41.0995 111.497C40.7469 110.194 40.7715 108.817 41.1704 107.528C41.5694 106.238 42.3262 105.088 43.353 104.211C44.2828 103.395 45.4057 102.831 46.6151 102.571C47.8247 102.311 49.0804 102.364 50.2635 102.726C51.4465 103.088 52.5173 103.746 53.3745 104.638C54.2316 105.53 54.8466 106.627 55.1607 107.823C55.194 107.957 56.9016 114.806 59.0637 123.477L60.8016 130.447L67.4993 128.778L61.9026 106.31Z" fill="#1D1D1B"/>
<path d="M41.2944 104.589C41.5944 103.953 41.2608 103.465 40.9926 103.128L38.8632 102.109C38.4322 102.11 37.8428 102.155 37.5324 102.787L35.6304 106.746C35.528 106.956 35.7272 107.275 36.0662 107.43L38.5802 108.645C38.9214 108.809 39.284 108.77 39.3856 108.557L41.2874 104.599L41.2944 104.589Z" fill="#FF8300"/>
<path d="M39.2208 100.822L38.7555 101.791C38.735 101.833 38.753 101.885 38.7957 101.905L41.2241 103.072C41.2668 103.092 41.3182 103.074 41.3386 103.031L41.8039 102.063C41.8244 102.02 41.8065 101.969 41.7636 101.949L39.3353 100.782C39.2926 100.761 39.2413 100.779 39.2208 100.822Z" fill="#FF8300"/>
<path d="M48.2839 98.0165L49.0489 101.085C49.0662 101.191 49.1245 101.287 49.2115 101.351C49.2983 101.414 49.4068 101.441 49.5135 101.426L50.0807 101.285C50.1819 101.248 50.2645 101.173 50.3113 101.076C50.358 100.979 50.3651 100.867 50.3308 100.765L49.5657 97.6969C49.5484 97.5905 49.4902 97.4951 49.4032 97.4314C49.3163 97.3675 49.2078 97.3404 49.1011 97.3558L48.527 97.499C48.4272 97.5369 48.3461 97.612 48.3007 97.7086C48.2553 97.8052 48.2493 97.9156 48.2839 98.0165Z" fill="#479799"/>
<path d="M49.0015 101.286L48.1477 97.8613L41.71 98.4069L43.0616 103.828L49.0015 101.286Z" fill="#479799"/>
<path d="M41.2206 98.4482C41.1827 98.452 41.1462 98.4652 41.1145 98.4867C41.0828 98.5081 41.057 98.537 41.0393 98.5708C40.9976 98.6475 40.987 98.7372 41.0097 98.8214L42.2488 103.791C42.2689 103.876 42.3203 103.95 42.3926 103.999C42.4243 104.02 42.4606 104.033 42.4986 104.037C42.5365 104.041 42.5749 104.036 42.6103 104.022L42.9681 103.868L41.6087 98.416L41.2206 98.4482Z" fill="#479799"/>
<path d="M62.9836 116.493C62.9738 116.509 62.9591 116.52 62.942 116.526L58.6922 117.586C58.6743 117.588 58.656 117.585 58.6402 117.576C58.5985 117.549 58.5633 117.513 58.5374 117.47C58.5115 117.428 58.4955 117.38 58.4903 117.33L58.461 117.072L62.9033 115.964L62.9985 116.206C63.0179 116.252 63.0266 116.302 63.024 116.351C63.0214 116.401 63.0076 116.45 62.9836 116.493ZM57.2979 106.835L59.1262 106.38L62.8557 115.84L58.4463 116.939L57.2979 106.835ZM56.9143 105.297C56.9084 105.244 56.9234 105.19 56.9559 105.147C56.9886 105.105 57.0365 105.077 57.0896 105.069L58.5553 104.703C58.5899 104.691 58.6278 104.693 58.6609 104.709C58.6941 104.724 58.7198 104.752 58.7326 104.786L59.0981 106.252L57.2646 106.709L56.9143 105.297Z" fill="#479799"/>
<path d="M54.6063 98.1875L51.2803 101.585C51.507 101.947 51.7703 102.285 52.0658 102.593C53.1214 103.619 56.175 105.144 56.175 105.144C56.2022 105.151 56.2308 105.15 56.2576 105.142C56.2845 105.134 56.3085 105.118 56.3272 105.097L58.2362 103.147C58.2565 103.128 58.2713 103.104 58.2789 103.077C58.2864 103.05 58.2867 103.022 58.2792 102.995C58.2792 102.995 56.6816 99.9788 55.6338 98.9392C55.3172 98.6551 54.9729 98.4033 54.6063 98.1875Z" fill="#FF8300"/>
<path d="M54.3835 98.08C53.8906 97.862 53.3205 97.7481 52.9418 98.1133C52.9149 98.1385 52.4815 98.58 52.0606 99.0129C51.6398 99.4458 51.2029 99.8882 51.1803 99.9159C50.8236 100.303 50.9503 100.871 51.172 101.361L54.3835 98.08Z" fill="#FF8300"/>
<path d="M37.2499 111.596L37.2395 111.555C37.2124 111.454 37.2252 111.346 37.2753 111.255C37.3885 111.11 37.5471 111.006 37.7256 110.962C37.904 110.917 38.0924 110.934 38.2605 111.009C38.3041 111.036 38.342 111.071 38.3718 111.113C38.4019 111.154 38.4234 111.201 38.4351 111.251L38.4455 111.293L38.4537 111.326L40.3913 110.842C39.8597 109.449 39.0303 109.301 38.2858 109.455C37.8374 109.548 36.9458 109.771 36.5043 109.899C35.7797 110.111 35.1242 110.63 35.3175 112.108L37.2638 111.622C37.2586 111.614 37.2538 111.605 37.2499 111.596Z" fill="#229DD8"/>
<path d="M35.3691 112.361C35.4597 112.884 35.6048 113.397 35.8022 113.891C36.9282 116.833 37.919 119.344 37.919 119.344C37.9575 119.409 38.0173 119.459 38.0882 119.485C38.1592 119.511 38.2369 119.511 38.3083 119.486L41.2034 118.765C41.278 118.753 41.3462 118.715 41.3966 118.659C41.447 118.603 41.4766 118.531 41.4803 118.456C41.4803 118.456 41.1828 115.63 40.8014 112.644C40.7412 112.116 40.6262 111.596 40.4584 111.092L35.3691 112.361Z" fill="#229DD8"/>
<path d="M38.7811 129.121C39.183 130.688 40.4711 130.726 40.9158 130.958L43.0234 130.433C43.3133 130.014 44.4284 129.38 44.0474 127.808L42.249 120.595C42.1526 120.208 41.6857 119.998 41.2087 120.117L37.677 120.998C37.1983 121.117 36.8885 121.53 36.9827 121.908L38.7772 129.105C38.778 129.111 38.7793 129.116 38.7811 129.121Z" fill="#479799"/>
<path d="M63.9613 119.815L59.9509 120.815C59.8709 120.835 59.8001 120.881 59.7496 120.947L59.4389 121.356C59.4059 121.398 59.3835 121.448 59.3738 121.501C59.364 121.555 59.3669 121.609 59.3824 121.661L60.0396 123.839C60.056 123.891 60.0844 123.939 60.1228 123.978C60.1609 124.017 60.2079 124.047 60.2598 124.064L60.636 124.191C60.6886 124.209 60.7362 124.239 60.7747 124.278C60.8132 124.318 60.8415 124.367 60.857 124.42L61.394 126.271C61.4094 126.325 61.4109 126.382 61.3985 126.437C61.3863 126.493 61.3606 126.544 61.3235 126.587L61.1118 126.838C61.0739 126.882 61.0479 126.934 61.0357 126.99C61.0238 127.046 61.026 127.105 61.0426 127.16L61.5 128.669C61.5287 128.754 61.5887 128.826 61.6676 128.869C61.7467 128.912 61.8391 128.924 61.9265 128.902L66.034 127.877C66.122 127.856 66.198 127.802 66.247 127.727C66.297 127.652 66.316 127.561 66.301 127.472L65.996 125.928C65.985 125.871 65.959 125.818 65.921 125.773C65.883 125.729 65.834 125.695 65.78 125.675L65.487 125.563C65.432 125.543 65.384 125.51 65.346 125.466C65.309 125.422 65.283 125.37 65.271 125.313L64.8713 123.406C64.86 123.351 64.8623 123.294 64.878 123.24C64.8938 123.186 64.9226 123.137 64.9617 123.096L65.229 122.822C65.268 122.782 65.297 122.734 65.313 122.68C65.329 122.627 65.332 122.571 65.322 122.516L64.8815 120.292C64.8706 120.238 64.8468 120.187 64.812 120.144C64.7774 120.102 64.7327 120.068 64.6822 120.046L64.195 119.836C64.1217 119.803 64.0394 119.796 63.9613 119.815Z" fill="#229DD8"/>
<path d="M60.0527 118.201C60.0325 118.114 60.0475 118.022 60.0945 117.946C60.1415 117.87 60.2166 117.816 60.3036 117.795L62.2516 117.31C62.338 117.287 62.4298 117.3 62.507 117.345C62.5842 117.39 62.6403 117.463 62.6633 117.55L63.1166 119.368L60.5147 120.016L60.0527 118.201Z" fill="#229DD8"/>
<path d="M62.9705 119.484L60.6895 120.053L60.805 120.516L63.086 119.947L62.9705 119.484Z" fill="#229DD8"/>
<path d="M43.0507 130.549L40.9795 131.065L41.169 131.825L43.2401 131.309L43.0507 130.549Z" fill="#479799"/>
<path d="M43.6332 132.887C43.6575 132.996 43.6377 133.11 43.5782 133.205C43.5185 133.3 43.424 133.367 43.3151 133.392L42.0818 133.699C41.9736 133.729 41.8581 133.714 41.7608 133.659C41.6633 133.603 41.592 133.511 41.5621 133.403L41.1992 131.948L43.2704 131.432L43.6332 132.887Z" fill="#479799"/>
<path d="M69.3331 129.447C69.3891 129.674 69.3531 129.914 69.2331 130.115C69.1121 130.315 68.9181 130.459 68.6911 130.516L60.5711 132.54C60.3442 132.597 60.1044 132.561 59.904 132.441C59.7036 132.32 59.5593 132.125 59.5027 131.898C59.4462 131.672 59.482 131.432 59.6025 131.231C59.7229 131.031 59.9178 130.886 60.1447 130.83L68.2641 128.805C68.4911 128.749 68.7311 128.785 68.9311 128.905C69.1321 129.026 69.2761 129.221 69.3331 129.447Z" fill="white"/>
<path d="M59.2896 131.951C59.2189 131.667 59.2637 131.368 59.4141 131.117C59.5645 130.867 59.8082 130.686 60.0917 130.616L68.2112 128.591C68.4952 128.521 68.7942 128.565 69.0452 128.716C69.2952 128.866 69.4752 129.11 69.5462 129.393C69.6172 129.677 69.5722 129.977 69.4222 130.227C69.2712 130.477 69.0272 130.658 68.7442 130.728L60.6245 132.753C60.3411 132.823 60.0412 132.779 59.7909 132.628C59.5406 132.478 59.3602 132.234 59.2896 131.951ZM69.1192 129.5C69.0772 129.33 68.9692 129.183 68.8182 129.093C68.6682 129.003 68.4882 128.976 68.3182 129.018L60.1981 131.042C60.0279 131.085 59.8815 131.193 59.7912 131.344C59.7008 131.494 59.6738 131.674 59.7163 131.844C59.7587 132.014 59.8671 132.161 60.0174 132.251C60.1678 132.342 60.3479 132.368 60.5181 132.326L68.6382 130.302C68.8082 130.259 68.9542 130.151 69.0442 130C69.1352 129.85 69.1622 129.67 69.1192 129.5Z" fill="#1D1D1B"/>
<path d="M79.4847 170.447C79.4277 170.219 79.2837 170.023 79.0837 169.9C78.8827 169.778 78.6427 169.74 78.4137 169.793L70.2917 171.818C70.0617 171.875 69.8647 172.022 69.7417 172.225C69.6197 172.428 69.5837 172.672 69.6407 172.902C69.6987 173.132 69.8447 173.329 70.0477 173.452C70.2517 173.574 70.4947 173.61 70.7247 173.553L78.8447 171.528C78.9577 171.5 79.0647 171.449 79.1577 171.379C79.2517 171.31 79.3307 171.222 79.3907 171.121C79.4497 171.021 79.4887 170.909 79.5057 170.794C79.5217 170.678 79.5147 170.56 79.4847 170.447Z" fill="white"/>
<path d="M79.6973 170.395C79.7333 170.536 79.7413 170.682 79.7203 170.826C79.6993 170.97 79.6503 171.108 79.5763 171.233C79.5023 171.358 79.4043 171.467 79.2873 171.554C79.1713 171.641 79.0383 171.704 78.8983 171.74L70.7783 173.765C70.4923 173.836 70.1893 173.791 69.9363 173.639C69.6833 173.487 69.5013 173.241 69.4303 172.955C69.3593 172.669 69.4043 172.366 69.5563 172.113C69.7083 171.86 69.9543 171.678 70.2403 171.607L78.3593 169.582C78.5013 169.548 78.6473 169.542 78.7913 169.564C78.9343 169.586 79.0723 169.636 79.1963 169.712C79.3213 169.787 79.4293 169.886 79.5153 170.003C79.6013 170.121 79.6633 170.254 79.6973 170.395ZM78.7903 171.308C78.9613 171.266 79.1093 171.156 79.2003 171.005C79.2913 170.853 79.3183 170.672 79.2763 170.5C79.2333 170.328 79.1243 170.181 78.9723 170.09C78.8203 169.999 78.6393 169.972 78.4673 170.014L70.3483 172.039C70.1763 172.082 70.0283 172.191 69.9373 172.342C69.8463 172.494 69.8193 172.676 69.8623 172.847C69.9053 173.019 70.0143 173.166 70.1653 173.257C70.3173 173.348 70.4993 173.376 70.6703 173.333L78.7903 171.308Z" fill="#1D1D1B"/>
<path d="M70.7913 171.699L68.7812 163.638L62.7615 173.766L56.4561 169.936L66.2453 153.466L61.6424 135.005L68.7663 133.229L77.9153 169.923L70.7913 171.699Z" fill="white"/>
<path d="M68.9802 133.174L78.1292 169.868C78.1362 169.897 78.1382 169.926 78.1332 169.955C78.1292 169.984 78.1202 170.011 78.1052 170.036C78.0902 170.061 78.0702 170.083 78.0472 170.101C78.0242 170.118 77.9972 170.131 77.9692 170.138L70.8452 171.915C70.8172 171.922 70.7882 171.923 70.7592 171.918C70.7302 171.914 70.7022 171.903 70.6782 171.888C70.6532 171.873 70.6312 171.853 70.6142 171.829C70.5972 171.806 70.5852 171.779 70.5782 171.751L68.6982 164.21L62.9504 173.879C62.919 173.928 62.8704 173.963 62.8144 173.977C62.7584 173.991 62.6991 173.983 62.6486 173.955L56.3501 170.123C56.3 170.092 56.2641 170.043 56.2499 169.985C56.2357 169.928 56.2442 169.868 56.274 169.817L66.0172 153.427L61.436 135.055C61.4288 135.027 61.427 134.997 61.4312 134.968C61.4353 134.94 61.4449 134.912 61.4597 134.887C61.4744 134.862 61.4941 134.84 61.5173 134.822C61.5406 134.805 61.5671 134.792 61.5953 134.785L68.7192 133.009C68.7762 132.997 68.8342 133.008 68.8832 133.038C68.9312 133.069 68.9662 133.118 68.9802 133.174ZM66.4582 153.411C66.4732 153.468 66.4642 153.528 66.4342 153.579L56.7578 169.859L62.6862 173.463L68.5912 163.515C68.6122 163.477 68.6452 163.446 68.6852 163.428C68.7242 163.409 68.7682 163.403 68.8112 163.41C68.8552 163.416 68.8952 163.436 68.9282 163.466C68.9602 163.495 68.9822 163.534 68.9932 163.576L70.9492 171.423L77.6532 169.751L68.6142 133.495L61.9098 135.167L66.4582 153.411Z" fill="#1D1D1B"/>
<path d="M63.5068 175.253C63.6253 175.051 63.6599 174.811 63.6033 174.584C63.5467 174.357 63.4033 174.161 63.204 174.039L56.017 169.673C55.9178 169.612 55.8073 169.571 55.6921 169.553C55.5769 169.536 55.4594 169.541 55.3463 169.569C55.2332 169.597 55.127 169.648 55.0336 169.717C54.9403 169.787 54.8618 169.875 54.8028 169.975C54.6843 170.177 54.6497 170.417 54.7063 170.644C54.7629 170.871 54.9063 171.067 55.1055 171.19L62.2925 175.556C62.3918 175.617 62.5023 175.657 62.6175 175.675C62.7327 175.693 62.8502 175.688 62.9633 175.659C63.0764 175.631 63.1826 175.581 63.2759 175.511C63.3693 175.441 63.4478 175.353 63.5068 175.253Z" fill="white"/>
<path d="M56.1278 169.476L63.3166 173.842C63.5673 173.996 63.7477 174.242 63.8189 174.527C63.8901 174.813 63.8464 175.115 63.6972 175.368C63.6231 175.493 63.525 175.602 63.4088 175.688C63.2923 175.774 63.1602 175.837 63.0195 175.872C62.8788 175.907 62.7327 175.914 62.5894 175.892C62.4461 175.871 62.3086 175.821 62.1846 175.745L54.9976 171.38C54.7458 171.227 54.5644 170.98 54.4932 170.695C54.4219 170.409 54.4664 170.106 54.617 169.853C54.6908 169.728 54.7886 169.62 54.9048 169.533C55.021 169.447 55.1532 169.384 55.2937 169.349C55.4342 169.314 55.5803 169.307 55.7235 169.329C55.8668 169.351 56.0042 169.401 56.1278 169.476ZM63.3197 175.147C63.409 174.995 63.4353 174.814 63.3926 174.643C63.35 174.471 63.2417 174.324 63.0913 174.231L55.9043 169.866C55.8301 169.82 55.7476 169.79 55.6616 169.777C55.5756 169.764 55.4878 169.768 55.4035 169.789C55.3192 169.81 55.2398 169.848 55.17 169.9C55.1002 169.952 55.0415 170.017 54.9971 170.092C54.9077 170.244 54.8814 170.425 54.9241 170.596C54.9668 170.768 55.0751 170.915 55.2255 171.008L62.4142 175.373C62.4883 175.418 62.5708 175.448 62.6566 175.461C62.7424 175.474 62.8298 175.47 62.9141 175.449C62.9984 175.428 63.0775 175.391 63.1471 175.339C63.2167 175.287 63.2754 175.222 63.3197 175.147Z" fill="#1D1D1B"/>
<path d="M69.9065 132.026C69.8795 131.912 69.8305 131.805 69.7615 131.71C69.6935 131.616 69.6065 131.536 69.5065 131.475C69.4075 131.414 69.2965 131.374 69.1815 131.356C69.0655 131.338 68.9475 131.343 68.8345 131.371L60.7133 133.396C60.5047 133.471 60.3313 133.621 60.2267 133.816C60.1223 134.012 60.094 134.239 60.1477 134.454C60.2013 134.669 60.3329 134.856 60.5168 134.98C60.7009 135.103 60.9243 135.154 61.1436 135.122L69.2635 133.098C69.4895 133.039 69.6835 132.893 69.8035 132.693C69.9235 132.492 69.9605 132.253 69.9065 132.026Z" fill="white"/>
<path d="M70.1174 131.973C70.1534 132.114 70.1614 132.26 70.1404 132.404C70.1194 132.548 70.0704 132.686 69.9964 132.811C69.9224 132.936 69.8244 133.045 69.7074 133.132C69.5914 133.219 69.4594 133.282 69.3184 133.318L61.1984 135.343C60.9122 135.414 60.6094 135.369 60.3567 135.217C60.1039 135.065 59.9218 134.819 59.8505 134.533C59.7791 134.247 59.8243 133.944 59.9763 133.691C60.1281 133.438 60.3742 133.256 60.6604 133.185L68.7804 131.16C68.9214 131.126 69.0674 131.12 69.2114 131.142C69.3554 131.164 69.4924 131.214 69.6174 131.29C69.7414 131.365 69.8494 131.464 69.9354 131.582C70.0214 131.699 70.0834 131.832 70.1174 131.973ZM69.2104 132.886C69.3824 132.844 69.5294 132.734 69.6204 132.583C69.7114 132.431 69.7384 132.25 69.6964 132.078C69.6534 131.906 69.5444 131.759 69.3924 131.668C69.2414 131.577 69.0594 131.55 68.8874 131.592L60.7681 133.617C60.5965 133.66 60.4489 133.769 60.3578 133.921C60.2667 134.072 60.2396 134.254 60.2824 134.425C60.3251 134.597 60.4344 134.744 60.5859 134.835C60.7375 134.926 60.9191 134.954 61.0907 134.911L69.2104 132.886Z" fill="#1D1D1B"/>
<path d="M75.3537 163.811C75.1717 163.08 74.4337 162.935 73.8917 162.867L70.8957 163.614C70.4507 163.932 69.8747 164.401 70.0497 165.133C70.0507 165.137 70.0517 165.141 70.0527 165.145L71.1897 169.704C71.2507 169.949 71.6957 170.05 72.1677 169.932L75.7217 169.046C76.2037 168.926 76.5387 168.63 76.4777 168.386L75.3387 163.815L75.3537 163.811Z" fill="#FF8300"/>
<path d="M73.7983 161.352L70.3203 162.219C70.2733 162.231 70.2453 162.279 70.2563 162.326L70.5363 163.448C70.5483 163.495 70.5953 163.523 70.6423 163.512L74.1203 162.645C74.1673 162.633 74.1963 162.585 74.1843 162.538L73.9043 161.416C73.8923 161.369 73.8453 161.341 73.7983 161.352Z" fill="#FF8300"/>
<path d="M69.0664 136.689L63.0781 138.182C63.1375 138.975 63.2539 139.763 63.4261 140.539C64.0935 143.216 66.8924 148.795 66.8924 148.795C66.9134 148.83 66.9444 148.858 66.9814 148.875C67.0184 148.892 67.0594 148.897 67.0994 148.889L70.5344 148.033C70.5734 148.021 70.6074 147.997 70.6324 147.965C70.6574 147.932 70.6714 147.893 70.6734 147.852C70.6734 147.852 70.5164 141.614 69.8584 138.935C69.6474 138.169 69.3824 137.419 69.0664 136.689Z" fill="#FF8300"/>
<path d="M68.8612 136.288C68.3942 135.43 67.7731 134.645 67.1031 134.781C67.0561 134.793 66.2772 134.987 65.5142 135.177C64.751 135.367 63.9704 135.562 63.9253 135.573C63.27 135.768 63.0899 136.752 63.0811 137.729L68.8612 136.288Z" fill="#FF8300"/>
<path d="M63.6331 163.259L63.6539 163.224C63.6787 163.182 63.712 163.145 63.7514 163.115C63.7909 163.086 63.8359 163.065 63.8838 163.053C64.0647 163.037 64.246 163.079 64.4018 163.173C64.5574 163.266 64.6795 163.407 64.7507 163.574C64.7753 163.669 64.7609 163.771 64.7106 163.856L64.688 163.891L64.6685 163.917L66.3829 164.941C66.9509 163.641 66.4579 162.966 65.8209 162.552C65.4359 162.301 64.6477 161.831 64.2446 161.611C63.581 161.247 62.7582 161.139 61.8916 162.26L63.6214 163.286L63.6331 163.259Z" fill="#229DD8"/>
<path d="M61.7684 162.461C61.4777 162.874 61.2332 163.318 61.0392 163.785C59.843 166.532 58.8417 168.893 58.8417 168.893C58.8257 168.965 58.8349 169.041 58.8675 169.107C58.9 169.173 58.9541 169.226 59.0209 169.258L61.5842 170.789C61.644 170.833 61.7169 170.856 61.7912 170.853C61.8654 170.851 61.9367 170.823 61.9935 170.776C61.9935 170.776 63.7023 168.68 65.4606 166.421C65.7766 166.028 66.0496 165.6 66.2726 165.147L61.7684 162.461Z" fill="#229DD8"/>
<path d="M63.9087 159.082L68.5417 151.164C68.6037 151.059 68.6927 150.972 68.7987 150.911C68.9047 150.851 69.0257 150.819 69.1477 150.82C69.2697 150.821 69.3897 150.854 69.4957 150.916C69.6007 150.978 69.6887 151.066 69.7487 151.173L74.2727 159.151C74.3337 159.257 74.3657 159.377 74.3647 159.5C74.3637 159.622 74.3307 159.742 74.2687 159.847C74.2067 159.953 74.1187 160.04 74.0117 160.101C73.9057 160.161 73.7847 160.192 73.6627 160.191L64.5055 160.13C64.3833 160.13 64.2634 160.096 64.1581 160.035C64.0525 159.973 63.9653 159.884 63.9047 159.778C63.8443 159.672 63.8129 159.552 63.8135 159.429C63.8142 159.307 63.8471 159.187 63.9087 159.082Z" fill="#479799"/>
<path d="M70.8724 155.914L69.0784 155.368C69.0764 155.367 69.0734 155.365 69.0734 155.365C69.0714 155.364 69.0704 155.362 69.0704 155.36C69.0694 155.358 69.0694 155.356 69.0704 155.354C69.0704 155.352 69.0734 155.349 69.0734 155.349L69.6174 155.046C69.6184 155.043 69.6184 155.041 69.6174 155.038C69.6174 155.036 69.6154 155.033 69.6134 155.032L69.2804 154.435C69.2684 154.413 69.2514 154.395 69.2294 154.382C69.2084 154.37 69.1844 154.363 69.1594 154.362C69.1344 154.362 69.1094 154.368 69.0874 154.38C69.0664 154.391 69.0474 154.409 69.0344 154.43L68.4384 155.445C68.4224 155.471 68.3964 155.49 68.3664 155.497C68.3364 155.504 68.3054 155.5 68.2784 155.484L67.3624 154.928C67.3494 154.92 67.3384 154.91 67.3294 154.898C67.3204 154.886 67.3134 154.873 67.3104 154.858C67.3064 154.844 67.3054 154.828 67.3084 154.814C67.3104 154.799 67.3154 154.785 67.3234 154.772L68.1944 153.278C68.2254 153.225 68.2704 153.181 68.3234 153.15C68.3774 153.119 68.4374 153.103 68.4994 153.102L69.8544 153.102C69.9174 153.102 69.9794 153.119 70.0334 153.151C70.0874 153.182 70.1324 153.228 70.1634 153.283L70.7614 154.342C70.7634 154.343 70.7654 154.343 70.7674 154.343C70.7694 154.342 70.7714 154.341 70.7734 154.339L71.3364 154.026C71.3384 154.024 71.3404 154.024 71.3424 154.024C71.3444 154.024 71.3484 154.026 71.3484 154.026C71.3504 154.028 71.3514 154.029 71.3524 154.032C71.3534 154.034 71.3534 154.036 71.3524 154.038L70.8854 155.907L70.8844 155.911L70.8814 155.914C70.8794 155.914 70.8774 155.915 70.8774 155.915C70.8754 155.915 70.8744 155.914 70.8724 155.914Z" fill="white"/>
<path d="M67.6564 155.519L68.0474 157.345C68.0474 157.345 68.0464 157.348 68.0444 157.349L68.0404 157.351C68.0384 157.352 68.0354 157.351 68.0354 157.351C68.0334 157.351 68.0304 157.349 68.0304 157.349L67.4994 157.023C67.4974 157.021 67.4944 157.021 67.4914 157.022C67.4894 157.022 67.4874 157.024 67.4854 157.026L67.1294 157.614C67.1164 157.635 67.1084 157.659 67.1074 157.685C67.1074 157.709 67.1124 157.734 67.1244 157.756C67.1364 157.778 67.1544 157.796 67.1754 157.809C67.1964 157.822 67.2204 157.83 67.2454 157.83L68.4374 157.866C68.4684 157.867 68.4974 157.88 68.5184 157.903C68.5394 157.925 68.5514 157.955 68.5504 157.986L68.5094 159.057C68.5084 159.087 68.4954 159.116 68.4734 159.137C68.4514 159.158 68.4224 159.17 68.3924 159.169L66.6644 159.136C66.6034 159.134 66.5434 159.117 66.4904 159.085C66.4374 159.053 66.3934 159.008 66.3634 158.955L65.6994 157.77C65.6694 157.715 65.6534 157.653 65.6554 157.59C65.6564 157.527 65.6744 157.466 65.7064 157.413L66.3414 156.375L66.3434 156.371L66.3424 156.367L66.3404 156.363L66.3374 156.36L65.7904 156.023C65.7884 156.022 65.7854 156.02 65.7854 156.02C65.7834 156.018 65.7824 156.017 65.7824 156.015C65.7814 156.012 65.7814 156.01 65.7824 156.008C65.7834 156.006 65.7844 156.005 65.7864 156.003L67.6364 155.509C67.6364 155.509 67.6404 155.506 67.6424 155.506C67.6454 155.506 67.6474 155.506 67.6494 155.507C67.6514 155.508 67.6534 155.51 67.6554 155.512C67.6564 155.514 67.6564 155.516 67.6564 155.519Z" fill="white"/>
<path d="M68.9082 158.493L70.2882 157.228C70.2902 157.227 70.2922 157.225 70.2942 157.225C70.2962 157.224 70.2982 157.225 70.3002 157.225C70.3022 157.226 70.3042 157.228 70.3052 157.23C70.3062 157.232 70.3072 157.234 70.3072 157.236L70.2922 157.859C70.2922 157.861 70.2912 157.864 70.2922 157.867C70.2932 157.869 70.2942 157.871 70.2962 157.873L70.9792 157.887C71.0052 157.888 71.0312 157.883 71.0542 157.87C71.0772 157.858 71.0962 157.84 71.1102 157.818C71.1232 157.795 71.1302 157.77 71.1302 157.744C71.1302 157.718 71.1232 157.692 71.1092 157.67L70.5392 156.622C70.5312 156.609 70.5272 156.594 70.5252 156.579C70.5242 156.564 70.5252 156.548 70.5302 156.534C70.5342 156.519 70.5412 156.505 70.5512 156.494C70.5612 156.482 70.5732 156.472 70.5862 156.465L71.5302 155.959C71.5572 155.945 71.5882 155.942 71.6172 155.95C71.6462 155.959 71.6712 155.978 71.6852 156.005L72.5302 157.513C72.5592 157.567 72.5752 157.628 72.5742 157.69C72.5732 157.752 72.5562 157.813 72.5252 157.866L71.8522 159.044C71.8192 159.097 71.7742 159.142 71.7192 159.172C71.6642 159.203 71.6022 159.218 71.5392 159.217L70.3232 159.193C70.3212 159.192 70.3192 159.192 70.3162 159.192C70.3142 159.193 70.3112 159.196 70.3112 159.196L70.2882 159.843C70.2872 159.845 70.2852 159.848 70.2852 159.848C70.2852 159.848 70.2822 159.851 70.2802 159.851C70.2782 159.852 70.2762 159.852 70.2742 159.851C70.2722 159.85 70.2692 159.847 70.2692 159.847L68.9082 158.501C68.9082 158.498 68.9082 158.496 68.9082 158.493Z" fill="white"/>
<path d="M38.4878 137.138C38.4528 136.998 38.4457 136.852 38.4672 136.709C38.4884 136.566 38.5378 136.429 38.6123 136.305C38.6868 136.181 38.785 136.073 38.9013 135.987C39.0175 135.901 39.1495 135.838 39.2899 135.803L47.4096 133.779C47.693 133.708 47.9929 133.753 48.2432 133.903C48.4935 134.054 48.6738 134.297 48.7445 134.581C48.8152 134.864 48.7703 135.164 48.62 135.415C48.4696 135.665 48.2258 135.845 47.9424 135.916L39.8227 137.94C39.6824 137.975 39.5365 137.982 39.3936 137.961C39.2505 137.94 39.113 137.89 38.9891 137.816C38.8651 137.741 38.757 137.643 38.6711 137.527C38.585 137.411 38.5228 137.279 38.4878 137.138ZM48.3178 134.687C48.2753 134.517 48.167 134.371 48.0166 134.28C47.8662 134.19 47.6861 134.163 47.5159 134.206L39.3963 136.23C39.2261 136.272 39.0797 136.381 38.9894 136.531C38.899 136.682 38.8721 136.862 38.9145 137.032C38.9569 137.202 39.0653 137.349 39.2157 137.439C39.366 137.529 39.5461 137.556 39.7163 137.514L47.836 135.489C48.0062 135.447 48.1525 135.338 48.2429 135.188C48.3333 135.038 48.3602 134.857 48.3178 134.687Z" fill="#1D1D1B"/>
<path d="M48.531 134.633C48.5875 134.86 48.5518 135.1 48.4313 135.3C48.3108 135.501 48.1159 135.645 47.889 135.701L39.7693 137.726C39.5425 137.782 39.3027 137.746 39.1022 137.626C38.9018 137.506 38.7575 137.311 38.701 137.084C38.6444 136.857 38.6802 136.617 38.8007 136.417C38.9212 136.216 39.116 136.072 39.3429 136.015L47.4626 133.991C47.6895 133.934 47.9293 133.97 48.1297 134.091C48.3302 134.211 48.4745 134.406 48.531 134.633Z" fill="white"/>
<defs>
<clipPath id="clip0_4727_636">
<rect width="66.71" height="64.1606" fill="white" transform="translate(15.6616) rotate(14)"/>
</clipPath>
</defs>
</svg>
