<svg width="87" height="185" viewBox="0 0 87 185" fill="none" xmlns="http://www.w3.org/2000/svg">
<path fill-rule="evenodd" clip-rule="evenodd" d="M28.3055 1.17622C29.8888 0.906672 31.1449 0.692821 31.7264 0.586492C32.3375 0.474747 32.8489 0.552855 33.2715 0.778906C33.6903 1.0029 33.9968 1.35873 34.2262 1.76033C34.6748 2.54579 34.8624 3.57156 35.0007 4.32813L35.0045 4.34903C35.1451 5.11773 36.393 11.815 37.6397 18.5063L37.6726 18.6829C38.9082 25.3138 40.133 31.8874 40.2673 32.6216C40.4062 33.3812 40.5358 34.6833 39.882 35.96C39.222 37.2489 37.7963 38.4513 34.9529 39.0727C30.5179 40.0419 20.4914 41.7823 15.6445 42.6237C14.3892 42.8416 13.4813 42.9991 13.108 43.0674C12.1785 43.2374 11.3111 43.2553 10.5917 42.5908C9.90089 41.9528 9.40123 40.7296 9.01449 38.6147L5.1042 17.2308C4.88357 16.0242 5.19179 14.784 5.59719 13.8235C5.80098 13.3406 6.03264 12.9205 6.24328 12.6005C6.34854 12.4406 6.45012 12.3033 6.54209 12.1945C6.55021 12.1849 6.55836 12.1754 6.56655 12.166C6.5405 12.1361 6.5137 12.1043 6.48656 12.0713C6.3639 11.9222 6.22135 11.7332 6.08735 11.5498C5.95283 11.3658 5.82466 11.1843 5.73026 11.0491C5.69298 10.9957 5.66091 10.9495 5.63571 10.913L4.63254 10.7011L3.83229 9.5522L5.58014 8.55555L5.53883 7.92658L5.62977 7.83988L5.81585 8.03377C5.62977 7.83988 5.62985 7.83981 5.62993 7.83974L5.63014 7.83954L5.63069 7.83902L5.63237 7.83743L5.638 7.83215C5.64275 7.82772 5.64951 7.82148 5.65821 7.81355C5.67561 7.7977 5.70082 7.77512 5.73343 7.7469C5.79861 7.69047 5.8935 7.61133 6.01479 7.51814C6.25708 7.332 6.60647 7.08847 7.03661 6.85774C7.88798 6.40105 9.07983 5.98185 10.3911 6.1877C10.4295 6.19043 10.4582 6.20065 10.471 6.20564C10.5184 6.22409 10.5499 6.25242 10.5556 6.25754C10.5558 6.25776 10.556 6.25794 10.5562 6.25807C10.5753 6.275 10.5909 6.29325 10.5982 6.30196C10.6168 6.32386 10.6388 6.35265 10.6606 6.38195C10.7055 6.44234 10.7632 6.52376 10.8192 6.60382C10.8755 6.68441 10.9315 6.76568 10.9732 6.82668C10.9942 6.85721 11.0116 6.88273 11.0238 6.90065L11.043 6.92887L11.0431 6.929C11.0431 6.92901 11.0431 6.92902 10.8198 7.07956L11.0431 6.929L11.1107 7.02873L10.6615 8.78711L9.5087 9.07584L9.7481 9.55555L11.0265 9.07605C11.0341 9.05165 11.0428 9.02409 11.0526 8.99356C11.0954 8.85938 11.159 8.66774 11.2427 8.43611C11.4097 7.97342 11.6575 7.34844 11.9801 6.7021C12.302 6.05717 12.7027 5.38229 13.178 4.82509C13.651 4.27058 14.2168 3.81031 14.8738 3.63383C16.0535 3.31688 19.7174 2.65619 23.3462 2.02634C25.0959 1.72266 26.8407 1.4256 28.3055 1.17622ZM11.5049 9.35416L11.4675 9.48411L9.48206 10.2288L8.72804 8.71789L10.2188 8.34453L10.5289 7.13081C10.5286 7.13048 10.5284 7.13015 10.5282 7.12982C10.4869 7.06959 10.432 6.98982 10.377 6.91112C10.3233 6.83436 10.2709 6.76051 10.2313 6.70704C9.11024 6.55362 8.07087 6.91239 7.29149 7.33046C6.89266 7.5444 6.56795 7.7707 6.34338 7.94323C6.23553 8.02609 6.15117 8.09624 6.09322 8.14621L6.13975 8.85472L4.61022 9.72688L4.95362 10.2199L5.95932 10.4323L6.02013 10.5216L6.0307 10.537C6.03771 10.5473 6.04807 10.5624 6.06135 10.5816C6.08791 10.6202 6.12613 10.6755 6.17263 10.7421C6.2657 10.8754 6.3915 11.0534 6.52298 11.2333C6.65498 11.4139 6.79045 11.5933 6.90336 11.7306C6.96015 11.7996 7.00803 11.854 7.04489 11.8915C7.05851 11.9054 7.06887 11.9151 7.07617 11.9216L7.5517 12.098L7.10445 12.3889C7.08448 12.4019 7.03322 12.4464 6.95391 12.5402C6.87883 12.629 6.78998 12.7483 6.69364 12.8946C6.50108 13.1872 6.28487 13.5783 6.09377 14.0311C5.70938 14.9418 5.43972 16.0701 5.63424 17.1338L9.54452 38.5178C9.93013 40.6265 10.4082 41.6888 10.9582 42.1968C11.4796 42.6784 12.1161 42.703 13.0115 42.5393C13.3908 42.4699 14.3081 42.3107 15.5739 42.091C20.4306 41.2479 30.418 39.5142 34.8381 38.5482C37.5727 37.9506 38.8356 36.8228 39.4022 35.7164C39.975 34.5977 39.869 33.439 39.7373 32.7185C39.6032 31.9855 38.3788 25.4142 37.1431 18.7827L37.11 18.605C35.8634 11.9147 34.6153 5.21583 34.4745 4.44595C34.3318 3.66586 34.1569 2.72496 33.7579 2.0264C33.5614 1.68235 33.3196 1.41431 33.0163 1.25208C32.7168 1.09191 32.3325 1.02143 31.823 1.11461C31.2394 1.22131 29.9771 1.43623 28.3888 1.70664C26.9235 1.95611 25.1809 2.2528 23.438 2.55531C19.7939 3.1878 16.1628 3.84343 15.0134 4.15224C14.5057 4.28864 14.027 4.65825 13.5883 5.17255C13.1519 5.68417 12.7738 6.31704 12.4624 6.94076C12.1518 7.56306 11.9119 8.16762 11.7496 8.61731C11.6685 8.84187 11.607 9.02712 11.5659 9.15579C11.5454 9.22011 11.53 9.27024 11.5198 9.30403C11.5147 9.32092 11.5108 9.33372 11.5084 9.34216L11.5056 9.35151L11.505 9.35367L11.5049 9.35416ZM7.08707 11.9304C7.08707 11.9305 7.08635 11.93 7.08485 11.9288C7.08631 11.9298 7.08706 11.9304 7.08707 11.9304ZM16.3726 5.89547C16.124 6.03621 15.8886 6.26812 15.6724 6.55615C15.4484 6.85459 15.2553 7.1992 15.0968 7.53028C14.9548 7.82698 14.8426 8.10836 14.7621 8.32848C15.0143 8.27091 15.3593 8.19186 15.7732 8.09629C16.6754 7.88794 17.9046 7.60111 19.2124 7.28718C20.4518 6.99015 21.3773 6.23962 21.9982 5.5509C22.263 5.25719 22.47 4.97726 22.62 4.75349C22.4776 4.77935 22.3134 4.80919 22.1321 4.84214C21.489 4.959 20.6313 5.11496 19.773 5.27132C18.9146 5.42769 18.0557 5.58446 17.4102 5.70295C17.0873 5.76221 16.818 5.81185 16.6289 5.84708C16.5342 5.86471 16.4601 5.87865 16.4094 5.88836C16.395 5.89111 16.3828 5.89348 16.3726 5.89547ZM23.1558 4.38339C23.3972 4.50218 23.3971 4.50228 23.3971 4.50238L23.397 4.50264L23.3966 4.50334L23.3956 4.50541L23.3921 4.51228C23.3891 4.51805 23.3849 4.52618 23.3795 4.53653C23.3686 4.55723 23.3527 4.58684 23.3317 4.62427C23.2898 4.69909 23.2276 4.80528 23.1449 4.93404C22.9797 5.1913 22.7317 5.54017 22.3988 5.90947C21.7347 6.64609 20.7198 7.47799 19.3378 7.80921C18.0281 8.12359 16.7974 8.41078 15.8941 8.61936C15.4425 8.72366 15.0727 8.80832 14.8157 8.86691C14.6873 8.8962 14.587 8.91898 14.5188 8.93444L14.4147 8.95804C14.4146 8.95804 14.4145 8.95806 14.3554 8.69623C14.0964 8.62274 14.0964 8.62268 14.0964 8.62261L14.0966 8.62189L14.0971 8.62018L14.0989 8.61418C14.1004 8.60905 14.1025 8.60169 14.1054 8.59223C14.1111 8.57331 14.1195 8.54597 14.1305 8.51121C14.1526 8.44173 14.1853 8.34248 14.2283 8.22165C14.3143 7.98036 14.4424 7.651 14.6106 7.29958C14.7785 6.94896 14.989 6.57082 15.2412 6.23484C15.4919 5.90081 15.7946 5.59407 16.1515 5.40423L16.1518 5.40471C16.1645 5.39821 16.1775 5.39216 16.1831 5.38994C16.188 5.38812 16.1962 5.38534 16.1996 5.38429C16.206 5.38232 16.2112 5.38097 16.2135 5.38039C16.2187 5.37908 16.2233 5.37803 16.2261 5.37742C16.2322 5.37608 16.2393 5.3746 16.2466 5.37314C16.2615 5.37012 16.2824 5.36605 16.3083 5.36109C16.3604 5.35111 16.4357 5.33696 16.5306 5.31929C16.7204 5.28392 16.9903 5.23418 17.3132 5.1749C17.9592 5.05634 18.8184 4.89952 19.6768 4.74314C20.5352 4.58676 21.393 4.43079 22.0361 4.31391C22.3577 4.25548 22.6256 4.20682 22.8132 4.17276L23.1078 4.11928C23.1078 4.11927 23.1078 4.11926 23.1558 4.38339ZM14.3554 8.69623L14.0964 8.62261L13.9715 9.05809L14.4147 8.95804L14.3554 8.69623ZM23.1558 4.38339L23.1078 4.11928L23.6347 4.02363L23.3972 4.50218L23.1558 4.38339Z" fill="#1D1D1B"/>
<path d="M19.1987 36.1829L19.883 39.925C20.3058 39.9598 20.9732 39.8694 21.0288 39.8592C22.3305 39.6162 25.0559 38.2666 25.0559 38.2666C25.0754 38.2511 25.09 38.2314 25.0982 38.2099C25.1064 38.1882 25.1079 38.1654 25.1025 38.1437L24.7103 35.9989C24.7077 35.9768 24.6983 35.9561 24.6829 35.9389C24.6676 35.9217 24.647 35.9087 24.6233 35.9012C24.6233 35.9012 21.5967 35.6034 20.2929 35.8347C20.2405 35.8443 19.5843 36.0002 19.1987 36.1829Z" fill="#FF8300"/>
<path d="M19.1724 36.0396C18.7547 36.2872 18.3739 36.6448 18.4436 37.108L18.4443 37.1119C18.4501 37.1437 18.5493 37.6863 18.6464 38.2173C18.7435 38.7484 18.8426 39.2902 18.8485 39.3227C18.948 39.7845 19.4302 39.9812 19.9084 40.0641L19.1724 36.0396Z" fill="#FF8300"/>
<path d="M14.0041 35.5792C13.856 34.796 13.3556 34.5456 12.9808 34.399L10.9632 34.7679C10.6684 35.037 10.289 35.4482 10.4277 36.2332C10.4281 36.2371 10.4288 36.241 10.4298 36.2448L11.3252 41.1411C11.373 41.403 11.678 41.5691 12.003 41.5097L14.3987 41.0716C14.7238 41.0122 14.9497 40.746 14.9023 40.487L14.007 35.5907C14.0063 35.5868 14.0053 35.583 14.0041 35.5792Z" fill="#479799"/>
<path d="M12.9212 32.5615L10.8203 32.9457C10.783 32.9525 10.7583 32.9878 10.765 33.0246L10.9859 34.2329C10.9927 34.2697 11.0283 34.294 11.0656 34.2872L13.1665 33.903C13.2038 33.8962 13.2285 33.8609 13.2218 33.8241L13.0008 32.6157C12.9941 32.5789 12.9585 32.5547 12.9212 32.5615Z" fill="#479799"/>
<path d="M15.5673 34.8249L15.5617 34.7941C15.5473 34.7223 15.5578 34.6477 15.5916 34.5822C15.6238 34.5353 15.6652 34.4951 15.7134 34.4641C15.7615 34.433 15.8155 34.4117 15.872 34.4014C15.9285 34.391 15.9865 34.3919 16.0425 34.4039C16.0986 34.4159 16.1515 34.4388 16.1982 34.4713C16.253 34.5206 16.2892 34.5867 16.3012 34.6589L16.3068 34.6897C16.3088 34.6978 16.3102 34.706 16.3113 34.7142L17.5038 34.4962C17.2022 33.4527 16.6967 33.2887 16.2386 33.3515C15.9618 33.3883 15.4116 33.4889 15.1397 33.5524C14.6914 33.6569 14.2816 33.9882 14.3736 35.0686L15.574 34.8491C15.5718 34.8415 15.5693 34.8318 15.5673 34.8249Z" fill="#229DD8"/>
<path d="M14.3854 35.0679C14.4427 35.5069 14.5327 35.9415 14.6543 36.3668C15.3492 38.8928 15.9602 41.0518 15.9602 41.0518C15.9783 41.1041 16.0122 41.1483 16.0557 41.1764C16.0993 41.2043 16.1496 41.2143 16.1977 41.2045L17.9644 40.8815C18.0131 40.8735 18.0569 40.8461 18.0878 40.8042C18.1188 40.7622 18.1347 40.7086 18.1329 40.6529C18.1329 40.6529 17.9443 38.2991 17.7034 35.8075C17.6651 35.3668 17.5941 34.9289 17.491 34.4983L14.3854 35.0679Z" fill="#229DD8"/>
<path d="M10.8095 28.1132C10.9143 27.9983 11.0603 27.9232 11.2187 27.9027C11.3743 27.8656 11.5377 27.8842 11.6766 27.9547C11.7111 27.976 11.7405 28.0037 11.763 28.0362C11.7855 28.0687 11.8007 28.1052 11.8076 28.1436L13.5123 27.8319C13.1654 26.7476 12.4679 26.6735 11.8123 26.7671C11.4163 26.8253 10.6277 26.9695 10.2367 27.0552C9.59311 27.1969 8.97307 27.5112 9.0406 28.6496L10.7515 28.3368C10.7443 28.2981 10.7457 28.2584 10.7557 28.2199C10.7657 28.1815 10.784 28.1451 10.8095 28.1132Z" fill="#FF8300"/>
<path d="M9.05442 28.65C9.0992 29.0555 9.19057 29.4544 9.32686 29.8394C10.0895 32.1068 10.2593 32.4 10.2593 32.4C10.292 32.496 10.4394 32.5528 10.5858 32.526L13.4291 32.0061C13.5755 31.9793 13.694 31.8739 13.6914 31.7724C13.6914 31.7724 13.7628 31.327 13.6699 29.0421C13.6592 28.634 13.6012 28.229 13.4969 27.8346L9.05442 28.65Z" fill="#FF8300"/>
<path d="M21.6839 35.1147C22.375 34.9834 22.411 34.3462 22.5207 34.133L22.3239 33.0569C22.1454 32.894 21.8859 32.3083 21.1938 32.4349L18.0147 33.0162C17.845 33.0473 17.7419 33.2716 17.7865 33.5154L18.1151 35.3124C18.1591 35.5529 18.3356 35.7303 18.5053 35.6993L21.6844 35.1179L21.6839 35.1147Z" fill="#479799"/>
<path d="M22.7881 33.0676L22.3409 33.1494L22.5045 34.0438L22.9517 33.962L22.7881 33.0676Z" fill="#479799"/>
<path d="M23.4895 32.9391C23.5439 32.9321 23.5979 32.9434 23.6401 32.9706C23.6824 32.9978 23.7094 33.0388 23.7152 33.0847L23.8127 33.6175C23.8236 33.6624 23.813 33.7104 23.7831 33.7508C23.7532 33.7913 23.7065 33.821 23.653 33.8335L22.9516 33.9617L22.7881 33.0674L23.4895 32.9391Z" fill="#479799"/>
<path d="M8.36632 9.17828C8.13114 8.86456 7.6906 9.04568 7.52216 9.0561L6.83164 9.4922C6.75906 9.63458 6.4169 9.94922 6.64532 10.2669C6.64567 10.2682 6.64591 10.2695 6.64605 10.2708L7.71222 11.7175C7.76894 11.7947 7.94725 11.7771 8.1003 11.6784L9.25273 10.9493C9.40915 10.8527 9.48993 10.7061 9.43321 10.6288L8.36993 9.18169L8.36632 9.17828Z" fill="#479799"/>
<path d="M7.1417 8.66345L6.38939 9.0955L6.50898 9.24127L7.26129 8.80922L7.1417 8.66345Z" fill="#479799"/>
<path d="M6.34573 8.82338C6.31055 8.76193 6.34122 8.66368 6.41492 8.60433L6.80603 8.28789C6.87974 8.22855 6.96915 8.23055 7.00433 8.29199L7.24066 8.69643L6.58206 9.22781L6.34573 8.82338Z" fill="#479799"/>
<path d="M29.9657 23.4367L27.8706 23.8198C27.7083 23.8495 27.597 23.9846 27.622 24.1216L27.6948 24.5198C27.7199 24.6568 27.8718 24.7438 28.0341 24.7141L30.1293 24.331C30.2916 24.3013 30.4029 24.1662 30.3779 24.0291L30.3051 23.631C30.28 23.494 30.1281 23.407 29.9657 23.4367Z" fill="#479799"/>
<path d="M30.2118 24.3159L27.9518 24.7292L28.2743 30.2157L31.8517 29.5615L30.2118 24.3159Z" fill="#479799"/>
<path d="M28.3223 30.4687C28.323 30.4936 28.3298 30.5178 28.3421 30.5397C28.3544 30.5617 28.372 30.5807 28.3937 30.5958C28.4154 30.6108 28.4407 30.6214 28.4679 30.6268C28.4952 30.6323 28.5237 30.6324 28.5515 30.6273L31.738 30.0446C31.7659 30.0395 31.7924 30.0293 31.816 30.0146C31.8395 29.9999 31.8594 29.981 31.8745 29.9593C31.8894 29.9375 31.8991 29.9135 31.9029 29.8886C31.9066 29.8637 31.9044 29.8387 31.8962 29.8152L31.8112 29.5691L28.3148 30.2084L28.3223 30.4687Z" fill="#479799"/>
<path d="M30.7517 23.3048C30.7565 23.2973 30.764 23.2918 30.7727 23.2892L32.8767 22.9045C32.8858 22.9038 32.8947 22.9063 32.9019 22.9116C32.9227 22.9298 32.9395 22.9519 32.9512 22.9765C32.9629 23.0011 32.9693 23.0278 32.9701 23.055L32.9793 23.1953L30.7797 23.5975L30.7387 23.4631C30.7298 23.4373 30.7263 23.4101 30.7286 23.383C30.7308 23.3558 30.7387 23.3292 30.7517 23.3048ZM33.3309 28.7762L32.429 28.9412L30.8057 23.6629L32.9877 23.2639L33.3309 28.7762ZM33.4862 29.625C33.4882 29.6382 33.4873 29.6517 33.4839 29.6646C33.4804 29.6776 33.4743 29.6898 33.4658 29.7007C33.4575 29.7115 33.4469 29.7206 33.4348 29.7276C33.4228 29.7346 33.4094 29.7393 33.3956 29.7414L32.6703 29.874C32.6515 29.8779 32.632 29.8746 32.6161 29.8648C32.6001 29.855 32.589 29.8396 32.5851 29.8218L32.4372 29.013L33.3439 28.8472L33.4862 29.625Z" fill="#FF8300"/>
<path d="M33.5081 33.5662L34.1924 37.3083C34.5818 37.3492 35.1941 37.2689 35.2443 37.2597C36.4384 37.0363 38.9245 35.7305 38.9245 35.7305C38.942 35.7152 38.9549 35.6959 38.962 35.6744C38.9691 35.6531 38.9701 35.6304 38.9648 35.6088L38.5726 33.464C38.5698 33.4421 38.5609 33.4213 38.5468 33.4039C38.5325 33.3866 38.5136 33.3732 38.4919 33.3651C38.4919 33.3651 35.7046 33.0236 34.5084 33.2352C34.4581 33.2443 33.86 33.3897 33.5081 33.5662Z" fill="#FF8300"/>
<path d="M33.0347 33.5044C32.6174 33.7519 32.2362 34.1096 32.3059 34.5729L32.3066 34.5768C32.3124 34.6085 32.4116 35.1511 32.5087 35.6822C32.6058 36.2132 32.7049 36.7551 32.7108 36.7876C32.8103 37.2494 33.2929 37.4459 33.7707 37.529L33.0347 33.5044Z" fill="#FF8300"/>
<path d="M27.8673 33.0442C27.7198 32.2608 27.2747 32.0003 26.9422 31.846L25.1783 32.1685C24.9253 32.4299 24.6012 32.831 24.7371 33.6165C24.7379 33.6209 24.7392 33.6282 24.7392 33.6282L25.6345 38.5245C25.6824 38.7863 25.9546 38.9584 26.2388 38.9065L28.334 38.5233C28.6182 38.4714 28.8107 38.2113 28.7634 37.9523L27.868 33.056C27.868 33.052 27.8678 33.0481 27.8673 33.0442Z" fill="#479799"/>
<path d="M26.7836 30.0263L24.6827 30.4105C24.6454 30.4173 24.6207 30.4526 24.6274 30.4894L24.8484 31.6978C24.8551 31.7346 24.8907 31.7588 24.928 31.752L27.0289 31.3679C27.0662 31.361 27.091 31.3257 27.0842 31.2889L26.8633 30.0806C26.8565 30.0438 26.8209 30.0195 26.7836 30.0263Z" fill="#479799"/>
<path d="M29.5969 32.2592L29.5913 32.2283C29.5771 32.1566 29.591 32.0815 29.6307 32.0147C29.6686 31.9667 29.7168 31.9253 29.7725 31.8929C29.8282 31.8604 29.8902 31.8376 29.9549 31.8258C30.0196 31.814 30.0856 31.8133 30.1492 31.824C30.2128 31.8346 30.2725 31.8563 30.325 31.8878C30.3857 31.9362 30.4253 32.0015 30.4374 32.0736L30.4431 32.1044C30.4451 32.1125 30.4465 32.1207 30.4476 32.129L31.8132 31.8792C31.4971 30.8384 30.9257 30.6865 30.4025 30.7611C30.0865 30.8052 29.4576 30.9202 29.1464 30.9908C28.6333 31.1071 28.1576 31.4505 28.2358 32.5334L29.6079 32.2825C29.6016 32.2757 29.599 32.266 29.5969 32.2592Z" fill="#229DD8"/>
<path d="M28.2491 32.5313C28.3032 32.9709 28.3946 33.4052 28.5223 33.8294C29.2485 36.3497 29.8902 38.5031 29.8902 38.5031C29.909 38.5557 29.9464 38.5997 29.9954 38.627C30.0444 38.6545 30.1017 38.6634 30.1569 38.6521L32.1757 38.283C32.2313 38.2738 32.2818 38.2451 32.318 38.2022C32.3543 38.1593 32.3738 38.105 32.3732 38.0491C32.3732 38.0491 32.2179 35.6892 32.0075 33.1921C31.9752 32.7503 31.9051 32.3121 31.798 31.8823L28.2491 32.5313Z" fill="#229DD8"/>
<path d="M24.6711 25.5782C24.7816 25.4698 24.9249 25.3961 25.0807 25.3676C25.2365 25.3392 25.3966 25.3573 25.5383 25.4197C25.5731 25.4407 25.6028 25.4682 25.6255 25.5007C25.6482 25.5332 25.6634 25.5699 25.67 25.6085L27.3747 25.2968C27.027 24.2126 26.3303 24.1383 25.6739 24.2321C25.2826 24.2894 24.4893 24.4345 24.0991 24.5201C23.4548 24.6619 22.8355 24.976 22.903 26.1145L24.6139 25.8016C24.607 25.7631 24.6085 25.7234 24.6183 25.685C24.6282 25.6466 24.6462 25.6103 24.6711 25.5782Z" fill="#FF8300"/>
<path d="M22.9161 26.1124C22.9612 26.5178 23.0526 26.9167 23.1885 27.3018C23.9511 29.5692 24.1223 29.8652 24.1223 29.8652C24.155 29.9612 24.3015 30.0182 24.4487 29.9913L27.2911 29.4715C27.4383 29.4446 27.5567 29.3392 27.5541 29.2377C27.5541 29.2377 27.6255 28.7922 27.5326 26.5074C27.5215 26.0993 27.4635 25.6943 27.3596 25.2998L22.9161 26.1124Z" fill="#FF8300"/>
<path d="M35.8951 32.5158C36.6555 32.3718 36.7054 31.732 36.8303 31.5161L36.6335 30.44C36.4366 30.2804 36.1663 29.6967 35.4051 29.8359L31.908 30.4754C31.7214 30.5095 31.6044 30.7365 31.6489 30.9802L31.9775 32.7772C32.0215 33.0178 32.212 33.1926 32.3987 33.1584L35.8957 32.519L35.8951 32.5158Z" fill="#479799"/>
<path d="M37.0974 30.4509L36.6503 30.5327L36.8138 31.4271L37.261 31.3453L37.0974 30.4509Z" fill="#479799"/>
<path d="M37.7989 30.3225C37.8533 30.3152 37.9076 30.3265 37.9499 30.3537C37.9922 30.3809 38.0192 30.422 38.0248 30.468L38.1222 31.0008C38.1332 31.0457 38.1225 31.0937 38.0926 31.1341C38.0627 31.1746 38.0158 31.2043 37.9624 31.2168L37.2612 31.345L37.0977 30.4507L37.7989 30.3225Z" fill="#479799"/>
<path d="M36.3601 24.1161L33.7485 24.5936C33.696 24.6032 33.6483 24.6291 33.6134 24.6668L33.3953 24.9023C33.372 24.9275 33.3552 24.9571 33.3462 24.9888C33.3373 25.0205 33.3365 25.0534 33.3438 25.0849L33.6596 26.4129C33.6669 26.4447 33.6825 26.4743 33.705 26.4991C33.7276 26.5239 33.7564 26.5432 33.7892 26.5555L34.0242 26.6441C34.0572 26.6567 34.0863 26.6765 34.1089 26.7017C34.1315 26.7269 34.147 26.7567 34.1542 26.789L34.408 27.9174C34.4156 27.9503 34.4142 27.9848 34.4038 28.0178C34.3934 28.0507 34.3744 28.081 34.3484 28.1061L34.201 28.2508C34.1747 28.2763 34.1556 28.307 34.1452 28.3403C34.1349 28.3736 34.1337 28.4085 34.1417 28.4418L34.3604 29.3641C34.373 29.416 34.407 29.4608 34.4554 29.4893C34.5038 29.5178 34.5631 29.5279 34.6209 29.5175L37.2973 29.028C37.3551 29.0173 37.407 28.987 37.4421 28.9431C37.4774 28.8993 37.4933 28.8454 37.4867 28.7925L37.3652 27.8547C37.3608 27.8201 37.3469 27.7874 37.3247 27.7595C37.3026 27.7316 37.2729 27.7096 37.2385 27.6954L37.0552 27.6204C37.0211 27.6066 36.9916 27.585 36.9696 27.5577C36.9475 27.5304 36.9336 27.4982 36.9291 27.4641L36.7647 26.3055C36.7602 26.2722 36.7645 26.2383 36.7773 26.2063C36.79 26.1744 36.8108 26.1454 36.838 26.1219L37.0221 25.9643C37.0489 25.9412 37.0696 25.9127 37.0824 25.8814C37.0952 25.85 37.0999 25.8165 37.0959 25.7837L36.9205 24.4301C36.9166 24.3976 36.9044 24.3665 36.8847 24.3396C36.865 24.3127 36.8385 24.2907 36.8074 24.2753L36.5073 24.1323C36.4621 24.1119 36.4103 24.1062 36.3601 24.1161Z" fill="#229DD8"/>
<path d="M33.874 22.931C33.8642 22.8774 33.8787 22.8217 33.9144 22.776C33.95 22.7303 34.0039 22.6985 34.0642 22.6875L35.3986 22.4435C35.4588 22.4325 35.5204 22.4432 35.57 22.4732C35.6195 22.5034 35.6529 22.5504 35.6627 22.6039L35.871 23.7434L34.0823 24.0705L33.874 22.931Z" fill="#229DD8"/>
<path d="M13.2414 10.3205L11.1462 10.7036C10.9839 10.7333 10.8726 10.8684 10.8977 11.0054L10.9705 11.4036C10.9955 11.5406 11.1474 11.6276 11.3098 11.5979L13.4049 11.2148C13.5673 11.1851 13.6786 11.05 13.6535 10.9129L13.5807 10.5148C13.5556 10.3778 13.4037 10.2908 13.2414 10.3205Z" fill="#479799"/>
<path d="M13.4874 11.2002L11.2274 11.6134L11.55 17.0999L15.1273 16.4458L13.4874 11.2002Z" fill="#479799"/>
<path d="M11.5981 17.3507C11.5983 17.376 11.6049 17.4006 11.6173 17.4229C11.6297 17.4453 11.6475 17.4647 11.6697 17.4798C11.6919 17.4951 11.7178 17.5057 11.7457 17.5109C11.7735 17.5161 11.8026 17.5159 11.831 17.5103L15.0136 16.9283C15.0416 16.9228 15.0683 16.912 15.0917 16.8967C15.1152 16.8816 15.1349 16.8622 15.1495 16.8401C15.1646 16.8184 15.1744 16.7945 15.1782 16.7697C15.1819 16.7449 15.1796 16.7201 15.1713 16.6967L15.0867 16.4529L11.5908 17.0921L11.5981 17.3507Z" fill="#479799"/>
<path d="M14.0194 10.1908C14.0226 10.1835 14.0282 10.178 14.035 10.1755L15.7183 9.86766C15.7257 9.86759 15.733 9.87067 15.7389 9.87637C15.7736 9.9134 15.7951 9.96412 15.7989 10.0175L15.8108 10.1581L14.0512 10.4798L14.0132 10.344C14.0055 10.3187 14.0021 10.2921 14.0031 10.2658C14.0041 10.2394 14.0097 10.214 14.0194 10.1908ZM16.2915 15.7205L15.5682 15.8527L14.0723 10.5485L15.8167 10.2295L16.2915 15.7205ZM16.4466 16.5688C16.45 16.5947 16.4449 16.6206 16.4322 16.641C16.4195 16.6615 16.4004 16.675 16.3786 16.6788L15.7997 16.7846C15.7847 16.7878 15.7689 16.7838 15.7557 16.7735C15.7425 16.7632 15.733 16.7475 15.7292 16.7297L15.5816 15.9228L16.3069 15.7902L16.4466 16.5688Z" fill="#FF8300"/>
<path d="M19.0636 25.1684C19.0691 25.1586 19.0773 25.1505 19.0871 25.1448L21.6958 24.0256C21.7066 24.0221 21.7181 24.0217 21.7291 24.0243C21.7566 24.0337 21.7813 24.0495 21.8011 24.0702C21.8209 24.0911 21.8352 24.1164 21.8427 24.144L21.88 24.2849L19.1525 25.4531L19.0742 25.3294C19.0596 25.3053 19.051 25.2782 19.0492 25.2502C19.0473 25.2222 19.0523 25.1942 19.0636 25.1684ZM23.379 29.8748L22.2568 30.3554L19.1932 25.5188L21.9002 24.3599L23.379 29.8748ZM23.7374 30.6883C23.7599 30.7396 23.7181 30.8066 23.6445 30.8385L22.7442 31.2239C22.694 31.2451 22.6411 31.2339 22.6259 31.1998L22.2848 30.4233L23.4101 29.9422L23.7374 30.6883Z" fill="#479799"/>
<path d="M16.3361 20.5295L17.0208 24.2735C17.4437 24.3084 18.111 24.218 18.1666 24.2079C19.4682 23.9641 22.1935 22.6142 22.1935 22.6142C22.213 22.5989 22.2277 22.5794 22.2359 22.5578C22.2441 22.5363 22.2457 22.5136 22.2403 22.492L21.848 20.3465C21.8453 20.3243 21.8358 20.3035 21.8205 20.2861C21.8052 20.2688 21.7845 20.2557 21.7608 20.2481C21.7608 20.2481 18.7342 19.95 17.4307 20.1833C17.3783 20.1929 16.7217 20.3468 16.3361 20.5295Z" fill="#FF8300"/>
<path d="M16.3105 20.3882C15.8927 20.6351 15.5118 20.9927 15.5816 21.4569C15.5876 21.4894 15.6867 22.0313 15.7838 22.5625C15.8809 23.0936 15.9802 23.6364 15.986 23.6681L15.9867 23.672C16.0855 24.13 16.5683 24.3298 17.0464 24.4128L16.3105 20.3882Z" fill="#FF8300"/>
<path d="M11.1584 20.0167C11.0006 19.1805 10.4963 18.9089 10.1188 18.7477L8.10129 19.1166C7.80917 19.4003 7.43362 19.8327 7.582 20.6707C7.58247 20.6748 7.58324 20.679 7.58427 20.683L8.53905 25.9044C8.59027 26.1845 8.89781 26.3649 9.22287 26.3055L11.6186 25.8674C11.9436 25.808 12.1669 25.5273 12.1162 25.2503L11.1614 20.0289C11.1607 20.0248 11.1597 20.0207 11.1584 20.0167Z" fill="#479799"/>
<path d="M10.0591 16.9101L7.95822 17.2943C7.92095 17.3011 7.89801 17.3464 7.90698 17.3954L8.20159 19.0065C8.21057 19.0556 8.24803 19.0898 8.2853 19.083L10.3862 18.6988C10.4235 18.692 10.4464 18.6468 10.4375 18.5977L10.1428 16.9866C10.1339 16.9375 10.0964 16.9033 10.0591 16.9101Z" fill="#479799"/>
<path d="M12.7053 19.1736L12.6996 19.1427C12.6851 19.0709 12.6957 18.9963 12.7296 18.9309C12.7616 18.8838 12.803 18.8435 12.8511 18.8123C12.8993 18.7811 12.9532 18.7597 13.0098 18.7494C13.0664 18.739 13.1244 18.7399 13.1805 18.7521C13.2366 18.7642 13.2895 18.7872 13.3362 18.8199C13.391 18.8691 13.4273 18.9352 13.4391 19.0075L13.4448 19.0383C13.4463 19.0467 13.4478 19.0552 13.4493 19.0629L14.6417 18.8448C14.34 17.8006 13.8347 17.6373 13.3765 17.7001C13.0997 17.737 12.5496 17.8376 12.2776 17.9011C11.8295 18.0062 11.4196 18.3368 11.5115 19.4172L12.7119 19.1977L12.7053 19.1736Z" fill="#229DD8"/>
<path d="M11.5232 19.4154C11.5805 19.8544 11.6704 20.2889 11.7921 20.7141C12.4869 23.2398 13.098 25.3994 13.098 25.3994C13.1158 25.452 13.1496 25.4966 13.1933 25.5249C13.2369 25.5533 13.2875 25.5635 13.3358 25.5536L15.1025 25.2306C15.1512 25.2227 15.195 25.1952 15.2259 25.1533C15.2568 25.1113 15.2728 25.0577 15.271 25.002C15.271 25.002 15.0824 22.6485 14.8414 20.1565C14.8031 19.7159 14.7321 19.278 14.6291 18.8474L11.5232 19.4154Z" fill="#229DD8"/>
<path d="M8.64087 13.2591C8.72172 13.1487 8.83697 13.0794 8.96415 13.0647C9.08808 13.0334 9.22018 13.0576 9.33452 13.1322C9.364 13.1539 9.3896 13.1822 9.4097 13.2152C9.42982 13.2483 9.44401 13.2854 9.45137 13.3242L10.8141 13.075C10.4964 11.9899 9.93033 11.8848 9.4049 11.9571C9.086 12.0011 8.45721 12.1161 8.14495 12.1875C7.63031 12.3054 7.14279 12.5984 7.23677 13.7292L8.60507 13.479C8.59759 13.4406 8.5969 13.4013 8.60305 13.3635C8.60919 13.3256 8.62207 13.2901 8.64087 13.2591Z" fill="#FF8300"/>
<path d="M7.2473 13.7276C7.28136 14.0432 7.35278 14.3535 7.46027 14.6527C8.0614 16.4147 8.19665 16.6443 8.19665 16.6443C8.22254 16.7194 8.33992 16.7626 8.45761 16.7411L10.7331 16.325C10.8508 16.3035 10.9461 16.2213 10.9429 16.1421C10.9429 16.1421 11.0019 15.7949 10.9347 14.0174C10.928 13.6996 10.8835 13.3844 10.8018 13.0776L7.2473 13.7276Z" fill="#FF8300"/>
<path d="M18.8217 19.4622C19.5128 19.3301 19.5487 18.6929 19.6586 18.4805L19.4621 17.406C19.2838 17.2439 19.024 16.6575 18.332 16.784L15.1529 17.3653C14.9832 17.3964 14.8803 17.6215 14.9248 17.8653L15.2534 19.6623C15.2974 19.9028 15.4738 20.0794 15.6435 20.0484L18.8226 19.467L18.8217 19.4622Z" fill="#479799"/>
<path d="M19.9261 17.4168L19.4789 17.4985L19.6424 18.3929L20.0896 18.3111L19.9261 17.4168Z" fill="#479799"/>
<path d="M20.6276 17.2882C20.682 17.281 20.7362 17.2923 20.7784 17.3195C20.8207 17.3468 20.8476 17.3878 20.8533 17.4338L20.9506 17.9659C20.9616 18.0109 20.951 18.059 20.9211 18.0995C20.8913 18.14 20.8445 18.1699 20.7911 18.1826L20.0897 18.3108L19.9261 17.4165L20.6276 17.2882Z" fill="#479799"/>
<path d="M19.245 11.0713L16.963 11.4886C16.9175 11.497 16.8765 11.5213 16.8466 11.5576L16.6603 11.7872C16.6405 11.8117 16.6264 11.8409 16.6193 11.8723C16.6122 11.9036 16.6122 11.9363 16.6193 11.9679L16.9261 13.2973C16.9335 13.329 16.9479 13.3584 16.9682 13.3835C16.9885 13.4085 17.014 13.4284 17.0429 13.4414L17.2513 13.5357C17.2806 13.5487 17.3065 13.5689 17.3269 13.5944C17.3473 13.6198 17.3616 13.6499 17.3685 13.6821L17.6174 14.812C17.6244 14.8449 17.6236 14.879 17.6152 14.9113C17.6069 14.9437 17.591 14.9734 17.5691 14.9978L17.4428 15.1418C17.4204 15.1664 17.4043 15.1965 17.3959 15.2293C17.3876 15.2621 17.3872 15.2967 17.3949 15.3299L17.6082 16.2531C17.6201 16.3051 17.651 16.3505 17.6942 16.3801C17.7374 16.4096 17.7897 16.4209 17.8402 16.4115L20.1817 15.9834C20.2323 15.9742 20.2772 15.9451 20.3072 15.9022C20.3371 15.8593 20.3499 15.8059 20.3427 15.753L20.2159 14.8164C20.2111 14.782 20.1981 14.7493 20.1781 14.7212C20.1581 14.6931 20.1316 14.6706 20.1013 14.6557L19.9386 14.5769C19.9085 14.5619 19.8824 14.5396 19.8624 14.5118C19.8425 14.4841 19.8294 14.4517 19.8243 14.4177L19.6549 13.2602C19.65 13.227 19.6529 13.1933 19.6634 13.1619C19.674 13.1305 19.6917 13.1023 19.7153 13.0798L19.8726 12.9271C19.8959 12.9046 19.9136 12.8767 19.9241 12.8456C19.9347 12.8144 19.9378 12.7811 19.9333 12.7482L19.7491 11.3963C19.7451 11.3638 19.7337 11.3326 19.7158 11.3053C19.6979 11.2781 19.6741 11.2555 19.6463 11.2396L19.3758 11.0936C19.3356 11.0712 19.2895 11.0634 19.245 11.0713Z" fill="#229DD8"/>
<path d="M17.1496 9.81463C17.1398 9.7611 17.1483 9.70648 17.1734 9.66279C17.1984 9.61909 17.2379 9.5899 17.283 9.58164L18.2838 9.39863C18.329 9.39037 18.3763 9.40371 18.4151 9.43572C18.454 9.46773 18.4813 9.51579 18.4911 9.56932L18.6995 10.709L17.358 10.9543L17.1496 9.81463Z" fill="#229DD8"/>
<path d="M18.6997 10.7088L17.3582 10.9541L17.4399 11.4013L18.7814 11.156L18.6997 10.7088Z" fill="#229DD8"/>
<path d="M27.1038 7.78579L25.0087 8.1689C24.8463 8.19859 24.735 8.33374 24.7601 8.47077L24.8329 8.86889C24.8579 9.00592 25.0099 9.09294 25.1722 9.06325L27.2673 8.68013C27.4297 8.65044 27.541 8.5153 27.5159 8.37827L27.4431 7.98015C27.4181 7.84312 27.2661 7.7561 27.1038 7.78579Z" fill="#479799"/>
<path d="M27.3497 8.66501L25.0897 9.07829L25.4123 14.5648L28.9896 13.9106L27.3497 8.66501Z" fill="#479799"/>
<path d="M25.4597 14.8141C25.4603 14.8391 25.4669 14.8634 25.4792 14.8854C25.4916 14.9074 25.5093 14.9265 25.5311 14.9415C25.5526 14.9572 25.5779 14.9684 25.6052 14.9744C25.6326 14.9804 25.6613 14.9811 25.6895 14.9764L28.876 14.3937C28.9038 14.3885 28.9304 14.3782 28.9539 14.3635C28.9774 14.3487 28.9973 14.3298 29.0123 14.308C29.0273 14.2862 29.037 14.2621 29.0407 14.2372C29.0445 14.2123 29.0422 14.1872 29.034 14.1637L28.9491 13.9182L25.4528 14.5575L25.4597 14.8141Z" fill="#479799"/>
<path d="M27.8896 7.6547C27.8943 7.64707 27.9018 7.64129 27.9105 7.6384L30.0153 7.25353C30.0245 7.25312 30.0335 7.25591 30.0406 7.26138C30.0816 7.29739 30.1059 7.34758 30.1081 7.40113L30.1174 7.54217L27.9171 7.94452L27.8759 7.80931C27.8591 7.75843 27.864 7.70291 27.8896 7.6547ZM30.4698 13.128L29.5675 13.293L27.9435 8.01223L30.1263 7.61309L30.4698 13.128ZM30.6249 13.9764C30.628 14.0023 30.6205 14.0284 30.604 14.0496C30.5875 14.0707 30.5633 14.0852 30.5363 14.0901L29.8108 14.2228C29.792 14.2266 29.7725 14.2233 29.7565 14.2135C29.7406 14.2037 29.7294 14.1883 29.7255 14.1705L29.578 13.3637L30.485 13.1978L30.6249 13.9764Z" fill="#FF8300"/>
<path d="M30.6457 17.9128L31.3304 21.6568C31.7197 21.6978 32.332 21.6175 32.3823 21.6083C33.5762 21.3843 36.0622 20.0781 36.0622 20.0781C36.0797 20.0629 36.0926 20.0437 36.0998 20.0224C36.1069 20.0011 36.1079 19.9786 36.1027 19.9571L35.7104 17.8115C35.7076 17.7895 35.6987 17.7686 35.6845 17.7511C35.6703 17.7336 35.6513 17.7201 35.6295 17.712C35.6295 17.712 32.8422 17.3701 31.6463 17.5838C31.5961 17.593 30.9976 17.7362 30.6457 17.9128Z" fill="#FF8300"/>
<path d="M30.1729 17.8535C29.7555 18.1003 29.3742 18.4581 29.4441 18.9222C29.45 18.9547 29.5491 19.4967 29.6462 20.0278C29.7434 20.559 29.8426 21.1017 29.8484 21.1334L29.8491 21.1373C29.9479 21.5953 30.4311 21.795 30.9088 21.8781L30.1729 17.8535Z" fill="#FF8300"/>
<path d="M25.0214 17.4816C24.8643 16.6453 24.4153 16.3636 24.0801 16.1946L22.3162 16.5172C22.0659 16.7932 21.7457 17.2155 21.8912 18.054C21.8919 18.0579 21.8935 18.0664 21.8935 18.0664L22.8483 23.2878C22.8995 23.5678 23.1743 23.7542 23.4585 23.7023L25.5538 23.3191C25.8379 23.2672 26.0278 22.9926 25.9771 22.7156L25.0223 17.4942C25.0223 17.49 25.022 17.4858 25.0214 17.4816Z" fill="#479799"/>
<path d="M23.9216 14.3755L21.8206 14.7596C21.7834 14.7665 21.7604 14.8117 21.7694 14.8608L22.064 16.4719C22.073 16.5209 22.1104 16.5551 22.1477 16.5483L24.2486 16.1641C24.2859 16.1573 24.3089 16.1121 24.2999 16.063L24.0053 14.4519C23.9963 14.4028 23.9588 14.3686 23.9216 14.3755Z" fill="#479799"/>
<path d="M26.6501 3.24933C25.8124 3.40808 25.5428 3.91165 25.3811 4.28569L25.7504 6.30494C26.034 6.59756 26.466 6.96964 27.304 6.82517L32.5381 5.86804C32.8179 5.81688 32.9989 5.50932 32.9395 5.18446L32.5014 2.78876C32.442 2.4639 32.1645 2.23936 31.884 2.29067L26.6498 3.24779L26.6501 3.24933Z" fill="#229DD8"/>
<path d="M25.2533 3.96518L24.0458 4.18599C24.0087 4.19276 23.9854 4.23471 23.9937 4.2797L24.4545 6.79982C24.4627 6.8448 24.4994 6.87579 24.5364 6.86902L25.7439 6.64822C25.7809 6.64144 25.8042 6.59949 25.796 6.55451L25.3352 4.03439C25.3269 3.9894 25.2903 3.95841 25.2533 3.96518Z" fill="#229DD8"/>
<path d="M26.7351 16.6083L26.7295 16.5775C26.7152 16.5057 26.7291 16.4306 26.7689 16.3638C26.8067 16.3157 26.8549 16.2741 26.9105 16.2415C26.9662 16.209 27.0282 16.1861 27.093 16.1743C27.1577 16.1624 27.2239 16.1619 27.2875 16.1726C27.351 16.1834 27.4108 16.2053 27.4631 16.2369C27.524 16.2852 27.5635 16.3506 27.5756 16.4227L27.5813 16.4536C27.5828 16.462 27.5843 16.4704 27.5857 16.4781L28.9513 16.2284C28.6351 15.1868 28.0639 15.0356 27.5407 15.1103C27.2247 15.1543 26.5958 15.2693 26.2846 15.34C25.7717 15.4569 25.2958 15.7996 25.374 16.8825L26.7461 16.6316L26.7351 16.6083Z" fill="#229DD8"/>
<path d="M25.387 16.8799C25.4411 17.3195 25.5325 17.7537 25.6602 18.1779C26.3864 20.6978 27.0281 22.8518 27.0281 22.8518C27.047 22.9043 27.0843 22.9483 27.1333 22.9758C27.1823 23.0031 27.2397 23.012 27.2949 23.0007L29.3136 22.6316C29.3692 22.6224 29.4197 22.5937 29.456 22.5509C29.4923 22.5079 29.5118 22.4536 29.5112 22.3977C29.5112 22.3977 29.3559 20.0381 29.1454 17.5406C29.1132 17.0988 29.0431 16.6607 28.9359 16.231L25.387 16.8799Z" fill="#229DD8"/>
<path d="M21.8092 9.92732C21.9199 9.8193 22.0633 9.74584 22.2189 9.71738C22.3745 9.68892 22.5346 9.7069 22.6763 9.76876C22.7111 9.78982 22.7408 9.81744 22.7634 9.84992C22.7861 9.8824 22.8013 9.91904 22.8081 9.95761L24.5128 9.64588C24.165 8.56154 23.4683 8.48725 22.8121 8.58175C22.4206 8.63834 21.6274 8.7834 21.2373 8.86972C20.5928 9.01082 19.9737 9.32573 20.0411 10.4636L21.752 10.1507C21.7454 10.1122 21.747 10.0725 21.7568 10.0342C21.7666 9.99583 21.7844 9.95951 21.8092 9.92732Z" fill="#FF8300"/>
<path d="M20.0539 10.4615C20.099 10.867 20.1904 11.2659 20.3263 11.6509C21.0889 13.9183 21.2601 14.2143 21.2601 14.2143C21.2929 14.3111 21.4394 14.3673 21.5865 14.3404L24.4289 13.8206C24.5761 13.7937 24.6947 13.689 24.6919 13.5868C24.6919 13.5868 24.7633 13.1414 24.6704 10.8566C24.6593 10.4485 24.6013 10.0434 24.4974 9.64898L20.0539 10.4615Z" fill="#FF8300"/>
<path d="M33.0328 16.8633C33.793 16.7185 33.8429 16.0787 33.9679 15.8636L33.7715 14.7891C33.5747 14.6304 33.3043 14.0459 32.543 14.1851L29.046 14.8245C28.8593 14.8587 28.7424 15.0864 28.787 15.3301L29.1156 17.1271C29.1596 17.3677 29.3499 17.5417 29.5366 17.5076L33.0336 16.8681L33.0328 16.8633Z" fill="#479799"/>
<path d="M34.2356 14.8001L33.7885 14.8818L33.952 15.7762L34.3992 15.6944L34.2356 14.8001Z" fill="#479799"/>
<path d="M34.9368 14.6716C34.9912 14.6644 35.0455 14.6756 35.0878 14.7028C35.1301 14.7301 35.1571 14.7711 35.1627 14.8171L35.26 15.3492C35.2712 15.3942 35.2607 15.4424 35.2308 15.4829C35.2008 15.5235 35.1539 15.5534 35.1003 15.5659L34.3991 15.6941L34.2356 14.7998L34.9368 14.6716Z" fill="#479799"/>
<path d="M33.4987 8.46505L30.8865 8.94272C30.8342 8.95236 30.7865 8.97795 30.7513 9.01517L30.533 9.2506C30.5098 9.27585 30.4932 9.30553 30.4842 9.33719C30.4753 9.36883 30.4744 9.40165 30.4816 9.4332L30.7973 10.761C30.8047 10.7927 30.8203 10.8221 30.8429 10.8467C30.8654 10.8713 30.8941 10.8906 30.9268 10.9028L31.162 10.9922C31.1949 11.0047 31.2239 11.0243 31.2464 11.0493C31.269 11.0744 31.2846 11.1042 31.2919 11.1363L31.5458 12.2652C31.5533 12.2981 31.5517 12.3324 31.5414 12.3652C31.5309 12.3979 31.5119 12.4282 31.486 12.4532L31.3391 12.6009C31.3128 12.6261 31.2936 12.6567 31.2833 12.6899C31.2729 12.7232 31.2717 12.7579 31.2797 12.7911L31.4984 13.7133C31.5109 13.7651 31.5449 13.8099 31.5934 13.8384C31.6418 13.867 31.7011 13.877 31.7589 13.8666L34.436 13.377C34.4937 13.3663 34.5456 13.336 34.5808 13.2921C34.6161 13.2483 34.632 13.1944 34.6254 13.1415L34.504 12.2038C34.4995 12.1693 34.4855 12.1366 34.4632 12.1089C34.4409 12.0813 34.4111 12.0594 34.3766 12.0455L34.1932 11.9705C34.1591 11.9565 34.1296 11.9348 34.1075 11.9074C34.0854 11.8799 34.0715 11.8476 34.0669 11.8134L33.9026 10.655C33.8982 10.6219 33.9026 10.588 33.9153 10.5562C33.9282 10.5245 33.949 10.4957 33.9761 10.4722L34.1602 10.3146C34.1871 10.2913 34.2077 10.2628 34.2206 10.2313C34.2334 10.1998 34.2379 10.1662 34.2339 10.1333L34.0586 8.77988C34.0546 8.74734 34.0424 8.71633 34.0228 8.68943C34.0031 8.66255 33.9766 8.64053 33.9454 8.62507L33.6473 8.48407C33.602 8.46272 33.5498 8.45602 33.4987 8.46505Z" fill="#229DD8"/>
<path d="M31.012 7.27997C31.0022 7.22644 31.0168 7.17072 31.0524 7.12508C31.0881 7.07944 31.142 7.04761 31.2022 7.03659L32.5366 6.79258C32.5968 6.78157 32.6585 6.79227 32.7081 6.82232C32.7576 6.85239 32.7909 6.89936 32.8007 6.95289L33.0091 8.09256L31.2204 8.41964L31.012 7.27997Z" fill="#229DD8"/>
<path d="M32.5621 8.17412L31.2206 8.41943L31.3024 8.86661L32.6439 8.62129L32.5621 8.17412Z" fill="#229DD8"/>
<path d="M13.8958 32.069L16.3464 25.7212C16.38 25.637 16.436 25.5622 16.509 25.5039C16.5819 25.4458 16.6693 25.4062 16.7624 25.3891C16.8555 25.3721 16.9513 25.3782 17.0401 25.4068C17.129 25.4355 17.2078 25.4857 17.269 25.5525L21.8082 30.6221C21.8675 30.69 21.9068 30.7717 21.9222 30.8592C21.9376 30.9467 21.9287 31.0369 21.8962 31.1211C21.8637 31.2052 21.8089 31.2804 21.737 31.3394C21.6651 31.3984 21.5787 31.4389 21.4861 31.4572L14.4941 32.7358C14.401 32.7517 14.3056 32.7446 14.2173 32.715C14.1291 32.6854 14.0509 32.6346 13.9906 32.5673C13.9303 32.5001 13.8898 32.4188 13.8732 32.3314C13.8566 32.2441 13.8644 32.1536 13.8958 32.069Z" fill="#229DD8"/>
<path d="M17.4776 29.4184C17.4914 29.4938 17.4919 29.5621 17.4792 29.6233C17.4665 29.6845 17.443 29.7371 17.4088 29.781C17.375 29.8244 17.3336 29.86 17.2847 29.8875C17.2357 29.9147 17.1816 29.9337 17.1223 29.9445C17.0637 29.9552 17.0066 29.9566 16.9512 29.9485C16.8957 29.94 16.8444 29.9213 16.7973 29.8922C16.7503 29.8631 16.7097 29.8225 16.6757 29.7702C16.6422 29.7179 16.6185 29.6538 16.6047 29.578C16.5907 29.5018 16.5902 29.4332 16.603 29.3724C16.6163 29.3115 16.6396 29.259 16.6726 29.2149C16.7063 29.1706 16.7476 29.1349 16.7966 29.1077C16.8461 29.0801 16.9001 29.0609 16.9588 29.0501C17.018 29.0393 17.0751 29.038 17.13 29.0461C17.1854 29.0542 17.237 29.0731 17.2848 29.1029C17.3324 29.1323 17.373 29.1734 17.4066 29.2261C17.4401 29.2789 17.4638 29.3429 17.4776 29.4184ZM17.1586 29.4767C17.1445 29.3996 17.1262 29.3376 17.1038 29.2906C17.0813 29.2436 17.0442 29.2248 16.9925 29.2343C16.9575 29.2407 16.9336 29.2594 16.921 29.2902C16.9088 29.3211 16.9038 29.3548 16.9061 29.3917C16.9089 29.4284 16.9148 29.4711 16.9237 29.5197C16.9388 29.6022 16.957 29.6653 16.9783 29.709C17.0002 29.7523 17.0369 29.7691 17.0885 29.7597C17.1408 29.7501 17.1692 29.7214 17.1738 29.6733C17.1788 29.6248 17.1737 29.5593 17.1586 29.4767ZM18.423 29.4131C18.4321 29.4629 18.4256 29.5124 18.4035 29.5615C18.3818 29.6104 18.3432 29.6537 18.2877 29.6911C18.2328 29.728 18.1622 29.7543 18.076 29.7701C18.0071 29.7827 17.9399 29.7878 17.8744 29.7855C17.8089 29.7832 17.7472 29.7728 17.6893 29.7544L17.6549 29.5665C17.693 29.5803 17.7452 29.5918 17.8115 29.6009C17.8782 29.6099 17.9347 29.6102 17.981 29.6017C18.0359 29.5917 18.0724 29.5735 18.0904 29.5473C18.1083 29.5206 18.1151 29.4953 18.1108 29.4715C18.1072 29.4517 18.0973 29.4343 18.0811 29.4191C18.065 29.4039 18.04 29.3935 18.0061 29.3879C17.9728 29.3819 17.9294 29.3838 17.8761 29.3935C17.8175 29.4043 17.7628 29.4229 17.712 29.4496L17.6191 28.9418L18.2676 28.8232L18.3012 29.0067L17.9006 29.0799L17.9279 29.2295C17.9364 29.2271 17.9452 29.2249 17.9543 29.2228C17.9638 29.2201 17.9705 29.2185 17.9742 29.2178C17.9785 29.2166 17.9865 29.2149 17.9983 29.2127C18.0737 29.1989 18.1422 29.1992 18.2037 29.2135C18.2653 29.2278 18.315 29.2527 18.3526 29.2882C18.3907 29.3233 18.4142 29.3649 18.423 29.4131Z" fill="white"/>
<path d="M20.7556 30.0474L19.8622 28.9811L19.4803 29.312L20.37 30.379C20.3915 30.4048 20.406 30.4359 20.412 30.4692C20.418 30.5024 20.4154 30.5366 20.4043 30.5683C20.3933 30.6001 20.3743 30.6282 20.3492 30.6501C20.3241 30.6718 20.2938 30.6864 20.2613 30.6924L18.5589 31.0037L18.4765 30.5531L17.4134 31.475L18.7338 31.9602L18.6514 31.5096L20.3575 31.1976C20.4767 31.1756 20.588 31.122 20.6801 31.0421C20.7722 30.9622 20.8419 30.8587 20.8822 30.7423C20.9226 30.6257 20.9321 30.5002 20.9099 30.3782C20.8877 30.2563 20.8344 30.1422 20.7556 30.0474Z" fill="white"/>
<path d="M15.3713 31.5993C15.3386 31.6053 15.3049 31.6026 15.2736 31.5915C15.2422 31.5805 15.2144 31.5614 15.1929 31.5364C15.1714 31.5112 15.1569 31.4809 15.1509 31.4485C15.1449 31.416 15.1476 31.3825 15.1588 31.3514L15.815 29.5298L16.2384 29.6787L15.987 28.3037L14.9127 29.211L15.3387 29.361L14.6824 31.1865C14.6413 31.3008 14.6313 31.4237 14.6532 31.5429C14.6751 31.6621 14.7282 31.7734 14.8072 31.8656C14.8862 31.9578 14.9883 32.0277 15.1033 32.0683C15.2183 32.1088 15.3421 32.1186 15.4623 32.0967L17.0132 31.8131L16.9228 31.3187L15.3713 31.5993Z" fill="white"/>
<path d="M18.7069 28.0031L17.4694 26.5375C17.3925 26.4443 17.2925 26.3734 17.1795 26.332C17.0666 26.2905 16.9449 26.2801 16.8269 26.3017C16.7088 26.3233 16.5987 26.3761 16.5078 26.4548C16.4168 26.5336 16.3483 26.6353 16.3094 26.7496L15.8587 28.0271L16.3253 28.1956L16.7797 26.9175C16.7906 26.8865 16.8094 26.859 16.8342 26.8377C16.8591 26.8164 16.889 26.802 16.9211 26.7962C16.9532 26.7903 16.9863 26.7931 17.0171 26.8042C17.0478 26.8154 17.0752 26.8344 17.0963 26.8596L18.3326 28.3269L17.9948 28.6163L19.2873 29.0866L19.0371 27.7182L18.7069 28.0031Z" fill="white"/>
<path d="M56.9733 105.188C57.0298 105.414 56.9942 105.654 56.8742 105.854C56.7541 106.054 56.5596 106.199 56.3332 106.256L48.2118 108.28C47.9849 108.337 47.7451 108.301 47.5447 108.181C47.3442 108.06 47.2 107.865 47.1434 107.638C47.0869 107.412 47.1227 107.172 47.2431 106.971C47.3636 106.771 47.5584 106.627 47.7853 106.57L55.9068 104.545C56.1335 104.489 56.373 104.525 56.573 104.646C56.773 104.766 56.9169 104.961 56.9733 105.188Z" fill="white"/>
<path d="M57.1886 105.135C57.2583 105.419 57.213 105.718 57.0628 105.968C56.9125 106.218 56.6694 106.399 56.3865 106.47L48.2651 108.495C48.1248 108.53 47.9789 108.537 47.836 108.516C47.6928 108.494 47.5554 108.445 47.4315 108.371C47.3075 108.296 47.1994 108.198 47.1134 108.082C47.0274 107.965 46.9651 107.833 46.9302 107.693C46.8952 107.553 46.8881 107.407 46.9096 107.264C46.9308 107.121 46.9802 106.983 47.0547 106.859C47.1292 106.735 47.2273 106.627 47.3437 106.541C47.4599 106.455 47.5919 106.393 47.7323 106.358L55.8537 104.333C56.1371 104.263 56.4366 104.308 56.6869 104.458C56.9372 104.609 57.1175 104.852 57.1886 105.135ZM47.3569 107.587C47.3998 107.756 47.5082 107.902 47.6583 107.992C47.8086 108.082 47.9883 108.109 48.1583 108.067L56.2797 106.042C56.4418 105.992 56.5786 105.882 56.6621 105.735C56.7457 105.587 56.7694 105.414 56.7284 105.249C56.6874 105.085 56.5848 104.942 56.4418 104.851C56.2988 104.76 56.1265 104.727 55.9601 104.76L47.8386 106.785C47.6685 106.827 47.5221 106.936 47.4318 107.086C47.3414 107.236 47.3144 107.416 47.3569 107.587Z" fill="#1D1D1B"/>
<path d="M63.2263 130.266C63.2828 130.492 63.2471 130.732 63.1271 130.932C63.007 131.132 62.8125 131.277 62.5861 131.334L54.4647 133.359C54.2378 133.415 53.998 133.379 53.7975 133.259C53.5971 133.139 53.4528 132.944 53.3963 132.717C53.3398 132.49 53.3755 132.25 53.496 132.05C53.6164 131.849 53.8113 131.705 54.0382 131.648L62.1596 129.623C62.3863 129.567 62.6258 129.603 62.8259 129.724C63.0258 129.844 63.1698 130.039 63.2263 130.266Z" fill="white"/>
<path d="M63.4415 130.211C63.5113 130.495 63.466 130.794 63.3157 131.044C63.1654 131.294 62.9223 131.475 62.6394 131.546L54.518 133.571C54.2346 133.642 53.9347 133.597 53.6844 133.447C53.4341 133.296 53.2538 133.052 53.1831 132.769C53.1124 132.486 53.1572 132.186 53.3076 131.935C53.458 131.685 53.7018 131.505 53.9852 131.434L62.1066 129.409C62.39 129.339 62.6896 129.384 62.9398 129.534C63.1901 129.685 63.3704 129.928 63.4415 130.211ZM53.6098 132.663C53.6527 132.833 53.7611 132.978 53.9112 133.068C54.0615 133.158 54.2412 133.185 54.4112 133.143L62.5326 131.118C62.6948 131.068 62.8315 130.959 62.9151 130.811C62.9986 130.664 63.0223 130.49 62.9813 130.325C62.9403 130.161 62.8377 130.018 62.6947 129.927C62.5517 129.836 62.3794 129.803 62.213 129.836L54.0916 131.861C53.9214 131.903 53.7751 132.012 53.6847 132.162C53.5943 132.312 53.5674 132.492 53.6098 132.663Z" fill="#1D1D1B"/>
<path d="M50.735 116.277L43.4688 118.089L45.2449 125.213L52.5112 123.402L54.5364 131.524L61.6604 129.747L55.834 106.379L48.7099 108.155L50.735 116.277Z" fill="white"/>
<path d="M56.047 106.328L61.8729 129.695C61.887 129.751 61.878 129.811 61.8481 129.861C61.818 129.911 61.7693 129.947 61.7128 129.961L54.5887 131.738C54.5322 131.752 54.4723 131.743 54.4223 131.713C54.3724 131.683 54.3363 131.634 54.3222 131.577L52.3504 123.669L45.2975 125.427C45.2409 125.441 45.181 125.432 45.131 125.403C45.0811 125.372 45.045 125.324 45.0309 125.267L43.2546 118.143C43.2405 118.086 43.2495 118.026 43.2794 117.976C43.3095 117.926 43.3582 117.89 43.4147 117.876L50.4676 116.118L48.4962 108.211C48.4821 108.154 48.4909 108.094 48.5209 108.044C48.5508 107.994 48.5994 107.957 48.656 107.943L55.78 106.166C55.8368 106.153 55.8968 106.162 55.9468 106.192C55.9969 106.223 56.0328 106.271 56.047 106.328ZM61.3913 129.581L55.6734 106.648L48.9779 108.317L50.9493 116.224C50.9634 116.281 50.9546 116.341 50.9246 116.391C50.8948 116.442 50.8461 116.478 50.7895 116.492L43.7349 118.251L45.4044 124.947L52.4573 123.189C52.5139 123.175 52.5738 123.184 52.6238 123.214C52.6737 123.244 52.7098 123.293 52.7239 123.349L54.694 131.251L61.3913 129.581Z" fill="#1D1D1B"/>
<path d="M42.2758 116.95C42.5027 116.893 42.7425 116.929 42.9429 117.05C43.1434 117.17 43.2876 117.365 43.3442 117.592L45.3692 125.714C45.4142 125.936 45.3716 126.168 45.2504 126.359C45.1291 126.551 44.9387 126.689 44.7185 126.744C44.4984 126.799 44.2656 126.766 44.0685 126.654C43.8715 126.542 43.7254 126.357 43.6606 126.14L41.6356 118.018C41.5791 117.791 41.6148 117.552 41.7348 117.352C41.8549 117.151 42.0494 117.007 42.2758 116.95Z" fill="white"/>
<path d="M43.5574 117.538L45.5824 125.66C45.6531 125.943 45.6083 126.243 45.4579 126.494C45.3075 126.744 45.0638 126.924 44.7804 126.995C44.4969 127.066 44.197 127.021 43.9467 126.87C43.6964 126.72 43.5161 126.476 43.4454 126.193L41.4204 118.071C41.3497 117.787 41.3946 117.488 41.5449 117.237C41.6953 116.987 41.939 116.807 42.2225 116.736C42.5059 116.665 42.8058 116.71 43.0561 116.86C43.3064 117.011 43.4867 117.255 43.5574 117.538ZM43.8739 126.086C43.9233 126.248 44.0332 126.385 44.1807 126.468C44.3281 126.552 44.5021 126.576 44.6665 126.535C44.831 126.494 44.9734 126.391 45.0643 126.248C45.1555 126.105 45.1882 125.933 45.1557 125.766L43.1307 117.644C43.1135 117.556 43.0786 117.473 43.0281 117.398C42.9775 117.324 42.9125 117.261 42.8367 117.213C42.7611 117.165 42.6764 117.132 42.5877 117.118C42.4991 117.104 42.4085 117.107 42.3214 117.129C42.2344 117.151 42.1526 117.19 42.0812 117.244C42.0096 117.299 41.95 117.367 41.9059 117.445C41.8616 117.523 41.8337 117.609 41.8239 117.699C41.8141 117.788 41.8226 117.878 41.8488 117.964L43.8739 126.086Z" fill="#1D1D1B"/>
<path d="M44.38 175.269C43.6341 175.455 42.872 174.63 43.5425 173.661L52.4844 171.432C53.5311 171.972 53.2473 173.058 52.4997 173.245L44.38 175.269Z" fill="white"/>
<path d="M43.342 173.545C43.3733 173.497 43.4216 173.463 43.4769 173.45L52.4431 171.215C52.4982 171.2 52.5568 171.207 52.6066 171.235C53.8284 171.916 53.4725 173.23 52.5531 173.459L44.4334 175.484C43.5189 175.71 42.583 174.72 43.342 173.545ZM52.4459 173.029C53.0061 172.889 53.2204 172.071 52.4316 171.671L43.7013 173.848C43.1927 174.571 43.7659 175.193 44.3262 175.053L52.4459 173.029Z" fill="#1D1D1B"/>
<path d="M24.0876 97.5242C24.0597 97.412 24.0542 97.2954 24.0712 97.181C24.0883 97.0666 24.128 96.9567 24.1877 96.8577C24.2474 96.7586 24.3259 96.6723 24.4189 96.6036C24.512 96.535 24.6177 96.4854 24.73 96.4576L32.8497 94.4331C32.9637 94.3992 33.0836 94.3887 33.202 94.4023C33.3202 94.4159 33.4345 94.4533 33.5381 94.5123C33.6414 94.5714 33.7318 94.6507 33.8037 94.7456C33.8756 94.8406 33.9276 94.9491 33.9564 95.0646C33.9852 95.1802 33.9903 95.3003 33.9713 95.4179C33.9524 95.5355 33.9098 95.648 33.8463 95.7486C33.7826 95.8493 33.6992 95.9361 33.6013 96.0036C33.5031 96.0712 33.3923 96.1182 33.2757 96.1417L25.156 98.1662C25.0437 98.1945 24.927 98.2002 24.8124 98.1832C24.6978 98.1662 24.5877 98.1268 24.4885 98.0671C24.3892 98.0075 24.3027 97.9288 24.234 97.8356C24.1651 97.7425 24.1155 97.6366 24.0876 97.5242Z" fill="white"/>
<path d="M23.8741 97.5757C23.804 97.2924 23.8489 96.9928 23.9993 96.7425C24.1497 96.4923 24.3931 96.3119 24.6762 96.2408L32.7959 94.2163C33.0793 94.1457 33.3792 94.1905 33.6295 94.3409C33.8798 94.4913 34.0602 94.735 34.1308 95.0184C34.2015 95.3018 34.1567 95.6017 34.0063 95.852C33.8559 96.1024 33.6121 96.2827 33.3287 96.3534L25.209 98.3778C24.9256 98.4485 24.6257 98.4037 24.3754 98.2533C24.1251 98.1028 23.9448 97.8591 23.8741 97.5757ZM33.7041 95.1248C33.6612 94.955 33.5528 94.8092 33.4027 94.7191C33.2524 94.6292 33.0727 94.6024 32.9027 94.6448L24.783 96.6692C24.695 96.6864 24.6112 96.7213 24.537 96.7719C24.4629 96.8224 24.3997 96.8875 24.3515 96.9632C24.3033 97.0389 24.271 97.1236 24.2566 97.2122C24.2422 97.3008 24.246 97.3914 24.2677 97.4785C24.2894 97.5656 24.3286 97.6474 24.3829 97.7188C24.4372 97.7903 24.5055 97.8499 24.5836 97.8941C24.6617 97.9384 24.748 97.9662 24.8373 97.976C24.9265 97.9858 25.0169 97.9773 25.1026 97.9511L33.2223 95.9267C33.3076 95.9066 33.3881 95.8698 33.459 95.8184C33.53 95.767 33.5901 95.702 33.6357 95.6272C33.6814 95.5524 33.7117 95.4693 33.7249 95.3827C33.7381 95.2961 33.734 95.2077 33.7128 95.1227L33.7041 95.1248Z" fill="#1D1D1B"/>
<path d="M51.6715 171.635L32.8741 96.2422L25.75 98.0184L44.5475 173.411L51.6715 171.635Z" fill="white"/>
<path d="M44.3852 173.677L25.4814 97.8576L33.0338 95.9746L51.9377 171.794L44.3852 173.677ZM26.0162 98.1775L44.7073 173.144L51.4028 171.474L32.7118 96.5081L26.0162 98.1775Z" fill="#1D1D1B"/>
<path d="M50.4829 83.0276C50.5447 82.9291 50.6257 82.8438 50.7206 82.7767C50.8157 82.7095 50.9232 82.6619 51.0367 82.6365C51.1503 82.6111 51.2677 82.6084 51.3824 82.6286C51.4971 82.6489 51.6065 82.6916 51.7045 82.7544L58.7691 87.2429C58.8714 87.3027 58.9607 87.3825 59.0314 87.4776C59.1023 87.5727 59.1531 87.681 59.1811 87.7962C59.209 87.9114 59.2134 88.031 59.194 88.148C59.1746 88.2649 59.132 88.3767 59.0683 88.4768C59.0048 88.5768 58.9216 88.663 58.8241 88.7301C58.7265 88.7973 58.6162 88.8441 58.5001 88.8677C58.384 88.8913 58.2642 88.8912 58.1481 88.8675C58.032 88.8438 57.9219 88.7968 57.8243 88.7296L50.7544 84.2424C50.6568 84.1805 50.5723 84.1 50.5058 84.0054C50.4393 83.9109 50.3922 83.8041 50.3668 83.6913C50.3417 83.5785 50.3389 83.4618 50.3588 83.3479C50.3787 83.2341 50.421 83.1252 50.4829 83.0276Z" fill="white"/>
<path d="M59.3655 87.7492C59.4137 87.9619 59.3975 88.1842 59.319 88.3877C59.2406 88.5912 59.1033 88.7668 58.9249 88.8921C58.7463 89.0174 58.5345 89.0868 58.3164 89.0914C58.0983 89.096 57.8839 89.0356 57.7002 88.918L50.6356 84.4294C50.5136 84.3518 50.4079 84.2509 50.3248 84.1325C50.2418 84.0141 50.1829 83.8805 50.1514 83.7393C50.0878 83.4542 50.1403 83.1555 50.297 82.909C50.4537 82.6625 50.7019 82.4883 50.9871 82.4248C51.2722 82.3613 51.5708 82.4137 51.8173 82.5704L58.882 87.059C59.0041 87.1364 59.1098 87.2373 59.1927 87.3557C59.2757 87.4742 59.3345 87.6079 59.3655 87.7492ZM50.5814 83.6433C50.5997 83.7279 50.6345 83.8081 50.6839 83.8793C50.7332 83.9505 50.7962 84.0112 50.869 84.058L57.9341 88.5482C58.0074 88.5998 58.0903 88.6359 58.1778 88.6545C58.2656 88.673 58.356 88.6736 58.4437 88.6561C58.5317 88.6386 58.6151 88.6035 58.6888 88.5529C58.7628 88.5022 58.8256 88.4371 58.8735 88.3615C58.9215 88.2858 58.9535 88.2013 58.9679 88.1128C58.9821 88.0244 58.9782 87.934 58.9565 87.8471C58.9349 87.7602 58.8957 87.6787 58.8417 87.6073C58.7876 87.536 58.7195 87.4764 58.6416 87.4322L51.5821 82.9423C51.4718 82.8722 51.3432 82.8363 51.2124 82.8393C51.0818 82.8422 50.9549 82.8838 50.8478 82.9588C50.7408 83.0337 50.6583 83.1388 50.6109 83.2606C50.5635 83.3824 50.5533 83.5156 50.5814 83.6433Z" fill="#1D1D1B"/>
<path d="M56.5052 103.161C56.4524 102.935 56.3127 102.739 56.1163 102.616C55.9198 102.492 55.6828 102.451 55.4563 102.501L47.2878 104.322C47.0595 104.373 46.8608 104.513 46.7353 104.71C46.6099 104.907 46.5679 105.146 46.6188 105.375C46.6696 105.603 46.8089 105.802 47.0063 105.927C47.2036 106.052 47.4425 106.094 47.6708 106.044L55.839 104.221C55.9527 104.196 56.0605 104.149 56.1558 104.082C56.2511 104.014 56.3321 103.929 56.3941 103.831C56.4561 103.732 56.498 103.622 56.517 103.507C56.536 103.392 56.532 103.275 56.5052 103.161Z" fill="white"/>
<path d="M56.7196 103.107C56.782 103.393 56.729 103.691 56.5723 103.937C56.4154 104.183 56.1675 104.357 55.8828 104.422L47.7229 106.24C47.4377 106.304 47.139 106.252 46.8925 106.095C46.6458 105.938 46.4717 105.69 46.4082 105.405C46.3446 105.12 46.3971 104.821 46.5537 104.574C46.7104 104.328 46.9587 104.154 47.2439 104.09L55.4124 102.269C55.6969 102.208 55.994 102.261 56.239 102.418C56.4838 102.576 56.6567 102.823 56.7196 103.107ZM46.8303 105.313C46.8492 105.398 46.8846 105.478 46.9344 105.549C46.9843 105.62 47.0474 105.68 47.1207 105.727C47.1938 105.773 47.2754 105.804 47.3609 105.819C47.4462 105.834 47.5336 105.832 47.6183 105.813L55.7885 103.992C55.9528 103.947 56.0934 103.841 56.1813 103.695C56.2691 103.549 56.2973 103.375 56.2602 103.209C56.223 103.043 56.1234 102.898 55.9818 102.803C55.8403 102.709 55.6678 102.673 55.5002 102.702L47.3325 104.527C47.1622 104.565 47.0142 104.669 46.92 104.816C46.826 104.963 46.7936 105.141 46.8299 105.312L46.8303 105.313Z" fill="#1D1D1B"/>
<path d="M47.5828 104.242L47.0925 102.046L46.9684 101.482L46.8349 100.798C46.7786 100.573 46.761 100.34 46.7243 100.111C46.6876 99.8824 46.6574 99.6504 46.6384 99.4193C46.2444 95.7002 46.9527 91.9474 48.6756 88.6281L49.0033 88.0139C49.1192 87.8136 49.2411 87.6155 49.3609 87.4161L49.5363 87.1292L49.6856 86.893L49.9872 86.4179L51.1942 84.5195L57.3899 88.4564L56.1846 90.3544L55.883 90.8294L55.7319 91.0661C55.7042 91.1098 55.6903 91.1354 55.6707 91.1679L55.6165 91.2607L55.3947 91.6274L55.1942 92.0053C54.1331 94.0465 53.6957 96.3547 53.9361 98.6427C53.946 98.7857 53.968 98.9258 53.9905 99.0676C54.013 99.2094 54.0246 99.3521 54.0574 99.4913L54.1383 99.9115L54.1685 100.033L54.2023 100.168L54.2702 100.441L54.7492 102.643L47.5828 104.242Z" fill="white"/>
<path d="M57.6896 88.3902L55.9123 91.1863C55.8919 91.2153 55.8806 91.2366 55.8689 91.2561L55.579 91.7411L55.3819 92.1109C54.3452 94.1145 53.9192 96.3785 54.1569 98.622C54.1659 98.7543 54.1854 98.8765 54.2048 99.0062L54.2121 99.0357C54.2251 99.0877 54.2333 99.1428 54.2368 99.2009C54.2488 99.2864 54.2596 99.3666 54.2769 99.4433L54.3712 99.9247L55.0146 102.808L47.4158 104.506L46.7551 101.538L46.6207 100.851C46.5818 100.695 46.5641 100.535 46.5421 100.381C46.5235 100.306 46.5209 100.229 46.5097 100.155C46.4704 99.8936 46.4384 99.6767 46.4182 99.4404C46.0178 95.6811 46.7298 91.887 48.4658 88.5287L48.797 87.9136C48.8882 87.7545 48.9793 87.6028 49.0709 87.4528L49.5019 86.7723L51.1199 84.2168L57.6896 88.3902ZM53.8325 99.5228C53.8113 99.4378 53.8013 99.3463 53.7893 99.2609C53.7772 99.2123 53.7767 99.159 53.7681 99.1096L53.7595 99.0749C53.7392 98.9417 53.718 98.8051 53.7081 98.662C53.4623 96.3348 53.905 93.9865 54.9814 91.9085L55.185 91.528L55.4788 91.0364C55.4927 91.0109 55.5083 90.9849 55.5309 90.9497L57.0699 88.5282L51.2431 84.8218L49.4549 87.6777C49.3651 87.8272 49.2748 87.975 49.1975 88.1233L48.872 88.7314C47.173 92.0121 46.4753 95.7195 46.8653 99.3934C46.8838 99.6155 46.9136 99.8236 46.9507 100.076C46.9689 100.149 46.974 100.229 46.9839 100.305C47.006 100.46 47.0276 100.606 47.0578 100.749L47.1922 101.436L47.7569 103.975L54.494 102.479L53.9354 99.9578L53.8511 99.5385L53.8325 99.5228Z" fill="#1D1D1B"/>
<path d="M32.9303 165.297C32.9868 165.524 32.951 165.764 32.8306 165.964C32.7102 166.165 32.5152 166.309 32.2884 166.365L24.16 168.392C23.9332 168.449 23.6932 168.413 23.4929 168.292C23.2925 168.172 23.1482 167.977 23.0916 167.75C23.0351 167.523 23.0709 167.283 23.1913 167.083C23.3117 166.883 23.5068 166.738 23.7336 166.682L31.8619 164.655C31.9742 164.627 32.0909 164.621 32.2054 164.639C32.3199 164.656 32.4299 164.695 32.5291 164.755C32.6283 164.814 32.7148 164.893 32.7836 164.986C32.8524 165.079 32.9023 165.185 32.9303 165.297Z" fill="white"/>
<path d="M32.3417 166.578L24.2134 168.605C23.93 168.675 23.6301 168.63 23.3798 168.48C23.1294 168.329 22.9491 168.086 22.8784 167.802C22.8078 167.519 22.8526 167.219 23.003 166.969C23.1534 166.718 23.3972 166.538 23.6805 166.468L31.8089 164.441C32.0923 164.37 32.3921 164.415 32.6425 164.565C32.8928 164.716 33.0731 164.96 33.1438 165.243C33.2145 165.526 33.1696 165.826 33.0193 166.077C32.8688 166.327 32.6251 166.507 32.3417 166.578ZM23.7869 166.894C23.6309 166.948 23.5009 167.059 23.4223 167.204C23.3437 167.349 23.3223 167.519 23.3622 167.679C23.4022 167.839 23.5006 167.979 23.6382 168.07C23.7758 168.161 23.9425 168.198 24.1057 168.173L32.234 166.146C32.3221 166.129 32.4058 166.094 32.48 166.043C32.5542 165.993 32.6173 165.928 32.6655 165.852C32.7137 165.776 32.746 165.691 32.7604 165.603C32.7749 165.514 32.7711 165.424 32.7494 165.337C32.7277 165.25 32.6884 165.168 32.6341 165.096C32.5798 165.025 32.5115 164.965 32.4334 164.921C32.3553 164.877 32.269 164.849 32.1798 164.839C32.0905 164.829 32.0003 164.838 31.9144 164.864L23.7869 166.894Z" fill="#1D1D1B"/>
<path d="M36.2004 145.942C36.4272 145.886 36.667 145.921 36.8675 146.042C37.0679 146.162 37.2122 146.357 37.2687 146.584L39.2938 154.706C39.3503 154.933 39.3145 155.173 39.1941 155.373C39.0736 155.574 38.8787 155.718 38.6518 155.775C38.425 155.831 38.1852 155.795 37.9847 155.675C37.7842 155.554 37.64 155.359 37.5835 155.133L35.5584 147.011C35.5019 146.784 35.5376 146.544 35.6581 146.343C35.7786 146.143 35.9735 145.999 36.2004 145.942Z" fill="white"/>
<path d="M38.7052 155.987C38.4218 156.057 38.1222 156.012 37.872 155.862C37.6218 155.712 37.4414 155.468 37.3702 155.185L35.3452 147.063C35.2745 146.78 35.3193 146.48 35.4697 146.229C35.6201 145.979 35.8639 145.799 36.1473 145.728C36.4307 145.657 36.7306 145.702 36.9809 145.853C37.2312 146.003 37.4116 146.247 37.4823 146.53L39.5073 154.652C39.5774 154.936 39.5326 155.235 39.3822 155.485C39.2318 155.736 38.9883 155.916 38.7052 155.987ZM36.2537 146.155C36.0835 146.197 35.9372 146.306 35.8468 146.456C35.7565 146.606 35.7295 146.786 35.7719 146.957L37.797 155.079C37.8394 155.249 37.9478 155.395 38.0982 155.486C38.2486 155.576 38.4286 155.603 38.5988 155.56C38.769 155.518 38.9154 155.41 39.0058 155.259C39.0961 155.109 39.123 154.929 39.0806 154.759L37.0555 146.637C37.0131 146.466 36.9048 146.32 36.7544 146.23C36.604 146.139 36.4239 146.112 36.2537 146.155Z" fill="#1D1D1B"/>
<path d="M35.682 147.508L37.4584 154.632L36.461 154.881C34.5727 155.353 32.9491 156.556 31.947 158.225C30.9449 159.894 30.6463 161.892 31.1167 163.781L31.3654 164.778L24.2397 166.555L23.991 165.557C23.0488 161.779 23.6461 157.78 25.6516 154.442C27.657 151.104 30.9062 148.699 34.6846 147.757L35.682 147.508Z" fill="white"/>
<path d="M31.6307 164.94L24.0782 166.823L23.7754 165.609C22.8235 161.774 23.4319 157.717 25.467 154.33C27.5022 150.943 30.7979 148.501 34.631 147.541L35.8452 147.238L37.7279 154.789L36.5137 155.092C34.6823 155.551 33.1078 156.718 32.1356 158.337C31.1634 159.955 30.873 161.893 31.3279 163.726L31.6307 164.94ZM24.4002 166.29L31.0958 164.62L30.9003 163.836C30.4175 161.89 30.7263 159.832 31.7589 158.114C32.7914 156.395 34.4634 155.156 36.4082 154.669L37.1922 154.473L35.5227 147.777L34.7387 147.973C31.0194 148.905 27.8218 151.274 25.847 154.561C23.8723 157.848 23.2817 161.784 24.2047 165.506L24.4002 166.29Z" fill="#1D1D1B"/>
<path d="M74.7372 129.754C74.6806 129.527 74.7164 129.287 74.8369 129.087C74.9573 128.886 75.1522 128.742 75.3791 128.685L83.4988 126.661C83.7257 126.604 83.9655 126.64 84.1659 126.761C84.3663 126.881 84.5106 127.076 84.5672 127.303C84.6237 127.53 84.5879 127.77 84.4675 127.97C84.347 128.17 84.1521 128.315 83.9252 128.371L75.8055 130.396C75.5787 130.452 75.3388 130.416 75.1384 130.296C74.9379 130.176 74.7937 129.981 74.7372 129.754Z" fill="white"/>
<path d="M74.524 129.806C74.489 129.666 74.4819 129.52 74.5034 129.377C74.5246 129.234 74.574 129.097 74.6485 128.973C74.723 128.849 74.8211 128.741 74.9375 128.655C75.0537 128.569 75.1857 128.506 75.3261 128.471L83.4457 126.447C83.7292 126.376 84.0291 126.421 84.2794 126.571C84.5297 126.722 84.71 126.966 84.7807 127.249C84.8513 127.532 84.8065 127.832 84.6561 128.083C84.5057 128.333 84.262 128.513 83.9786 128.584L75.8589 130.608C75.7186 130.643 75.5727 130.65 75.4298 130.629C75.2866 130.608 75.1492 130.558 75.0253 130.484C74.9013 130.409 74.7932 130.311 74.7072 130.195C74.6212 130.079 74.5589 129.947 74.524 129.806ZM84.354 127.355C84.3115 127.185 84.2031 127.039 84.0528 126.948C83.9024 126.858 83.7223 126.831 83.5521 126.874L75.4325 128.898C75.2623 128.94 75.1159 129.049 75.0256 129.199C74.9352 129.349 74.9082 129.53 74.9507 129.7C74.9931 129.87 75.1014 130.016 75.2518 130.107C75.4022 130.197 75.5823 130.224 75.7525 130.182L83.8722 128.157C84.0423 128.115 84.1887 128.006 84.2791 127.856C84.3694 127.706 84.3964 127.526 84.354 127.355Z" fill="#1D1D1B"/>
<path d="M53.9364 134.94C53.8798 134.713 53.9156 134.473 54.0361 134.273C54.1565 134.072 54.3514 133.928 54.5783 133.871L62.6997 131.846C62.9266 131.79 63.1664 131.826 63.3669 131.946C63.5673 132.066 63.7115 132.262 63.7681 132.488C63.8246 132.715 63.7888 132.955 63.6684 133.156C63.5479 133.356 63.3531 133.5 63.1262 133.557L55.0047 135.582C54.7779 135.638 54.538 135.602 54.3376 135.482C54.1372 135.362 53.9929 135.166 53.9364 134.94Z" fill="white"/>
<path d="M53.7222 134.994C53.6515 134.711 53.6963 134.411 53.8467 134.161C53.9971 133.91 54.2408 133.73 54.5243 133.659L62.6457 131.634C62.9291 131.564 63.229 131.608 63.4793 131.759C63.7296 131.909 63.91 132.153 63.9806 132.436C64.0513 132.72 64.0064 133.02 63.8561 133.27C63.7057 133.52 63.4619 133.701 63.1785 133.771L55.0571 135.796C54.7737 135.867 54.4738 135.822 54.2235 135.672C53.9731 135.521 53.7928 135.278 53.7222 134.994ZM63.5522 132.543C63.5098 132.373 63.4019 132.227 63.2518 132.137C63.1018 132.046 62.9222 132.019 62.7521 132.061L54.6307 134.086C54.4605 134.128 54.3141 134.237 54.2238 134.387C54.1334 134.537 54.1065 134.718 54.1489 134.888C54.1913 135.058 54.2997 135.204 54.45 135.295C54.6004 135.385 54.7805 135.412 54.9507 135.37L63.0721 133.345C63.242 133.302 63.3878 133.193 63.4778 133.043C63.5679 132.893 63.5945 132.713 63.5522 132.543Z" fill="#1D1D1B"/>
<path d="M83.425 128.486L85.8799 138.333L85.9422 138.582L86.0105 138.856L86.0702 139.133L86.1195 139.412C86.1882 139.783 86.2322 140.159 86.2744 140.536C86.3425 141.291 86.3539 142.051 86.3086 142.808C86.1042 145.853 84.9405 148.755 82.9844 151.097C82.0123 152.263 80.8626 153.268 79.5776 154.075C78.9345 154.478 78.261 154.831 77.5634 155.13C76.1695 155.721 74.6916 156.089 73.1835 156.222C72.4277 156.286 71.6681 156.29 70.9115 156.236C70.1547 156.184 69.4035 156.07 68.6653 155.895C67.9275 155.724 67.2047 155.494 66.5039 155.207C63.6792 154.052 61.2926 152.033 59.6859 149.439C59.2908 148.791 58.9448 148.115 58.6508 147.416C58.5097 147.064 58.372 146.711 58.2582 146.351L58.1708 146.081L58.1025 145.807L58.0341 145.533L57.9719 145.283L55.5186 135.444L62.6427 133.668C65.3433 144.5 65.0963 143.509 65.1378 143.676C65.4161 144.733 65.9367 145.712 66.6584 146.534C67.3801 147.356 68.2831 147.999 69.296 148.412C74.6364 150.581 80.2344 145.728 78.7715 140.105L76.3166 130.259L83.425 128.486Z" fill="white"/>
<path d="M56.9233 142.067L55.2334 135.29L62.7876 133.406L64.477 140.182C65.2707 143.365 65.3178 143.554 65.3269 143.591L65.3347 143.622C65.606 144.646 66.1109 145.594 66.8097 146.391C67.5087 147.187 68.3825 147.811 69.3629 148.213C70.5358 148.694 71.8197 148.836 73.0693 148.625C74.319 148.414 75.4847 147.857 76.4345 147.018C77.39 146.199 78.0957 145.128 78.4713 143.926C78.8469 142.725 78.877 141.443 78.5585 140.225L76.0348 130.103L83.5855 128.221L86.2135 138.805L86.2822 139.081L86.3337 139.368C86.4011 139.735 86.4442 140.1 86.4904 140.507C86.5598 141.275 86.5712 142.047 86.5245 142.816C86.3195 145.91 85.1398 148.859 83.1547 151.24C82.6609 151.831 82.1204 152.382 81.5385 152.887C80.961 153.399 80.3418 153.861 79.6872 154.27C79.0345 154.678 78.3506 155.033 77.6417 155.333C76.9346 155.629 76.2063 155.872 75.4629 156.06C74.7176 156.242 73.9599 156.37 73.1959 156.441C72.4293 156.508 71.6586 156.515 70.891 156.463C70.1218 156.409 69.3584 156.291 68.6088 156.111C67.8576 155.937 67.1217 155.703 66.4079 155.412C63.5401 154.24 61.1171 152.19 59.4868 149.556C59.0855 148.899 58.7339 148.213 58.4353 147.504C58.2825 147.12 58.1491 146.777 58.0362 146.42L57.9492 146.153L57.7281 145.347L56.9233 142.067ZM55.7665 135.61L58.1683 145.243L58.3846 146.029L58.4703 146.292C58.5776 146.633 58.7092 146.969 58.8577 147.343C59.1468 148.03 59.4876 148.695 59.8767 149.331C61.4585 151.883 63.8077 153.868 66.5877 155.002C67.9712 155.567 69.4352 155.909 70.9255 156.018C71.6708 156.07 72.419 156.064 73.1632 156C74.6489 155.87 76.1046 155.507 77.4772 154.924C78.1644 154.631 78.8278 154.285 79.4615 153.889C80.0945 153.494 80.6941 153.047 81.2548 152.554C81.8202 152.067 82.3455 151.535 82.8257 150.963C84.7484 148.653 85.89 145.794 86.0861 142.795C86.1322 142.049 86.1212 141.301 86.0533 140.557C86.0089 140.164 85.9679 139.808 85.9018 139.454L85.8516 139.172L85.6752 138.383L83.2739 128.752L76.5679 130.424L78.9697 140.057C78.9757 140.081 78.9818 140.105 78.9878 140.129C79.3245 141.425 79.2903 142.789 78.8886 144.066C78.487 145.343 77.7342 146.482 76.7166 147.351C75.7871 148.168 74.6641 148.733 73.4544 148.993C72.2449 149.253 70.9889 149.2 69.8057 148.838C68.6225 148.476 67.5515 147.818 66.6945 146.925C65.8374 146.033 65.2227 144.936 64.9089 143.739L64.9045 143.722C64.8929 143.675 64.8924 143.673 64.0486 140.289L62.4656 133.94L55.7665 135.61Z" fill="#1D1D1B"/>
<path d="M41.9561 127.357C41.7295 127.413 41.49 127.378 41.2896 127.258C41.0894 127.138 40.9451 126.943 40.8881 126.717L38.8631 118.595C38.8065 118.368 38.8423 118.128 38.9628 117.927C39.0832 117.727 39.2781 117.583 39.505 117.526C39.7319 117.47 39.9717 117.505 40.1722 117.626C40.3726 117.746 40.5168 117.941 40.5734 118.168L42.5984 126.29C42.6544 126.517 42.6183 126.756 42.498 126.956C42.3774 127.156 42.1826 127.3 41.9561 127.357Z" fill="white"/>
<path d="M39.4516 117.312C39.735 117.241 40.0349 117.286 40.2852 117.437C40.5355 117.587 40.7158 117.831 40.7865 118.114L42.8115 126.236C42.8822 126.52 42.8374 126.82 42.687 127.07C42.5366 127.32 42.2929 127.5 42.0095 127.571C41.726 127.642 41.4261 127.597 41.1758 127.447C40.9255 127.296 40.7452 127.052 40.6745 126.769L38.6495 118.647C38.5794 118.364 38.6243 118.064 38.7747 117.814C38.925 117.563 39.1684 117.383 39.4516 117.312ZM41.9026 127.143C42.0726 127.1 42.2187 126.992 42.3092 126.842C42.3994 126.692 42.4267 126.513 42.3848 126.343L40.3598 118.221C40.3426 118.133 40.3077 118.049 40.2572 117.975C40.2066 117.9 40.1415 117.837 40.0658 117.789C39.9902 117.741 39.9055 117.709 39.8168 117.694C39.7282 117.68 39.6376 117.684 39.5505 117.705C39.4635 117.727 39.3817 117.766 39.3103 117.82C39.2387 117.875 39.1791 117.943 39.135 118.021C39.0907 118.099 39.0628 118.186 39.053 118.275C39.0432 118.364 39.0518 118.454 39.0779 118.54L41.103 126.662C41.1453 126.832 41.2533 126.978 41.4033 127.068C41.5533 127.158 41.7328 127.185 41.9026 127.143Z" fill="#1D1D1B"/>
<path d="M8.95509 126.503C8.72829 126.56 8.48833 126.524 8.28795 126.404C8.08761 126.283 7.94328 126.088 7.88671 125.861L5.86211 117.741C5.80558 117.514 5.84144 117.274 5.9618 117.074C6.08222 116.874 6.27724 116.729 6.50404 116.673C6.73084 116.616 6.97085 116.652 7.17119 116.772C7.37157 116.893 7.5159 117.088 7.57243 117.315L9.59702 125.435C9.6536 125.662 9.61774 125.902 9.49733 126.102C9.37696 126.302 9.1819 126.447 8.95509 126.503Z" fill="white"/>
<path d="M6.45101 116.46C6.7344 116.39 7.03425 116.435 7.2846 116.585C7.53498 116.736 7.71529 116.979 7.78596 117.263L9.81056 125.383C9.88123 125.666 9.83643 125.966 9.686 126.216C9.53557 126.467 9.29186 126.647 9.00847 126.718C8.72508 126.788 8.42523 126.744 8.17489 126.593C7.92455 126.443 7.7442 126.199 7.67352 125.916L5.64893 117.795C5.57825 117.512 5.6231 117.212 5.77348 116.962C5.92392 116.711 6.16763 116.531 6.45101 116.46ZM8.90207 126.291C9.07229 126.249 9.21866 126.14 9.30901 125.99C9.3994 125.84 9.42627 125.659 9.38384 125.489L7.35925 117.369C7.33823 117.285 7.30082 117.205 7.24915 117.136C7.19748 117.066 7.13255 117.007 7.05812 116.962C6.98365 116.917 6.90113 116.888 6.81522 116.875C6.72931 116.862 6.6417 116.866 6.55741 116.887C6.47313 116.908 6.39383 116.946 6.324 116.997C6.25418 117.049 6.19519 117.114 6.15047 117.188C6.10571 117.263 6.07608 117.345 6.06325 117.431C6.05042 117.517 6.05462 117.605 6.07564 117.689L8.10024 125.809C8.14267 125.979 8.25103 126.126 8.40136 126.216C8.55174 126.307 8.73185 126.333 8.90207 126.291Z" fill="#1D1D1B"/>
<path d="M38.9871 119.093L29.3948 121.484C29.2076 121.531 29.0133 121.541 28.8227 121.512C28.6319 121.484 28.4486 121.418 28.2834 121.319C28.1181 121.22 27.974 121.089 27.8594 120.934C27.7449 120.779 27.662 120.602 27.6156 120.415L27.4378 119.702C27.0134 118 25.9302 116.536 24.4264 115.632C22.9227 114.729 21.1216 114.46 19.4195 114.884L7.69531 117.807L9.47164 124.932L18.9217 122.575C19.3358 122.472 19.7738 122.538 20.1396 122.758C20.5054 122.977 20.7689 123.333 20.8721 123.748L21.0144 124.318C21.4389 126.021 22.5221 127.484 24.0258 128.388C25.5296 129.292 27.3306 129.561 29.0328 129.136L40.7622 126.212L38.9871 119.093Z" fill="white"/>
<path d="M7.43066 117.654L19.3735 114.676C21.1304 114.24 22.9886 114.518 24.5405 115.451C26.0924 116.383 27.2112 117.893 27.6514 119.649L27.8292 120.362C27.9095 120.684 28.1143 120.961 28.3989 121.132C28.6834 121.303 29.024 121.354 29.3462 121.273L39.1536 118.828L41.0363 126.379L29.0884 129.358C27.3316 129.794 25.4735 129.515 23.9219 128.583C22.3703 127.651 21.2519 126.141 20.8122 124.385L20.6699 123.814C20.5795 123.456 20.3506 123.147 20.0335 122.957C19.7164 122.767 19.3368 122.71 18.9778 122.799L9.31425 125.208L7.43066 117.654ZM38.8346 119.359L29.4487 121.699C29.0141 121.807 28.5545 121.739 28.1706 121.508C27.7866 121.278 27.51 120.905 27.4012 120.47L27.2234 119.757C26.8118 118.114 25.7655 116.702 24.3138 115.83C22.8622 114.957 21.1239 114.697 19.4803 115.104L7.9642 117.976L9.63414 124.673L18.8709 122.37C19.3431 122.253 19.8424 122.328 20.2595 122.578C20.6767 122.829 20.9775 123.234 21.0961 123.706L21.2384 124.277C21.65 125.92 22.6964 127.332 24.148 128.204C25.5996 129.077 27.3379 129.337 28.9816 128.93L40.5045 126.057L38.8346 119.359Z" fill="#1D1D1B"/>
<path d="M65.0123 146.763C64.4272 146.419 63.8698 146.792 63.4768 147.092L62.0445 149.476C61.9631 149.963 61.896 150.632 62.4746 150.987L66.1093 153.172C66.3043 153.289 66.653 153.07 66.8835 152.686L68.5853 149.854C68.8154 149.468 68.8443 149.052 68.6509 148.942L65.0141 146.77L65.0123 146.763Z" fill="#FF8300"/>
<path d="M62.4414 146.189L60.7759 148.961C60.7536 148.998 60.7656 149.046 60.8028 149.069L61.6992 149.607C61.7365 149.63 61.7849 149.618 61.8073 149.58L63.4728 146.808C63.4952 146.771 63.4831 146.723 63.4459 146.7L62.5495 146.162C62.5123 146.139 62.4639 146.151 62.4414 146.189Z" fill="#FF8300"/>
<path d="M42.4294 138.679C42.1267 137.464 41.3378 137.108 40.7643 136.914L37.7669 137.661C37.3547 138.107 36.8305 138.783 37.125 140.001L39.0216 147.608C39.1228 148.014 39.5996 148.249 40.0818 148.128L43.636 147.242C44.1165 147.122 44.4203 146.693 44.3191 146.287L42.4268 138.698C42.4268 138.698 42.4307 138.684 42.4294 138.679Z" fill="#229DD8"/>
<path d="M40.4043 134.443L36.975 135.298C36.9147 135.313 36.8779 135.374 36.893 135.434L37.3752 137.369C37.3903 137.429 37.4514 137.466 37.5117 137.451L40.9411 136.596C41.0014 136.58 41.0381 136.519 41.0231 136.459L40.5409 134.525C40.5258 134.465 40.4647 134.428 40.4043 134.443Z" fill="#229DD8"/>
<path d="M35.3305 150.713C35.2154 150.252 34.7698 150.157 34.4425 150.107L32.6298 150.559C32.3621 150.757 32.0151 151.05 32.1301 151.511L32.8494 154.396C32.8878 154.55 33.1571 154.618 33.4398 154.547L35.5872 154.012C35.8787 153.939 36.0761 153.755 36.0376 153.601L35.3201 150.723C35.3201 150.723 35.3326 150.715 35.3305 150.713Z" fill="#479799"/>
<path d="M34.3701 149.154L32.2712 149.677C32.2424 149.684 32.225 149.714 32.2321 149.742L32.4099 150.455C32.4171 150.484 32.4461 150.501 32.4749 150.494L34.5738 149.971C34.6026 149.964 34.62 149.935 34.6128 149.906L34.4351 149.193C34.4279 149.164 34.3989 149.147 34.3701 149.154Z" fill="#479799"/>
<path d="M84.9083 145.276C85.3007 144.441 84.8624 143.798 84.5088 143.349L81.726 142.016C81.1606 142.017 80.3867 142.075 79.9799 142.904L79.9738 142.917L77.4783 148.109C77.3433 148.387 77.6006 148.791 78.0488 149.007L81.3496 150.593C81.7978 150.809 82.273 150.757 82.4063 150.478L84.9013 145.285L84.9083 145.276Z" fill="#229DD8"/>
<path d="M82.1875 140.335L81.5775 141.605C81.5506 141.661 81.5741 141.728 81.6303 141.756L84.816 143.286C84.8721 143.313 84.9394 143.289 84.9663 143.233L85.5763 141.963C85.6032 141.907 85.5796 141.84 85.5235 141.813L82.3377 140.283C82.2816 140.256 82.2144 140.279 82.1875 140.335Z" fill="#229DD8"/>
<path d="M41.1909 151.313L44.4277 150.506C44.5467 150.478 44.6495 150.404 44.7141 150.3C44.7787 150.197 44.7996 150.072 44.7723 149.952L44.5959 149.245C44.5641 149.127 44.4868 149.026 44.3811 148.965C44.2754 148.904 44.1498 148.886 44.0315 148.917L40.7948 149.724C40.6758 149.753 40.573 149.827 40.5084 149.93C40.4438 150.034 40.4229 150.159 40.4502 150.278L40.6262 150.984C40.6577 151.103 40.7347 151.204 40.8405 151.265C40.9464 151.327 41.0725 151.344 41.1909 151.313Z" fill="#479799"/>
<path d="M44.6436 150.574L41.0322 151.475L41.8797 159.367L47.6005 157.941L44.6436 150.574Z" fill="#479799"/>
<path d="M41.944 159.963C41.949 160.009 41.9639 160.053 41.9878 160.093C42.0117 160.132 42.0439 160.166 42.0822 160.192C42.1213 160.218 42.1656 160.236 42.212 160.243C42.2583 160.251 42.3059 160.249 42.3514 160.237L47.5951 158.93C47.6409 158.919 47.6838 158.899 47.7211 158.87C47.7583 158.841 47.7893 158.805 47.8116 158.764C47.8333 158.723 47.8458 158.678 47.8483 158.632C47.8508 158.586 47.8432 158.539 47.826 158.496L47.6473 158.053L41.8936 159.487L41.944 159.963Z" fill="#479799"/>
<path d="M57.9126 137.058L61.1493 136.251C61.2083 136.237 61.264 136.212 61.3132 136.177C61.3625 136.141 61.4044 136.097 61.4363 136.045C61.4683 135.994 61.4899 135.937 61.4997 135.877C61.5097 135.817 61.5077 135.756 61.4939 135.697L61.3179 134.991C61.3025 134.932 61.2757 134.877 61.2389 134.829C61.2022 134.78 61.1564 134.74 61.104 134.709C61.0514 134.679 60.9933 134.659 60.9333 134.651C60.873 134.642 60.8119 134.646 60.7532 134.662L57.5164 135.469C57.3972 135.497 57.294 135.572 57.2295 135.676C57.165 135.78 57.1445 135.905 57.1722 136.025L57.3482 136.731C57.38 136.849 57.4573 136.949 57.563 137.011C57.6687 137.072 57.7943 137.089 57.9126 137.058Z" fill="#479799"/>
<path d="M61.3671 136.316L57.7539 137.217L58.601 145.108L64.3217 143.681L61.3671 136.316Z" fill="#479799"/>
<path d="M58.6691 145.705C58.6741 145.751 58.6891 145.795 58.7129 145.835C58.7368 145.874 58.769 145.908 58.8073 145.934C58.8466 145.96 58.8909 145.977 58.9372 145.985C58.9836 145.993 59.0309 145.991 59.0765 145.979L64.3202 144.672C64.3656 144.661 64.4082 144.64 64.4453 144.612C64.4821 144.583 64.5128 144.547 64.535 144.506C64.5567 144.465 64.5692 144.42 64.5717 144.374C64.5742 144.328 64.5666 144.282 64.5494 144.239L64.3707 143.795L58.6152 145.23L58.6691 145.705Z" fill="#479799"/>
<path d="M52.512 98.8436L53.0539 101.017C53.0648 101.092 53.1044 101.159 53.1643 101.205C53.2243 101.25 53.2998 101.271 53.3746 101.261L53.7683 101.163C53.8389 101.136 53.8959 101.083 53.9275 101.014C53.9589 100.946 53.9623 100.868 53.9368 100.797L53.3949 98.6235C53.3841 98.5489 53.3444 98.4815 53.2845 98.4358C53.2245 98.3901 53.1491 98.3697 53.0742 98.3792L52.6805 98.4773C52.61 98.5042 52.5529 98.5575 52.5213 98.626C52.4899 98.6945 52.4866 98.7726 52.512 98.8436Z" fill="#479799"/>
<path d="M53.0236 101.159L52.4186 98.7324L48.001 99.0821L48.9589 102.924L53.0236 101.159Z" fill="#479799"/>
<path d="M47.6641 99.1085C47.6379 99.1112 47.6126 99.1205 47.5909 99.1356C47.5693 99.1506 47.5517 99.171 47.5401 99.1947C47.5129 99.2499 47.5064 99.313 47.5218 99.3725L48.3997 102.894C48.4136 102.953 48.4489 103.005 48.4989 103.04C48.5203 103.056 48.5454 103.066 48.5716 103.069C48.5978 103.072 48.6245 103.068 48.6489 103.058L48.8948 102.951L47.9317 99.0879L47.6641 99.1085Z" fill="#479799"/>
<path d="M25.2418 163.788L24.7903 161.978C24.7743 161.911 24.7328 161.854 24.6749 161.818C24.617 161.782 24.5473 161.771 24.4808 161.786L24.0854 161.884C24.0204 161.903 23.9653 161.946 23.9317 162.005C23.8982 162.063 23.8888 162.133 23.9057 162.198L24.3572 164.009C24.3649 164.042 24.3791 164.073 24.399 164.101C24.4189 164.129 24.444 164.152 24.473 164.17C24.5019 164.188 24.5341 164.2 24.5677 164.206C24.6013 164.211 24.6356 164.21 24.6688 164.202L25.0643 164.104C25.1291 164.084 25.1839 164.041 25.2171 163.982C25.2502 163.923 25.2591 163.854 25.2418 163.788Z" fill="#479799"/>
<path d="M24.8262 161.859L25.3301 163.879L29.7442 163.405L28.9463 160.205L24.8262 161.859Z" fill="#479799"/>
<path d="M30.0794 163.368C30.1051 163.365 30.1298 163.356 30.1519 163.343C30.174 163.329 30.1929 163.311 30.2073 163.29C30.2223 163.268 30.2323 163.243 30.2367 163.218C30.2411 163.192 30.2397 163.165 30.2326 163.14L29.5017 160.208C29.496 160.183 29.4848 160.158 29.4688 160.138C29.4527 160.117 29.4323 160.1 29.409 160.088C29.3861 160.075 29.3609 160.068 29.3351 160.067C29.3093 160.065 29.2834 160.069 29.2594 160.079L29.0117 160.179L29.814 163.397L30.0794 163.368Z" fill="#479799"/>
<path d="M38.2682 120.363C38.2829 120.373 38.2942 120.388 38.3007 120.405L39.3602 124.654C39.3625 124.672 39.3592 124.69 39.3507 124.705C39.3234 124.747 39.287 124.782 39.2439 124.808C39.201 124.834 39.1527 124.851 39.1026 124.855L38.8463 124.884L37.7387 120.442L37.9785 120.347C38.0251 120.328 38.075 120.32 38.1251 120.323C38.1752 120.326 38.224 120.339 38.2682 120.363ZM28.6108 126.049L28.155 124.22L37.6147 120.491L38.7136 124.899L28.6108 126.049ZM27.0722 126.432C27.019 126.438 26.9655 126.423 26.9229 126.39C26.8805 126.358 26.8522 126.31 26.8443 126.257L26.4788 124.791C26.4666 124.757 26.4683 124.719 26.4835 124.686C26.4986 124.653 26.5261 124.627 26.56 124.614L28.0275 124.248L28.4842 126.08L27.0722 126.432Z" fill="#229DD8"/>
<path d="M27.6191 98.3189L28.7483 102.848C29.0797 102.869 29.4125 102.848 29.7386 102.785C30.8418 102.51 33.0272 100.9 33.0272 100.9C33.0426 100.879 33.0528 100.855 33.0571 100.829C33.0612 100.804 33.0592 100.777 33.0512 100.753L32.4024 98.1506C32.3981 98.1249 32.3874 98.1007 32.3717 98.0799C32.3559 98.0592 32.3355 98.0425 32.3119 98.0313C32.3119 98.0313 29.6348 97.6394 28.5229 97.9093C28.2059 98.0077 27.9021 98.1454 27.6191 98.3189Z" fill="#FF8300"/>
<path d="M27.462 98.4375C27.1271 98.7053 26.8399 99.1049 26.9527 99.6092C26.9614 99.6439 27.1084 100.234 27.2524 100.811C27.3964 101.389 27.5435 101.979 27.5521 102.013C27.6893 102.512 28.1292 102.724 28.5519 102.809L27.462 98.4375Z" fill="#FF8300"/>
<path d="M32.176 155.873L28.7783 152.547C28.4174 152.771 28.0804 153.031 27.7723 153.323C26.7458 154.378 25.2207 157.432 25.2207 157.432C25.2145 157.46 25.2156 157.488 25.2243 157.515C25.2329 157.542 25.2486 157.565 25.2696 157.584L27.2196 159.493C27.2387 159.513 27.263 159.528 27.2899 159.536C27.3168 159.543 27.3452 159.543 27.3722 159.536C27.3722 159.536 30.3849 157.948 31.4278 156.9C31.7106 156.583 31.9612 156.239 32.176 155.873Z" fill="#FF8300"/>
<path d="M32.2826 155.651C32.5006 155.158 32.6146 154.588 32.2493 154.209C32.2242 154.182 31.7826 153.749 31.3497 153.328C30.9168 152.907 30.4744 152.47 30.4467 152.448C30.0593 152.091 29.4921 152.218 29.002 152.44L32.2826 155.651Z" fill="#FF8300"/>
<path d="M39.9993 132.736L39.0401 128.888C38.7259 128.879 38.4117 128.906 38.1035 128.967C37.0627 129.227 34.9594 130.656 34.9594 130.656C34.9449 130.673 34.9349 130.694 34.9305 130.716C34.926 130.738 34.9271 130.761 34.9337 130.782L35.4834 132.987C35.4877 133.009 35.4975 133.03 35.5119 133.047C35.5262 133.065 35.5448 133.079 35.5657 133.088C35.5657 133.088 38.0886 133.363 39.1293 133.104C39.4328 133.016 39.7247 132.892 39.9993 132.736Z" fill="#FF8300"/>
<path d="M40.1482 132.63C40.4692 132.388 40.7521 132.045 40.6566 131.617C40.6492 131.588 40.5242 131.087 40.4023 130.597C40.2803 130.108 40.1553 129.607 40.148 129.578C40.0316 129.155 39.6203 128.983 39.2236 128.922L40.1482 132.63Z" fill="#FF8300"/>
<path d="M44.9852 162.176L44.9731 162.128C44.9418 162.012 44.9516 161.889 45.0006 161.78C45.049 161.699 45.1126 161.629 45.1884 161.572C45.2639 161.516 45.35 161.476 45.4414 161.453C45.5328 161.43 45.6279 161.426 45.7209 161.44C45.8141 161.454 45.9035 161.486 45.9841 161.535C46.0787 161.608 46.145 161.712 46.1717 161.829L46.1838 161.877C46.188 161.891 46.1913 161.904 46.1937 161.917L48.1278 161.435C47.5292 159.773 46.6839 159.56 45.938 159.709C45.487 159.8 44.5954 160.022 44.1566 160.153C43.4315 160.371 42.792 160.954 43.0524 162.701L44.9986 162.215C44.9938 162.204 44.9904 162.19 44.9852 162.176Z" fill="#229DD8"/>
<path d="M43.1172 162.994C43.2334 163.614 43.403 164.222 43.6242 164.813C44.8924 168.326 46.0053 171.326 46.0053 171.326C46.0383 171.4 46.0967 171.459 46.1698 171.493C46.2429 171.527 46.326 171.534 46.4037 171.512L49.2987 170.79C49.3777 170.773 49.4479 170.728 49.4967 170.664C49.5454 170.599 49.5695 170.519 49.5647 170.439C49.5647 170.439 49.1393 167.099 48.6216 163.567C48.5373 162.942 48.3983 162.325 48.2065 161.725L43.1172 162.994Z" fill="#229DD8"/>
<path d="M46.7052 119.154L46.6987 119.128C46.6907 119.098 46.6888 119.067 46.6933 119.036C46.6975 119.005 46.708 118.975 46.724 118.949C46.7954 118.86 46.8936 118.798 47.0038 118.77C47.1139 118.743 47.2301 118.752 47.3346 118.796C47.3883 118.829 47.4271 118.882 47.4429 118.943L47.4494 118.969C47.4518 118.975 47.4534 118.981 47.4541 118.988L48.6562 118.688C48.3324 117.847 47.8178 117.756 47.3556 117.853C47.0767 117.91 46.5234 118.048 46.2506 118.129C45.8005 118.259 45.3931 118.577 45.5079 119.473L46.7221 119.17C46.7221 119.17 46.707 119.161 46.7052 119.154Z" fill="#229DD8"/>
<path d="M45.5459 119.623C45.601 119.94 45.6891 120.251 45.8085 120.55C46.4963 122.334 47.1028 123.857 47.1028 123.857C47.1272 123.897 47.1643 123.927 47.208 123.942C47.2517 123.958 47.2994 123.958 47.3434 123.943L49.1387 123.495C49.1846 123.488 49.2267 123.465 49.2579 123.431C49.2892 123.397 49.3079 123.353 49.3109 123.307C49.3109 123.307 49.1355 121.591 48.9082 119.777C48.8729 119.457 48.8036 119.141 48.7011 118.836L45.5459 119.623Z" fill="#229DD8"/>
<path d="M52.3053 109.195L52.2992 109.171C52.2925 109.14 52.2929 109.108 52.3008 109.078C52.3085 109.048 52.3234 109.019 52.344 108.996C52.4415 108.897 52.5668 108.829 52.7031 108.803C52.8354 108.762 52.9771 108.763 53.109 108.805C53.1387 108.816 53.1655 108.833 53.1869 108.857C53.2083 108.88 53.2239 108.908 53.2325 108.938L53.2385 108.962C53.239 108.969 53.2406 108.975 53.2433 108.982L54.7489 108.606C54.4086 107.818 53.7817 107.771 53.2049 107.897C52.8554 107.973 52.1616 108.146 51.8173 108.243C51.2526 108.402 50.7243 108.736 50.8027 109.59L52.3153 109.213C52.3153 109.213 52.3083 109.2 52.3053 109.195Z" fill="#229DD8"/>
<path d="M50.8301 109.735C50.8753 110.036 50.9628 110.33 51.0897 110.606C51.8084 112.27 52.4457 113.688 52.4457 113.688C52.4756 113.756 52.6065 113.786 52.7366 113.754L54.9916 113.191C55.1217 113.159 55.2249 113.07 55.2193 112.996C55.2193 112.996 55.1284 111.361 54.9804 109.636C54.9608 109.333 54.8992 109.033 54.7971 108.746L50.8301 109.735Z" fill="#229DD8"/>
<path d="M76.3603 150.821L76.4019 150.81C76.5015 150.786 76.6065 150.801 76.6959 150.851C76.8392 150.966 76.9408 151.124 76.9852 151.302C77.0296 151.48 77.0143 151.668 76.9415 151.836C76.8862 151.923 76.8004 151.985 76.7012 152.01L76.6596 152.021L76.6266 152.029L77.1097 153.967C78.4871 153.439 78.6324 152.61 78.4781 151.866C78.3847 151.418 78.1624 150.526 78.034 150.084C77.8215 149.358 77.306 148.702 75.8447 148.893L76.3299 150.839L76.3603 150.821Z" fill="#229DD8"/>
<path d="M75.5996 148.939C75.082 149.03 74.5751 149.174 74.0874 149.37C71.1804 150.487 68.6971 151.471 68.6971 151.471C68.6328 151.51 68.5836 151.569 68.558 151.639C68.5323 151.71 68.5314 151.787 68.5559 151.858L69.2777 154.753C69.2897 154.828 69.3267 154.896 69.3825 154.946C69.4382 154.997 69.5097 155.027 69.585 155.032C69.585 155.032 72.3813 154.742 75.3338 154.369C75.8559 154.309 76.3703 154.196 76.8689 154.03L75.5996 148.939Z" fill="#229DD8"/>
<path d="M55.7641 124.293C55.8803 124.16 56.0345 124.066 56.2061 124.023C56.3776 123.98 56.5582 123.991 56.7233 124.054C56.7638 124.076 56.7993 124.106 56.8274 124.143C56.8556 124.179 56.8757 124.221 56.8866 124.266L58.7704 123.796C58.2921 122.558 57.5052 122.512 56.7788 122.666C56.3395 122.759 55.467 122.976 55.0442 123.098C54.3343 123.303 53.6659 123.711 53.8337 125.027L55.7262 124.555C55.715 124.511 55.7125 124.465 55.7189 124.421C55.7256 124.376 55.7408 124.332 55.7641 124.293Z" fill="#229DD8"/>
<path d="M53.8516 125.149C53.9328 125.611 54.0662 126.062 54.2493 126.493C55.2835 129.037 55.4975 129.364 55.4975 129.364C55.5429 129.472 55.7133 129.527 55.8763 129.487L59.0489 128.696C59.2137 128.654 59.3382 128.526 59.3275 128.409C59.3275 128.409 59.3742 127.894 59.1009 125.283C59.0573 124.817 58.9612 124.357 58.8143 123.912L53.8516 125.149Z" fill="#229DD8"/>
<path d="M80.1195 132.216C80.2273 132.048 80.3951 131.928 80.5885 131.88C80.7819 131.832 80.9864 131.859 81.1603 131.957C81.2563 132.028 81.3243 132.131 81.3526 132.248L83.3769 131.743C82.774 130.064 81.9104 129.955 81.1281 130.113C80.6541 130.207 79.714 130.442 79.2512 130.581C78.488 130.808 77.7766 131.317 78.0499 133.071L80.0812 132.565C80.0527 132.448 80.0663 132.324 80.1195 132.216Z" fill="#FF8300"/>
<path d="M78.0811 133.233C78.1987 133.855 78.3728 134.464 78.6015 135.054C79.8936 138.507 80.1496 138.958 80.1496 138.958C80.1863 139.032 80.2478 139.092 80.3236 139.126C80.3993 139.16 80.4846 139.167 80.5649 139.145L83.9838 138.293C84.0649 138.274 84.137 138.228 84.1879 138.163C84.2388 138.097 84.265 138.015 84.2624 137.932C84.2624 137.932 84.2767 137.251 83.8088 133.756C83.7319 133.13 83.5976 132.512 83.4076 131.91L78.0811 133.233Z" fill="#FF8300"/>
<path d="M17.5047 121.377C18.866 121.029 18.8893 119.881 19.0894 119.479L18.6167 117.583C18.2509 117.32 17.6918 116.319 16.3262 116.65L10.0591 118.213C9.72433 118.296 9.53676 118.712 9.64488 119.145L10.4333 122.308C10.5401 122.736 10.9015 123.018 11.2363 122.935L17.5035 121.372L17.5047 121.377Z" fill="#479799"/>
<path d="M19.3776 117.404L18.7168 117.569L19.1799 119.427L19.8408 119.262L19.3776 117.404Z" fill="#479799"/>
<path d="M20.7411 117.067C20.789 117.056 20.8383 117.056 20.8863 117.065C20.9344 117.074 20.9802 117.093 21.021 117.119C21.062 117.146 21.0972 117.181 21.1247 117.221C21.1522 117.261 21.1715 117.307 21.1815 117.355L21.4574 118.461C21.4711 118.508 21.4754 118.558 21.47 118.606C21.4647 118.655 21.4498 118.702 21.4262 118.744C21.4027 118.787 21.371 118.825 21.3328 118.856C21.2946 118.886 21.2509 118.909 21.2039 118.923L19.9394 119.238L19.4766 117.382L20.7411 117.067Z" fill="#479799"/>
<path d="M30.653 113.888C31.1266 115.751 32.4295 115.841 32.8924 116.145L34.9912 115.622C35.2656 115.141 36.3565 114.447 35.9088 112.578C35.9076 112.571 35.9059 112.564 35.9037 112.557L33.7714 104.005C33.7098 103.781 33.5622 103.59 33.3608 103.475C33.1594 103.359 32.9205 103.327 32.696 103.387L29.1748 104.265C28.9486 104.318 28.7525 104.458 28.6291 104.654C28.5055 104.851 28.4647 105.089 28.5155 105.315L30.6478 113.868C30.649 113.875 30.6507 113.882 30.653 113.888Z" fill="#479799"/>
<path d="M35.0174 115.756L32.9463 116.272L33.1716 117.176L35.2427 116.66L35.0174 115.756Z" fill="#479799"/>
<path d="M35.7087 118.526C35.7447 118.642 35.7335 118.769 35.6768 118.877C35.6204 118.985 35.5234 119.067 35.407 119.104L34.1754 119.411C34.0552 119.433 33.9312 119.406 33.8305 119.337C33.7297 119.268 33.6604 119.162 33.6375 119.042L33.2051 117.307L35.2762 116.791L35.7087 118.526Z" fill="#479799"/>
<path d="M54.1855 89.9912L50.2285 88.7962C50.1493 88.7732 50.0649 88.7768 49.9879 88.8064L49.5125 88.9986C49.4618 89.0183 49.4166 89.05 49.381 89.0909C49.3453 89.1319 49.3202 89.181 49.3077 89.234L48.7527 91.4415C48.7402 91.4948 48.7404 91.5503 48.7536 91.6035C48.7669 91.6566 48.7928 91.7057 48.8288 91.7469L49.0888 92.0505C49.1249 92.092 49.1509 92.1414 49.1642 92.1948C49.1775 92.2482 49.1778 92.304 49.1653 92.3576L48.6777 94.2222C48.6642 94.2775 48.6369 94.3284 48.5984 94.3703C48.5598 94.4121 48.5112 94.4435 48.4573 94.4614L48.145 94.5688C48.0907 94.5867 48.042 94.618 48.0031 94.6599C47.9641 94.7019 47.9367 94.7529 47.9229 94.8084L47.5417 96.3388C47.5222 96.4267 47.5365 96.5188 47.5817 96.5967C47.6271 96.6746 47.7003 96.7324 47.7864 96.7587L51.8362 97.9785C51.9224 98.0047 52.0154 97.9974 52.0964 97.958C52.1775 97.9187 52.2407 97.8502 52.2734 97.7663L52.7959 96.2854C52.8154 96.2303 52.8203 96.1713 52.8104 96.1138C52.8007 96.0562 52.7763 96.0022 52.7398 95.9567L52.5444 95.7124C52.5082 95.6672 52.484 95.6136 52.4738 95.5565C52.4638 95.4994 52.4683 95.4408 52.4869 95.3859L53.1206 93.5456C53.1384 93.4922 53.1696 93.4441 53.2109 93.4058C53.2522 93.3675 53.3025 93.3402 53.3571 93.3264L53.7283 93.2338C53.782 93.2186 53.8315 93.191 53.8725 93.1532C53.9138 93.1154 53.9454 93.0685 53.9651 93.0163L54.7231 90.8835C54.7413 90.8311 54.7466 90.7752 54.7384 90.7204C54.7301 90.6657 54.7087 90.6137 54.676 90.5691L54.3693 90.137C54.3244 90.0707 54.2603 90.0197 54.1855 89.9912Z" fill="#229DD8"/>
<path d="M51.6545 86.6027C51.6834 86.5188 51.7442 86.4497 51.8236 86.4103C51.9031 86.3708 51.9949 86.3642 52.0791 86.3918L54 86.9723C54.0857 86.9968 54.1584 87.0542 54.2019 87.1321C54.2455 87.2099 54.2564 87.3019 54.2325 87.3878L53.6903 89.1812L51.1162 88.4043L51.6545 86.6027Z" fill="#229DD8"/>
<path d="M51.2542 88.5215L51.1162 88.9784L53.3666 89.6583L53.5045 89.2014L51.2542 88.5215Z" fill="#229DD8"/>
<path d="M50.627 122.384L52.754 114.946C52.7824 114.846 52.8365 114.756 52.9107 114.685C52.9851 114.613 53.0769 114.562 53.1772 114.537C53.2774 114.512 53.3823 114.514 53.4817 114.542C53.581 114.571 53.6709 114.625 53.7427 114.699L59.1144 120.268C59.186 120.342 59.2368 120.434 59.2616 120.534C59.2864 120.635 59.2844 120.74 59.2557 120.839C59.227 120.938 59.1726 121.028 59.0983 121.1C59.0239 121.171 58.9319 121.222 58.8315 121.247L51.3346 123.116C51.2345 123.141 51.1297 123.139 51.0305 123.11C50.9313 123.082 50.8416 123.028 50.7699 122.954C50.6981 122.88 50.6473 122.788 50.6221 122.688C50.597 122.588 50.5987 122.483 50.627 122.384Z" fill="#FF8300"/>
<path d="M54.3994 119.244C54.4257 119.349 54.4362 119.445 54.4309 119.531C54.4257 119.617 54.4069 119.691 54.3751 119.754C54.3438 119.815 54.3027 119.865 54.2521 119.905C54.2014 119.944 54.1438 119.971 54.0792 119.987C54.0152 120.003 53.9517 120.006 53.8885 119.995C53.8254 119.984 53.7655 119.959 53.7088 119.919C53.652 119.879 53.6009 119.822 53.5553 119.75C53.5104 119.677 53.4746 119.587 53.4482 119.481C53.4215 119.374 53.411 119.278 53.4164 119.192C53.4225 119.107 53.4407 119.033 53.4714 118.97C53.5024 118.908 53.5433 118.857 53.5941 118.818C53.6454 118.779 53.703 118.751 53.767 118.735C53.8315 118.719 53.8949 118.716 53.9575 118.727C54.0205 118.737 54.0807 118.763 54.1383 118.804C54.1958 118.845 54.2472 118.901 54.2922 118.975C54.3373 119.048 54.3731 119.138 54.3994 119.244ZM54.0518 119.33C54.0249 119.222 53.9955 119.136 53.9635 119.07C53.9317 119.004 53.8875 118.979 53.8313 118.993C53.7931 119.002 53.7691 119.029 53.7594 119.072C53.7503 119.116 53.7496 119.163 53.7575 119.215C53.7661 119.266 53.7788 119.326 53.7958 119.394C53.8246 119.51 53.854 119.598 53.8843 119.659C53.9148 119.719 53.9583 119.743 54.0147 119.728C54.0716 119.714 54.099 119.674 54.0971 119.606C54.0958 119.538 54.0806 119.446 54.0518 119.33ZM55.6125 119.588L54.6858 119.819L54.6799 119.795C54.7072 119.752 54.7361 119.701 54.7669 119.642C54.7978 119.583 54.8371 119.506 54.8848 119.41C54.9069 119.366 54.9273 119.324 54.9455 119.282C54.9645 119.241 54.9796 119.202 54.991 119.164C55.0022 119.127 55.0095 119.087 55.0132 119.044C55.017 119.001 55.0137 118.959 55.0035 118.918C54.9894 118.862 54.9616 118.821 54.9202 118.794C54.8792 118.767 54.8333 118.76 54.7828 118.772C54.6831 118.797 54.5969 118.874 54.5241 119.001L54.4524 118.714C54.4813 118.683 54.5053 118.658 54.5244 118.639C54.5432 118.62 54.5654 118.6 54.591 118.58C54.6171 118.56 54.649 118.54 54.6865 118.521C54.7241 118.501 54.7659 118.486 54.8124 118.474C54.8868 118.456 54.9585 118.454 55.027 118.469C55.0955 118.484 55.1543 118.516 55.2031 118.565C55.2525 118.613 55.2868 118.675 55.3058 118.751C55.3193 118.805 55.3239 118.858 55.3198 118.909C55.3155 118.96 55.3087 119.001 55.2988 119.034C55.289 119.067 55.2751 119.109 55.2576 119.158C55.2258 119.245 55.1897 119.33 55.1492 119.413L55.5442 119.314L55.6125 119.588Z" fill="white"/>
<path d="M57.8291 119.725L56.7766 118.637L56.3757 119.024L57.4282 120.112C57.4532 120.139 57.4711 120.171 57.4799 120.207C57.4886 120.242 57.488 120.279 57.4783 120.314C57.4685 120.349 57.4497 120.381 57.4239 120.407C57.3981 120.433 57.366 120.451 57.3309 120.461L55.4627 120.927L55.3425 120.444L54.2275 121.522L55.7174 121.948L55.5972 121.466L57.4619 121.001C57.5925 120.968 57.7121 120.902 57.809 120.809C57.906 120.715 57.9765 120.598 58.0137 120.469C58.0509 120.34 58.0534 120.203 58.0211 120.072C57.9887 119.941 57.9223 119.822 57.8291 119.725Z" fill="white"/>
<path d="M52.2923 121.716C52.257 121.725 52.2198 121.724 52.1846 121.714C52.1496 121.703 52.1181 121.683 52.0934 121.657C52.0677 121.63 52.0496 121.598 52.0407 121.562C52.0317 121.526 52.0324 121.489 52.0428 121.454L52.6342 119.392L53.1106 119.529L52.7352 118.023L51.6185 119.102L52.0984 119.238L51.5069 121.3C51.4701 121.429 51.4678 121.566 51.5004 121.696C51.5331 121.826 51.5994 121.946 51.6926 122.043C51.7859 122.139 51.903 122.21 52.0322 122.247C52.1615 122.284 52.2981 122.287 52.4286 122.255L54.1146 121.834L53.9801 121.295L52.2923 121.716Z" fill="white"/>
<path d="M55.7177 117.544L54.2276 116.002C54.134 115.905 54.0167 115.834 53.8873 115.797C53.758 115.76 53.621 115.758 53.4904 115.79C53.3598 115.823 53.24 115.889 53.1432 115.983C53.0463 116.076 52.9759 116.194 52.9387 116.323L52.5225 117.779L53.0583 117.933L53.4746 116.477C53.4856 116.443 53.5053 116.412 53.5314 116.388C53.5574 116.364 53.5894 116.346 53.6241 116.338C53.6587 116.329 53.6951 116.329 53.7295 116.339C53.7641 116.348 53.7957 116.365 53.8215 116.39L55.3116 117.933L54.9541 118.28L56.4445 118.708L56.0691 117.203L55.7177 117.544Z" fill="white"/>
<path d="M19.4125 120.662L24.8366 117.248C24.9091 117.203 24.9923 117.177 25.0777 117.174C25.1632 117.171 25.248 117.19 25.3235 117.23C25.3992 117.27 25.463 117.329 25.5086 117.402C25.5543 117.474 25.58 117.557 25.5834 117.642L25.8175 124.05C25.8204 124.135 25.8006 124.22 25.7604 124.295C25.7203 124.371 25.6609 124.434 25.5884 124.479C25.516 124.525 25.4329 124.55 25.3475 124.553C25.2621 124.556 25.1774 124.537 25.1018 124.497L19.4441 121.506C19.3682 121.466 19.3042 121.407 19.2585 121.335C19.2128 121.262 19.1871 121.179 19.1839 121.093C19.1807 121.008 19.2001 120.923 19.2403 120.847C19.2804 120.772 19.3398 120.708 19.4125 120.662Z" fill="#479799"/>
<path d="M23.4992 120.777C23.4568 120.856 23.4101 120.921 23.3591 120.97C23.3081 121.02 23.2556 121.055 23.2016 121.076C23.1483 121.096 23.0952 121.104 23.0423 121.1C22.9897 121.096 22.9391 121.08 22.8907 121.054C22.8427 121.029 22.8023 120.995 22.7695 120.954C22.7369 120.912 22.7143 120.863 22.7018 120.807C22.6893 120.751 22.6892 120.688 22.7017 120.618C22.7146 120.549 22.7423 120.474 22.785 120.394C22.8279 120.314 22.8747 120.249 22.9255 120.2C22.9767 120.151 23.029 120.116 23.0823 120.094C23.1361 120.074 23.1893 120.065 23.2419 120.069C23.2953 120.074 23.3459 120.089 23.3939 120.114C23.4424 120.14 23.4828 120.174 23.5152 120.215C23.548 120.256 23.5707 120.305 23.5832 120.363C23.5959 120.419 23.5957 120.483 23.5826 120.553C23.5694 120.623 23.5417 120.697 23.4992 120.777ZM23.2382 120.637C23.2816 120.556 23.3117 120.486 23.3285 120.429C23.3453 120.371 23.3326 120.331 23.2903 120.308C23.2617 120.293 23.2323 120.295 23.2022 120.317C23.1726 120.338 23.1459 120.367 23.1221 120.403C23.0987 120.439 23.0733 120.483 23.046 120.534C22.9996 120.621 22.9686 120.691 22.9533 120.745C22.9386 120.799 22.9524 120.838 22.9947 120.86C23.0374 120.883 23.0769 120.873 23.1132 120.831C23.1501 120.788 23.1918 120.724 23.2382 120.637ZM24.0513 121.66L23.3556 121.288L23.3652 121.27C23.4059 121.259 23.452 121.243 23.5036 121.224C23.555 121.206 23.622 121.18 23.7045 121.147C23.7422 121.133 23.7782 121.118 23.8123 121.103C23.847 121.088 23.878 121.073 23.9055 121.056C23.9333 121.039 23.9601 121.019 23.986 120.995C24.0119 120.971 24.0331 120.943 24.0496 120.912C24.0723 120.87 24.0782 120.829 24.0675 120.79C24.0574 120.751 24.0334 120.721 23.9955 120.701C23.9207 120.661 23.8255 120.659 23.71 120.697L23.8256 120.481C23.8605 120.478 23.8891 120.476 23.9113 120.475C23.9334 120.474 23.9579 120.474 23.9847 120.476C24.0119 120.478 24.0423 120.484 24.0761 120.493C24.1098 120.502 24.144 120.516 24.1788 120.534C24.2348 120.564 24.2795 120.603 24.3131 120.65C24.3469 120.697 24.3652 120.749 24.3681 120.807C24.3716 120.863 24.3581 120.92 24.3275 120.978C24.3057 121.018 24.2795 121.053 24.2488 121.082C24.218 121.111 24.1905 121.132 24.1662 121.147C24.1418 121.162 24.1106 121.18 24.0725 121.2C24.0044 121.236 23.9351 121.268 23.8647 121.296L24.1613 121.455L24.0513 121.66Z" fill="white"/>
<path d="M25.3248 123.004L25.2792 121.75L24.8174 121.767L24.8656 123.025C24.8661 123.055 24.8589 123.085 24.8446 123.112C24.8303 123.139 24.8094 123.161 24.784 123.178C24.758 123.194 24.7284 123.202 24.6981 123.203C24.6677 123.205 24.6376 123.198 24.6105 123.184L23.204 122.435L23.3955 122.072L22.1172 122.118L22.8012 123.206L22.9926 122.843L24.4013 123.586C24.4997 123.638 24.6101 123.664 24.7212 123.659C24.8324 123.655 24.9406 123.622 25.0348 123.563C25.1291 123.504 25.2061 123.421 25.2582 123.322C25.3103 123.224 25.3357 123.114 25.3317 123.003L25.3248 123.004Z" fill="white"/>
<path d="M20.8082 121.171C20.7826 121.156 20.7614 121.134 20.7463 121.108C20.7312 121.083 20.7228 121.054 20.7218 121.024C20.7207 120.994 20.7272 120.964 20.7405 120.938C20.7538 120.911 20.7735 120.888 20.7979 120.871L22.3013 119.925L22.5209 120.274L23.1217 119.137L21.8435 119.183L22.0635 119.533L20.5602 120.479C20.4664 120.538 20.3898 120.621 20.338 120.719C20.2863 120.818 20.2611 120.927 20.2651 121.038C20.269 121.149 20.302 121.257 20.3606 121.351C20.4193 121.445 20.5016 121.522 20.5994 121.575L21.8724 122.247L22.0877 121.839L20.8082 121.171Z" fill="white"/>
<path d="M25.2324 120.485L25.1585 118.711C25.1541 118.6 25.1206 118.491 25.0612 118.397C25.0017 118.302 24.9184 118.225 24.8199 118.173C24.7212 118.121 24.6105 118.096 24.4991 118.1C24.3876 118.104 24.279 118.137 24.1846 118.197L23.124 118.865L23.3688 119.255L24.4315 118.588C24.458 118.571 24.4889 118.56 24.5209 118.558C24.5529 118.557 24.5848 118.563 24.6131 118.578C24.6399 118.593 24.6625 118.614 24.6786 118.64C24.6948 118.666 24.704 118.696 24.7054 118.726L24.7789 120.499L24.3665 120.515L25.0505 121.603L25.6513 120.466L25.2324 120.485Z" fill="white"/>
</svg>
