<svg width="33" height="18" viewBox="0 0 33 18" fill="none" xmlns="http://www.w3.org/2000/svg">
<path d="M24.5992 0.317301C24.1762 -0.105767 23.4902 -0.105767 23.0672 0.317301C22.6441 0.740369 22.6441 1.4263 23.0672 1.84937L28.8011 7.58331H20.1829C19.5846 7.58331 19.0996 8.06833 19.0996 8.66664C19.0996 9.26495 19.5846 9.74998 20.1829 9.74998H28.8012L23.0672 15.484C22.6441 15.907 22.6441 16.593 23.0672 17.016C23.4902 17.4391 24.1762 17.4391 24.5992 17.016L32.1826 9.4327C32.2906 9.3247 32.371 9.19956 32.4239 9.06604C32.4694 8.95131 32.4959 8.82696 32.4994 8.69688C32.4999 8.67898 32.5 8.66107 32.4996 8.64317C32.4966 8.50134 32.4663 8.36622 32.4138 8.24284C32.3673 8.13314 32.3018 8.02957 32.2174 7.93707C32.2047 7.92322 32.1918 7.90969 32.1784 7.8965L24.5992 0.317301Z" fill="black"/>
<path d="M8.40054 17.0162C8.82361 17.4393 9.50953 17.4393 9.9326 17.0162C10.3557 16.5931 10.3557 15.9072 9.9326 15.4841L4.19866 9.75019L12.8166 9.75019C13.4149 9.75019 13.8999 9.26516 13.8999 8.66685C13.8999 8.06855 13.4149 7.58352 12.8166 7.58352L4.19861 7.58352L9.9326 1.84953C10.3557 1.42646 10.3557 0.740532 9.9326 0.317464C9.50954 -0.105603 8.82361 -0.105603 8.40054 0.317464L0.817205 7.9008C0.709201 8.0088 0.628769 8.13393 0.575908 8.26745C0.53038 8.38218 0.503887 8.50654 0.500322 8.63662C0.499826 8.65452 0.499772 8.67243 0.500157 8.69033C0.503173 8.83215 0.533441 8.96727 0.585938 9.09066C0.632513 9.20035 0.697998 9.30393 0.782392 9.39642C0.795025 9.41028 0.808011 9.42381 0.821338 9.43699L8.40054 17.0162Z" fill="black"/>
<circle cx="16.5001" cy="9.10019" r="3.15" stroke="black" stroke-width="1.5"/>
</svg>
