<svg width="1646" height="995" viewBox="0 0 1646 995" fill="none" xmlns="http://www.w3.org/2000/svg">
<g opacity="0.3">
<path d="M-549.986 82.9995C-98.31 377.5 208.265 665 208.27 995" stroke="white" stroke-dasharray="16 8"/>
<path d="M-174.986 82.9995C153.055 377.5 375.713 665 375.717 995" stroke="white" stroke-dasharray="16 8"/>
<path d="M2190 82.9995C1738.32 377.5 1431.75 665 1431.74 995" stroke="white" stroke-dasharray="16 8"/>
<path d="M1815 82.9995C1486.96 377.5 1264.3 665 1264.3 995" stroke="white" stroke-dasharray="16 8"/>
<path d="M330 -83.9996C421 177.5 528 481.5 528 995" stroke="white" stroke-dasharray="16 8"/>
<path d="M573.069 -83.9997C618.792 177.5 672.555 481.5 672.555 995" stroke="white" stroke-dasharray="16 8"/>
<path d="M1307.07 -83.9996C1216.07 177.5 1109.07 481.5 1109.07 995" stroke="white" stroke-dasharray="16 8"/>
<path d="M1064 -83.9997C1018.28 177.5 964.514 481.5 964.514 995" stroke="white" stroke-dasharray="16 8"/>
<path d="M822 -84V998" stroke="white" stroke-dasharray="16 8"/>
</g>
</svg>
