<svg width="245" height="44" viewBox="0 0 245 44" fill="none" xmlns="http://www.w3.org/2000/svg">
<rect x="1" y="2.21533" width="19" height="36" rx="1" stroke="black" stroke-width="2"/>
<rect x="23.5" y="1.71533" width="20" height="37" rx="1.5" stroke="black" stroke-dasharray="2 2"/>
<rect x="225" y="2.26123" width="19" height="36" rx="1" stroke="black" stroke-width="2"/>
<path d="M208.965 11.271L208.967 11.2703L212.75 10.002V3.97533C212.75 3.82381 212.768 3.67646 212.802 3.53533C212.768 3.3942 212.75 3.24685 212.75 3.09533C212.75 2.0617 213.584 1.21533 214.625 1.21533C215.666 1.21533 216.5 2.0617 216.5 3.09533C216.5 3.24685 216.482 3.3942 216.448 3.53533C216.482 3.67646 216.5 3.82381 216.5 3.97533V11.0153C216.5 11.0725 216.497 11.1292 216.492 11.1855C216.497 11.2421 216.5 11.2991 216.5 11.3565V12.7753C216.5 12.9266 216.482 13.0738 216.448 13.2155C216.482 13.3566 216.5 13.5039 216.5 13.6553V16.2953C216.5 16.9048 216.082 17.28 215.882 17.4331C215.793 17.5003 215.7 17.5608 215.604 17.6153C215.7 17.6698 215.793 17.7304 215.882 17.7976C216.082 17.9506 216.5 18.3258 216.5 18.9353V23.3353C216.5 24.369 215.666 25.2153 214.625 25.2153H209.375C208.334 25.2153 207.5 24.369 207.5 23.3353V18.9353C207.5 18.3258 207.918 17.9506 208.118 17.7976C208.207 17.7304 208.3 17.6698 208.396 17.6153C208.3 17.5608 208.207 17.5003 208.118 17.4331C207.918 17.28 207.5 16.9048 207.5 16.2953V13.6553C207.5 13.2737 207.614 12.9175 207.809 12.6205C207.824 12.5368 207.845 12.453 207.872 12.3699L208.965 11.271ZM208.965 11.271C208.449 11.4454 208.044 11.8526 207.873 12.3693L208.965 11.271Z" stroke="black" stroke-width="2"/>
<circle cx="212" cy="36.7153" r="5.5" stroke="black" stroke-width="2"/>
<path d="M209.5 34.2153L212 36.7153M214.5 39.2153L212 36.7153M212 36.7153L214.5 34.2153M212 36.7153L209.5 39.2153" stroke="black"/>
<path fill-rule="evenodd" clip-rule="evenodd" d="M122.637 33.4366L131.693 33.9492C132.283 33.9623 132.608 33.8404 132.771 33.5176C132.926 33.2137 132.814 32.7749 132.32 32.5242L110.67 21.5333C109.265 20.8198 108.806 19.4645 109.452 18.192C110.05 17.0146 111.434 16.5468 112.839 17.2602L127.425 24.6646C128.184 25.0503 128.757 24.8633 129.008 24.3695C129.239 23.9137 129.062 23.322 128.302 22.9364L123.991 20.7478C123.364 20.4297 123.215 19.8763 123.591 19.1357C124.42 17.5024 126.121 16.7412 128.324 17.8596L130.356 18.8912C131.115 19.2769 131.698 19.0709 131.948 18.5771C132.18 18.1213 131.993 17.5486 131.233 17.163L129.03 16.0446C128.384 15.7168 128.235 15.2111 128.63 14.4324C129.488 12.7422 131.426 12.1254 133.382 13.1184L134.445 13.6583C135.205 14.0439 135.778 13.8569 136.028 13.3632C136.26 12.9074 136.082 12.3157 135.323 11.9301L133.708 11.1106C133.31 10.9081 133.207 10.5932 133.419 10.1753C134.335 8.37115 137.186 7.78848 140.529 9.48533L144.175 11.3364C152.949 15.7907 155.762 23.1422 151.693 31.1566C148.589 37.2719 143.388 40.412 133.822 39.3534L122.371 38.1023C120.714 37.9303 119.884 36.6965 119.995 35.5351C120.108 34.3261 121.076 33.3604 122.637 33.4366ZM118.91 35.4326C118.991 34.5644 119.384 33.752 120.067 33.1725C120.754 32.5895 121.667 32.2975 122.69 32.3474L122.699 32.3479L130.425 32.7852L110.176 22.5056C109.266 22.0435 108.583 21.329 108.265 20.4388C107.945 19.5434 108.034 18.5757 108.48 17.6984C109.378 15.9292 111.447 15.3304 113.333 16.2878L122.663 21.0244C122.527 20.8354 122.421 20.6174 122.358 20.3681C122.201 19.7485 122.364 19.1448 122.619 18.642C123.139 17.6178 123.978 16.7857 125.113 16.4262C125.954 16.1598 126.869 16.1806 127.812 16.4746C127.621 16.2616 127.467 16.0002 127.384 15.6812C127.22 15.047 127.406 14.436 127.658 13.9388C128.218 12.836 129.153 12.0503 130.292 11.7215C131.053 11.5018 131.869 11.4957 132.683 11.6978C132.518 11.5283 132.377 11.3153 132.294 11.0503C132.13 10.5282 132.264 10.0406 132.447 9.68171C133.105 8.38385 134.413 7.62904 135.926 7.43575C137.435 7.24294 139.204 7.58957 141.023 8.51297L144.669 10.3641C149.222 12.6757 152.356 15.8047 153.77 19.5239C155.19 23.2608 154.811 27.4243 152.666 31.6502C151.033 34.8674 148.804 37.3799 145.662 38.9239C142.534 40.4606 138.617 40.9811 133.702 40.4373C133.702 40.4373 133.702 40.4374 133.702 40.4373L122.258 39.187C122.257 39.1869 122.256 39.1868 122.255 39.1867C120.036 38.9547 118.739 37.2191 118.91 35.4326Z" fill="black"/>
<path fill-rule="evenodd" clip-rule="evenodd" d="M131.673 34.4489L122.613 33.9361C122.612 33.936 122.612 33.936 122.611 33.936C121.942 33.9038 121.439 34.0941 121.096 34.3851C120.751 34.6779 120.538 35.098 120.493 35.5813L120.493 35.5831C120.409 36.4571 121.025 37.4599 122.422 37.6051L122.425 37.6053L133.876 38.8564C138.599 39.379 142.188 38.8587 144.96 37.4965C147.726 36.1376 149.732 33.9148 151.248 30.9303C153.231 27.0234 153.515 23.3296 152.283 20.0892C151.048 16.8407 148.26 13.9706 143.949 11.7823L140.303 9.9312C138.699 9.11716 137.252 8.86983 136.127 9.01345C135.005 9.15685 134.231 9.68108 133.865 10.4017C133.808 10.5134 133.81 10.5638 133.812 10.5738C133.817 10.5834 133.843 10.6181 133.935 10.6648L135.549 11.4843C136.004 11.7154 136.338 12.0353 136.506 12.4205C136.676 12.8123 136.657 13.2305 136.474 13.5895C136.287 13.9588 135.963 14.2331 135.537 14.3285C135.122 14.4212 134.669 14.3326 134.219 14.1042L133.156 13.5643C132.275 13.1174 131.432 13.0478 130.733 13.2496C130.036 13.4508 129.445 13.9318 129.076 14.6588C128.904 14.9986 128.899 15.1868 128.924 15.2822C128.944 15.3603 129.01 15.4735 129.256 15.5988L131.459 16.7172C131.91 16.9458 132.245 17.2577 132.418 17.637C132.594 18.0261 132.577 18.4425 132.394 18.8035C132.208 19.1712 131.884 19.4486 131.459 19.5503C131.042 19.6499 130.584 19.5681 130.129 19.3371L128.097 18.3055C127.084 17.7908 126.244 17.7363 125.593 17.9425C124.941 18.149 124.403 18.6406 124.037 19.362C123.88 19.6716 123.872 19.8667 123.9 19.9774C123.924 20.0732 123.997 20.19 124.217 20.302L128.529 22.4906C128.984 22.7217 129.317 23.0416 129.485 23.4268C129.656 23.8187 129.636 24.2368 129.454 24.5959C129.266 24.9651 128.943 25.2394 128.516 25.3348C128.102 25.4276 127.648 25.3389 127.199 25.1105L112.613 17.7061C111.428 17.1045 110.358 17.5122 109.898 18.4184C109.631 18.9441 109.604 19.4585 109.763 19.9042C109.923 20.3523 110.289 20.7791 110.896 21.0875L132.547 32.0784C133.236 32.4283 133.521 33.1459 133.217 33.744C133.079 34.0168 132.862 34.2115 132.575 34.3246C132.31 34.4293 132.004 34.4562 131.681 34.4491L131.673 34.4489ZM133.812 10.5738C133.812 10.5746 133.812 10.5758 133.812 10.5758L133.812 10.5738ZM122.637 33.4367L131.693 33.9492C132.283 33.9623 132.608 33.8405 132.772 33.5176C132.926 33.2138 132.814 32.7749 132.32 32.5243L110.67 21.5333C109.265 20.8199 108.806 19.4645 109.452 18.1921C110.05 17.0146 111.434 16.5468 112.839 17.2602L127.425 24.6647C128.184 25.0503 128.757 24.8633 129.008 24.3695C129.239 23.9137 129.062 23.3221 128.302 22.9364L123.991 20.7479C123.364 20.4297 123.215 19.8764 123.591 19.1357C124.421 17.5024 126.121 16.7413 128.324 17.8596L130.356 18.8913C131.115 19.2769 131.698 19.0709 131.948 18.5771C132.18 18.1213 131.993 17.5487 131.233 17.163L129.03 16.0447C128.384 15.7169 128.235 15.2111 128.63 14.4325C129.488 12.7422 131.426 12.1254 133.382 13.1184L134.445 13.6583C135.205 14.044 135.778 13.857 136.028 13.3632C136.26 12.9074 136.082 12.3158 135.323 11.9301L133.709 11.1106C133.31 10.9081 133.207 10.5932 133.419 10.1754C134.335 8.37119 137.186 7.78852 140.529 9.48536L144.175 11.3365C152.949 15.7907 155.762 23.1423 151.693 31.1566C148.589 37.2719 143.388 40.412 133.822 39.3534L122.371 38.1024C120.714 37.9303 119.884 36.6965 119.995 35.5351C120.108 34.3261 121.076 33.3605 122.637 33.4367ZM133.482 40.4133L122.258 39.187L122.255 39.1867C120.036 38.9547 118.739 37.2192 118.91 35.4327C118.991 34.5644 119.385 33.752 120.067 33.1726C120.754 32.5895 121.667 32.2975 122.69 32.3475L122.699 32.3479L130.426 32.7852L110.177 22.5057C109.266 22.0435 108.583 21.329 108.265 20.4389C107.945 19.5434 108.035 18.5758 108.48 17.6984C109.378 15.9293 111.447 15.3304 113.333 16.2879L122.663 21.0244C122.527 20.8355 122.421 20.6174 122.358 20.3681C122.352 20.3456 122.347 20.3232 122.342 20.3008C122.213 19.7049 122.373 19.1266 122.619 18.6421C123.139 17.6178 123.978 16.7858 125.113 16.4262C125.737 16.2285 126.402 16.189 127.089 16.3019C127.328 16.3412 127.569 16.3988 127.812 16.4747C127.658 16.3028 127.528 16.0995 127.44 15.8599C127.419 15.8024 127.4 15.7429 127.384 15.6813C127.22 15.047 127.406 14.4361 127.658 13.9388C128.218 12.836 129.153 12.0503 130.292 11.7215C130.832 11.5655 131.4 11.5172 131.976 11.5747C132.211 11.5981 132.447 11.6392 132.683 11.6979C132.532 11.5421 132.401 11.3498 132.316 11.1142C132.308 11.0932 132.301 11.072 132.294 11.0503C132.13 10.5282 132.264 10.0406 132.447 9.68175C133.105 8.38389 134.413 7.62907 135.926 7.43579C137.435 7.24298 139.204 7.5896 141.023 8.513L144.669 10.3641C149.223 12.6758 152.356 15.8048 153.77 19.524C155.19 23.2609 154.811 27.4243 152.666 31.6503C151.033 34.8674 148.804 37.3799 145.662 38.924C142.581 40.4376 138.735 40.9653 133.923 40.4611C133.923 40.4611 133.923 40.4611 133.923 40.4611C133.85 40.4535 133.776 40.4455 133.702 40.4374L133.482 40.4133ZM133.647 40.9343L122.206 39.6843L122.204 39.6841C122.204 39.6841 122.204 39.6841 122.204 39.6841C119.728 39.4251 118.214 37.4599 118.412 35.385C118.505 34.3963 118.955 33.4608 119.744 32.7914C120.539 32.1165 121.581 31.7927 122.715 31.8481L122.727 31.8487L128.072 32.1512L109.95 22.9515C108.945 22.4412 108.161 21.6364 107.794 20.607C107.424 19.5699 107.533 18.4597 108.034 17.4721C109.071 15.4293 111.455 14.774 113.559 15.842L121.801 20.026C121.764 19.4225 121.945 18.8651 122.173 18.4157C122.741 17.2967 123.675 16.3573 124.962 15.9495C125.582 15.7533 126.231 15.6972 126.891 15.7702C126.699 14.9801 126.939 14.2503 127.212 13.7125C127.832 12.4916 128.875 11.6101 130.153 11.2411C130.679 11.0892 131.226 11.0295 131.778 11.0583C131.626 10.4238 131.799 9.85238 132.001 9.45541C132.752 7.97537 134.228 7.14866 135.862 6.93982C137.493 6.73154 139.362 7.10943 141.249 8.06716L144.895 9.91827C149.525 12.2687 152.767 15.479 154.237 19.3463C155.717 23.2394 155.308 27.5505 153.112 31.8766C151.441 35.1668 149.143 37.7704 145.882 39.3727M133.647 40.9343C133.647 40.9343 133.648 40.9344 133.647 40.9343V40.9343Z" fill="black"/>
<path d="M95.9655 19.727L95.9674 19.7264L99.75 18.4581V12.4314C99.75 12.2799 99.768 12.1325 99.8019 11.9914C99.768 11.8503 99.75 11.7029 99.75 11.5514C99.75 10.5178 100.584 9.67139 101.625 9.67139C102.666 9.67139 103.5 10.5178 103.5 11.5514C103.5 11.7029 103.482 11.8503 103.448 11.9914C103.482 12.1325 103.5 12.2799 103.5 12.4314V19.4714C103.5 19.5285 103.497 19.5853 103.492 19.6416C103.497 19.6981 103.5 19.7551 103.5 19.8126V21.2314C103.5 21.3826 103.482 21.5298 103.448 21.6716C103.482 21.8127 103.5 21.9599 103.5 22.1114V24.7514C103.5 25.3609 103.082 25.7361 102.882 25.8891C102.793 25.9563 102.7 26.0169 102.604 26.0714C102.7 26.1259 102.793 26.1865 102.882 26.2536C103.082 26.4067 103.5 26.7819 103.5 27.3914V31.7914C103.5 32.825 102.666 33.6714 101.625 33.6714H96.375C95.3345 33.6714 94.5 32.825 94.5 31.7914V27.3914C94.5 26.7819 94.9179 26.4067 95.1185 26.2536C95.2065 26.1865 95.3002 26.1259 95.3955 26.0714C95.3002 26.0169 95.2065 25.9563 95.1185 25.8891C94.9179 25.7361 94.5 25.3609 94.5 24.7514V22.1114C94.5 21.7298 94.6139 21.3736 94.8093 21.0765C94.8239 20.9928 94.8448 20.9091 94.8725 20.826L95.9655 19.727ZM95.9655 19.727C95.4486 19.9015 95.0445 20.3087 94.8727 20.8254L95.9655 19.727Z" stroke="black" stroke-width="2"/>
<circle cx="167.5" cy="22.1694" r="3" fill="black"/>
<path d="M196.207 22.9224C196.598 22.5319 196.598 21.8987 196.207 21.5082L189.843 15.1443C189.453 14.7537 188.819 14.7537 188.429 15.1443C188.038 15.5348 188.038 16.168 188.429 16.5585L194.086 22.2153L188.429 27.8722C188.038 28.2627 188.038 28.8959 188.429 29.2864C188.819 29.6769 189.453 29.6769 189.843 29.2864L196.207 22.9224ZM168.5 23.2153H195.5V21.2153H168.5V23.2153Z" fill="black"/>
<circle cx="57.5" cy="22.1694" r="3" fill="black"/>
<path d="M86.2071 22.9224C86.5976 22.5319 86.5976 21.8987 86.2071 21.5082L79.8431 15.1443C79.4526 14.7537 78.8195 14.7537 78.4289 15.1443C78.0384 15.5348 78.0384 16.168 78.4289 16.5585L84.0858 22.2153L78.4289 27.8722C78.0384 28.2627 78.0384 28.8959 78.4289 29.2864C78.8195 29.6769 79.4526 29.6769 79.8431 29.2864L86.2071 22.9224ZM58.5 23.2153H85.5V21.2153H58.5V23.2153Z" fill="black"/>
</svg>
