<?xml version="1.0" encoding="utf-8"?>
<!-- Generator: Adobe Illustrator 25.4.1, SVG Export Plug-In . SVG Version: 6.00 Build 0)  -->
<svg version="1.1" id="Слой_1" xmlns="http://www.w3.org/2000/svg" xmlns:xlink="http://www.w3.org/1999/xlink" x="0px" y="0px"
	 viewBox="0 0 209 195" style="enable-background:new 0 0 209 195;" xml:space="preserve">
<style type="text/css">
	.st0{fill:#F5D19B;}
	.st1{fill:none;stroke:#1D1D1B;stroke-miterlimit:10;}
	.st2{fill:none;stroke:#1D1D1B;stroke-linecap:round;stroke-miterlimit:10;}
</style>
<path class="st0" d="M152.2,157.9c-0.7-3.6-2.2-6.9-4.5-9.9c-5.5-6.9-11-13.8-16.4-20.7l-9.5-12c-2.5-3.1-5.5-5.6-8.9-7.3
	c-0.8-0.4-1.5-0.8-2.3-1.2c-0.9-0.4-1.8-0.9-2.7-1.3c-1.6-0.8-2.4-1.8-2.6-3.3c-0.1-0.5-0.2-0.9-0.2-1.4c-0.3-1.7-0.6-3.5-1.1-5.3
	c-0.5-1.9-1.2-4-2.4-5.7C96.7,83,90.7,76.6,83.2,70.1c-6.6-5.6-14.7-10-25.7-13.7c-1.2-0.4-2-0.8-2.7-1.2c-0.2-0.1-0.3-0.2-0.4-0.2
	c0.2-1.7-0.8-3.1-1.2-3.6c-1.7-2.3-3.2-4.1-4.6-5.8c-3.1-3.7-8.4-4.4-12.1-1.5c-4,3.1-8,6.3-12.3,9.9c-3.5,2.9-4,8-1.2,11.7
	c1.8,2.4,3.3,4.3,4.7,6c0.4,0.5,1.9,2,3.8,2.1v0.1c0.3,1.1,0.5,2.3,0.6,3.3c1,9.4,2.8,16.9,5.7,23.4c3.6,8.4,8.8,16.6,16.3,25.8
	c1.9,2.3,4.1,4,6.7,4.9c1.6,0.6,3.1,1.3,4.7,2.1l1.3,0.6c0.9,0.4,1.4,1,1.7,2c0.2,0.7,0.3,1.3,0.5,2c0.3,1.3,0.7,2.6,1,3.9
	c0.9,4,2.6,7.4,5.1,10.5c2.9,3.6,5.7,7.3,8.5,10.9c1.2,1.5,2.4,3.1,3.6,4.6l1.9,2.4l0.1-0.1c1.8,2.2,5.3,6.5,12.2,15.1
	c2.5,3.1,5.6,5.4,9.2,6.7c1.6,0.6,3.2,0.9,4.6,0.9c1.7,0,3.3-0.4,4.8-1.3c3.2-1.9,5.7-4.3,7.3-7.1v-0.1c6.8-0.9,11.4-4.7,13.4-10.8
	c0,0,0,0,0.1,0c0.8-0.5,1.6-0.9,2.5-1.3c1.4-0.7,2.8-1.4,4.1-2.3C151.4,167.3,153.1,163.1,152.2,157.9z"/>
<path class="st1" d="M89.5,166.2c-4-5.2-8-10.4-12.1-15.5c-2.2-2.8-3.7-5.9-4.5-9.3c-0.5-2-1-4-1.5-6c-0.5-1.9-1.6-3.2-3.3-4
	c-2.1-0.9-4.1-2-6.2-2.7c-2.2-0.8-3.9-2.2-5.4-4c-6.3-7.7-11.9-15.9-15.9-25.1c-3.1-7.2-4.6-14.8-5.4-22.5c-0.1-1.3-0.3-2.6-0.7-3.9
	c-0.4-1.2-0.8-2.5-2.7-2.2c-0.5,0.1-1.3-0.5-1.7-1c-1.6-1.9-3.1-3.9-4.6-5.8c-1.8-2.3-1.5-5.7,0.8-7.6c4-3.4,8.1-6.6,12.2-9.9
	c2.5-1.9,6-1.4,8,1c1.5,1.9,3,3.8,4.5,5.7c0.3,0.4,0.7,1,0.6,1.4c-0.4,1.7,0.7,2.5,1.8,3.1c1,0.6,2.2,1.1,3.3,1.5
	c8.9,3.1,17.5,7,24.7,13.2c6.7,5.7,12.8,12,17.9,19.2c1,1.4,1.5,3.1,2,4.8c0.6,2.1,0.9,4.2,1.2,6.4c0.4,2.6,1.9,4.4,4.3,5.5
	c1.7,0.8,3.3,1.7,5,2.5c3.1,1.5,5.7,3.7,7.9,6.4c8.6,10.9,17.3,21.8,25.9,32.7c2,2.5,3.3,5.4,3.9,8.5c0.7,3.7-0.3,6.9-3.5,9
	c-2.1,1.3-4.3,2.3-6.5,3.6c-0.5,0.3-1.2,0.8-1.3,1.3c-1.6,5.6-5.5,8.4-11.1,9.2c-1.1,0.2-1.7,0.6-2.2,1.6c-1.4,2.6-3.7,4.5-6.2,6
	c-2.2,1.3-4.6,1-6.9,0.2c-3.2-1.2-5.9-3.2-8-5.8C99,177.8,89.6,166.2,89.5,166.2z"/>
<path class="st1" d="M48.8,156.3c10.6,8.9,24.8,13.7,40,12.1c24.9-2.6,44.9-22.8,47.4-47.7c3.4-33.8-24.9-62-58.7-58.6
	C52.8,64.6,32.8,84.3,30,108.9c-1.5,12.6,1.5,24.5,7.5,34.2l-0.1,0.4c0,0-7.1,25.1-32.8,37.3l0,0c1.4-0.1,25.1-2.3,44.2-24.4
	L48.8,156.3z"/>
<path class="st1" d="M159.8,72.3c15.8-3.7,27.6-17.8,27.6-34.7c0-19.7-16-35.7-35.7-35.7S116,17.9,116,37.6
	c0,17.3,12.3,31.7,28.6,35l0.3,0.1v0.5c2.1,76.4,62.2,104.3,62.2,104.3S160.5,143.9,159.8,72.3L159.8,72.3z"/>
<line class="st2" x1="151.7" y1="23.4" x2="151.7" y2="44.9"/>
<line class="st2" x1="151.7" y1="49.4" x2="151.7" y2="51.9"/>
<g>
	<line class="st2" x1="84.1" y1="123.8" x2="84.1" y2="116.7"/>
	<path class="st2" d="M77.7,110c0-3.6,2.9-6.5,6.5-6.5s6.5,2.9,6.5,6.5s-2.9,6.5-6.5,6.5"/>
</g>
<g>
	<line class="st2" x1="84.1" y1="128.8" x2="84.1" y2="127.4"/>
</g>
</svg>
