<svg width="66" height="66" viewBox="0 0 66 66" fill="none" xmlns="http://www.w3.org/2000/svg">
<g opacity="0.15" filter="url(#filter0_b_7203_1542)">
<circle cx="33" cy="33" r="17" fill="black"/>
</g>
<circle cx="32.952" cy="32.9517" r="16.8879" transform="rotate(-90 32.952 32.9517)" stroke="white" stroke-width="0.823799"/>
<path d="M33.609 41.3604C33.3757 41.3799 33.1357 41.3005 32.9572 41.122L25.2413 33.4061C24.9196 33.0843 24.9196 32.5627 25.2413 32.241C25.563 31.9193 26.0846 31.9193 26.4063 32.241L33.568 39.4027L40.5316 32.4391C40.8533 32.1174 41.3749 32.1174 41.6967 32.4391C42.0184 32.7608 42.0184 33.2824 41.6967 33.6041L34.1816 41.1192C34.0233 41.2775 33.8165 41.3579 33.609 41.3604Z" fill="white"/>
<path d="M33.609 35.3604C33.3757 35.3799 33.1357 35.3005 32.9572 35.122L25.2413 27.4061C24.9196 27.0843 24.9196 26.5627 25.2413 26.241C25.563 25.9193 26.0846 25.9193 26.4063 26.241L33.568 33.4027L40.5316 26.4391C40.8533 26.1174 41.3749 26.1174 41.6967 26.4391C42.0184 26.7608 42.0184 27.2824 41.6967 27.6041L34.1816 35.1192C34.0233 35.2775 33.8165 35.3579 33.609 35.3604Z" fill="white"/>
<defs>
<filter id="filter0_b_7203_1542" x="-2.8" y="-2.8" width="71.6" height="71.6" filterUnits="userSpaceOnUse" color-interpolation-filters="sRGB">
<feFlood flood-opacity="0" result="BackgroundImageFix"/>
<feGaussianBlur in="BackgroundImageFix" stdDeviation="9.4"/>
<feComposite in2="SourceAlpha" operator="in" result="effect1_backgroundBlur_7203_1542"/>
<feBlend mode="normal" in="SourceGraphic" in2="effect1_backgroundBlur_7203_1542" result="shape"/>
</filter>
</defs>
</svg>
