<svg width="59" height="66" viewBox="0 0 59 66" fill="none" xmlns="http://www.w3.org/2000/svg">
<circle cx="32.952" cy="32.9522" r="16.8879" transform="rotate(-90 32.952 32.9522)" stroke="#36B0FC" stroke-width="0.823799"/>
<path d="M33.609 41.3614C33.3757 41.3809 33.1357 41.3015 32.9572 41.123L25.2413 33.407C24.9196 33.0853 24.9196 32.5637 25.2413 32.242C25.563 31.9203 26.0846 31.9203 26.4063 32.242L33.568 39.4037L40.5316 32.4401C40.8533 32.1183 41.3749 32.1183 41.6967 32.4401C42.0184 32.7618 42.0184 33.2834 41.6967 33.6051L34.1816 41.1201C34.0233 41.2785 33.8165 41.3589 33.609 41.3614Z" fill="#36B0FC"/>
<path d="M33.609 35.3614C33.3757 35.3809 33.1357 35.3015 32.9572 35.123L25.2413 27.407C24.9196 27.0853 24.9196 26.5637 25.2413 26.242C25.563 25.9203 26.0846 25.9203 26.4063 26.242L33.568 33.4037L40.5316 26.4401C40.8533 26.1183 41.3749 26.1183 41.6967 26.4401C42.0184 26.7618 42.0184 27.2834 41.6967 27.6051L34.1816 35.1201C34.0233 35.2785 33.8165 35.3589 33.609 35.3614Z" fill="#36B0FC"/>
</svg>
