<svg width="74" height="77" viewBox="0 0 74 77" fill="none" xmlns="http://www.w3.org/2000/svg">
<rect x="2" y="5" width="72" height="72" rx="36" fill="white"/>
<g clip-path="url(#clip0_2409_54212)">
<path d="M59.9156 57.1888C59.3976 56.5116 59.9227 55.4336 59.7382 54.6459C59.5537 53.8512 58.3049 53.7752 58.9151 52.635C59.3905 51.7505 60.093 51.1493 59.575 50.251C59.3834 49.9262 57.9004 46.7821 57.6308 45.407C57.5527 45.0062 57.4321 44.7367 57.0419 44.5916C56.3536 44.3428 55.6866 43.9351 55.1828 43.9351C54.0475 43.9351 53.6785 44.5156 52.5007 44.5156C49.8256 44.5156 49.7547 44.3428 47.6898 42.0555C46.8313 41.1019 47.1577 39.7406 47.6047 38.6834C47.7608 38.3033 47.5408 38.0062 47.2074 37.7643C46.3843 37.1701 48.5058 35.9539 49.2225 35.4494C50.592 34.4889 49.7263 33.3764 51.0603 32.6508C52.6213 31.8078 55.3886 31.6696 57.4321 31.5383C57.8507 31.5106 58.0565 31.8078 58.0778 32.2155C58.1346 33.4731 59.7382 33.7426 61.0722 33.9983C61.4837 34.0743 61.6611 33.7219 62.0017 33.4869C62.6048 33.0862 64.3219 33.5768 65.6488 33.9016C66.0533 34.0052 66.2874 33.7564 66.1455 33.3695C66.0391 33.0723 65.9255 32.7752 65.8049 32.4781C65.6488 32.098 65.1592 31.787 64.8044 31.5659C64.3929 31.3033 64.1304 30.8473 64.031 30.3152C63.9601 29.9144 63.6691 29.6864 63.3782 29.9835C63.1299 30.2323 62.9738 30.5432 62.8815 30.8956C62.7822 31.2895 62.4913 31.4484 62.2358 31.1237C61.3418 29.9904 61.1857 28.0072 59.5537 27.9174C59.1351 27.8966 58.8158 28.3389 59.0215 28.6913C59.3195 29.2096 59.8659 29.4652 60.4052 29.79C60.7599 30.0042 60.9444 30.5501 60.7103 30.8956C60.391 31.3724 59.8943 31.7387 59.3976 31.4346C59.0428 31.2204 59.2273 30.9302 59.5892 30.8127C59.951 30.6883 59.951 30.3912 59.5892 30.1839C59.0215 29.8591 58.4539 29.5343 58.0849 29.0575C57.8295 28.7328 57.574 28.7189 57.2121 28.9262C56.5806 29.2856 55.942 28.9262 55.3318 29.6864C54.899 30.2253 54.2675 31.5797 53.6431 31.635C52.9335 31.6972 51.5215 31.9391 50.9822 31.3102C50.521 30.7643 50.6132 29.0575 51.4009 28.8848C52.302 28.6913 52.6568 28.7051 53.565 28.8848C54.0049 28.9677 54.0404 28.8848 54.0262 28.712C54.0049 28.3803 53.7921 28.1454 53.6289 27.7653C53.4515 27.3438 53.4586 26.7495 54.1185 26.6528C55.9917 26.3626 56.1975 24.9045 58.0423 24.8976C58.461 24.8976 58.8228 24.6488 58.7661 24.2619C58.7093 23.8749 58.3403 23.7298 57.9856 23.8265C57.6308 23.9164 57.2476 23.7436 56.978 23.4327C56.4245 22.8038 55.7363 22.4929 56.6871 21.6015C56.8148 21.4978 56.9638 21.4218 57.1128 21.3665C57.3612 21.2698 57.3186 20.9865 56.9922 20.7308C52.004 16.792 45.6392 14.4287 38.7139 14.4287C34.5488 14.4287 30.5895 15.2856 27.0062 16.8265C26.623 16.9924 26.6727 17.172 27.0133 17.4139C27.1978 17.5452 27.3752 17.7179 27.5454 17.9529C28.1486 18.7614 28.9646 18.1533 29.7025 17.8976C30.0999 17.7594 30.2773 18.1395 29.965 18.4159C29.4187 18.8858 28.7872 18.8996 27.9286 18.8996C27.5454 18.8996 29.3335 21.1799 29.9721 19.6182C30.185 19.1069 30.6533 19.3349 31.0365 19.1622C31.4196 18.9963 31.3061 18.561 31.1003 18.5264C30.8946 18.4919 30.8165 18.1049 31.15 17.8631C31.5616 17.5659 32.1576 17.5728 32.7607 17.6488C33.1794 17.6972 33.1864 17.8769 32.8884 18.1671C32.3705 18.6646 32.3775 19.2658 32.9949 19.5146C33.3851 19.6735 33.5909 19.3073 33.6264 18.8996C33.7399 17.7318 35.4712 17.3655 36.6704 17.5106C37.4864 17.6143 38.494 18.2984 39.2461 18.6232C39.7783 18.8512 39.4235 19.3211 39.6718 19.6528C39.9202 19.9845 40.3104 20.3369 39.9911 20.5995C39.7712 20.7861 39.4661 20.7722 38.9694 20.7722C38.2598 20.7722 38.6784 21.6637 38.274 21.7051C37.6709 21.7742 36.8478 21.4909 36.1311 21.256C35.7338 21.1316 35.7054 20.8897 36.0744 20.6962C36.3795 20.5373 36.6846 20.3784 36.9897 20.2194C37.3587 20.0259 37.4722 19.5768 37.1316 19.3418C36.0744 18.6301 34.9603 19.7081 33.896 20.1089C33.5058 20.254 33.2503 20.406 33.3425 20.6202C33.4277 20.8344 33.2787 21.2007 32.9026 21.3734C32.6188 21.5047 32.3705 21.5324 32.1789 21.3734C31.8667 21.1039 31.5545 20.7792 31.1571 20.9104C29.9012 21.332 27.8506 22.2441 28.0279 22.866C28.5104 24.5936 30.5469 23.7505 30.5682 25.2224C30.5753 25.6301 30.852 25.9549 31.1358 25.6508C31.4906 25.2708 31.5048 24.6558 32.186 24.4415C33.6122 23.9993 33.3496 23.8749 33.3496 22.4307C33.3496 21.2698 36.2021 21.1316 36.3227 22.5412C36.3582 22.9489 36.5285 23.2599 36.9329 23.1562C37.1813 23.0941 37.4225 23.0042 37.6567 22.8937C38.0327 22.714 38.2598 22.8522 38.3875 23.2461C38.7423 24.3517 39.9202 25.6232 39.1184 26.0862C38.7565 26.2935 38.6501 26.4731 38.9552 26.7495C39.6718 27.4129 40.2253 28.1385 38.5365 27.634C37.2664 27.254 37.8554 26.9361 37.9618 26.5422C38.0682 26.1484 37.5928 26.2313 37.1955 26.3557C36.8052 26.48 36.195 26.563 36.0744 26.3418C36.0176 26.2382 35.9679 26.1138 35.7551 26.0171C34.8255 25.6163 34.414 26.4109 35.0384 26.7841C35.3932 26.9983 35.5848 27.0398 35.4357 27.2263C35.2867 27.4129 34.8255 27.3645 34.4211 27.482C33.1368 27.8552 30.9513 29.9628 30.185 30.7367C29.7593 31.172 29.7167 31.9114 29.4187 32.2086C28.922 32.6992 28.0563 32.865 27.588 33.3764C26.7578 34.2885 20.2866 34.0398 19.4352 36.7416C18.4844 39.7683 20.9465 38.9943 22.685 38.0269C23.0468 37.8265 23.4584 37.9578 23.4371 38.3655C23.4229 38.5936 23.3661 38.8216 23.2597 39.0358C23.0823 39.409 23.1817 39.6163 23.5932 39.6785C24.8562 39.865 24.6221 40.8117 24.7143 42.2629C24.7782 43.1819 27.1055 42.9124 27.6235 42.325C28.475 41.3645 29.7238 40.639 30.7456 42.021C31.1216 42.5324 31.8738 42.636 32.3846 42.3941C32.7607 42.2145 33.2219 41.9312 33.5341 42.2007C34.1231 42.7189 34.1798 43.5481 34.9178 43.9697C35.5564 44.3359 36.5356 43.5551 36.9684 44.3014C37.3303 44.9094 37.4225 46.5541 37.8979 46.7337C38.8629 47.0931 39.5512 47.3764 40.5659 47.3902C42.1624 47.404 44.2414 48.4958 43.9576 50.0022C43.8298 50.6587 42.7442 51.0526 42.6662 51.7643C42.5597 52.7939 42.4462 53.8236 42.3398 54.8601C42.1624 56.5185 39.5441 55.3438 38.9055 56.8433C38.5081 57.7831 39.6363 58.253 38.8487 59.2411C38.3308 59.8838 37.7276 60.5057 37.3232 61.2243C36.6917 62.3576 35.3719 62.5235 34.492 63.0141C34.1302 63.2145 34.3359 63.3941 34.5204 63.7604C34.6198 63.9677 34.5985 64.251 34.265 64.562C33.7754 65.0249 34.0379 65.2875 34.4708 65.3981C34.8752 65.5087 35.1094 65.7781 35.0171 66.1789C34.8681 66.8216 34.9107 67.3398 35.5138 67.8374C36.7981 68.8946 35.4074 69.2609 34.2295 68.8877C31.3842 67.9963 31.597 64.8453 31.2919 62.793C31.221 62.3092 30.3127 61.9292 30.256 61.4524C30.1921 60.8443 30.5185 60.0082 30.632 59.407C30.7385 58.8265 30.0573 59.331 30.0573 58.868C30.0573 58.0871 30.0573 57.3132 30.0573 56.5323C30.0573 54.48 30.3127 54.176 28.5601 52.9874C27.439 52.2273 27.5525 52.1306 26.7011 51.094C25.431 49.5531 25.062 49.332 25.14 47.5008C25.2181 45.8009 26.8288 45.9183 26.6372 44.3497C26.4101 42.5047 25.0407 44.1493 24.0757 43.0783C22.9972 41.8828 22.4224 41.7377 21.2304 40.9776C21.2091 40.9637 20.9749 40.7633 20.755 40.563C20.4995 40.3211 20.1518 40.0792 19.8112 40.1345C19.4707 40.1898 19.1584 40.2658 18.754 40.1553C17.4768 39.8028 16.9233 39.8028 16.0151 38.4415C15.6674 37.9233 16.4834 37.7367 16.157 37.2737C15.6887 36.6103 15.2275 35.9539 14.7592 35.2905C14.3618 34.7239 14.6173 34.0121 14.376 33.6459C14.149 33.3004 13.7232 33.7426 13.8509 34.1296C14.2838 35.4356 15.3907 37.5156 14.4399 37.3705C12.9498 37.1493 12.7866 35.173 12.7724 33.791C12.7653 33.3833 12.3892 33.0309 12.1054 32.7268C12.0912 32.713 12.0699 32.6923 12.0558 32.6715C11.8003 32.3537 11.7081 32.2846 11.5591 32.6646C10.3386 35.788 9.67163 39.174 9.67163 42.712C9.67163 58.3359 22.685 70.9953 38.7139 70.9953C47.9595 70.9953 56.1904 66.7939 61.505 60.2431C61.7675 59.9252 61.7533 59.9183 61.4269 60.174C61.0863 60.4366 60.8522 60.4642 60.8522 60.0358C60.8664 58.6261 60.7883 58.3428 59.9156 57.1888Z" fill="#77BD5F"/>
<path d="M4.94596 13.8761C4.94596 13.8761 4.37831 18.4783 7.35137 23.9926C7.38685 24.0064 7.40814 24.0133 7.40814 24.0133C17.5123 12.1762 7.15269 0.774414 7.15269 0.774414C5.13754 5.19692 -1.92967 9.06662 0.497022 16.9926C1.32721 19.7083 3.13659 21.7191 4.93177 22.7349C4.54151 21.9195 2.76052 18.0153 4.94596 13.8761Z" fill="#77BD5F"/>
<path d="M70.2469 27.233C70.1972 27.1363 70.1475 27.0395 70.0979 26.9428C69.1754 25.2014 68.1111 23.5222 66.8835 21.9398C64.2866 18.5746 61.0013 15.6308 57.0916 13.309C55.9918 12.6595 54.8778 12.079 53.7425 11.5608C53.1465 12.39 52.4653 13.2814 51.7061 14.1935C52.9549 14.7325 54.1753 15.3475 55.3745 16.0593C59.9866 18.8026 63.6338 22.5065 66.2095 26.7562C66.9261 27.9309 67.5576 29.1471 68.104 30.3979C68.8206 32.0218 69.3883 33.7009 69.8069 35.4146C69.814 35.4354 69.8211 35.4699 69.8282 35.4976C71.6944 43.2024 70.5804 51.5844 66.025 58.8608C57.5812 72.3426 40.2254 77.3594 25.7859 71.1195C24.5299 70.5805 23.2882 69.9447 22.0891 69.233C7.0322 60.2912 2.24977 41.0948 11.4315 26.4383C11.7862 25.8717 12.1552 25.3258 12.5455 24.7937C13.1202 23.9921 13.7304 23.2182 14.3761 22.4857C14.4826 22.3613 14.5961 22.237 14.7096 22.1126C31.7178 27.3298 43.6951 20.1708 50.514 13.7029C50.6417 13.7513 53.2529 10.8421 53.4019 10.6693C55.1049 8.71376 56.2331 7.06914 56.8007 6.19155C57.0845 5.75621 57.2264 5.50053 57.2264 5.50053C47.3636 4.75424 35.2088 -5.57646 21.5569 4.13923C16.8809 7.46302 14.2058 12.1067 13.4395 16.0662C14.4897 15.0435 18.7541 11.0978 25.2466 10.2064C26.0413 10.082 26.8786 10.0198 27.7371 10.0129C27.723 10.0198 27.7088 10.0267 27.6875 10.0336C27.4107 10.1234 27.1269 10.2202 26.8502 10.3169C26.3535 10.4828 25.8568 10.6693 25.3601 10.8628C18.6193 13.5371 12.6732 18.2567 8.60032 24.7592C8.40165 25.0839 8.20297 25.4087 8.01849 25.7266C7.91915 25.9063 7.81981 26.079 7.72047 26.2587C7.56437 26.5282 7.41536 26.7977 7.27345 27.0741C4.35006 32.54 2.88127 38.9803 3.30701 45.4828C3.3283 45.8628 3.36377 46.236 3.39925 46.6229C4.71903 56.7463 10.5729 66.2271 20.1945 71.9349C20.4003 72.0593 20.6061 72.1767 20.8189 72.3011C23.9978 74.1047 27.354 75.3761 30.767 76.1293C31.143 76.2192 31.512 76.2952 31.8881 76.3643C34.8895 76.9378 37.9335 77.1175 40.9421 76.9309C41.311 76.9102 41.68 76.8826 42.0561 76.8411C42.4321 76.8065 42.8011 76.7651 43.1772 76.7167C43.3049 76.7029 43.4397 76.6891 43.5674 76.6614C44.1493 76.5854 44.7311 76.4956 45.3058 76.385C54.7643 74.6298 63.4564 69.1501 68.849 60.5262C75.4125 50.0573 75.5118 37.4808 70.2469 27.233Z" fill="#77BD5F"/>
</g>
<defs>
<clipPath id="clip0_2409_54212">
<rect width="74" height="77" fill="white"/>
</clipPath>
</defs>
</svg>
