<svg width="99" height="166" viewBox="0 0 99 166" fill="none" xmlns="http://www.w3.org/2000/svg">
<path d="M21 163.024L12.6 165.94L12.6 164.428L19.332 162.196L12.6 159.952L12.6 158.452L21 161.368L21 163.024ZM12.6 157.015L12.6 155.635L21 155.635L21 157.015L12.6 157.015ZM21.156 149.444C21.156 150.708 20.74 151.756 19.908 152.588C19.068 153.42 18.032 153.836 16.8 153.836C15.568 153.836 14.536 153.42 13.704 152.588C12.864 151.756 12.444 150.708 12.444 149.444C12.444 148.684 12.624 147.984 12.984 147.344C13.344 146.696 13.832 146.192 14.448 145.832L15.144 147.032C14.728 147.256 14.4 147.584 14.16 148.016C13.912 148.44 13.788 148.916 13.788 149.444C13.788 150.34 14.072 151.068 14.64 151.628C15.208 152.18 15.928 152.456 16.8 152.456C17.672 152.456 18.392 152.18 18.96 151.628C19.528 151.068 19.812 150.34 19.812 149.444C19.812 148.916 19.692 148.436 19.452 148.004C19.204 147.572 18.872 147.248 18.456 147.032L19.14 145.832C19.756 146.184 20.248 146.684 20.616 147.332C20.976 147.972 21.156 148.676 21.156 149.444ZM12.6 139.165L12.6 137.785L21 137.785L21 139.165L17.364 139.165L17.364 142.765L21 142.765L21 144.145L12.6 144.145L12.6 142.765L16.044 142.765L16.044 139.165L12.6 139.165ZM12.6 129.11L17.664 132.038L21 132.038L21 133.418L17.664 133.418L12.6 136.346L12.6 134.774L16.32 132.722L12.6 130.682L12.6 129.11ZM19.68 122.747L19.68 119.327L21 119.327L21 124.127L12.6 124.127L12.6 122.747L19.68 122.747ZM21 112.056L19.308 112.644L19.308 116.22L21 116.808L21 118.308L12.6 115.26L12.6 113.604L21 110.568L21 112.056ZM18.012 115.764L18.012 113.1L14.22 114.432L18.012 115.764ZM16.644 104.181C16.836 103.813 17.1 103.525 17.436 103.317C17.772 103.109 18.16 103.005 18.6 103.005C19.288 103.005 19.86 103.249 20.316 103.737C20.772 104.225 21 104.821 21 105.525L21 109.125L12.6 109.125L12.6 105.789C12.6 105.101 12.824 104.521 13.272 104.049C13.712 103.569 14.264 103.329 14.928 103.329C15.656 103.329 16.228 103.613 16.644 104.181ZM13.896 105.789L13.896 107.745L16.104 107.745L16.104 105.789C16.104 105.485 16 105.229 15.792 105.021C15.576 104.813 15.312 104.709 15 104.709C14.688 104.709 14.428 104.813 14.22 105.021C14.004 105.229 13.896 105.485 13.896 105.789ZM19.704 105.525C19.704 105.205 19.592 104.937 19.368 104.721C19.136 104.497 18.856 104.385 18.528 104.385C18.2 104.385 17.924 104.497 17.7 104.721C17.468 104.937 17.352 105.205 17.352 105.525L17.352 107.745L19.704 107.745L19.704 105.525ZM19.896 94.2409C20.736 95.0809 21.156 96.1089 21.156 97.3249C21.156 98.5409 20.736 99.5729 19.896 100.421C19.048 101.261 18.016 101.681 16.8 101.681C15.584 101.681 14.556 101.261 13.716 100.421C12.868 99.5729 12.444 98.5409 12.444 97.3249C12.444 96.1089 12.868 95.0809 13.716 94.2409C14.556 93.3929 15.584 92.9689 16.8 92.9689C18.016 92.9689 19.048 93.3929 19.896 94.2409ZM18.96 99.4489C19.528 98.8729 19.812 98.1649 19.812 97.3249C19.812 96.4849 19.528 95.7809 18.96 95.2129C18.384 94.6369 17.664 94.3489 16.8 94.3489C15.936 94.3489 15.22 94.6369 14.652 95.2129C14.076 95.7809 13.788 96.4849 13.788 97.3249C13.788 98.1649 14.076 98.8729 14.652 99.4489C15.22 100.017 15.936 100.301 16.8 100.301C17.664 100.301 18.384 100.017 18.96 99.4489ZM21 86.3822L17.94 88.1582L17.94 89.7902L21 89.7902L21 91.1702L12.6 91.1702L12.6 87.8102C12.6 87.0582 12.864 86.4222 13.392 85.9022C13.912 85.3742 14.548 85.1102 15.3 85.1102C15.836 85.1102 16.328 85.2662 16.776 85.5782C17.216 85.8822 17.536 86.2822 17.736 86.7782L21 84.8702L21 86.3822ZM13.896 89.7902L16.704 89.7902L16.704 87.8102C16.704 87.4422 16.568 87.1302 16.296 86.8742C16.024 86.6182 15.692 86.4902 15.3 86.4902C14.908 86.4902 14.576 86.6182 14.304 86.8742C14.032 87.1302 13.896 87.4422 13.896 87.8102L13.896 89.7902ZM21 77.7988L19.308 78.3868L19.308 81.9628L21 82.5508L21 84.0508L12.6 81.0028L12.6 79.3468L21 76.3108L21 77.7988ZM18.012 81.5068L18.012 78.8428L14.22 80.1748L18.012 81.5068ZM12.6 70.0052L13.92 70.0052L13.92 72.3692L21 72.3692L21 73.7492L13.92 73.7492L13.92 76.1252L12.6 76.1252L12.6 70.0052ZM19.896 61.9052C20.736 62.7452 21.156 63.7732 21.156 64.9892C21.156 66.2052 20.736 67.2372 19.896 68.0852C19.048 68.9252 18.016 69.3452 16.8 69.3452C15.584 69.3452 14.556 68.9252 13.716 68.0852C12.868 67.2372 12.444 66.2052 12.444 64.9892C12.444 63.7732 12.868 62.7452 13.716 61.9052C14.556 61.0572 15.584 60.6332 16.8 60.6332C18.016 60.6332 19.048 61.0572 19.896 61.9052ZM18.96 67.1132C19.528 66.5372 19.812 65.8292 19.812 64.9892C19.812 64.1492 19.528 63.4452 18.96 62.8772C18.384 62.3012 17.664 62.0132 16.8 62.0132C15.936 62.0132 15.22 62.3012 14.652 62.8772C14.076 63.4452 13.788 64.1492 13.788 64.9892C13.788 65.8292 14.076 66.5372 14.652 67.1132C15.22 67.6812 15.936 67.9652 16.8 67.9652C17.664 67.9652 18.384 67.6812 18.96 67.1132ZM12.6 58.8344L12.6 57.4544L21 57.4544L21 58.8344L12.6 58.8344ZM21 50.4478L17.94 52.2238L17.94 53.8558L21 53.8558L21 55.2358L12.6 55.2358L12.6 51.8758C12.6 51.1238 12.864 50.4878 13.392 49.9678C13.912 49.4398 14.548 49.1758 15.3 49.1758C15.836 49.1758 16.328 49.3318 16.776 49.6438C17.216 49.9478 17.536 50.3478 17.736 50.8438L21 48.9358L21 50.4478ZM13.896 53.8558L16.704 53.8558L16.704 51.8758C16.704 51.5078 16.568 51.1958 16.296 50.9398C16.024 50.6838 15.692 50.5558 15.3 50.5558C14.908 50.5558 14.576 50.6838 14.304 50.9398C14.032 51.1958 13.896 51.5078 13.896 51.8758L13.896 53.8558ZM19.68 45.9564L19.68 42.2364L21 42.2364L21 47.3364L12.6 47.3364L12.6 42.2964L13.92 42.2964L13.92 45.9564L16.104 45.9564L16.104 42.5964L17.412 42.5964L17.412 45.9564L19.68 45.9564ZM21.156 37.6371C21.156 38.4451 20.972 39.1331 20.604 39.7011C20.236 40.2611 19.732 40.6531 19.092 40.8771L18.396 39.6891C19.34 39.3531 19.812 38.6571 19.812 37.6011C19.812 37.0811 19.712 36.6931 19.512 36.4371C19.304 36.1731 19.036 36.0411 18.708 36.0411C18.364 36.0411 18.104 36.1811 17.928 36.4611C17.744 36.7411 17.544 37.2371 17.328 37.9491C17.208 38.3491 17.096 38.6731 16.992 38.9211C16.888 39.1691 16.744 39.4331 16.56 39.7131C16.368 39.9851 16.132 40.1891 15.852 40.3251C15.572 40.4611 15.244 40.5291 14.868 40.5291C14.124 40.5291 13.536 40.2651 13.104 39.7371C12.664 39.2091 12.444 38.5731 12.444 37.8291C12.444 37.1571 12.608 36.5691 12.936 36.0651C13.264 35.5611 13.716 35.1731 14.292 34.9011L14.964 36.0651C14.18 36.4171 13.788 37.0051 13.788 37.8291C13.788 38.2291 13.884 38.5491 14.076 38.7891C14.26 39.0291 14.512 39.1491 14.832 39.1491C15.144 39.1491 15.392 39.0291 15.576 38.7891C15.752 38.5411 15.94 38.0971 16.14 37.4571C16.244 37.1371 16.324 36.9051 16.38 36.7611C16.428 36.6091 16.508 36.4011 16.62 36.1371C16.732 35.8651 16.844 35.6611 16.956 35.5251C17.068 35.3891 17.208 35.2451 17.376 35.0931C17.544 34.9331 17.736 34.8211 17.952 34.7571C18.168 34.6931 18.412 34.6611 18.684 34.6611C19.444 34.6611 20.048 34.9371 20.496 35.4891C20.936 36.0331 21.156 36.7491 21.156 37.6371Z" fill="black"/>
<path d="M53.14 4.6C54.292 4.6 55.248 5.004 56.008 5.812C56.776 6.62 57.16 7.616 57.16 8.8C57.16 9.976 56.776 10.972 56.008 11.788C55.248 12.596 54.292 13 53.14 13H49.84V4.6H53.14ZM53.14 11.68C53.932 11.68 54.576 11.408 55.072 10.864C55.576 10.32 55.828 9.632 55.828 8.8C55.828 7.96 55.576 7.272 55.072 6.736C54.576 6.192 53.932 5.92 53.14 5.92H51.22V11.68H53.14ZM60.3381 11.68H64.0581V13H58.9581V4.6H63.9981V5.92H60.3381V8.104L63.6981 8.104V9.412L60.3381 9.412V11.68ZM70.6494 13L68.8734 9.94H67.2414V13H65.8614V4.6L69.2214 4.6C69.9734 4.6 70.6094 4.864 71.1294 5.392C71.6574 5.912 71.9214 6.548 71.9214 7.3C71.9214 7.836 71.7654 8.328 71.4534 8.776C71.1494 9.216 70.7494 9.536 70.2534 9.736L72.1614 13H70.6494ZM67.2414 5.896V8.704H69.2214C69.5894 8.704 69.9014 8.568 70.1574 8.296C70.4134 8.024 70.5414 7.692 70.5414 7.3C70.5414 6.908 70.4134 6.576 70.1574 6.304C69.9014 6.032 69.5894 5.896 69.2214 5.896H67.2414ZM77.6742 13.156C76.4102 13.156 75.3622 12.74 74.5302 11.908C73.6982 11.068 73.2822 10.032 73.2822 8.8C73.2822 7.568 73.6982 6.536 74.5302 5.704C75.3622 4.864 76.4102 4.444 77.6742 4.444C78.4342 4.444 79.1342 4.624 79.7742 4.984C80.4222 5.344 80.9262 5.832 81.2862 6.448L80.0862 7.144C79.8622 6.728 79.5342 6.4 79.1022 6.16C78.6782 5.912 78.2022 5.788 77.6742 5.788C76.7782 5.788 76.0502 6.072 75.4902 6.64C74.9382 7.208 74.6622 7.928 74.6622 8.8C74.6622 9.672 74.9382 10.392 75.4902 10.96C76.0502 11.528 76.7782 11.812 77.6742 11.812C78.2022 11.812 78.6822 11.692 79.1142 11.452C79.5462 11.204 79.8702 10.872 80.0862 10.456L81.2862 11.14C80.9342 11.756 80.4342 12.248 79.7862 12.616C79.1462 12.976 78.4422 13.156 77.6742 13.156ZM89.9341 11.896C89.0941 12.736 88.0661 13.156 86.8501 13.156C85.6341 13.156 84.6021 12.736 83.7541 11.896C82.9141 11.048 82.4941 10.016 82.4941 8.8C82.4941 7.584 82.9141 6.556 83.7541 5.716C84.6021 4.868 85.6341 4.444 86.8501 4.444C88.0661 4.444 89.0941 4.868 89.9341 5.716C90.7821 6.556 91.2061 7.584 91.2061 8.8C91.2061 10.016 90.7821 11.048 89.9341 11.896ZM84.7261 10.96C85.3021 11.528 86.0101 11.812 86.8501 11.812C87.6901 11.812 88.3941 11.528 88.9621 10.96C89.5381 10.384 89.8261 9.664 89.8261 8.8C89.8261 7.936 89.5381 7.22 88.9621 6.652C88.3941 6.076 87.6901 5.788 86.8501 5.788C86.0101 5.788 85.3021 6.076 84.7261 6.652C84.1581 7.22 83.8741 7.936 83.8741 8.8C83.8741 9.664 84.1581 10.384 84.7261 10.96ZM95.4844 13.156C94.6764 13.156 93.9884 12.972 93.4204 12.604C92.8604 12.236 92.4684 11.732 92.2444 11.092L93.4324 10.396C93.7684 11.34 94.4644 11.812 95.5204 11.812C96.0404 11.812 96.4284 11.712 96.6844 11.512C96.9484 11.304 97.0804 11.036 97.0804 10.708C97.0804 10.364 96.9404 10.104 96.6604 9.928C96.3804 9.744 95.8844 9.544 95.1724 9.328C94.7724 9.208 94.4484 9.096 94.2004 8.992C93.9524 8.888 93.6884 8.744 93.4084 8.56C93.1364 8.368 92.9324 8.132 92.7964 7.852C92.6604 7.572 92.5924 7.244 92.5924 6.868C92.5924 6.124 92.8564 5.536 93.3844 5.104C93.9124 4.664 94.5484 4.444 95.2924 4.444C95.9644 4.444 96.5524 4.608 97.0564 4.936C97.5604 5.264 97.9484 5.716 98.2204 6.292L97.0564 6.964C96.7044 6.18 96.1164 5.788 95.2924 5.788C94.8924 5.788 94.5724 5.884 94.3324 6.076C94.0924 6.26 93.9724 6.512 93.9724 6.832C93.9724 7.144 94.0924 7.392 94.3324 7.576C94.5804 7.752 95.0244 7.94 95.6644 8.14C95.9844 8.244 96.2164 8.324 96.3604 8.38C96.5124 8.428 96.7204 8.508 96.9844 8.62C97.2564 8.732 97.4604 8.844 97.5964 8.956C97.7324 9.068 97.8764 9.208 98.0284 9.376C98.1884 9.544 98.3004 9.736 98.3644 9.952C98.4284 10.168 98.4604 10.412 98.4604 10.684C98.4604 11.444 98.1844 12.048 97.6324 12.496C97.0884 12.936 96.3724 13.156 95.4844 13.156Z" fill="black"/>
<path d="M28 0L18.5074 22L14.5237 22L5 0L9.38836 0L16.6401 16.9714L23.954 0L28 0Z" fill="black"/>
</svg>
