<svg width="208" height="55" viewBox="0 0 208 55" fill="none" xmlns="http://www.w3.org/2000/svg">
<path d="M127.414 0H98.7717V41.0745H127.301V0H127.414Z" fill="#00A8FF"/>
<path d="M20.3454 20.5955L12.9574 39.436V38.6168H2.72787V20.5955H0V41.0742H15.0033L17.0492 35.9253H25.9148L27.847 41.0742H30.5749L22.6186 20.5955H20.3454ZM17.7311 33.7019L21.482 23.6381L25.1191 33.7019H17.7311ZM184.699 49.9679C184.699 51.3721 183.676 52.1913 182.313 52.1913C180.949 52.1913 179.926 51.3721 179.926 49.9679V44.7019H179.244V49.9679C179.244 51.4891 180.38 52.8934 182.313 52.8934C184.245 52.8934 185.381 51.4891 185.381 49.9679V44.7019H184.699V49.9679ZM42.8503 44.7019L39.6678 52.5423V52.0743H35.576V44.7019H34.894V52.6594H39.6678H40.3497L41.259 50.436H45.1235L46.0328 52.6594H46.6011L43.4186 44.7019H42.8503ZM41.3727 49.8508L43.0776 45.5211L44.7825 49.8508H41.3727ZM56.4896 44.5849C54.3301 44.5849 52.8525 46.4572 52.8525 48.6806C52.8525 50.904 54.3301 52.7764 56.4896 52.7764C58.6492 52.7764 60.1268 50.904 60.1268 48.6806C60.1268 46.4572 58.6492 44.5849 56.4896 44.5849ZM56.4896 52.1913C54.7847 52.1913 53.5344 50.67 53.5344 48.6806C53.5344 46.6913 54.7847 45.17 56.4896 45.17C58.1945 45.17 59.4448 46.6913 59.4448 48.6806C59.4448 50.67 58.1945 52.1913 56.4896 52.1913ZM174.925 44.5849C172.765 44.5849 171.287 46.4572 171.287 48.6806C171.287 50.787 172.651 52.6594 174.584 52.7764V54.8828H175.266V52.7764C177.311 52.5423 178.562 50.787 178.562 48.6806C178.562 46.4572 177.084 44.5849 174.925 44.5849ZM174.925 52.1913C173.22 52.1913 171.969 50.67 171.969 48.6806C171.969 46.6913 173.22 45.17 174.925 45.17C176.63 45.17 177.88 46.6913 177.88 48.6806C177.88 50.67 176.743 52.1913 174.925 52.1913ZM51.2612 48.4466C52.0568 48.0955 52.5115 47.3934 52.5115 46.6913C52.5115 45.5211 51.7158 44.7019 50.0109 44.7019H46.8284V52.6594H50.3519C51.8295 52.6594 52.7388 51.6062 52.7388 50.436C52.7388 49.4998 52.2842 48.7977 51.2612 48.4466ZM47.5104 45.287H50.0109C51.0339 45.287 51.8295 45.7551 51.8295 46.8083C51.8295 47.8615 51.0339 48.3296 50.0109 48.3296H47.624V45.287H47.5104ZM50.3519 52.0743H47.624V48.9147H50.3519C51.4885 48.9147 52.0568 49.6168 52.0568 50.553C52.0568 51.4891 51.2612 52.0743 50.3519 52.0743ZM169.81 52.6594H170.492V44.7019H169.81V52.6594ZM130.256 32.9998H137.075C140.031 32.9998 142.077 31.3615 142.872 29.1381C142.758 29.7232 142.758 30.3083 142.758 30.8934C142.758 36.6274 146.737 41.4253 152.42 41.4253C157.989 41.4253 162.081 36.6274 162.081 30.8934C162.081 25.1594 158.103 20.3615 152.42 20.3615C147.987 20.3615 144.577 23.287 143.327 27.3828C143.327 27.2657 143.327 27.0317 143.327 26.9147C143.327 23.6381 140.94 20.7125 137.075 20.7125H127.528V41.1913H130.256V32.9998ZM152.306 22.7019C156.511 22.7019 159.239 26.2125 159.239 30.7764C159.239 35.4572 156.511 38.8508 152.306 38.8508C148.101 38.8508 145.373 35.4572 145.373 30.7764C145.373 26.2125 148.214 22.7019 152.306 22.7019ZM130.256 22.936H136.848C138.894 22.936 140.599 24.5742 140.599 26.7977C140.599 29.0211 139.121 30.6594 136.848 30.6594H130.256V22.936ZM120.708 38.6168H109.683V31.7125H119.913V29.2551H109.683V23.053H120.708V20.5955H106.955V41.0742H120.708V38.6168ZM205.158 20.5955L199.021 30.3083L192.883 20.5955H190.042L197.657 32.8828V41.0742H200.385V32.8828L208 20.5955H205.158ZM37.8492 32.7657H43.8732L49.7836 41.0742H53.0798L46.8284 32.4147C49.4426 31.5955 51.0339 29.2551 51.0339 26.6806C51.0339 23.5211 48.647 20.5955 44.7825 20.5955H35.1213V41.0742H37.8492V32.7657ZM37.8492 22.936H44.4415C46.4874 22.936 48.1924 24.4572 48.1924 26.6806C48.1924 28.904 46.7148 30.4253 44.4415 30.4253H37.8492V22.936ZM142.758 44.7019H136.734V45.287H139.462V52.6594H140.144V45.287H142.872V44.7019H142.758ZM186.518 52.6594H191.746V52.0743H187.314V48.9147H191.519V48.3296H187.314V45.404H191.746V44.8189H186.518V52.6594ZM61.1497 41.4253C66.3781 41.4253 70.2426 37.2125 70.6973 32.0636C71.2656 37.3296 75.6984 41.4253 81.6087 41.4253C83.4273 41.4253 85.1322 41.0743 86.7235 40.6062L86.3825 38.2657C84.7913 38.6168 83.3137 38.8508 81.9497 38.8508C76.835 38.8508 73.5388 35.5742 73.5388 30.7764C73.5388 25.9785 76.835 22.7019 81.9497 22.7019C83.4273 22.7019 85.0186 22.936 86.3825 23.287L86.9508 21.0636C85.3596 20.4785 83.6546 20.2445 81.8361 20.2445C75.812 20.2445 71.3792 24.3402 70.9246 29.6062C70.4699 24.3402 66.6055 20.2445 61.3771 20.2445C55.8077 20.2445 51.7158 25.0423 51.7158 30.7764C51.7158 36.5104 55.5803 41.4253 61.1497 41.4253ZM61.1497 22.7019C65.3552 22.7019 68.0831 26.2125 68.0831 30.7764C68.0831 35.4572 65.3552 38.8508 61.1497 38.8508C56.9443 38.8508 54.2164 35.4572 54.2164 30.7764C54.2164 26.2125 57.0579 22.7019 61.1497 22.7019ZM184.358 20.5955L176.402 41.0742H179.13L181.176 35.9253H190.042L191.974 41.0742H194.702L186.745 20.5955H184.358ZM181.858 33.7019L185.609 23.6381L189.246 33.7019H181.858ZM110.251 52.6594H115.48V52.0743H111.047V48.9147H115.252V48.3296H111.047V45.404H115.48V44.8189H110.251V52.6594ZM105.023 44.7019H103.432V52.6594H105.023C107.637 52.6594 109.569 50.904 109.569 48.6806C109.569 46.4572 107.751 44.7019 105.023 44.7019ZM105.137 52.0743H104.227V45.287H105.137C107.069 45.287 108.887 46.4572 108.887 48.6806C108.887 50.787 107.069 52.0743 105.137 52.0743ZM151.056 44.7019H150.374V52.6594H155.148V52.0743H151.056V44.7019ZM145.941 44.5849C143.781 44.5849 142.304 46.4572 142.304 48.6806C142.304 50.904 143.781 52.7764 145.941 52.7764C148.101 52.7764 149.578 50.904 149.578 48.6806C149.578 46.4572 148.101 44.5849 145.941 44.5849ZM145.941 52.1913C144.236 52.1913 142.986 50.67 142.986 48.6806C142.986 46.6913 144.236 45.17 145.941 45.17C147.646 45.17 148.896 46.6913 148.896 48.6806C148.896 50.67 147.646 52.1913 145.941 52.1913ZM177.539 35.8083C177.539 32.8828 176.289 31.7125 171.174 29.6062C166.4 27.7338 165.15 27.0317 165.15 25.0423C165.15 23.17 166.514 22.5849 170.037 22.5849C172.083 22.5849 174.47 22.936 176.516 23.404L176.97 21.1806C175.038 20.4785 172.083 20.1274 169.924 20.1274C165.036 20.1274 162.308 21.6487 162.308 25.0423C162.308 28.2019 164.013 29.6062 169.242 31.5955C173.788 33.3508 174.697 34.17 174.697 35.8083C174.697 37.6806 172.879 38.9679 169.583 38.9679C167.309 38.9679 164.581 38.3828 162.195 37.5636L161.626 39.787C164.24 40.8402 167.082 41.4253 169.696 41.4253C174.584 41.4253 177.539 39.0849 177.539 35.8083ZM134.12 44.7019L130.938 52.6594H131.62L132.529 50.436H136.393L137.303 52.6594H137.985L134.802 44.7019H134.12ZM132.756 49.8508L134.461 45.5211L136.166 49.8508H132.756ZM122.186 46.9253C122.186 45.7551 121.277 44.7019 119.799 44.7019H116.275V52.6594H116.957V49.1487H119.685L122.186 52.6594H122.981L120.481 49.1487C121.617 48.9147 122.186 47.9785 122.186 46.9253ZM117.071 48.5636V45.287H119.913C120.822 45.287 121.617 45.9891 121.617 46.9253C121.617 47.9785 121.049 48.5636 119.913 48.5636H117.071ZM126.96 50.67L124.004 44.7019H123.322V52.6594H124.004V45.9891L126.732 51.6062H127.187L129.915 45.9891V52.6594H130.597V44.7019H129.915L126.96 50.67ZM104.568 41.0742V20.5955H101.84V29.2551H91.4973V20.4785H88.6557V40.9572H91.3836V31.7125H101.727V40.9572H104.568V41.0742ZM96.0437 52.6594H101.158V52.0743H96.7257V48.9147H100.931V48.3296H96.7257V45.404H101.158V44.8189H95.9301V52.6594H96.0437ZM79.2219 44.7019H73.1978V45.287H75.9257V52.6594H76.6077V45.287H79.3355V44.7019H79.2219ZM168.105 51.9572C167.537 52.0743 166.855 52.1913 166.4 52.1913C164.354 52.1913 162.877 50.787 162.877 48.6806C162.877 46.4572 164.354 45.17 166.4 45.17C166.968 45.17 167.65 45.287 168.332 45.404L168.446 44.8189C167.878 44.7019 167.082 44.5849 166.4 44.5849C163.786 44.5849 162.081 46.3402 162.081 48.6806C162.081 51.0211 163.899 52.7764 166.4 52.7764C167.082 52.7764 167.991 52.6594 168.673 52.4253V49.1487H167.991V51.9572H168.105ZM158.444 44.5849C156.284 44.5849 154.807 46.4572 154.807 48.6806C154.807 50.904 156.284 52.7764 158.444 52.7764C160.603 52.7764 162.081 50.904 162.081 48.6806C162.081 46.4572 160.603 44.5849 158.444 44.5849ZM158.444 52.1913C156.739 52.1913 155.489 50.67 155.489 48.6806C155.489 46.6913 156.739 45.17 158.444 45.17C160.149 45.17 161.399 46.6913 161.399 48.6806C161.399 50.67 160.149 52.1913 158.444 52.1913ZM70.5836 44.7019L67.4011 52.5423L65.0142 49.1487C66.1508 48.9147 66.7191 47.9785 66.7191 46.9253C66.7191 45.7551 65.8098 44.7019 64.3322 44.7019H60.8087V52.6594H61.4907V49.1487H64.2186L66.7191 52.6594H67.9694L68.8787 50.436H72.7432L73.6525 52.6594H74.3344L71.1519 44.7019H70.5836ZM61.6044 48.5636V45.287H64.4459C65.3552 45.287 66.1508 45.9891 66.1508 46.9253C66.1508 47.9785 65.5825 48.5636 64.4459 48.5636H61.6044ZM69.2197 49.8508L70.9246 45.5211L72.6295 49.8508H69.2197ZM94.7934 46.9253C94.7934 45.7551 93.8842 44.7019 92.4066 44.7019H88.8831V52.6594H89.565V49.1487H92.2929L94.7934 52.6594H95.5891L93.0885 49.1487C94.1115 48.9147 94.7934 47.9785 94.7934 46.9253ZM89.565 48.5636V45.287H92.4066C93.3159 45.287 94.1115 45.9891 94.1115 46.9253C94.1115 47.9785 93.5432 48.5636 92.4066 48.5636H89.565ZM82.4044 44.5849C80.2448 44.5849 78.7672 46.4572 78.7672 48.6806C78.7672 50.904 80.2448 52.7764 82.4044 52.7764C84.5639 52.7764 86.0415 50.904 86.0415 48.6806C86.0415 46.4572 84.5639 44.5849 82.4044 44.5849ZM82.4044 52.1913C80.6995 52.1913 79.4492 50.67 79.4492 48.6806C79.4492 46.6913 80.6995 45.17 82.4044 45.17C84.1093 45.17 85.3596 46.6913 85.3596 48.6806C85.3596 50.67 84.1093 52.1913 82.4044 52.1913ZM86.8372 52.6594H87.5191V44.7019H86.8372V52.6594Z" fill="black"/>
</svg>
