<svg width="44" height="44" viewBox="0 0 44 44" fill="none" xmlns="http://www.w3.org/2000/svg">
<circle opacity="0.1" cx="22" cy="22" r="22" fill="white"/>
<circle opacity="0.2" cx="22" cy="22" r="19.25" fill="white"/>
<circle opacity="0.5" cx="22" cy="22" r="16.5" fill="white"/>
<circle cx="22" cy="22" r="13.2" fill="white"/>
<circle cx="22" cy="22" r="16.1071" stroke="#00A8FF" stroke-width="0.785714"/>
<path fill-rule="evenodd" clip-rule="evenodd" d="M22 14.1429C21.566 14.1429 21.2143 14.4947 21.2143 14.9286V21.2143H14.9285C14.4946 21.2143 14.1428 21.5661 14.1428 22C14.1428 22.434 14.4946 22.7857 14.9285 22.7857H21.2143V29.0715C21.2143 29.5054 21.566 29.8572 22 29.8572C22.4339 29.8572 22.7857 29.5054 22.7857 29.0715V22.7857H29.0714C29.5053 22.7857 29.8571 22.434 29.8571 22C29.8571 21.5661 29.5053 21.2143 29.0714 21.2143H22.7857V14.9286C22.7857 14.4947 22.4339 14.1429 22 14.1429Z" fill="#00A8FF"/>
</svg>
