<svg width="72" height="72" viewBox="0 0 72 72" fill="none" xmlns="http://www.w3.org/2000/svg">
<rect width="72" height="72" rx="36" fill="#F6F4F5"/>
<mask id="mask0_2409_54223" style="mask-type:alpha" maskUnits="userSpaceOnUse" x="25" y="19" width="49" height="34">
<path d="M70.56 19.2002L72 27.2002H54.1934L51.9434 23.2002L54.1934 19.2002H70.56Z" fill="#00A8FF"/>
<path d="M73 27.6006V35.6006H47.6153L45.3926 31.6006L47.6153 27.6006H73Z" fill="#00A8FF"/>
<path d="M73.5 36V44H41.2611L39.0508 40L41.2611 36H73.5Z" fill="#00A8FF"/>
<path d="M73 44.4004L71.56 52.4004H27.6058L25.3828 48.4004L27.6058 44.4004H73Z" fill="#00A8FF"/>
</mask>
<g mask="url(#mask0_2409_54223)">
<circle cx="36" cy="36" r="36" fill="#00A8FF"/>
</g>
<path d="M54.6035 25.3337H56.7596V25.0889H54.9759L56.0393 24.0185C56.3872 23.6729 56.6812 23.3033 56.6812 22.8857C56.6812 22.2617 56.1863 21.9209 55.662 21.9209C55.2161 21.9209 54.8289 22.1321 54.6231 22.5449L54.8436 22.6745C55.0053 22.3385 55.2896 22.1657 55.662 22.1657C56.0785 22.1657 56.4166 22.4249 56.4166 22.8857C56.4166 23.2169 56.1618 23.5337 55.8629 23.8361L54.6035 25.1033V25.3337ZM57.9876 23.3513C58.4286 23.3513 58.7373 23.0345 58.7373 22.6361C58.7373 22.2377 58.4188 21.9209 57.9876 21.9209C57.5564 21.9209 57.2378 22.2377 57.2378 22.6361C57.2378 23.0345 57.5564 23.3513 57.9876 23.3513ZM57.9876 23.1305C57.6936 23.1305 57.4829 22.9145 57.4829 22.6361C57.4829 22.3577 57.6936 22.1417 57.9876 22.1417C58.2865 22.1417 58.4972 22.3577 58.4972 22.6361C58.4972 22.9145 58.2865 23.1305 57.9876 23.1305ZM57.424 24.9017L57.5858 24.9929L59.9183 22.4297L59.7517 22.3385L57.424 24.9017ZM59.3744 25.3865C59.8056 25.3865 60.1241 25.0697 60.1241 24.6713C60.1241 24.2729 59.8056 23.9561 59.3744 23.9561C58.9431 23.9561 58.6246 24.2729 58.6246 24.6713C58.6246 25.0697 58.9431 25.3865 59.3744 25.3865ZM59.3744 25.1657C59.0803 25.1657 58.8696 24.9497 58.8696 24.6713C58.8696 24.3929 59.0803 24.1769 59.3744 24.1769C59.6733 24.1769 59.884 24.3929 59.884 24.6713C59.884 24.9497 59.6733 25.1657 59.3744 25.1657Z" fill="white"/>
<path d="M35.336 25.4731H37.6021V24.9386H36.1766L36.9532 24.1779C37.2826 23.8505 37.5382 23.499 37.5382 23.0801C37.5382 22.4108 37.0024 22.04 36.4371 22.04C35.98 22.04 35.5474 22.2615 35.3262 22.7238L35.803 22.9982C35.9357 22.7286 36.1569 22.5793 36.442 22.5793C36.7369 22.5793 36.9729 22.7623 36.9729 23.0993C36.9729 23.3545 36.7812 23.6001 36.5354 23.8408L35.336 25.0398V25.4731ZM39.2858 25.5357C40.151 25.5357 40.6376 24.8279 40.6376 23.7879C40.6376 22.7478 40.151 22.04 39.2858 22.04C38.4207 22.04 37.934 22.7478 37.934 23.7879C37.934 24.8279 38.4207 25.5357 39.2858 25.5357ZM39.2858 24.9964C38.7795 24.9964 38.4993 24.5631 38.4993 23.7879C38.4993 23.0127 38.7795 22.5793 39.2858 22.5793C39.797 22.5793 40.0723 23.0127 40.0723 23.7879C40.0723 24.5631 39.797 24.9964 39.2858 24.9964ZM41.706 22.1026L40.8015 22.4156L40.9392 22.8875L41.6322 22.6949V25.4731H42.1975V22.1026H41.706ZM44.6458 23.7205C44.8818 23.5712 45.0391 23.3304 45.0391 23.0078C45.0391 22.3578 44.518 22.04 43.9478 22.04C43.3727 22.04 42.8566 22.3578 42.8566 23.0078C42.8566 23.3304 43.0139 23.5712 43.2449 23.7205C42.9303 23.8938 42.7386 24.1875 42.7386 24.539C42.7386 25.165 43.2301 25.5357 43.9478 25.5357C44.6655 25.5357 45.1521 25.165 45.1521 24.539C45.1521 24.1827 44.9653 23.8938 44.6458 23.7205ZM43.9478 22.5649C44.233 22.5649 44.4738 22.719 44.4738 23.0319C44.4738 23.3304 44.233 23.499 43.9478 23.499C43.6578 23.499 43.4219 23.3304 43.4219 23.0319C43.4219 22.719 43.6578 22.5649 43.9478 22.5649ZM43.9478 25.0109C43.5742 25.0109 43.3039 24.8279 43.3039 24.486C43.3039 24.1394 43.5742 23.9612 43.9478 23.9612C44.3165 23.9612 44.5869 24.1394 44.5869 24.486C44.5869 24.8279 44.3165 25.0109 43.9478 25.0109Z" fill="black"/>
<path d="M49.9738 31.8407C49.8415 31.8407 49.719 31.8599 49.6014 31.8935L50.4786 30.6407H50.1845L49.033 32.2775C48.9007 32.4599 48.8223 32.6855 48.8223 32.9495C48.8223 33.6023 49.3074 34.0535 49.9738 34.0535C50.6403 34.0535 51.1254 33.6023 51.1254 32.9495C51.1254 32.2919 50.6403 31.8407 49.9738 31.8407ZM49.9738 33.8087C49.4299 33.8087 49.0869 33.4487 49.0869 32.9495C49.0869 32.4455 49.4299 32.0855 49.9738 32.0855C50.5178 32.0855 50.8657 32.4455 50.8657 32.9495C50.8657 33.4487 50.5178 33.8087 49.9738 33.8087ZM52.2027 32.0183C52.6437 32.0183 52.9524 31.7015 52.9524 31.3031C52.9524 30.9047 52.6339 30.5879 52.2027 30.5879C51.7714 30.5879 51.4529 30.9047 51.4529 31.3031C51.4529 31.7015 51.7714 32.0183 52.2027 32.0183ZM52.2027 31.7975C51.9086 31.7975 51.6979 31.5815 51.6979 31.3031C51.6979 31.0247 51.9086 30.8087 52.2027 30.8087C52.5016 30.8087 52.7123 31.0247 52.7123 31.3031C52.7123 31.5815 52.5016 31.7975 52.2027 31.7975ZM51.6391 33.5687L51.8008 33.6599L54.1334 31.0967L53.9668 31.0055L51.6391 33.5687ZM53.5894 34.0535C54.0207 34.0535 54.3392 33.7367 54.3392 33.3383C54.3392 32.9399 54.0207 32.6231 53.5894 32.6231C53.1582 32.6231 52.8397 32.9399 52.8397 33.3383C52.8397 33.7367 53.1582 34.0535 53.5894 34.0535ZM53.5894 33.8327C53.2954 33.8327 53.0847 33.6167 53.0847 33.3383C53.0847 33.0599 53.2954 32.8439 53.5894 32.8439C53.8884 32.8439 54.0991 33.0599 54.0991 33.3383C54.0991 33.6167 53.8884 33.8327 53.5894 33.8327Z" fill="white"/>
<path d="M28.8028 32.8003H31.0618V32.2675H29.6407L30.415 31.5091C30.7433 31.1827 30.9981 30.8323 30.9981 30.4147C30.9981 29.7475 30.464 29.3779 29.9004 29.3779C29.4447 29.3779 29.0135 29.5987 28.793 30.0595L29.2683 30.3331C29.4006 30.0643 29.6211 29.9155 29.9053 29.9155C30.1994 29.9155 30.4346 30.0979 30.4346 30.4339C30.4346 30.6883 30.2435 30.9331 29.9984 31.1731L28.8028 32.3683V32.8003ZM32.7403 32.8627C33.6028 32.8627 34.0879 32.1571 34.0879 31.1203C34.0879 30.0835 33.6028 29.3779 32.7403 29.3779C31.8779 29.3779 31.3927 30.0835 31.3927 31.1203C31.3927 32.1571 31.8779 32.8627 32.7403 32.8627ZM32.7403 32.3251C32.2356 32.3251 31.9563 31.8931 31.9563 31.1203C31.9563 30.3475 32.2356 29.9155 32.7403 29.9155C33.25 29.9155 33.5244 30.3475 33.5244 31.1203C33.5244 31.8931 33.25 32.3251 32.7403 32.3251ZM35.153 29.4403L34.2513 29.7523L34.3885 30.2227L35.0795 30.0307V32.8003H35.643V29.4403H35.153ZM38.559 30.5251C38.559 29.8483 38.0592 29.3779 37.3486 29.3779C36.6381 29.3779 36.1334 29.8483 36.1334 30.5251C36.1334 31.2019 36.6381 31.6723 37.3486 31.6723H37.4074L36.6234 32.8003H37.2702L38.3532 31.2019C38.4855 31.0147 38.559 30.7843 38.559 30.5251ZM36.6969 30.5251C36.6969 30.1411 36.9762 29.9011 37.3486 29.9011C37.7211 29.9011 37.9955 30.1411 37.9955 30.5251C37.9955 30.9091 37.7211 31.1491 37.3486 31.1491C36.9762 31.1491 36.6969 30.9043 36.6969 30.5251Z" fill="black"/>
<path d="M42.7441 42.0612H44.9003V41.8164H43.1166L44.1799 40.746C44.5278 40.4004 44.8219 40.0308 44.8219 39.6132C44.8219 38.9892 44.3269 38.6484 43.8026 38.6484C43.3567 38.6484 42.9696 38.8596 42.7637 39.2724L42.9843 39.402C43.146 39.066 43.4302 38.8932 43.8026 38.8932C44.2191 38.8932 44.5573 39.1524 44.5573 39.6132C44.5573 39.9444 44.3024 40.2612 44.0035 40.5636L42.7441 41.8308V42.0612ZM46.0976 38.7012L45.2009 39.0036L45.2646 39.2244L46.0584 38.9796V42.0612H46.3181V38.7012H46.0976ZM47.8031 40.0788C48.2441 40.0788 48.5528 39.762 48.5528 39.3636C48.5528 38.9652 48.2343 38.6484 47.8031 38.6484C47.3719 38.6484 47.0533 38.9652 47.0533 39.3636C47.0533 39.762 47.3719 40.0788 47.8031 40.0788ZM47.8031 39.858C47.5091 39.858 47.2984 39.642 47.2984 39.3636C47.2984 39.0852 47.5091 38.8692 47.8031 38.8692C48.102 38.8692 48.3127 39.0852 48.3127 39.3636C48.3127 39.642 48.102 39.858 47.8031 39.858ZM47.2396 41.6292L47.4013 41.7204L49.734 39.1572L49.5674 39.066L47.2396 41.6292ZM49.1899 42.114C49.6213 42.114 49.9398 41.7972 49.9398 41.3988C49.9398 41.0004 49.6213 40.6836 49.1899 40.6836C48.7586 40.6836 48.4401 41.0004 48.4401 41.3988C48.4401 41.7972 48.7586 42.114 49.1899 42.114ZM49.1899 41.8932C48.8959 41.8932 48.6851 41.6772 48.6851 41.3988C48.6851 41.1204 48.8959 40.9044 49.1899 40.9044C49.489 40.9044 49.6997 41.1204 49.6997 41.3988C49.6997 41.6772 49.489 41.8932 49.1899 41.8932Z" fill="white"/>
<path d="M25.5352 41.9136H27.7942V41.3808H26.3731L27.1474 40.6224C27.4757 40.296 27.7305 39.9456 27.7305 39.528C27.7305 38.8608 27.1964 38.4912 26.6329 38.4912C26.1771 38.4912 25.7459 38.712 25.5254 39.1728L26.0007 39.4464C26.133 39.1776 26.3535 39.0288 26.6378 39.0288C26.9318 39.0288 27.167 39.2112 27.167 39.5472C27.167 39.8016 26.9759 40.0464 26.7309 40.2864L25.5352 41.4816V41.9136ZM29.4727 41.976C30.3352 41.976 30.8203 41.2704 30.8203 40.2336C30.8203 39.1968 30.3352 38.4912 29.4727 38.4912C28.6103 38.4912 28.1252 39.1968 28.1252 40.2336C28.1252 41.2704 28.6103 41.976 29.4727 41.976ZM29.4727 41.4384C28.968 41.4384 28.6887 41.0064 28.6887 40.2336C28.6887 39.4608 28.968 39.0288 29.4727 39.0288C29.9824 39.0288 30.2568 39.4608 30.2568 40.2336C30.2568 41.0064 29.9824 41.4384 29.4727 41.4384ZM31.0959 41.9136H33.3549V41.3808H31.9338L32.7081 40.6224C33.0364 40.296 33.2912 39.9456 33.2912 39.528C33.2912 38.8608 32.7571 38.4912 32.1936 38.4912C31.7378 38.4912 31.3066 38.712 31.0861 39.1728L31.5614 39.4464C31.6937 39.1776 31.9142 39.0288 32.1985 39.0288C32.4925 39.0288 32.7277 39.2112 32.7277 39.5472C32.7277 39.8016 32.5366 40.0464 32.2916 40.2864L31.0959 41.4816V41.9136ZM35.0334 41.976C35.8959 41.976 36.381 41.2704 36.381 40.2336C36.381 39.1968 35.8959 38.4912 35.0334 38.4912C34.171 38.4912 33.6859 39.1968 33.6859 40.2336C33.6859 41.2704 34.171 41.976 35.0334 41.976ZM35.0334 41.4384C34.5287 41.4384 34.2494 41.0064 34.2494 40.2336C34.2494 39.4608 34.5287 39.0288 35.0334 39.0288C35.5431 39.0288 35.8175 39.4608 35.8175 40.2336C35.8175 41.0064 35.5431 41.4384 35.0334 41.4384Z" fill="black"/>
<path d="M30.3723 48.3739C30.24 48.3739 30.1175 48.3931 29.9999 48.4267L30.877 47.1739H30.583L29.4314 48.8107C29.2991 48.9931 29.2207 49.2187 29.2207 49.4827C29.2207 50.1355 29.7058 50.5867 30.3723 50.5867C31.0387 50.5867 31.5238 50.1355 31.5238 49.4827C31.5238 48.8251 31.0387 48.3739 30.3723 48.3739ZM30.3723 50.3419C29.8283 50.3419 29.4853 49.9819 29.4853 49.4827C29.4853 48.9787 29.8283 48.6187 30.3723 48.6187C30.9162 48.6187 31.2641 48.9787 31.2641 49.4827C31.2641 49.9819 30.9162 50.3419 30.3723 50.3419ZM33.2346 50.5867C34.0578 50.5867 34.5185 49.8907 34.5185 48.8539C34.5185 47.8171 34.0578 47.1211 33.2346 47.1211C32.4113 47.1211 31.9507 47.8171 31.9507 48.8539C31.9507 49.8907 32.4113 50.5867 33.2346 50.5867ZM33.2346 50.3419C32.5975 50.3419 32.2153 49.7947 32.2153 48.8539C32.2153 47.9131 32.5975 47.3659 33.2346 47.3659C33.8716 47.3659 34.2538 47.9131 34.2538 48.8539C34.2538 49.7947 33.8716 50.3419 33.2346 50.3419ZM35.7403 48.5515C36.1814 48.5515 36.4901 48.2347 36.4901 47.8363C36.4901 47.4379 36.1716 47.1211 35.7403 47.1211C35.3091 47.1211 34.9906 47.4379 34.9906 47.8363C34.9906 48.2347 35.3091 48.5515 35.7403 48.5515ZM35.7403 48.3307C35.4463 48.3307 35.2356 48.1147 35.2356 47.8363C35.2356 47.5579 35.4463 47.3419 35.7403 47.3419C36.0393 47.3419 36.25 47.5579 36.25 47.8363C36.25 48.1147 36.0393 48.3307 35.7403 48.3307ZM35.1768 50.1019L35.3385 50.1931L37.6711 47.6299L37.5045 47.5387L35.1768 50.1019ZM37.1271 50.5867C37.5584 50.5867 37.8769 50.2699 37.8769 49.8715C37.8769 49.4731 37.5584 49.1563 37.1271 49.1563C36.6959 49.1563 36.3774 49.4731 36.3774 49.8715C36.3774 50.2699 36.6959 50.5867 37.1271 50.5867ZM37.1271 50.3659C36.8331 50.3659 36.6224 50.1499 36.6224 49.8715C36.6224 49.5931 36.8331 49.3771 37.1271 49.3771C37.426 49.3771 37.6368 49.5931 37.6368 49.8715C37.6368 50.1499 37.426 50.3659 37.1271 50.3659Z" fill="white"/>
<path d="M10.4258 50.4009H12.6849V49.8681H11.2638L12.038 49.1097C12.3663 48.7833 12.6212 48.4329 12.6212 48.0153C12.6212 47.3481 12.087 46.9785 11.5235 46.9785C11.0678 46.9785 10.6365 47.1993 10.416 47.6601L10.8913 47.9337C11.0237 47.6649 11.2442 47.5161 11.5284 47.5161C11.8224 47.5161 12.0576 47.6985 12.0576 48.0345C12.0576 48.2889 11.8665 48.5337 11.6215 48.7737L10.4258 49.9689V50.4009ZM14.3634 50.4633C15.2258 50.4633 15.711 49.7577 15.711 48.7209C15.711 47.6841 15.2258 46.9785 14.3634 46.9785C13.5009 46.9785 13.0158 47.6841 13.0158 48.7209C13.0158 49.7577 13.5009 50.4633 14.3634 50.4633ZM14.3634 49.9257C13.8586 49.9257 13.5793 49.4937 13.5793 48.7209C13.5793 47.9481 13.8586 47.5161 14.3634 47.5161C14.873 47.5161 15.1474 47.9481 15.1474 48.7209C15.1474 49.4937 14.873 49.9257 14.3634 49.9257ZM15.9865 50.4009H18.2456V49.8681H16.8245L17.5987 49.1097C17.927 48.7833 18.1818 48.4329 18.1818 48.0153C18.1818 47.3481 17.6477 46.9785 17.0842 46.9785C16.6285 46.9785 16.1972 47.1993 15.9767 47.6601L16.452 47.9337C16.5843 47.6649 16.8049 47.5161 17.0891 47.5161C17.3831 47.5161 17.6183 47.6985 17.6183 48.0345C17.6183 48.2889 17.4272 48.5337 17.1822 48.7737L15.9865 49.9689V50.4009ZM19.7281 48.3081H19.2968L19.3556 47.5593H20.7473V47.0409H18.8362L18.7039 48.8457H19.7036C20.076 48.8457 20.3308 49.0473 20.3308 49.3833C20.3308 49.7193 20.076 49.9257 19.6938 49.9257C19.336 49.9257 19.1008 49.7673 19.0126 49.4697L18.5275 49.7433C18.7088 50.2281 19.1743 50.4633 19.6938 50.4633C20.3259 50.4633 20.8943 50.0889 20.8943 49.3833C20.8943 48.6825 20.3504 48.3081 19.7281 48.3081Z" fill="black"/>
</svg>
