<svg width="97" height="187" viewBox="0 0 97 187" fill="none" xmlns="http://www.w3.org/2000/svg">
<path d="M70 21.2765L78.4 18.3605L78.4 19.8725L71.668 22.1045L78.4 24.3485L78.4 25.8485L70 22.9325L70 21.2765ZM78.4 27.2859L78.4 28.6659L70 28.6659L70 27.2859L78.4 27.2859ZM69.844 34.8565C69.844 33.5925 70.26 32.5445 71.092 31.7125C71.932 30.8805 72.968 30.4645 74.2 30.4645C75.432 30.4645 76.464 30.8805 77.296 31.7125C78.136 32.5445 78.556 33.5925 78.556 34.8565C78.556 35.6165 78.376 36.3165 78.016 36.9565C77.656 37.6045 77.168 38.1085 76.552 38.4685L75.856 37.2685C76.272 37.0445 76.6 36.7165 76.84 36.2845C77.088 35.8605 77.212 35.3845 77.212 34.8565C77.212 33.9605 76.928 33.2325 76.36 32.6725C75.792 32.1205 75.072 31.8445 74.2 31.8445C73.328 31.8445 72.608 32.1205 72.04 32.6725C71.472 33.2325 71.188 33.9605 71.188 34.8565C71.188 35.3845 71.308 35.8645 71.548 36.2965C71.796 36.7285 72.128 37.0525 72.544 37.2685L71.86 38.4685C71.244 38.1165 70.752 37.6165 70.384 36.9685C70.024 36.3285 69.844 35.6245 69.844 34.8565ZM78.4 45.135L78.4 46.515L70 46.515L70 45.135L73.636 45.135L73.636 41.535L70 41.535L70 40.155L78.4 40.155L78.4 41.535L74.956 41.535L74.956 45.135L78.4 45.135ZM78.4 55.1901L73.336 52.2621L70 52.2621L70 50.8821L73.336 50.8821L78.4 47.9541L78.4 49.5261L74.68 51.5781L78.4 53.6181L78.4 55.1901ZM71.32 61.5534L71.32 64.9734L70 64.9734L70 60.1734L78.4 60.1734L78.4 61.5534L71.32 61.5534ZM70 72.244L71.692 71.656L71.692 68.08L70 67.492L70 65.992L78.4 69.04L78.4 70.696L70 73.732L70 72.244ZM72.988 68.536L72.988 71.2L76.78 69.868L72.988 68.536ZM74.356 80.1193C74.164 80.4873 73.9 80.7753 73.564 80.9833C73.228 81.1913 72.84 81.2953 72.4 81.2953C71.712 81.2953 71.14 81.0513 70.684 80.5633C70.228 80.0753 70 79.4793 70 78.7753L70 75.1753L78.4 75.1753L78.4 78.5113C78.4 79.1993 78.176 79.7793 77.728 80.2513C77.288 80.7313 76.736 80.9713 76.072 80.9713C75.344 80.9713 74.772 80.6873 74.356 80.1193ZM77.104 78.5113L77.104 76.5553L74.896 76.5553L74.896 78.5113C74.896 78.8153 75 79.0713 75.208 79.2793C75.424 79.4873 75.688 79.5913 76 79.5913C76.312 79.5913 76.572 79.4873 76.78 79.2793C76.996 79.0713 77.104 78.8153 77.104 78.5113ZM71.296 78.7753C71.296 79.0953 71.408 79.3633 71.632 79.5793C71.864 79.8033 72.144 79.9153 72.472 79.9153C72.8 79.9153 73.076 79.8033 73.3 79.5793C73.532 79.3633 73.648 79.0953 73.648 78.7753L73.648 76.5553L71.296 76.5553L71.296 78.7753ZM71.104 90.0595C70.264 89.2195 69.844 88.1915 69.844 86.9755C69.844 85.7595 70.264 84.7275 71.104 83.8795C71.952 83.0395 72.984 82.6195 74.2 82.6195C75.416 82.6195 76.444 83.0395 77.284 83.8795C78.132 84.7275 78.556 85.7595 78.556 86.9755C78.556 88.1915 78.132 89.2195 77.284 90.0595C76.444 90.9075 75.416 91.3315 74.2 91.3315C72.984 91.3315 71.952 90.9075 71.104 90.0595ZM72.04 84.8515C71.472 85.4275 71.188 86.1355 71.188 86.9755C71.188 87.8155 71.472 88.5195 72.04 89.0875C72.616 89.6635 73.336 89.9515 74.2 89.9515C75.064 89.9515 75.78 89.6635 76.348 89.0875C76.924 88.5195 77.212 87.8155 77.212 86.9755C77.212 86.1355 76.924 85.4275 76.348 84.8515C75.78 84.2835 75.064 83.9995 74.2 83.9995C73.336 83.9995 72.616 84.2835 72.04 84.8515ZM70 97.9183L73.06 96.1423L73.06 94.5103L70 94.5103L70 93.1303L78.4 93.1303L78.4 96.4903C78.4 97.2423 78.136 97.8783 77.608 98.3983C77.088 98.9263 76.452 99.1903 75.7 99.1903C75.164 99.1903 74.672 99.0343 74.224 98.7223C73.784 98.4183 73.464 98.0183 73.264 97.5223L70 99.4303L70 97.9183ZM77.104 94.5103L74.296 94.5103L74.296 96.4903C74.296 96.8583 74.432 97.1703 74.704 97.4263C74.976 97.6823 75.308 97.8103 75.7 97.8103C76.092 97.8103 76.424 97.6823 76.696 97.4263C76.968 97.1703 77.104 96.8583 77.104 96.4903L77.104 94.5103ZM70 106.502L71.692 105.914L71.692 102.338L70 101.75L70 100.25L78.4 103.298L78.4 104.954L70 107.99L70 106.502ZM72.988 102.794L72.988 105.458L76.78 104.126L72.988 102.794ZM78.4 114.295L77.08 114.295L77.08 111.931L70 111.931L70 110.551L77.08 110.551L77.08 108.175L78.4 108.175L78.4 114.295ZM71.104 122.395C70.264 121.555 69.844 120.527 69.844 119.311C69.844 118.095 70.264 117.063 71.104 116.215C71.952 115.375 72.984 114.955 74.2 114.955C75.416 114.955 76.444 115.375 77.284 116.215C78.132 117.063 78.556 118.095 78.556 119.311C78.556 120.527 78.132 121.555 77.284 122.395C76.444 123.243 75.416 123.667 74.2 123.667C72.984 123.667 71.952 123.243 71.104 122.395ZM72.04 117.187C71.472 117.763 71.188 118.471 71.188 119.311C71.188 120.151 71.472 120.855 72.04 121.423C72.616 121.999 73.336 122.287 74.2 122.287C75.064 122.287 75.78 121.999 76.348 121.423C76.924 120.855 77.212 120.151 77.212 119.311C77.212 118.471 76.924 117.763 76.348 117.187C75.78 116.619 75.064 116.335 74.2 116.335C73.336 116.335 72.616 116.619 72.04 117.187ZM78.4 125.466L78.4 126.846L70 126.846L70 125.466L78.4 125.466ZM70 133.853L73.06 132.077L73.06 130.445L70 130.445L70 129.065L78.4 129.065L78.4 132.425C78.4 133.177 78.136 133.813 77.608 134.333C77.088 134.861 76.452 135.125 75.7 135.125C75.164 135.125 74.672 134.969 74.224 134.657C73.784 134.353 73.464 133.953 73.264 133.457L70 135.365L70 133.853ZM77.104 130.445L74.296 130.445L74.296 132.425C74.296 132.793 74.432 133.105 74.704 133.361C74.976 133.617 75.308 133.745 75.7 133.745C76.092 133.745 76.424 133.617 76.696 133.361C76.968 133.105 77.104 132.793 77.104 132.425L77.104 130.445ZM71.32 138.344L71.32 142.064L70 142.064L70 136.964L78.4 136.964L78.4 142.004L77.08 142.004L77.08 138.344L74.896 138.344L74.896 141.704L73.588 141.704L73.588 138.344L71.32 138.344ZM69.844 146.663C69.844 145.855 70.028 145.167 70.396 144.599C70.764 144.039 71.268 143.647 71.908 143.423L72.604 144.611C71.66 144.947 71.188 145.643 71.188 146.699C71.188 147.219 71.288 147.607 71.488 147.863C71.696 148.127 71.964 148.259 72.292 148.259C72.636 148.259 72.896 148.119 73.072 147.839C73.256 147.559 73.456 147.063 73.672 146.351C73.792 145.951 73.904 145.627 74.008 145.379C74.112 145.131 74.256 144.867 74.44 144.587C74.632 144.315 74.868 144.111 75.148 143.975C75.428 143.839 75.756 143.771 76.132 143.771C76.876 143.771 77.464 144.035 77.896 144.563C78.336 145.091 78.556 145.727 78.556 146.471C78.556 147.143 78.392 147.731 78.064 148.235C77.736 148.739 77.284 149.127 76.708 149.399L76.036 148.235C76.82 147.883 77.212 147.295 77.212 146.471C77.212 146.071 77.116 145.751 76.924 145.511C76.74 145.271 76.488 145.151 76.168 145.151C75.856 145.151 75.608 145.271 75.424 145.511C75.248 145.759 75.06 146.203 74.86 146.843C74.756 147.163 74.676 147.395 74.62 147.539C74.572 147.691 74.492 147.899 74.38 148.163C74.268 148.435 74.156 148.639 74.044 148.775C73.932 148.911 73.792 149.055 73.624 149.207C73.456 149.367 73.264 149.479 73.048 149.543C72.832 149.607 72.588 149.639 72.316 149.639C71.556 149.639 70.952 149.363 70.504 148.811C70.064 148.267 69.844 147.551 69.844 146.663Z" fill="black"/>
<path d="M85 165L75.5074 187H71.5237L62 165H66.3884L73.6401 181.971L80.954 165H85Z" fill="black"/>
<path d="M4.31891 171.6C5.47091 171.6 6.42691 172.004 7.18691 172.812C7.95491 173.62 8.33891 174.616 8.33891 175.8C8.33891 176.976 7.95491 177.972 7.18691 178.788C6.42691 179.596 5.47091 180 4.31891 180H1.01891L1.01891 171.6H4.31891ZM4.31891 178.68C5.11091 178.68 5.75491 178.408 6.25091 177.864C6.75491 177.32 7.00691 176.632 7.00691 175.8C7.00691 174.96 6.75491 174.272 6.25091 173.736C5.75491 173.192 5.11091 172.92 4.31891 172.92H2.39891L2.39891 178.68H4.31891ZM11.517 178.68H15.237V180H10.137L10.137 171.6H15.177V172.92H11.517L11.517 175.104H14.877V176.412H11.517V178.68ZM21.8283 180L20.0523 176.94H18.4203V180H17.0403V171.6H20.4003C21.1523 171.6 21.7883 171.864 22.3083 172.392C22.8363 172.912 23.1003 173.548 23.1003 174.3C23.1003 174.836 22.9443 175.328 22.6323 175.776C22.3283 176.216 21.9283 176.536 21.4323 176.736L23.3403 180H21.8283ZM18.4203 172.896V175.704H20.4003C20.7683 175.704 21.0803 175.568 21.3363 175.296C21.5923 175.024 21.7203 174.692 21.7203 174.3C21.7203 173.908 21.5923 173.576 21.3363 173.304C21.0803 173.032 20.7683 172.896 20.4003 172.896H18.4203ZM28.8531 180.156C27.5891 180.156 26.5411 179.74 25.7091 178.908C24.8771 178.068 24.4611 177.032 24.4611 175.8C24.4611 174.568 24.8771 173.536 25.7091 172.704C26.5411 171.864 27.5891 171.444 28.8531 171.444C29.6131 171.444 30.3131 171.624 30.9531 171.984C31.6011 172.344 32.1051 172.832 32.4651 173.448L31.2651 174.144C31.0411 173.728 30.7131 173.4 30.2811 173.16C29.8571 172.912 29.3811 172.788 28.8531 172.788C27.9571 172.788 27.2291 173.072 26.6691 173.64C26.1171 174.208 25.8411 174.928 25.8411 175.8C25.8411 176.672 26.1171 177.392 26.6691 177.96C27.2291 178.528 27.9571 178.812 28.8531 178.812C29.3811 178.812 29.8611 178.692 30.2931 178.452C30.7251 178.204 31.0491 177.872 31.2651 177.456L32.4651 178.14C32.1131 178.756 31.6131 179.248 30.9651 179.616C30.3251 179.976 29.6211 180.156 28.8531 180.156ZM41.113 178.896C40.273 179.736 39.245 180.156 38.029 180.156C36.813 180.156 35.781 179.736 34.933 178.896C34.093 178.048 33.673 177.016 33.673 175.8C33.673 174.584 34.093 173.556 34.933 172.716C35.781 171.868 36.813 171.444 38.029 171.444C39.245 171.444 40.273 171.868 41.113 172.716C41.961 173.556 42.385 174.584 42.385 175.8C42.385 177.016 41.961 178.048 41.113 178.896ZM35.905 177.96C36.481 178.528 37.189 178.812 38.029 178.812C38.869 178.812 39.573 178.528 40.141 177.96C40.717 177.384 41.005 176.664 41.005 175.8C41.005 174.936 40.717 174.22 40.141 173.652C39.573 173.076 38.869 172.788 38.029 172.788C37.189 172.788 36.481 173.076 35.905 173.652C35.337 174.22 35.053 174.936 35.053 175.8C35.053 176.664 35.337 177.384 35.905 177.96ZM46.6633 180.156C45.8553 180.156 45.1673 179.972 44.5993 179.604C44.0393 179.236 43.6473 178.732 43.4233 178.092L44.6113 177.396C44.9473 178.34 45.6433 178.812 46.6993 178.812C47.2193 178.812 47.6073 178.712 47.8633 178.512C48.1273 178.304 48.2593 178.036 48.2593 177.708C48.2593 177.364 48.1193 177.104 47.8393 176.928C47.5593 176.744 47.0633 176.544 46.3513 176.328C45.9513 176.208 45.6273 176.096 45.3793 175.992C45.1313 175.888 44.8673 175.744 44.5873 175.56C44.3153 175.368 44.1113 175.132 43.9753 174.852C43.8393 174.572 43.7713 174.244 43.7713 173.868C43.7713 173.124 44.0353 172.536 44.5633 172.104C45.0913 171.664 45.7273 171.444 46.4713 171.444C47.1433 171.444 47.7313 171.608 48.2353 171.936C48.7393 172.264 49.1273 172.716 49.3993 173.292L48.2353 173.964C47.8833 173.18 47.2953 172.788 46.4713 172.788C46.0713 172.788 45.7513 172.884 45.5113 173.076C45.2713 173.26 45.1513 173.512 45.1513 173.832C45.1513 174.144 45.2713 174.392 45.5113 174.576C45.7593 174.752 46.2033 174.94 46.8433 175.14C47.1633 175.244 47.3953 175.324 47.5393 175.38C47.6913 175.428 47.8993 175.508 48.1633 175.62C48.4353 175.732 48.6393 175.844 48.7753 175.956C48.9113 176.068 49.0553 176.208 49.2073 176.376C49.3673 176.544 49.4793 176.736 49.5433 176.952C49.6073 177.168 49.6393 177.412 49.6393 177.684C49.6393 178.444 49.3633 179.048 48.8113 179.496C48.2673 179.936 47.5513 180.156 46.6633 180.156Z" fill="black"/>
</svg>
