<svg width="36" height="36" viewBox="0 0 36 36" fill="none" xmlns="http://www.w3.org/2000/svg">
<circle cx="17.952" cy="17.9519" r="16.8879" transform="rotate(-90 17.952 17.9519)" stroke="white" stroke-width="0.823799"/>
<path d="M18.609 26.3607C18.3757 26.3803 18.1357 26.3008 17.9572 26.1224L10.2413 18.4064C9.91957 18.0847 9.91957 17.5631 10.2413 17.2414C10.563 16.9197 11.0846 16.9197 11.4063 17.2414L18.568 24.4031L25.5316 17.4394C25.8533 17.1177 26.3749 17.1177 26.6967 17.4394C27.0184 17.7612 27.0184 18.2828 26.6967 18.6045L19.1816 26.1195C19.0233 26.2779 18.8165 26.3583 18.609 26.3607Z" fill="white"/>
<path d="M18.609 20.3607C18.3757 20.3803 18.1357 20.3008 17.9572 20.1224L10.2413 12.4064C9.91957 12.0847 9.91957 11.5631 10.2413 11.2414C10.563 10.9197 11.0846 10.9197 11.4063 11.2414L18.568 18.4031L25.5316 11.4394C25.8533 11.1177 26.3749 11.1177 26.6967 11.4394C27.0184 11.7612 27.0184 12.2828 26.6967 12.6045L19.1816 20.1195C19.0233 20.2779 18.8165 20.3583 18.609 20.3607Z" fill="white"/>
</svg>
