<svg width="200" height="58" viewBox="0 0 200 58" fill="none" xmlns="http://www.w3.org/2000/svg">
<path fill-rule="evenodd" clip-rule="evenodd" d="M143.049 42.6014V23.5148H118.737V42.6014H111.82V0.0180623H118.737V18.2681H143.049V0.0180623H149.96V42.6014H143.049Z" fill="black"/>
<path fill-rule="evenodd" clip-rule="evenodd" d="M39.2874 57.9651H40.3675L36.5899 49.0493L32.8243 57.9651H33.9104L34.8831 55.533H38.3146L39.2874 57.9651ZM35.2114 54.7203L36.6138 51.2065L38.0162 54.7203H35.2114Z" fill="black"/>
<path fill-rule="evenodd" clip-rule="evenodd" d="M100.374 57.9651H101.454L97.6762 49.0493L93.8927 57.9651H94.9848L95.9516 55.533H99.4009L100.374 57.9651ZM96.2738 54.7203L97.6762 51.2065L99.0667 54.7203H96.2738Z" fill="black"/>
<path d="M139.105 49.5871V57.9651H140.185V49.5871H139.105Z" fill="black"/>
<path d="M51.3781 0.0180623V42.6014H58.2948V0.0180623H51.3781Z" fill="black"/>
<path d="M34.6132 0.000136726L20.941 28.8512C21.0186 28.7795 7.16135 0.000136726 7.16135 0.000136726H0L20.8873 42.6014L41.7745 0.000136726H34.6132Z" fill="black"/>
<path d="M90.5984 36.8946C80.4532 36.8946 73.0173 30.363 73.0173 21.3038C73.0173 12.2445 80.4472 5.71298 90.5984 5.71298C94.8216 5.68092 98.9432 7.00913 102.355 9.50162V2.76692C98.7069 0.934569 94.6797 -0.0131962 90.5984 0.00013879C77.4096 0.00013879 66.7273 9.56138 66.7273 21.2978C66.7273 33.0342 77.4156 42.5955 90.5984 42.5955C94.6792 42.6106 98.7064 41.6649 102.355 39.8346V33.1059C98.9432 35.5984 94.8216 36.9266 90.5984 36.8946Z" fill="black"/>
<path d="M50.6202 53.9136V57.1644H51.6765C53.1088 57.1644 53.7294 56.5668 53.7294 55.5569C53.7294 54.547 53.067 53.9136 51.5512 53.9136H50.6202ZM50.6202 50.3938V53.1009H51.0976C51.5678 53.1291 52.0384 53.0536 52.4762 52.8798C52.676 52.7962 52.8427 52.6491 52.9506 52.4612C53.0585 52.2732 53.1015 52.0549 53.073 51.84C53.0944 51.6106 53.0555 51.3797 52.9603 51.17C52.865 50.9604 52.7166 50.7793 52.5299 50.6448C52.0862 50.4618 51.6062 50.384 51.1275 50.4177L50.6202 50.3938ZM49.8086 57.9651V49.5991H51.1871C53.0571 49.5991 53.99 50.354 53.986 51.8639C54.0055 52.1853 53.9395 52.5062 53.7948 52.7938C53.6502 53.0814 53.432 53.3255 53.1625 53.5012C53.6438 53.6005 54.0701 53.8779 54.356 54.2781C54.6123 54.6883 54.7295 55.1703 54.6902 55.6525C54.7111 56.0017 54.6412 56.3504 54.4875 56.6646C54.3337 56.9788 54.1014 57.2477 53.813 57.4452C53.2129 57.8415 52.5016 58.0342 51.7839 57.995L49.8086 57.9651Z" fill="black"/>
<path d="M68.2789 50.1966C67.8183 50.1875 67.3607 50.2724 66.9339 50.446C66.5071 50.6196 66.1201 50.8784 65.7963 51.2065C65.4721 51.5248 65.2145 51.9046 65.0386 52.3238C64.8628 52.7429 64.7722 53.193 64.7722 53.6476C64.7722 54.1023 64.8628 54.5524 65.0386 54.9715C65.2145 55.3907 65.4721 55.7705 65.7963 56.0887C66.458 56.7395 67.3485 57.1041 68.2759 57.1041C69.2034 57.1041 70.0938 56.7395 70.7555 56.0887C71.0798 55.7705 71.3374 55.3907 71.5132 54.9715C71.6891 54.5524 71.7797 54.1023 71.7797 53.6476C71.7797 53.193 71.6891 52.7429 71.5132 52.3238C71.3374 51.9046 71.0798 51.5248 70.7555 51.2065C70.4323 50.8794 70.0462 50.6212 69.6205 50.4477C69.1948 50.2741 68.7384 50.1887 68.2789 50.1966ZM68.2789 49.3301C68.8625 49.3201 69.4421 49.4276 69.9834 49.6463C70.5247 49.8649 71.0166 50.1903 71.4299 50.603C71.8482 50.9943 72.1818 51.4676 72.4098 51.9934C72.6378 52.5192 72.7555 53.0863 72.7555 53.6596C72.7555 54.2328 72.6378 54.8 72.4098 55.3258C72.1818 55.8516 71.8482 56.3249 71.4299 56.7162C70.579 57.5214 69.4526 57.97 68.2819 57.97C67.1111 57.97 65.9848 57.5214 65.1339 56.7162C64.7156 56.3249 64.382 55.8516 64.154 55.3258C63.926 54.8 63.8083 54.2328 63.8083 53.6596C63.8083 53.0863 63.926 52.5192 64.154 51.9934C64.382 51.4676 64.7156 50.9943 65.1339 50.603C65.5463 50.1907 66.0371 49.8656 66.5774 49.647C67.1177 49.4283 67.6963 49.3206 68.2789 49.3301Z" fill="black"/>
<path d="M125.355 50.1966C124.894 50.1875 124.437 50.2724 124.01 50.446C123.583 50.6196 123.196 50.8784 122.872 51.2065C122.548 51.5248 122.29 51.9046 122.115 52.3238C121.939 52.7429 121.848 53.193 121.848 53.6476C121.848 54.1023 121.939 54.5524 122.115 54.9715C122.29 55.3907 122.548 55.7705 122.872 56.0888C123.534 56.7395 124.424 57.1041 125.352 57.1041C126.279 57.1041 127.17 56.7395 127.832 56.0888C128.156 55.7709 128.415 55.3912 128.591 54.972C128.767 54.5528 128.858 54.1025 128.858 53.6476C128.858 53.1928 128.767 52.7425 128.591 52.3233C128.415 51.9041 128.156 51.5244 127.832 51.2065C127.509 50.8786 127.123 50.6198 126.697 50.4462C126.271 50.2726 125.815 50.1877 125.355 50.1966ZM125.355 49.3302C125.938 49.3206 126.516 49.4283 127.056 49.647C127.597 49.8656 128.088 50.1907 128.5 50.603C128.918 50.9943 129.252 51.4676 129.48 51.9934C129.708 52.5192 129.825 53.0864 129.825 53.6596C129.825 54.2328 129.708 54.8 129.48 55.3258C129.252 55.8516 128.918 56.3249 128.5 56.7162C127.651 57.5224 126.525 57.9717 125.355 57.9717C124.185 57.9717 123.059 57.5224 122.21 56.7162C121.792 56.3249 121.458 55.8516 121.23 55.3258C121.002 54.8 120.884 54.2328 120.884 53.6596C120.884 53.0864 121.002 52.5192 121.23 51.9934C121.458 51.4676 121.792 50.9943 122.21 50.603C122.622 50.1907 123.113 49.8656 123.653 49.647C124.194 49.4283 124.772 49.3206 125.355 49.3302Z" fill="black"/>
<path d="M182.091 50.6209L181.351 51.099C181.221 50.8277 181.017 50.5989 180.762 50.4392C180.507 50.2795 180.213 50.1953 179.912 50.1966C179.556 50.1923 179.211 50.3225 178.946 50.5612C178.813 50.6765 178.707 50.8199 178.636 50.9811C178.564 51.1423 178.53 51.3172 178.534 51.4934C178.537 51.656 178.579 51.8156 178.656 51.959C178.732 52.1023 178.842 52.2254 178.975 52.318C179.241 52.5119 179.53 52.6724 179.835 52.7961L180.39 53.0411C180.904 53.2388 181.378 53.5261 181.792 53.8897C181.99 54.0838 182.144 54.3168 182.247 54.574C182.35 54.8311 182.398 55.1068 182.389 55.3836C182.397 55.725 182.333 56.0641 182.201 56.3791C182.069 56.6941 181.873 56.978 181.625 57.2122C181.152 57.6634 180.532 57.9278 179.879 57.9563C179.226 57.9849 178.585 57.7757 178.074 57.3676C177.603 56.9672 177.285 56.4163 177.173 55.8079L178.08 55.5748C178.132 55.9947 178.328 56.3835 178.635 56.6744C178.782 56.8197 178.957 56.9342 179.148 57.0111C179.34 57.0881 179.545 57.126 179.751 57.1226C180.194 57.127 180.622 56.96 180.945 56.6565C181.11 56.5125 181.242 56.3343 181.332 56.1341C181.422 55.9339 181.467 55.7165 181.464 55.4972C181.469 55.2953 181.429 55.0949 181.346 54.9108C181.264 54.7266 181.141 54.5635 180.987 54.4335C180.662 54.1863 180.304 53.9853 179.924 53.8359L179.417 53.6148C178.952 53.4343 178.521 53.1733 178.146 52.8439C177.969 52.6649 177.83 52.4519 177.738 52.2177C177.646 51.9835 177.602 51.7331 177.609 51.4814C177.601 51.1869 177.661 50.8944 177.783 50.6263C177.905 50.3581 178.086 50.1213 178.313 49.9337C178.761 49.5383 179.34 49.3251 179.936 49.3361C180.382 49.3193 180.824 49.433 181.206 49.6633C181.589 49.8936 181.896 50.2305 182.091 50.6329V50.6209Z" fill="black"/>
<path d="M164.474 57.9652V49.5931H169.063V50.4596H165.405V52.9455H168.788V53.812H165.405V57.0987H169.063V57.9652H164.474Z" fill="black"/>
<path d="M21.8793 49.5871V57.0987H24.1829V57.9651H20.9484V49.5871H21.8793Z" fill="black"/>
<path d="M111.516 50.4536V57.9592H110.585V50.4536H108.562V49.5871H113.557V50.4536H111.516Z" fill="black"/>
<path d="M82.0406 50.4536V53.4415H82.3569C82.8564 53.4732 83.3561 53.3829 83.8131 53.1785C84.0197 53.0597 84.189 52.8854 84.3018 52.6752C84.4147 52.4651 84.4666 52.2275 84.4516 51.9894C84.4799 51.7365 84.4341 51.4809 84.3196 51.2538C84.2051 51.0267 84.027 50.8379 83.8071 50.7106C83.3346 50.5255 82.8275 50.446 82.3211 50.4775L82.0406 50.4536ZM82.0406 54.2841V57.9651H81.1097V49.5991H82.3032C84.3442 49.5991 85.3647 50.364 85.3647 51.9057C85.3855 52.4922 85.1828 53.0648 84.7978 53.5072C84.6015 53.721 84.3649 53.8939 84.1017 54.016C83.8385 54.138 83.5538 54.2068 83.264 54.2183L85.9376 57.9651H84.8037L82.2734 54.2841H82.0406Z" fill="black"/>
<path d="M151.374 50.4536V53.4415H151.667C152.164 53.4719 152.662 53.3817 153.117 53.1785C153.329 53.0637 153.505 52.8911 153.623 52.6807C153.741 52.4702 153.797 52.2306 153.785 51.9894C153.814 51.7365 153.768 51.4809 153.653 51.2538C153.539 51.0267 153.361 50.8379 153.141 50.7106C152.668 50.5255 152.161 50.446 151.655 50.4775L151.374 50.4536ZM151.374 54.2841V57.9651H150.443V49.5991H151.637C153.678 49.5991 154.698 50.364 154.698 51.9057C154.719 52.4922 154.517 53.0648 154.132 53.5072C153.935 53.721 153.699 53.8939 153.436 54.016C153.172 54.138 152.888 54.2068 152.598 54.2183L155.283 57.9651H154.138L151.583 54.2841H151.374Z" fill="black"/>
<path d="M200 0.0180623L181.172 24.2976V42.6014H174.768V24.2976L155.946 0.0180623H163.34L177.973 18.9911L192.606 0.0180623H200Z" fill="black"/>
</svg>
