<svg width="45" height="45" viewBox="0 0 45 45" fill="none" xmlns="http://www.w3.org/2000/svg">
<circle cx="22.9396" cy="22.9396" r="11.55" fill="black"/>
<path fill-rule="evenodd" clip-rule="evenodd" d="M19.0502 19.0506C18.8354 19.2654 18.8354 19.6136 19.0502 19.8284L22.1615 22.9397L19.0502 26.051C18.8354 26.2658 18.8354 26.614 19.0502 26.8288C19.265 27.0436 19.6133 27.0436 19.828 26.8288L22.9393 23.7175L26.0506 26.8288C26.2654 27.0436 26.6136 27.0436 26.8284 26.8288C27.0432 26.614 27.0432 26.2658 26.8284 26.051L23.7171 22.9397L26.8284 19.8284C27.0432 19.6136 27.0432 19.2654 26.8284 19.0506C26.6136 18.8358 26.2654 18.8358 26.0506 19.0506L22.9393 22.1619L19.828 19.0506C19.6132 18.8358 19.265 18.8358 19.0502 19.0506Z" fill="white"/>
</svg>
