<svg width="80" height="80" viewBox="0 0 80 80" fill="none" xmlns="http://www.w3.org/2000/svg">
<circle opacity="0.1" cx="40" cy="40" r="40" fill="white"/>
<circle opacity="0.2" cx="40" cy="40" r="35" fill="white"/>
<circle opacity="0.5" cx="40" cy="40" r="30" fill="white"/>
<circle cx="40" cy="40" r="24" fill="white"/>
<circle cx="40" cy="40" r="20.5" stroke="black"/>
<path fill-rule="evenodd" clip-rule="evenodd" d="M32.929 32.9289C32.5385 33.3195 32.5385 33.9526 32.929 34.3431L38.5858 40L32.929 45.6569C32.5385 46.0474 32.5385 46.6805 32.929 47.0711C33.3195 47.4616 33.9527 47.4616 34.3432 47.0711L40 41.4142L45.6569 47.0711C46.0474 47.4616 46.6806 47.4616 47.0711 47.0711C47.4616 46.6805 47.4616 46.0474 47.0711 45.6569L41.4143 40L47.0711 34.3431C47.4616 33.9526 47.4616 33.3195 47.0711 32.9289C46.6806 32.5384 46.0474 32.5384 45.6569 32.9289L40 38.5858L34.3432 32.9289C33.9527 32.5384 33.3195 32.5384 32.929 32.9289Z" fill="black"/>
</svg>
