<svg width="265" height="81" viewBox="0 0 265 81" fill="none" xmlns="http://www.w3.org/2000/svg">
<path fill-rule="evenodd" clip-rule="evenodd" d="M220.137 55.2212L229.192 55.7338C229.783 55.7469 230.107 55.625 230.271 55.3022C230.426 54.9983 230.314 54.5595 229.82 54.3088L208.17 43.3179C206.765 42.6044 206.306 41.2491 206.952 39.9766C207.55 38.7992 208.934 38.3314 210.339 39.0448L224.925 46.4492C225.684 46.8349 226.257 46.6479 226.508 46.1541C226.739 45.6983 226.562 45.1066 225.802 44.721L221.491 42.5325C220.864 42.2143 220.715 41.6609 221.091 40.9203C221.92 39.287 223.62 38.5258 225.824 39.6442L227.856 40.6758C228.615 41.0615 229.198 40.8555 229.448 40.3617C229.68 39.9059 229.493 39.3332 228.733 38.9476L226.53 37.8292C225.884 37.5014 225.735 36.9957 226.13 36.217C226.988 34.5268 228.926 33.91 230.882 34.903L231.945 35.4429C232.705 35.8285 233.278 35.6415 233.528 35.1478C233.76 34.692 233.582 34.1003 232.823 33.7147L231.208 32.8952C230.81 32.6927 230.707 32.3778 230.919 31.9599C231.835 30.1558 234.686 29.5731 238.029 31.2699L241.675 33.121C250.449 37.5753 253.262 44.9268 249.193 52.9412C246.089 59.0565 240.888 62.1966 231.322 61.138L219.87 59.8869C218.214 59.7149 217.383 58.4811 217.495 57.3197C217.607 56.1107 218.575 55.145 220.137 55.2212ZM216.41 57.2172C216.491 56.349 216.884 55.5366 217.567 54.9572C218.254 54.3741 219.167 54.0821 220.19 54.1321L220.199 54.1325L220.199 54.1325L227.925 54.5698L207.676 44.2902C206.766 43.8281 206.082 43.1136 205.765 42.2234C205.445 41.328 205.534 40.3603 205.98 39.483C206.878 37.7138 208.947 37.115 210.833 38.0724L220.163 42.809C220.027 42.62 219.921 42.402 219.858 42.1527C219.701 41.5331 219.864 40.9294 220.119 40.4266C220.639 39.4024 221.478 38.5703 222.613 38.2108C223.454 37.9444 224.369 37.9652 225.312 38.2592C225.121 38.0462 224.967 37.7848 224.884 37.4658C224.72 36.8316 224.905 36.2206 225.158 35.7234C225.718 34.6206 226.653 33.8349 227.792 33.5061C228.553 33.2864 229.369 33.2803 230.183 33.4824C230.018 33.3129 229.877 33.0999 229.794 32.8349C229.63 32.3128 229.764 31.8252 229.946 31.4663C230.605 30.1685 231.913 29.4136 233.426 29.2203C234.935 29.0275 236.703 29.3742 238.522 30.2976L242.169 32.1487C246.722 34.4603 249.855 37.5893 251.269 41.3085C252.69 45.0454 252.311 49.2089 250.166 53.4348C248.532 56.652 246.304 59.1645 243.162 60.7085C240.034 62.2452 236.117 62.7657 231.202 62.2219C231.202 62.2219 231.202 62.2219 231.202 62.2219L219.758 60.9716C219.757 60.9715 219.756 60.9714 219.755 60.9713C217.536 60.7393 216.239 59.0037 216.41 57.2172Z" fill="black"/>
<path fill-rule="evenodd" clip-rule="evenodd" d="M229.173 56.2334L220.113 55.7206C220.112 55.7206 220.111 55.7206 220.111 55.7205C219.442 55.6883 218.939 55.8787 218.596 56.1697C218.251 56.4625 218.038 56.8826 217.993 57.3659L217.993 57.3676C217.909 58.2417 218.525 59.2445 219.922 59.3896L219.925 59.3899L231.376 60.641C236.099 61.1636 239.688 60.6433 242.46 59.281C245.226 57.9221 247.232 55.6994 248.747 52.7149C250.731 48.808 251.015 45.1141 249.783 41.8737C248.548 38.6252 245.759 35.7552 241.449 33.5669L237.802 31.7158C236.199 30.9017 234.751 30.6544 233.627 30.798C232.505 30.9414 231.73 31.4656 231.365 32.1863C231.308 32.298 231.31 32.3484 231.311 32.3584C231.317 32.3679 231.343 32.4026 231.435 32.4493L233.049 33.2688C233.504 33.5 233.837 33.8198 234.005 34.205C234.176 34.5969 234.156 35.015 233.974 35.3741C233.787 35.7434 233.463 36.0177 233.037 36.1131C232.622 36.2058 232.169 36.1171 231.719 35.8887L230.655 35.3488C229.775 34.902 228.932 34.8323 228.233 35.0342C227.536 35.2354 226.945 35.7164 226.576 36.4434C226.403 36.7832 226.399 36.9714 226.424 37.0667C226.444 37.1449 226.509 37.2581 226.756 37.3834L228.959 38.5017C229.409 38.7303 229.745 39.0423 229.917 39.4216C230.094 39.8106 230.077 40.2271 229.894 40.588C229.707 40.9558 229.384 41.2332 228.959 41.3348C228.542 41.4345 228.084 41.3526 227.629 41.1216L225.597 40.09C224.583 39.5754 223.744 39.5208 223.093 39.727C222.441 39.9336 221.903 40.4251 221.537 41.1466C221.38 41.4562 221.372 41.6512 221.4 41.762C221.424 41.8578 221.496 41.9745 221.717 42.0866L226.028 44.2752C226.484 44.5063 226.817 44.8261 226.985 45.2114C227.156 45.6032 227.136 46.0213 226.953 46.3804C226.766 46.7497 226.442 47.024 226.016 47.1194C225.601 47.2121 225.148 47.1234 224.698 46.8951L210.113 39.4906C208.928 38.8891 207.858 39.2968 207.398 40.203C207.131 40.7286 207.104 41.2431 207.263 41.6888C207.423 42.1369 207.789 42.5637 208.396 42.872L230.046 53.863C230.736 54.2128 231.021 54.9305 230.717 55.5285C230.579 55.8014 230.362 55.9961 230.075 56.1091C229.81 56.2139 229.504 56.2408 229.181 56.2336L229.173 56.2334ZM220.137 55.2212L229.192 55.7338C229.783 55.7469 230.107 55.625 230.271 55.3022C230.426 54.9983 230.314 54.5595 229.82 54.3088L208.17 43.3179C206.765 42.6044 206.306 41.2491 206.952 39.9766C207.55 38.7992 208.934 38.3314 210.339 39.0448L224.925 46.4492C225.684 46.8349 226.257 46.6479 226.508 46.1541C226.739 45.6983 226.562 45.1066 225.802 44.721L221.491 42.5324C220.864 42.2143 220.715 41.6609 221.091 40.9203C221.92 39.287 223.62 38.5258 225.823 39.6442L227.855 40.6758C228.615 41.0615 229.197 40.8555 229.448 40.3617C229.68 39.9059 229.493 39.3332 228.733 38.9476L226.53 37.8292C225.884 37.5014 225.735 36.9957 226.13 36.217C226.988 34.5268 228.926 33.9099 230.882 34.903L231.945 35.4429C232.705 35.8285 233.277 35.6415 233.528 35.1478C233.76 34.692 233.582 34.1003 232.823 33.7147L231.208 32.8952C230.809 32.6927 230.707 32.3777 230.919 31.9599C231.835 30.1557 234.686 29.5731 238.029 31.2699L241.675 33.121C250.449 37.5752 253.262 44.9268 249.193 52.9412C246.089 59.0565 240.888 62.1966 231.322 61.138L219.87 59.8869C218.214 59.7149 217.383 58.4811 217.495 57.3197C217.607 56.1107 218.575 55.145 220.137 55.2212ZM220.2 54.1326L220.199 54.1325L220.197 54.1324L220.19 54.132C220.023 54.1239 219.858 54.1249 219.697 54.1348C218.874 54.1855 218.141 54.4695 217.567 54.9571C216.884 55.5366 216.491 56.349 216.41 57.2172C216.239 59.0037 217.536 60.7393 219.755 60.9713L219.758 60.9716L231.202 62.2219C236.116 62.7657 240.034 62.2452 243.161 60.7085C246.304 59.1645 248.532 56.652 250.166 53.4348C252.311 49.2089 252.69 45.0454 251.269 41.3085C249.855 37.5893 246.722 34.4603 242.169 32.1487L238.522 30.2976C236.703 29.3742 234.935 29.0275 233.426 29.2203C231.913 29.4136 230.605 30.1684 229.946 31.4663C229.764 31.8252 229.63 32.3128 229.794 32.8349C229.801 32.8565 229.808 32.8778 229.815 32.8987C229.9 33.1344 230.031 33.3267 230.183 33.4824C229.947 33.4238 229.711 33.3827 229.476 33.3592C228.9 33.3018 228.332 33.3501 227.792 33.5061C226.653 33.8349 225.718 34.6206 225.158 35.7234C224.905 36.2206 224.72 36.8316 224.884 37.4658C224.9 37.5275 224.919 37.587 224.94 37.6444C225.028 37.8841 225.157 38.0873 225.312 38.2592C225.069 38.1834 224.827 38.1257 224.589 38.0865C223.902 37.9735 223.237 38.0131 222.613 38.2108C221.478 38.5703 220.639 39.4024 220.119 40.4266C219.873 40.9112 219.713 41.4895 219.842 42.0853C219.847 42.1078 219.852 42.1302 219.858 42.1527C219.921 42.402 220.027 42.62 220.163 42.8089L210.833 38.0724C208.947 37.115 206.878 37.7138 205.98 39.483C205.534 40.3603 205.445 41.328 205.765 42.2234C206.082 43.1136 206.766 43.8281 207.676 44.2902L227.925 54.5698L220.2 54.1326ZM220.737 53.6621L225.572 53.9358L207.45 44.7361C206.445 44.2257 205.661 43.4209 205.294 42.3915C204.924 41.3544 205.032 40.2443 205.534 39.2567C206.571 37.2139 208.955 36.5585 211.059 37.6266L219.301 41.8106C219.264 41.2071 219.445 40.6497 219.673 40.2003C220.241 39.0813 221.174 38.1419 222.462 37.7341C223.082 37.5378 223.731 37.4817 224.391 37.5547C224.199 36.7646 224.439 36.0349 224.712 35.4971C225.332 34.2762 226.375 33.3946 227.653 33.0257C228.179 32.8738 228.726 32.8141 229.278 32.8429C229.126 32.2083 229.299 31.6369 229.5 31.24C230.252 29.7599 231.728 28.9332 233.362 28.7244C234.992 28.5161 236.862 28.894 238.749 29.8517L242.395 31.7028C247.025 34.0532 250.266 37.2636 251.737 41.1308C253.217 45.0239 252.808 49.3351 250.611 53.6612C248.941 56.9514 246.643 59.555 243.382 61.1573C240.143 62.7489 236.122 63.2694 231.147 62.7189L219.706 61.4689L219.703 61.4686C219.703 61.4686 219.703 61.4686 219.703 61.4686C217.227 61.2097 215.713 59.2444 215.912 57.1696L216.41 57.2172L215.912 57.1708C215.912 57.1704 215.912 57.17 215.912 57.1696C216.004 56.1808 216.455 55.2454 217.243 54.576C218.038 53.901 219.08 53.5773 220.215 53.6326L220.737 53.6582L220.737 53.6621Z" fill="black"/>
<circle cx="31.6802" cy="40.8701" r="20" stroke="black" stroke-width="2"/>
<path d="M31.0108 25.3182C31.4726 24.5184 32.4952 24.2444 33.295 24.7062C34.0947 25.1679 34.3687 26.1905 33.907 26.9903L24.995 42.4264L21.681 44.8701L22.0988 40.7543L31.0108 25.3182Z" fill="black"/>
<path d="M20.6802 46.5264C22.6211 45.5048 33.2599 40.2715 33.3547 42.3562C33.3838 42.9966 23.7121 52.7958 29.2474 53.2542C34.5851 53.6962 38.6374 46.8701 44.1802 46.8701" stroke="black" stroke-linecap="round"/>
<circle cx="20.6802" cy="46.8701" r="2" fill="black"/>
<circle cx="44.6802" cy="46.8701" r="2" fill="black"/>
<circle cx="66.2432" cy="40.9541" r="3" fill="black"/>
<circle cx="191.243" cy="40.9541" r="3" fill="black"/>
<path d="M67.2432 40.9541L113 41.0367" stroke="black" stroke-width="2"/>
<path d="M113 41.0439L190.243 40.9541" stroke="black" stroke-width="2" stroke-linecap="round" stroke-linejoin="round" stroke-dasharray="8 8"/>
</svg>
