<svg width="265" height="81" viewBox="0 0 265 81" fill="none" xmlns="http://www.w3.org/2000/svg">
<path d="M220.461 53.851L220.461 53.853L226.749 54.2089L207.563 44.4692C206.605 43.983 205.872 43.2233 205.529 42.2635C205.184 41.2973 205.283 40.2584 205.757 39.3259C206.724 37.4199 208.951 36.7928 210.946 37.8056L219.627 42.2124C219.623 42.1984 219.619 42.1843 219.616 42.1701C219.438 41.4703 219.625 40.8023 219.896 40.2695C220.44 39.1979 221.326 38.3121 222.537 37.9285C223.243 37.7052 223.992 37.673 224.759 37.8188C224.712 37.7142 224.673 37.6029 224.642 37.4846C224.456 36.7654 224.67 36.0879 224.935 35.5663C225.525 34.4045 226.514 33.5708 227.722 33.2219C228.338 33.0441 228.986 32.9991 229.638 33.0822C229.607 33.0137 229.579 32.9416 229.556 32.8658C229.365 32.2593 229.524 31.7018 229.723 31.3092C230.429 29.9202 231.82 29.1295 233.394 28.9284C234.964 28.7279 236.783 29.0901 238.636 30.0307L242.282 31.8818C246.874 34.2128 250.061 37.3825 251.503 41.1757C252.954 44.9907 252.559 49.2281 250.389 53.5041C248.737 56.7578 246.473 59.3158 243.272 60.8889C240.088 62.4531 236.12 62.9736 231.175 62.4265L220.461 53.851ZM220.461 53.851L220.211 53.8388L220.202 53.8384C219.124 53.7858 218.146 54.0936 217.405 54.7226C216.67 55.347 216.248 56.221 216.161 57.1495C215.976 59.0801 217.381 60.9305 219.728 61.1759C219.729 61.176 219.729 61.176 219.729 61.176L219.731 61.1762L219.732 61.1763L231.174 62.4264L231.175 62.4265L231.175 62.4265L220.461 53.851ZM229.178 55.9394L229.178 55.9396L229.187 55.9398C229.496 55.9466 229.763 55.9196 229.984 55.8326C230.215 55.7415 230.384 55.5886 230.494 55.3714C230.723 54.9205 230.525 54.3422 229.933 54.042L208.283 43.051C207.628 42.7185 207.212 42.2465 207.027 41.7289C206.843 41.2125 206.88 40.6268 207.175 40.0459C207.704 39.004 208.931 38.5663 210.226 39.2238L224.812 46.6282C225.226 46.8388 225.62 46.908 225.962 46.8315C226.31 46.7536 226.574 46.5314 226.731 46.2233C226.88 45.9298 226.896 45.5898 226.756 45.2674C226.616 44.9482 226.333 44.6661 225.915 44.4541L221.604 42.2656C221.337 42.13 221.204 41.9627 221.157 41.7794C221.109 41.5887 221.142 41.3294 221.314 40.9895C221.705 40.2204 222.29 39.6754 223.018 39.4448C223.745 39.2143 224.653 39.2863 225.71 39.8232L227.742 40.8548C228.16 41.0667 228.557 41.1301 228.901 41.0477C229.249 40.9644 229.515 40.7382 229.671 40.4309C229.821 40.1365 229.835 39.7997 229.69 39.481C229.547 39.1672 229.261 38.8914 228.846 38.6807L226.643 37.5624C226.358 37.4178 226.226 37.257 226.182 37.0855C226.135 36.9055 226.168 36.6508 226.353 36.2862C226.752 35.5002 227.397 34.9713 228.164 34.75C228.931 34.5284 229.839 34.6103 230.769 35.082L231.832 35.6219C232.247 35.8325 232.64 35.9017 232.982 35.8251C233.33 35.7473 233.595 35.5251 233.751 35.217C233.9 34.9235 233.917 34.5835 233.776 34.261C233.637 33.9419 233.353 33.6598 232.936 33.4478L231.322 32.6283C231.159 32.5459 231.095 32.4605 231.073 32.3895C231.05 32.3171 231.053 32.2037 231.142 32.0292C231.554 31.2178 232.412 30.6573 233.595 30.5061C234.78 30.3547 236.278 30.6177 237.916 31.4489L241.562 33.3C245.911 35.5077 248.753 38.4185 250.017 41.741C251.278 45.0594 250.979 48.8271 248.97 52.7841C247.437 55.8052 245.395 58.0735 242.57 59.4615C239.742 60.8512 236.102 61.3715 231.349 60.8456L231.349 60.8455L219.898 59.5945L219.896 59.5943C218.369 59.4358 217.646 58.3174 217.744 57.2997L217.744 57.2988C217.795 56.7549 218.036 56.2731 218.434 55.9352C218.831 55.5981 219.399 55.3918 220.124 55.427C220.124 55.427 220.125 55.427 220.125 55.427L229.178 55.9394Z" fill="black" stroke="black" stroke-width="0.5"/>
<circle cx="31.6802" cy="40.8262" r="20" stroke="black" stroke-width="2"/>
<path d="M31.0107 25.2743C31.4725 24.4745 32.4951 24.2005 33.2949 24.6622C34.0946 25.124 34.3686 26.1466 33.9069 26.9464L24.9949 42.3824L21.6809 44.8262L22.0987 40.7103L31.0107 25.2743Z" fill="black"/>
<path d="M20.6802 46.4824C22.6211 45.4609 33.2599 40.2276 33.3547 42.3122C33.3838 42.9527 23.7121 52.7519 29.2474 53.2102C34.5851 53.6522 38.6374 46.8262 44.1802 46.8262" stroke="black" stroke-linecap="round"/>
<circle cx="20.6802" cy="46.8262" r="2" fill="black"/>
<circle cx="44.6802" cy="46.8262" r="2" fill="black"/>
<circle cx="66.2432" cy="40.9102" r="3" fill="black"/>
<circle cx="191.243" cy="40.9102" r="3" fill="black"/>
<path d="M67.2432 40.9102L113 40.9928" stroke="black" stroke-width="2"/>
<path d="M113 41L190.243 40.9102" stroke="black" stroke-width="2" stroke-linecap="round" stroke-linejoin="round" stroke-dasharray="8 8"/>
</svg>
