<svg width="151" height="38" viewBox="0 0 151 38" fill="none" xmlns="http://www.w3.org/2000/svg">
<circle cx="35.8579" cy="19" r="3" fill="black"/>
<circle cx="110.858" cy="19" r="3" fill="black"/>
<path fill-rule="evenodd" clip-rule="evenodd" d="M136.707 1.1636C136.316 0.772761 135.683 0.773106 135.293 1.1636L122.565 13.8915C122.493 13.9639 122.434 14.0447 122.388 14.1305C122.324 14.2509 122.287 14.3813 122.276 14.5139C122.252 14.7973 122.348 15.0889 122.565 15.3057L135.293 28.0337C135.457 28.1973 135.663 28.293 135.876 28.3192C135.941 28.3271 136.007 28.3289 136.073 28.324C136.304 28.3071 136.53 28.2104 136.707 28.0337L149.435 15.3057C149.826 14.9152 149.826 14.2824 149.435 13.8915L136.707 1.1636ZM136 3.28492L124.686 14.5986L136 25.9123L147.314 14.5986L136 3.28492Z" fill="black"/>
<path fill-rule="evenodd" clip-rule="evenodd" d="M136.707 10.1636C136.316 9.77276 135.683 9.77311 135.293 10.1636L122.565 22.8915C122.493 22.9639 122.434 23.0447 122.388 23.1305C122.324 23.2509 122.287 23.3813 122.276 23.5139C122.252 23.7973 122.348 24.0889 122.565 24.3057L135.293 37.0337C135.457 37.1973 135.663 37.293 135.876 37.3192C135.941 37.3271 136.007 37.3289 136.073 37.324C136.304 37.3071 136.53 37.2104 136.707 37.0337L149.435 24.3057C149.826 23.9152 149.826 23.2824 149.435 22.8915L136.707 10.1636ZM136 12.2849L124.686 23.5986L136 34.9123L147.314 23.5986L136 12.2849Z" fill="black"/>
<path d="M4.75446 4.45425V1.45425H4.85052L4.97669 1.42074C6.11228 1.11911 6.96304 0.994056 7.80578 1.00022C8.6564 1.00643 9.54701 1.14643 10.7712 1.42868L10.8821 1.45425H10.9614V4.45425V5.45425H11.9614H13.8579V36.4543H1.85791V5.45425H3.75446H4.75446V4.45425Z" stroke="black" stroke-width="2"/>
<path d="M18.3234 22.5117L18.3253 22.5111L22.1079 21.2427V15.2161C22.1079 15.0645 22.1259 14.9172 22.1598 14.7761C22.1259 14.6349 22.1079 14.4876 22.1079 14.3361C22.1079 13.3024 22.9424 12.4561 23.9829 12.4561C25.0235 12.4561 25.8579 13.3024 25.8579 14.3361C25.8579 14.4876 25.8399 14.6349 25.806 14.7761C25.8399 14.9172 25.8579 15.0645 25.8579 15.2161V22.2561C25.8579 22.3132 25.8554 22.37 25.8503 22.4263C25.8554 22.4828 25.8579 22.5398 25.8579 22.5972V24.0161C25.8579 24.1673 25.84 24.3145 25.8061 24.4563C25.8399 24.5973 25.8579 24.7446 25.8579 24.8961V27.5361C25.8579 28.1456 25.4401 28.5208 25.2394 28.6738C25.1514 28.741 25.0577 28.8016 24.9624 28.8561C25.0577 28.9105 25.1514 28.9711 25.2394 29.0383C25.4401 29.1913 25.8579 29.5666 25.8579 30.1761V34.5761C25.8579 35.6097 25.0235 36.4561 23.9829 36.4561H18.7329C17.6924 36.4561 16.8579 35.6097 16.8579 34.5761V30.1761C16.8579 29.5666 17.2758 29.1913 17.4764 29.0383C17.5644 28.9711 17.6581 28.9106 17.7534 28.8561C17.6581 28.8016 17.5644 28.741 17.4764 28.6738C17.2758 28.5208 16.8579 28.1456 16.8579 27.5361V24.8961C16.8579 24.5145 16.9718 24.1582 17.1672 23.8612C17.1818 23.7775 17.2028 23.6938 17.2304 23.6107L18.3234 22.5117ZM18.3234 22.5117C17.8065 22.6862 17.4024 23.0933 17.2306 23.6101L18.3234 22.5117Z" stroke="black" stroke-width="2"/>
<path d="M36.3579 19H110.858" stroke="black" stroke-width="2"/>
</svg>
