<svg width="10" height="15" viewBox="0 0 10 15" fill="none" xmlns="http://www.w3.org/2000/svg">
<path d="M3.9356 10.3385C3.9356 7.39853 7.4556 6.63852 7.4556 4.45853C7.4556 3.29852 6.5956 2.71853 5.3156 2.71853C4.0556 2.71853 3.1156 3.37853 2.7156 4.55853L0.735597 3.43853C1.4956 1.47852 3.3356 0.478524 5.3756 0.478524C7.5956 0.478524 9.7556 1.79853 9.7556 4.31852C9.7556 7.35853 6.2356 8.17853 6.2356 10.3385H3.9356ZM5.0956 14.9785C4.2556 14.9785 3.5956 14.2985 3.5956 13.4785C3.5956 12.6385 4.2556 11.9785 5.0956 11.9785C5.9156 11.9785 6.5956 12.6385 6.5956 13.4785C6.5956 14.2985 5.9156 14.9785 5.0956 14.9785Z" fill="white"/>
</svg>
