<svg width="34" height="42" viewBox="0 0 34 42" fill="none" xmlns="http://www.w3.org/2000/svg">
<rect x="0.439453" y="0.667969" width="33" height="40.9551" fill="#009EE3"/>
<path fill-rule="evenodd" clip-rule="evenodd" d="M12.7391 24.2735C10.4207 27.0797 8.10719 29.6897 6.43945 31.4916C7.12424 32.7672 8.85902 36.084 10.3199 39.1455C11.3992 38.3413 14.1794 34.7248 17.1527 30.4186C19.6488 33.7506 22.1434 36.8833 24.0155 39.1455C24.3199 38.7203 25.4308 36.5942 27.4395 31.4916C25.2885 29.6678 23.1135 27.1166 21.118 24.4246C24.2225 19.515 26.7547 14.9131 26.7547 13.3772C26.7547 9.80534 23.3308 4.95787 22.1895 3.68221C20.5916 1.89629 14.4286 1.38607 11.9177 3.68221C9.31201 6.06508 7.12424 9.4883 7.12424 13.3772C7.12424 15.3721 9.56348 19.6181 12.7391 24.2735ZM21.5047 11.0811C21.0744 12.8442 19.3632 15.6092 17.1668 18.616C14.9499 15.0961 13.3345 12.0945 12.8308 11.0811C13.5155 9.80539 18.7655 8.01947 21.5047 11.0811Z" fill="white"/>
</svg>
