<?xml version="1.0" encoding="utf-8"?>
<!-- Generator: Adobe Illustrator 25.4.1, SVG Export Plug-In . SVG Version: 6.00 Build 0)  -->
<svg version="1.1" id="Слой_1" xmlns="http://www.w3.org/2000/svg" xmlns:xlink="http://www.w3.org/1999/xlink" x="0px" y="0px"
	 viewBox="0 0 162 109" style="enable-background:new 0 0 162 109;" xml:space="preserve">
<style type="text/css">
	.st0{fill:#CDCCCD;stroke:#CDCDCD;stroke-width:6;stroke-miterlimit:10;}
	.st1{fill:#494848;stroke:#484848;stroke-width:6;stroke-miterlimit:10;}
	.st2{fill:#2D2D2D;}
	.st3{fill:none;stroke:#1D1D1B;stroke-miterlimit:10;}
	.st4{fill:none;stroke:#1D1D1B;stroke-width:0.5;stroke-miterlimit:10;}
</style>
<g>
	<ellipse class="st0" cx="81.2" cy="27.1" rx="63.7" ry="22.6"/>
	<path class="st1" d="M16.5,54.2c0,0,6.1,22.8,13.3,34.3l0.2,0.4c5.1,9.3,26.1,16.3,51.2,16.3h0.1c25.1,0,46.1-7,51.2-16.3l0.2-0.4
		c7.2-11.5,13.3-34.3,13.3-34.3H16.5z"/>
	<path class="st2" d="M16.5,54.6c0,0,6.1,22.8,13.3,34.3l0.2,0.4c3.1,5.6,11.9,10.3,23.9,13.2l-0.5-0.3C39.4,91,33.1,61.2,33.1,61.2
		h96.5c0,0-6.3,29.7-20.2,40.9l-0.5,0.3c11.9-2.9,20.7-7.6,23.8-13.2l0.2-0.4c7.2-11.5,13.3-34.3,13.3-34.3H16.5z"/>
	<path class="st3" d="M16.5,54.4c0,0,6.1,22.8,13.3,34.3L30,89c5.1,9.3,26.1,16.3,51.2,16.3h0.1c25.1,0,46.1-7,51.2-16.3l0.2-0.4
		c7.2-11.5,13.3-34.3,13.3-34.3"/>
	<path class="st0" d="M158.1,38c0-14.6-34.4-26.5-76.8-26.5S4.6,23.4,4.6,38v2.2c0,14.6,34.4,26.5,76.8,26.5s76.8-11.9,76.8-26.5V38
		z"/>
	<ellipse class="st3" cx="81.2" cy="27.2" rx="63.7" ry="22.6"/>
	<ellipse class="st4" cx="81.2" cy="27.2" rx="5.8" ry="2.1"/>
	<path class="st3" d="M81.2,59.7C45.4,59.7,16,49.9,13,37.4c-0.3-1.2-0.1-2.5,0.4-3.6l4.6-9.4"/>
	<path class="st3" d="M81.2,59.7c35.8,0,65.2-9.8,68.2-22.2c0.3-1.2,0.1-2.5-0.4-3.6l-4.6-9.4"/>
	<path class="st3" d="M18.7,22.9C9.8,27.2,4.6,32.5,4.6,38.2v2.2c0,14.6,34.4,26.5,76.8,26.5s76.8-11.9,76.8-26.5v-2.2
		c0-5.7-5.3-11-14.2-15.4"/>
	<path class="st4" d="M158.1,38.1c0-14.6-34.4-26.5-76.8-26.5S4.6,23.5,4.6,38.1v2.2c0,14.6,34.4,26.5,76.8,26.5
		s76.8-11.9,76.8-26.5V38.1z"/>
</g>
</svg>
