<svg width="281" height="223" viewBox="0 0 281 223" fill="none" xmlns="http://www.w3.org/2000/svg">
<mask id="path-1-outside-1" maskUnits="userSpaceOnUse" x="0.25" y="0.0117187" width="280" height="223" fill="black">
<rect fill="white" x="0.25" y="0.0117187" width="280" height="223"/>
<path fill-rule="evenodd" clip-rule="evenodd" d="M75.75 4.51172L75.75 183.512L39.25 183.512L39.25 35.7617L2.25 35.7617L2.25 4.51172L75.75 4.51172ZM41.25 33.7617L41.25 181.512L73.75 181.512L73.75 6.51172L4.25 6.51172L4.25 33.7617L41.25 33.7617ZM105.965 181.012C102.298 179.512 99.3815 177.178 97.2148 174.012C95.2148 170.678 94.2148 166.845 94.2148 162.512C94.2148 156.345 96.1315 151.345 99.9648 147.512C103.798 143.678 108.632 141.762 114.465 141.762C120.298 141.762 125.132 143.678 128.965 147.512C132.798 151.345 134.715 156.345 134.715 162.512C134.715 165.178 134.298 168.012 133.465 171.012C132.798 173.845 131.298 178.178 128.965 184.012L116.215 219.262L95.9648 219.262L105.965 181.012ZM130.834 184.723L117.618 221.262L93.3748 221.262L103.604 182.136C100.323 180.497 97.6316 178.163 95.5642 175.141L95.5305 175.092L95.4999 175.041C93.2925 171.362 92.2148 167.165 92.2148 162.512C92.2148 155.894 94.2896 150.359 98.5506 146.098C102.789 141.859 108.146 139.762 114.465 139.762C120.784 139.762 126.14 141.859 130.379 146.098C134.64 150.359 136.715 155.894 136.715 162.512C136.715 165.375 136.269 168.377 135.403 171.509C134.696 174.492 133.155 178.919 130.834 184.723ZM158.707 149.323C167.107 154.282 177.621 156.762 190.25 156.762C207.083 156.762 220.25 151.595 229.75 141.262C238.795 131.423 243.534 117.43 243.967 99.2811C243.989 98.3685 244 97.4454 244 96.5117V96.2617C243.928 96.3453 243.856 96.4287 243.783 96.5117C243.201 97.1782 242.601 97.8269 241.984 98.458C237.155 103.392 231.244 107.243 224.25 110.012C216.25 113.012 207.25 114.512 197.25 114.512C185.75 114.512 175.417 112.345 166.25 108.012C157.083 103.512 149.917 97.1784 144.75 89.0117C139.583 80.8451 137 71.4284 137 60.7617C137 49.4284 139.833 39.5117 145.5 31.0117C151.167 22.345 158.833 15.6784 168.5 11.0117C178.167 6.34505 189 4.01172 201 4.01172C225 4.01172 243.583 11.5117 256.75 26.5117C270.083 41.5117 276.75 63.0117 276.75 91.0117C276.75 110.678 273.167 127.512 266 141.512C258.833 155.345 248.75 165.928 235.75 173.262C222.917 180.428 208 184.012 191 184.012C182 184.012 173.5 183.095 165.5 181.262C157.667 179.262 150.833 176.428 145 172.762L157 148.262C157.559 148.627 158.128 148.981 158.707 149.323ZM258.249 25.1883C244.627 9.6711 225.446 2.01172 201 2.01172C188.735 2.01172 177.599 4.39832 167.631 9.21061C157.652 14.028 149.703 20.9312 143.831 29.9101C137.925 38.7723 135 49.0818 135 60.7617C135 71.7663 137.67 81.5617 143.06 90.081C148.435 98.5777 155.89 105.154 165.369 109.807L165.382 109.814L165.395 109.82C174.863 114.296 185.494 116.512 197.25 116.512C207.45 116.512 216.693 114.982 224.952 111.884L224.969 111.878L224.986 111.871C231.511 109.289 237.156 105.781 241.897 101.34C241.167 118.134 236.55 130.91 228.278 139.908C219.231 149.748 206.645 154.762 190.25 154.762C177.022 154.762 166.35 151.986 158.094 146.588L156.2 145.349L142.413 173.498L143.936 174.455C149.972 178.25 157.005 181.157 165.005 183.2L165.029 183.206L165.053 183.211C173.213 185.081 181.864 186.012 191 186.012C208.287 186.012 223.55 182.365 236.725 175.008L236.733 175.004C250.087 167.471 260.439 156.594 267.776 142.432L267.78 142.423C275.123 128.079 278.75 110.918 278.75 91.0117C278.75 62.7184 272.014 40.6766 258.249 25.1883ZM227.695 78.9959L227.705 78.9878C233.929 73.697 237 67.0852 237 59.0117C237 51.1012 234.01 44.6592 227.958 39.5385L227.937 39.5206L227.916 39.5022C222.058 34.26 213.758 31.5117 202.75 31.5117C192.958 31.5117 185.208 34.1513 179.311 39.2718L179.3 39.2817L179.288 39.2915C173.449 44.2089 170.5 50.7935 170.5 59.2617C170.5 67.9097 173.458 74.5722 179.288 79.4819C185.168 84.4329 193.166 87.0117 203.5 87.0117C213.627 87.0117 221.625 84.2879 227.686 79.0042L227.695 78.9959ZM229 80.5117C222.5 86.1784 214 89.0117 203.5 89.0117C192.833 89.0117 184.333 86.3451 178 81.0117C171.667 75.6784 168.5 68.4284 168.5 59.2617C168.5 50.2617 171.667 43.0951 178 37.7617C184.333 32.2617 192.583 29.5117 202.75 29.5117C214.083 29.5117 222.917 32.3451 229.25 38.0117C235.75 43.5117 239 50.5117 239 59.0117C239 67.6784 235.667 74.8451 229 80.5117Z"/>
</mask>
<path fill-rule="evenodd" clip-rule="evenodd" d="M75.75 4.51172L75.75 183.512L39.25 183.512L39.25 35.7617L2.25 35.7617L2.25 4.51172L75.75 4.51172ZM41.25 33.7617L41.25 181.512L73.75 181.512L73.75 6.51172L4.25 6.51172L4.25 33.7617L41.25 33.7617ZM105.965 181.012C102.298 179.512 99.3815 177.178 97.2148 174.012C95.2148 170.678 94.2148 166.845 94.2148 162.512C94.2148 156.345 96.1315 151.345 99.9648 147.512C103.798 143.678 108.632 141.762 114.465 141.762C120.298 141.762 125.132 143.678 128.965 147.512C132.798 151.345 134.715 156.345 134.715 162.512C134.715 165.178 134.298 168.012 133.465 171.012C132.798 173.845 131.298 178.178 128.965 184.012L116.215 219.262L95.9648 219.262L105.965 181.012ZM130.834 184.723L117.618 221.262L93.3748 221.262L103.604 182.136C100.323 180.497 97.6316 178.163 95.5642 175.141L95.5305 175.092L95.4999 175.041C93.2925 171.362 92.2148 167.165 92.2148 162.512C92.2148 155.894 94.2896 150.359 98.5506 146.098C102.789 141.859 108.146 139.762 114.465 139.762C120.784 139.762 126.14 141.859 130.379 146.098C134.64 150.359 136.715 155.894 136.715 162.512C136.715 165.375 136.269 168.377 135.403 171.509C134.696 174.492 133.155 178.919 130.834 184.723ZM158.707 149.323C167.107 154.282 177.621 156.762 190.25 156.762C207.083 156.762 220.25 151.595 229.75 141.262C238.795 131.423 243.534 117.43 243.967 99.2811C243.989 98.3685 244 97.4454 244 96.5117V96.2617C243.928 96.3453 243.856 96.4287 243.783 96.5117C243.201 97.1782 242.601 97.8269 241.984 98.458C237.155 103.392 231.244 107.243 224.25 110.012C216.25 113.012 207.25 114.512 197.25 114.512C185.75 114.512 175.417 112.345 166.25 108.012C157.083 103.512 149.917 97.1784 144.75 89.0117C139.583 80.8451 137 71.4284 137 60.7617C137 49.4284 139.833 39.5117 145.5 31.0117C151.167 22.345 158.833 15.6784 168.5 11.0117C178.167 6.34505 189 4.01172 201 4.01172C225 4.01172 243.583 11.5117 256.75 26.5117C270.083 41.5117 276.75 63.0117 276.75 91.0117C276.75 110.678 273.167 127.512 266 141.512C258.833 155.345 248.75 165.928 235.75 173.262C222.917 180.428 208 184.012 191 184.012C182 184.012 173.5 183.095 165.5 181.262C157.667 179.262 150.833 176.428 145 172.762L157 148.262C157.559 148.627 158.128 148.981 158.707 149.323ZM258.249 25.1883C244.627 9.6711 225.446 2.01172 201 2.01172C188.735 2.01172 177.599 4.39832 167.631 9.21061C157.652 14.028 149.703 20.9312 143.831 29.9101C137.925 38.7723 135 49.0818 135 60.7617C135 71.7663 137.67 81.5617 143.06 90.081C148.435 98.5777 155.89 105.154 165.369 109.807L165.382 109.814L165.395 109.82C174.863 114.296 185.494 116.512 197.25 116.512C207.45 116.512 216.693 114.982 224.952 111.884L224.969 111.878L224.986 111.871C231.511 109.289 237.156 105.781 241.897 101.34C241.167 118.134 236.55 130.91 228.278 139.908C219.231 149.748 206.645 154.762 190.25 154.762C177.022 154.762 166.35 151.986 158.094 146.588L156.2 145.349L142.413 173.498L143.936 174.455C149.972 178.25 157.005 181.157 165.005 183.2L165.029 183.206L165.053 183.211C173.213 185.081 181.864 186.012 191 186.012C208.287 186.012 223.55 182.365 236.725 175.008L236.733 175.004C250.087 167.471 260.439 156.594 267.776 142.432L267.78 142.423C275.123 128.079 278.75 110.918 278.75 91.0117C278.75 62.7184 272.014 40.6766 258.249 25.1883ZM227.695 78.9959L227.705 78.9878C233.929 73.697 237 67.0852 237 59.0117C237 51.1012 234.01 44.6592 227.958 39.5385L227.937 39.5206L227.916 39.5022C222.058 34.26 213.758 31.5117 202.75 31.5117C192.958 31.5117 185.208 34.1513 179.311 39.2718L179.3 39.2817L179.288 39.2915C173.449 44.2089 170.5 50.7935 170.5 59.2617C170.5 67.9097 173.458 74.5722 179.288 79.4819C185.168 84.4329 193.166 87.0117 203.5 87.0117C213.627 87.0117 221.625 84.2879 227.686 79.0042L227.695 78.9959ZM229 80.5117C222.5 86.1784 214 89.0117 203.5 89.0117C192.833 89.0117 184.333 86.3451 178 81.0117C171.667 75.6784 168.5 68.4284 168.5 59.2617C168.5 50.2617 171.667 43.0951 178 37.7617C184.333 32.2617 192.583 29.5117 202.75 29.5117C214.083 29.5117 222.917 32.3451 229.25 38.0117C235.75 43.5117 239 50.5117 239 59.0117C239 67.6784 235.667 74.8451 229 80.5117Z" fill="#009DE0"/>
<path fill-rule="evenodd" clip-rule="evenodd" d="M75.75 4.51172L75.75 183.512L39.25 183.512L39.25 35.7617L2.25 35.7617L2.25 4.51172L75.75 4.51172ZM41.25 33.7617L41.25 181.512L73.75 181.512L73.75 6.51172L4.25 6.51172L4.25 33.7617L41.25 33.7617ZM105.965 181.012C102.298 179.512 99.3815 177.178 97.2148 174.012C95.2148 170.678 94.2148 166.845 94.2148 162.512C94.2148 156.345 96.1315 151.345 99.9648 147.512C103.798 143.678 108.632 141.762 114.465 141.762C120.298 141.762 125.132 143.678 128.965 147.512C132.798 151.345 134.715 156.345 134.715 162.512C134.715 165.178 134.298 168.012 133.465 171.012C132.798 173.845 131.298 178.178 128.965 184.012L116.215 219.262L95.9648 219.262L105.965 181.012ZM130.834 184.723L117.618 221.262L93.3748 221.262L103.604 182.136C100.323 180.497 97.6316 178.163 95.5642 175.141L95.5305 175.092L95.4999 175.041C93.2925 171.362 92.2148 167.165 92.2148 162.512C92.2148 155.894 94.2896 150.359 98.5506 146.098C102.789 141.859 108.146 139.762 114.465 139.762C120.784 139.762 126.14 141.859 130.379 146.098C134.64 150.359 136.715 155.894 136.715 162.512C136.715 165.375 136.269 168.377 135.403 171.509C134.696 174.492 133.155 178.919 130.834 184.723ZM158.707 149.323C167.107 154.282 177.621 156.762 190.25 156.762C207.083 156.762 220.25 151.595 229.75 141.262C238.795 131.423 243.534 117.43 243.967 99.2811C243.989 98.3685 244 97.4454 244 96.5117V96.2617C243.928 96.3453 243.856 96.4287 243.783 96.5117C243.201 97.1782 242.601 97.8269 241.984 98.458C237.155 103.392 231.244 107.243 224.25 110.012C216.25 113.012 207.25 114.512 197.25 114.512C185.75 114.512 175.417 112.345 166.25 108.012C157.083 103.512 149.917 97.1784 144.75 89.0117C139.583 80.8451 137 71.4284 137 60.7617C137 49.4284 139.833 39.5117 145.5 31.0117C151.167 22.345 158.833 15.6784 168.5 11.0117C178.167 6.34505 189 4.01172 201 4.01172C225 4.01172 243.583 11.5117 256.75 26.5117C270.083 41.5117 276.75 63.0117 276.75 91.0117C276.75 110.678 273.167 127.512 266 141.512C258.833 155.345 248.75 165.928 235.75 173.262C222.917 180.428 208 184.012 191 184.012C182 184.012 173.5 183.095 165.5 181.262C157.667 179.262 150.833 176.428 145 172.762L157 148.262C157.559 148.627 158.128 148.981 158.707 149.323ZM258.249 25.1883C244.627 9.6711 225.446 2.01172 201 2.01172C188.735 2.01172 177.599 4.39832 167.631 9.21061C157.652 14.028 149.703 20.9312 143.831 29.9101C137.925 38.7723 135 49.0818 135 60.7617C135 71.7663 137.67 81.5617 143.06 90.081C148.435 98.5777 155.89 105.154 165.369 109.807L165.382 109.814L165.395 109.82C174.863 114.296 185.494 116.512 197.25 116.512C207.45 116.512 216.693 114.982 224.952 111.884L224.969 111.878L224.986 111.871C231.511 109.289 237.156 105.781 241.897 101.34C241.167 118.134 236.55 130.91 228.278 139.908C219.231 149.748 206.645 154.762 190.25 154.762C177.022 154.762 166.35 151.986 158.094 146.588L156.2 145.349L142.413 173.498L143.936 174.455C149.972 178.25 157.005 181.157 165.005 183.2L165.029 183.206L165.053 183.211C173.213 185.081 181.864 186.012 191 186.012C208.287 186.012 223.55 182.365 236.725 175.008L236.733 175.004C250.087 167.471 260.439 156.594 267.776 142.432L267.78 142.423C275.123 128.079 278.75 110.918 278.75 91.0117C278.75 62.7184 272.014 40.6766 258.249 25.1883ZM227.695 78.9959L227.705 78.9878C233.929 73.697 237 67.0852 237 59.0117C237 51.1012 234.01 44.6592 227.958 39.5385L227.937 39.5206L227.916 39.5022C222.058 34.26 213.758 31.5117 202.75 31.5117C192.958 31.5117 185.208 34.1513 179.311 39.2718L179.3 39.2817L179.288 39.2915C173.449 44.2089 170.5 50.7935 170.5 59.2617C170.5 67.9097 173.458 74.5722 179.288 79.4819C185.168 84.4329 193.166 87.0117 203.5 87.0117C213.627 87.0117 221.625 84.2879 227.686 79.0042L227.695 78.9959ZM229 80.5117C222.5 86.1784 214 89.0117 203.5 89.0117C192.833 89.0117 184.333 86.3451 178 81.0117C171.667 75.6784 168.5 68.4284 168.5 59.2617C168.5 50.2617 171.667 43.0951 178 37.7617C184.333 32.2617 192.583 29.5117 202.75 29.5117C214.083 29.5117 222.917 32.3451 229.25 38.0117C235.75 43.5117 239 50.5117 239 59.0117C239 67.6784 235.667 74.8451 229 80.5117Z" stroke="#009DE0" stroke-width="3" mask="url(#path-1-outside-1)"/>
</svg>
