<?xml version="1.0" standalone="no"?>
<!DOCTYPE svg PUBLIC "-//W3C//DTD SVG 20010904//EN"
 "http://www.w3.org/TR/2001/REC-SVG-20010904/DTD/svg10.dtd">
<svg version="1.0" xmlns="http://www.w3.org/2000/svg"
 width="256.000000pt" height="256.000000pt" viewBox="0 0 256.000000 256.000000"
 preserveAspectRatio="xMidYMid meet">
<metadata>
Created by potrace 1.14, written by Peter Selinger 2001-2017
</metadata>
<g transform="translate(0.000000,256.000000) scale(0.100000,-0.100000)"
fill="#000000" stroke="none">
<path d="M1085 2545 c-78 -14 -189 -41 -220 -54 -11 -5 -56 -23 -100 -42 -44
-18 -82 -36 -85 -39 -3 -4 -13 -10 -23 -13 -21 -8 -158 -100 -196 -132 -235
-197 -391 -475 -448 -795 -3 -19 -7 -100 -8 -180 -3 -213 38 -397 133 -585
175 -349 507 -602 896 -681 121 -25 382 -25 496 1 14 3 38 8 54 11 16 2 33 7
38 10 4 3 16 7 25 9 69 15 235 90 317 143 244 159 424 384 520 650 23 64 38
124 62 237 3 17 8 93 10 170 3 139 -13 269 -47 380 -7 22 -13 42 -14 45 -11
52 -86 210 -140 294 -41 64 -134 178 -174 214 -14 13 -42 38 -61 56 -19 17
-53 45 -75 61 -22 17 -42 32 -45 35 -27 28 -216 119 -313 152 -184 62 -428 83
-602 53z"/>
</g>
</svg>
