<svg width="520" height="782" viewBox="0 0 520 782" fill="none" xmlns="http://www.w3.org/2000/svg">
<mask id="mask0_813_9248" style="mask-type:alpha" maskUnits="userSpaceOnUse" x="0" y="0" width="520" height="782">
<path fill-rule="evenodd" clip-rule="evenodd" d="M520 0H0V782H520V0ZM98 629.5V707C98 707 99 708.5 103 710C107 711.5 112.5 712.5 112.5 712.5L123 714L148 716.5L183.5 718.5L219 719.5C219 719.5 253 720 262 720C271 720 302.5 719 302.5 719C302.5 719 323.5 718.5 337 718C350.5 717.5 382.5 715.5 382.5 715.5C382.5 715.5 407 713.111 412.5 712.5C418 711.889 428.5 710.7 434.5 709.5C440.5 708.3 444.5 707 446 706.5C447.5 706 450 705 450.5 704.5C451 704 451.5 703 451.5 703V626.5L450 625L438.5 622.5L421.5 619.5H406V469V464L405 133V82H400.5C394.26 83.9198 379.728 84.4752 367.517 84.9419C367.007 84.9614 366.501 84.9807 366 85C356.885 85.3506 313.957 85.1682 288.618 85.0605C280.622 85.0265 274.378 85 271.5 85C259.5 85 189.5 82 181.5 81.5C174.711 81.0757 165.402 80.2913 159.072 79.758C157.943 79.6628 156.908 79.5757 156 79.5C150 79 127.7 75.8 126.5 75C125.3 74.2 124.167 72.8333 124 72H118V467V473V623.5L104.5 626.5C103.667 626.667 101.7 627.1 100.5 627.5C99.3 627.9 98.3333 629 98 629.5Z" fill="white"/>
</mask>
<g mask="url(#mask0_813_9248)">
<g filter="url(#filter0_f_813_9248)">
<path d="M98 707V629.5C98.3333 629 99.3 627.9 100.5 627.5C101.7 627.1 103.667 626.667 104.5 626.5L118 623.5V473V467V72H124C124.167 72.8333 125.3 74.2 126.5 75C127.7 75.8 150 79 156 79.5C162 80 173.5 81 181.5 81.5C189.5 82 259.5 85 271.5 85C283.5 85 354.009 85.4612 366 85C378.5 84.5192 394 84 400.5 82H405V133L406 464V469V619.5H421.5L438.5 622.5L450 625L451.5 626.5V703C451.5 703 451 704 450.5 704.5C450 705 447.5 706 446 706.5C444.5 707 440.5 708.3 434.5 709.5C428.5 710.7 418 711.889 412.5 712.5C407 713.111 382.5 715.5 382.5 715.5C382.5 715.5 350.5 717.5 337 718C323.5 718.5 302.5 719 302.5 719C302.5 719 271 720 262 720C253 720 219 719.5 219 719.5L183.5 718.5L148 716.5L123 714L112.5 712.5C112.5 712.5 107 711.5 103 710C99 708.5 98 707 98 707Z" stroke="white" stroke-width="27"/>
</g>
</g>
<defs>
<filter id="filter0_f_813_9248" x="46.5" y="20.5" width="456.5" height="751" filterUnits="userSpaceOnUse" color-interpolation-filters="sRGB">
<feFlood flood-opacity="0" result="BackgroundImageFix"/>
<feBlend mode="normal" in="SourceGraphic" in2="BackgroundImageFix" result="shape"/>
<feGaussianBlur stdDeviation="19" result="effect1_foregroundBlur_813_9248"/>
</filter>
</defs>
</svg>
