<svg width="69" height="79" viewBox="0 0 69 79" fill="none" xmlns="http://www.w3.org/2000/svg">
<path d="M55.0337 45.4468L64.2892 55.8674L55.9205 63.3419L69 76.9814H50.212L44.8361 71.5256C36.2643 76.5085 28.302 79 20.9494 79C14.7052 79 9.64337 77.1996 5.76386 73.5988C1.92129 69.9979 0 65.3787 0 59.741C0 55.4855 1.08996 51.4664 3.26988 47.6837C5.4498 43.901 9.18153 39.991 14.4651 35.9537C9.25542 29.0067 6.6506 22.8598 6.6506 17.5131C6.6506 13.5486 8.38715 9.63858 11.8602 5.78315C15.3333 1.92772 20.2289 0 26.547 0C32.939 0 37.8345 1.90953 41.2337 5.72859C44.6699 9.54765 46.388 13.4031 46.388 17.2949C46.388 20.3501 45.5936 23.2781 44.0048 26.0787C42.453 28.8794 38.8506 33.0258 33.1976 38.518C39.8112 46.1924 44.0787 50.9754 46 52.8667C47.1823 51.9938 50.1936 49.5205 55.0337 45.4468ZM25.5494 27.77C29.6506 24.3147 31.7012 21.2594 31.7012 18.6043C31.7012 17.2221 31.2394 16.0946 30.3157 15.2217C29.392 14.3488 28.1727 13.9123 26.6578 13.9123C25.2538 13.9123 24.053 14.4033 23.0554 15.3854C22.0948 16.3674 21.6145 17.5131 21.6145 18.8225C21.6145 21.4413 22.9261 24.4238 25.5494 27.77ZM34.7494 60.9413C31.9044 58.177 27.8956 53.5942 22.7229 47.1927C17.2177 51.6664 14.4651 55.5764 14.4651 58.9227C14.4651 60.4866 15.204 61.9233 16.6819 63.2327C18.1968 64.5421 20.0996 65.1968 22.3904 65.1968C25.6787 65.1968 29.7984 63.7783 34.7494 60.9413Z" fill="#E2F0D9"/>
</svg>
