<svg width="267" height="264" viewBox="0 0 267 264" fill="none" xmlns="http://www.w3.org/2000/svg">
<path d="M16.8 251.516L28 256.396L28 258.444L16.8 263.34L16.8 261.084L25.44 257.356L16.8 253.596L16.8 251.516ZM16.8 249.614L16.8 247.534L28 247.534L28 249.614L16.8 249.614ZM28.16 238.601C28.16 239.731 27.9147 240.755 27.424 241.673C26.9227 242.579 26.2347 243.294 25.36 243.817C24.4853 244.329 23.4987 244.585 22.4 244.585C21.3013 244.585 20.3147 244.323 19.44 243.801C18.5653 243.278 17.8827 242.563 17.392 241.657C16.8907 240.739 16.64 239.715 16.64 238.585C16.64 237.667 16.8 236.83 17.12 236.073C17.44 235.315 17.904 234.675 18.512 234.153L19.776 235.497C18.9013 236.307 18.464 237.305 18.464 238.489C18.464 239.257 18.6347 239.945 18.976 240.553C19.3067 241.161 19.7707 241.635 20.368 241.977C20.9653 242.318 21.6427 242.489 22.4 242.489C23.1573 242.489 23.8347 242.318 24.432 241.977C25.0293 241.635 25.4987 241.161 25.84 240.553C26.1707 239.945 26.336 239.257 26.336 238.489C26.336 237.305 25.8933 236.307 25.008 235.497L26.288 234.153C26.896 234.675 27.36 235.321 27.68 236.089C28 236.846 28.16 237.683 28.16 238.601ZM16.8 221.488L28 221.488L28 223.568L23.2 223.568L23.2 229.36L28 229.36L28 231.44L16.8 231.44L16.8 229.36L21.424 229.36L21.424 223.568L16.8 223.568L16.8 221.488ZM24.048 212.935L28 212.935L28 215.015L24.08 215.015L16.8 219.415L16.8 217.191L22.256 213.911L16.8 210.599L16.8 208.551L24.048 212.935ZM16.8 201.327L16.8 199.247L26.24 199.247L26.24 193.391L28 193.391L28 201.327L16.8 201.327ZM25.408 183.686L25.408 189.286L28 190.39L28 192.534L16.8 187.494L16.8 185.446L28 180.39L28 182.566L25.408 183.686ZM23.776 184.374L18.88 186.486L23.776 188.582L23.776 184.374ZM22.176 170.31C22.3787 169.691 22.72 169.201 23.2 168.838C23.6693 168.475 24.256 168.294 24.96 168.294C25.9307 168.294 26.6827 168.667 27.216 169.414C27.7387 170.161 28 171.249 28 172.678L28 178.246L16.8 178.246L16.8 172.998C16.8 171.675 17.0613 170.657 17.584 169.942C18.096 169.227 18.8053 168.87 19.712 168.87C20.2667 168.87 20.7573 168.998 21.184 169.254C21.6107 169.51 21.9413 169.862 22.176 170.31ZM18.432 176.166L21.52 176.166L21.52 173.222C21.52 172.497 21.392 171.942 21.136 171.558C20.8693 171.163 20.4853 170.966 19.984 170.966C19.472 170.966 19.088 171.163 18.832 171.558C18.5653 171.942 18.432 172.497 18.432 173.222L18.432 176.166ZM26.368 172.806C26.368 171.195 25.8293 170.39 24.752 170.39C23.6747 170.39 23.136 171.195 23.136 172.806L23.136 176.166L26.368 176.166L26.368 172.806ZM28.16 160.122C28.16 161.263 27.9147 162.293 27.424 163.21C26.9227 164.127 26.2347 164.847 25.36 165.37C24.4747 165.893 23.488 166.154 22.4 166.154C21.312 166.154 20.3307 165.893 19.456 165.37C18.5707 164.847 17.8827 164.127 17.392 163.21C16.8907 162.293 16.64 161.263 16.64 160.122C16.64 158.981 16.8907 157.951 17.392 157.034C17.8827 156.117 18.5653 155.397 19.44 154.874C20.3147 154.351 21.3013 154.09 22.4 154.09C23.4987 154.09 24.4853 154.351 25.36 154.874C26.2347 155.397 26.9227 156.117 27.424 157.034C27.9147 157.951 28.16 158.981 28.16 160.122ZM26.336 160.122C26.336 159.375 26.1707 158.703 25.84 158.106C25.4987 157.509 25.0293 157.039 24.432 156.698C23.824 156.357 23.1467 156.186 22.4 156.186C21.6533 156.186 20.9813 156.357 20.384 156.698C19.776 157.039 19.3067 157.509 18.976 158.106C18.6347 158.703 18.464 159.375 18.464 160.122C18.464 160.869 18.6347 161.541 18.976 162.138C19.3067 162.735 19.776 163.205 20.384 163.546C20.9813 163.887 21.6533 164.058 22.4 164.058C23.1467 164.058 23.824 163.887 24.432 163.546C25.0293 163.205 25.4987 162.735 25.84 162.138C26.1707 161.541 26.336 160.869 26.336 160.122ZM28 143.837L24.72 146.125C24.7307 146.221 24.736 146.365 24.736 146.557L24.736 149.085L28 149.085L28 151.165L16.8 151.165L16.8 146.557C16.8 145.587 16.96 144.744 17.28 144.029C17.6 143.304 18.0587 142.749 18.656 142.365C19.2533 141.981 19.9627 141.789 20.784 141.789C21.6267 141.789 22.352 141.997 22.96 142.413C23.568 142.819 24.0213 143.405 24.32 144.173L28 141.597L28 143.837ZM20.784 143.885C20.0693 143.885 19.52 144.12 19.136 144.589C18.752 145.059 18.56 145.747 18.56 146.653L18.56 149.085L23.024 149.085L23.024 146.653C23.024 145.747 22.832 145.059 22.448 144.589C22.0533 144.12 21.4987 143.885 20.784 143.885ZM25.408 131.478L25.408 137.078L28 138.182L28 140.326L16.8 135.286L16.8 133.238L28 128.182L28 130.358L25.408 131.478ZM23.776 132.166L18.88 134.278L23.776 136.374L23.776 132.166ZM18.56 124.328L18.56 128.04L16.8 128.04L16.8 118.536L18.56 118.536L18.56 122.248L28 122.248L28 124.328L18.56 124.328ZM28.16 111.18C28.16 112.321 27.9147 113.35 27.424 114.268C26.9227 115.185 26.2347 115.905 25.36 116.428C24.4747 116.95 23.488 117.212 22.4 117.212C21.312 117.212 20.3307 116.95 19.456 116.428C18.5707 115.905 17.8827 115.185 17.392 114.268C16.8907 113.35 16.64 112.321 16.64 111.18C16.64 110.038 16.8907 109.009 17.392 108.092C17.8827 107.174 18.5653 106.454 19.44 105.932C20.3147 105.409 21.3013 105.148 22.4 105.148C23.4987 105.148 24.4853 105.409 25.36 105.932C26.2347 106.454 26.9227 107.174 27.424 108.092C27.9147 109.009 28.16 110.038 28.16 111.18ZM26.336 111.18C26.336 110.433 26.1707 109.761 25.84 109.164C25.4987 108.566 25.0293 108.097 24.432 107.756C23.824 107.414 23.1467 107.244 22.4 107.244C21.6533 107.244 20.9813 107.414 20.384 107.756C19.776 108.097 19.3067 108.566 18.976 109.164C18.6347 109.761 18.464 110.433 18.464 111.18C18.464 111.926 18.6347 112.598 18.976 113.196C19.3067 113.793 19.776 114.262 20.384 114.604C20.9813 114.945 21.6533 115.116 22.4 115.116C23.1467 115.116 23.824 114.945 24.432 114.604C25.0293 114.262 25.4987 113.793 25.84 113.196C26.1707 112.598 26.336 111.926 26.336 111.18ZM16.8 102.223L16.8 100.143L28 100.143L28 102.223L16.8 102.223ZM28 89.0654L24.72 91.3534C24.7307 91.4494 24.736 91.5934 24.736 91.7854L24.736 94.3134L28 94.3134L28 96.3934L16.8 96.3934L16.8 91.7854C16.8 90.8147 16.96 89.9721 17.28 89.2574C17.6 88.5321 18.0587 87.9774 18.656 87.5934C19.2533 87.2094 19.9627 87.0174 20.784 87.0174C21.6267 87.0174 22.352 87.2254 22.96 87.6414C23.568 88.0467 24.0213 88.6334 24.32 89.4014L28 86.8254L28 89.0654ZM20.784 89.1134C20.0693 89.1134 19.52 89.3481 19.136 89.8174C18.752 90.2867 18.56 90.9747 18.56 91.8814L18.56 94.3134L23.024 94.3134L23.024 91.8814C23.024 90.9747 22.832 90.2867 22.448 89.8174C22.0533 89.3481 21.4987 89.1134 20.784 89.1134ZM26.256 75.5703L28 75.5703L28 83.9703L16.8 83.9703L16.8 75.7943L18.544 75.7943L18.544 81.8903L21.456 81.8903L21.456 76.4823L23.168 76.4823L23.168 81.8903L26.256 81.8903L26.256 75.5703ZM28.16 69.0595C28.16 69.9235 28.0373 70.7608 27.792 71.5715C27.5467 72.3715 27.2213 73.0062 26.816 73.4755L25.2 72.7555C25.5627 72.2968 25.8613 71.7368 26.096 71.0755C26.32 70.4035 26.432 69.7315 26.432 69.0595C26.432 68.2275 26.2987 67.6088 26.032 67.2035C25.7653 66.7875 25.4133 66.5795 24.976 66.5795C24.656 66.5795 24.3947 66.6968 24.192 66.9315C23.9787 67.1555 23.8133 67.4435 23.696 67.7955C23.5787 68.1475 23.4453 68.6275 23.296 69.2355C23.0933 70.0888 22.8907 70.7822 22.688 71.3155C22.4853 71.8382 22.1707 72.2915 21.744 72.6755C21.3067 73.0488 20.72 73.2355 19.984 73.2355C19.3653 73.2355 18.8053 73.0702 18.304 72.7395C17.792 72.3982 17.3867 71.8915 17.088 71.2195C16.7893 70.5368 16.64 69.7048 16.64 68.7235C16.64 68.0408 16.7253 67.3688 16.896 66.7075C17.0667 66.0462 17.312 65.4755 17.632 64.9955L19.248 65.6515C18.96 66.1422 18.7413 66.6542 18.592 67.1875C18.4427 67.7208 18.368 68.2382 18.368 68.7395C18.368 69.5608 18.5067 70.1742 18.784 70.5795C19.0613 70.9742 19.4293 71.1715 19.888 71.1715C20.208 71.1715 20.4693 71.0595 20.672 70.8355C20.8747 70.6008 21.0347 70.3075 21.152 69.9555C21.2693 69.6035 21.4027 69.1235 21.552 68.5155C21.744 67.6835 21.9467 67.0008 22.16 66.4675C22.3627 65.9342 22.6773 65.4808 23.104 65.1075C23.5307 64.7235 24.1067 64.5315 24.832 64.5315C25.4507 64.5315 26.0107 64.7022 26.512 65.0435C27.0133 65.3742 27.4133 65.8808 27.712 66.5635C28.0107 67.2462 28.16 68.0782 28.16 69.0595Z" fill="white"/>
<path d="M78.4107 6.72651L73.5307 17.9265H71.4827L66.5867 6.72651H68.8427L72.5707 15.3665L76.3307 6.72651H78.4107ZM80.3126 6.72651L82.3926 6.72651V17.9265H80.3126V6.72651ZM91.326 18.0865C90.1953 18.0865 89.1713 17.8412 88.254 17.3505C87.3473 16.8492 86.6327 16.1612 86.11 15.2865C85.598 14.4118 85.342 13.4252 85.342 12.3265C85.342 11.2278 85.6033 10.2412 86.126 9.36651C86.6487 8.49185 87.3633 7.80918 88.27 7.31851C89.1873 6.81718 90.2113 6.56651 91.342 6.56651C92.2593 6.56651 93.0967 6.72651 93.854 7.04651C94.6113 7.36651 95.2513 7.83051 95.774 8.43851L94.43 9.70251C93.6193 8.82785 92.622 8.39051 91.438 8.39051C90.67 8.39051 89.982 8.56118 89.374 8.90251C88.766 9.23318 88.2913 9.69718 87.95 10.2945C87.6087 10.8918 87.438 11.5692 87.438 12.3265C87.438 13.0838 87.6087 13.7612 87.95 14.3585C88.2913 14.9558 88.766 15.4252 89.374 15.7665C89.982 16.0972 90.67 16.2625 91.438 16.2625C92.622 16.2625 93.6193 15.8198 94.43 14.9345L95.774 16.2145C95.2513 16.8225 94.606 17.2865 93.838 17.6065C93.0807 17.9265 92.2433 18.0865 91.326 18.0865ZM108.439 6.72651V17.9265H106.359V13.1265L100.567 13.1265V17.9265H98.487V6.72651H100.567V11.3505L106.359 11.3505V6.72651L108.439 6.72651ZM116.992 13.9745V17.9265H114.912V14.0065L110.512 6.72651H112.736L116.016 12.1825L119.328 6.72651H121.376L116.992 13.9745ZM128.6 6.72651L130.68 6.72651V16.1665H136.536V17.9265H128.6V6.72651ZM146.24 15.3345H140.64L139.536 17.9265L137.392 17.9265L142.432 6.72651H144.48L149.536 17.9265H147.36L146.24 15.3345ZM145.552 13.7025L143.44 8.80651L141.344 13.7025H145.552ZM159.617 12.1025C160.235 12.3052 160.726 12.6465 161.089 13.1265C161.451 13.5958 161.633 14.1825 161.633 14.8865C161.633 15.8572 161.259 16.6092 160.513 17.1425C159.766 17.6652 158.678 17.9265 157.249 17.9265H151.681V6.72651L156.929 6.72651C158.251 6.72651 159.27 6.98785 159.985 7.51051C160.699 8.02251 161.057 8.73185 161.057 9.63851C161.057 10.1932 160.929 10.6838 160.673 11.1105C160.417 11.5372 160.065 11.8678 159.617 12.1025ZM153.761 8.35851V11.4465H156.705C157.43 11.4465 157.985 11.3185 158.369 11.0625C158.763 10.7958 158.961 10.4118 158.961 9.91051C158.961 9.39851 158.763 9.01451 158.369 8.75851C157.985 8.49185 157.43 8.35851 156.705 8.35851H153.761ZM157.121 16.2945C158.731 16.2945 159.537 15.7558 159.537 14.6785C159.537 13.6012 158.731 13.0625 157.121 13.0625H153.761V16.2945H157.121ZM169.805 18.0865C168.663 18.0865 167.634 17.8412 166.717 17.3505C165.799 16.8492 165.079 16.1612 164.557 15.2865C164.034 14.4012 163.773 13.4145 163.773 12.3265C163.773 11.2385 164.034 10.2572 164.557 9.38251C165.079 8.49718 165.799 7.80918 166.717 7.31851C167.634 6.81718 168.663 6.56651 169.805 6.56651C170.946 6.56651 171.975 6.81718 172.893 7.31851C173.81 7.80918 174.53 8.49185 175.053 9.36651C175.575 10.2412 175.837 11.2278 175.837 12.3265C175.837 13.4252 175.575 14.4118 175.053 15.2865C174.53 16.1612 173.81 16.8492 172.893 17.3505C171.975 17.8412 170.946 18.0865 169.805 18.0865ZM169.805 16.2625C170.551 16.2625 171.223 16.0972 171.821 15.7665C172.418 15.4252 172.887 14.9558 173.229 14.3585C173.57 13.7505 173.741 13.0732 173.741 12.3265C173.741 11.5798 173.57 10.9078 173.229 10.3105C172.887 9.70251 172.418 9.23318 171.821 8.90251C171.223 8.56118 170.551 8.39051 169.805 8.39051C169.058 8.39051 168.386 8.56118 167.789 8.90251C167.191 9.23318 166.722 9.70251 166.381 10.3105C166.039 10.9078 165.869 11.5798 165.869 12.3265C165.869 13.0732 166.039 13.7505 166.381 14.3585C166.722 14.9558 167.191 15.4252 167.789 15.7665C168.386 16.0972 169.058 16.2625 169.805 16.2625ZM186.089 17.9265L183.801 14.6465C183.705 14.6572 183.561 14.6625 183.369 14.6625L180.841 14.6625V17.9265H178.761V6.72651L183.369 6.72651C184.34 6.72651 185.183 6.88651 185.897 7.20651C186.623 7.52651 187.177 7.98518 187.561 8.58251C187.945 9.17985 188.137 9.88918 188.137 10.7105C188.137 11.5532 187.929 12.2785 187.513 12.8865C187.108 13.4945 186.521 13.9478 185.753 14.2465L188.329 17.9265H186.089ZM186.041 10.7105C186.041 9.99585 185.807 9.44651 185.337 9.06251C184.868 8.67851 184.18 8.48651 183.273 8.48651H180.841V12.9505L183.273 12.9505C184.18 12.9505 184.868 12.7585 185.337 12.3745C185.807 11.9798 186.041 11.4252 186.041 10.7105ZM198.448 15.3345L192.848 15.3345L191.744 17.9265H189.6L194.64 6.72651L196.688 6.72651L201.744 17.9265H199.568L198.448 15.3345ZM197.76 13.7025L195.648 8.80651L193.552 13.7025L197.76 13.7025ZM205.598 8.48651H201.886V6.72651L211.39 6.72651V8.48651H207.678V17.9265H205.598V8.48651ZM218.747 18.0865C217.606 18.0865 216.576 17.8412 215.659 17.3505C214.742 16.8492 214.022 16.1612 213.499 15.2865C212.976 14.4012 212.715 13.4145 212.715 12.3265C212.715 11.2385 212.976 10.2572 213.499 9.38251C214.022 8.49718 214.742 7.80918 215.659 7.31851C216.576 6.81718 217.606 6.56651 218.747 6.56651C219.888 6.56651 220.918 6.81718 221.835 7.31851C222.752 7.80918 223.472 8.49185 223.995 9.36651C224.518 10.2412 224.779 11.2278 224.779 12.3265C224.779 13.4252 224.518 14.4118 223.995 15.2865C223.472 16.1612 222.752 16.8492 221.835 17.3505C220.918 17.8412 219.888 18.0865 218.747 18.0865ZM218.747 16.2625C219.494 16.2625 220.166 16.0972 220.763 15.7665C221.36 15.4252 221.83 14.9558 222.171 14.3585C222.512 13.7505 222.683 13.0732 222.683 12.3265C222.683 11.5798 222.512 10.9078 222.171 10.3105C221.83 9.70251 221.36 9.23318 220.763 8.90251C220.166 8.56118 219.494 8.39051 218.747 8.39051C218 8.39051 217.328 8.56118 216.731 8.90251C216.134 9.23318 215.664 9.70251 215.323 10.3105C214.982 10.9078 214.811 11.5798 214.811 12.3265C214.811 13.0732 214.982 13.7505 215.323 14.3585C215.664 14.9558 216.134 15.4252 216.731 15.7665C217.328 16.0972 218 16.2625 218.747 16.2625ZM227.704 6.72651L229.784 6.72651V17.9265H227.704V6.72651ZM240.861 17.9265L238.573 14.6465C238.477 14.6572 238.333 14.6625 238.141 14.6625L235.613 14.6625V17.9265H233.533V6.72651L238.141 6.72651C239.112 6.72651 239.955 6.88651 240.669 7.20651C241.395 7.52651 241.949 7.98518 242.333 8.58251C242.717 9.17985 242.909 9.88918 242.909 10.7105C242.909 11.5532 242.701 12.2785 242.285 12.8865C241.88 13.4945 241.293 13.9478 240.525 14.2465L243.101 17.9265H240.861ZM240.813 10.7105C240.813 9.99585 240.579 9.44651 240.109 9.06251C239.64 8.67851 238.952 8.48651 238.045 8.48651H235.613V12.9505L238.045 12.9505C238.952 12.9505 239.64 12.7585 240.109 12.3745C240.579 11.9798 240.813 11.4252 240.813 10.7105ZM254.356 16.1825V17.9265H245.956V6.72651L254.132 6.72651V8.47051L248.036 8.47051V11.3825L253.444 11.3825V13.0945L248.036 13.0945V16.1825H254.356ZM260.867 18.0865C260.003 18.0865 259.166 17.9638 258.355 17.7185C257.555 17.4732 256.92 17.1478 256.451 16.7425L257.171 15.1265C257.63 15.4892 258.19 15.7878 258.851 16.0225C259.523 16.2465 260.195 16.3585 260.867 16.3585C261.699 16.3585 262.318 16.2252 262.723 15.9585C263.139 15.6918 263.347 15.3398 263.347 14.9025C263.347 14.5825 263.23 14.3212 262.995 14.1185C262.771 13.9052 262.483 13.7398 262.131 13.6225C261.779 13.5052 261.299 13.3718 260.691 13.2225C259.838 13.0198 259.144 12.8172 258.611 12.6145C258.088 12.4118 257.635 12.0972 257.251 11.6705C256.878 11.2332 256.691 10.6465 256.691 9.91051C256.691 9.29185 256.856 8.73185 257.187 8.23051C257.528 7.71851 258.035 7.31318 258.707 7.01451C259.39 6.71585 260.222 6.56651 261.203 6.56651C261.886 6.56651 262.558 6.65185 263.219 6.82251C263.88 6.99318 264.451 7.23851 264.931 7.55851L264.275 9.17451C263.784 8.88651 263.272 8.66785 262.739 8.51851C262.206 8.36918 261.688 8.29451 261.187 8.29451C260.366 8.29451 259.752 8.43318 259.347 8.71051C258.952 8.98785 258.755 9.35585 258.755 9.81451C258.755 10.1345 258.867 10.3958 259.091 10.5985C259.326 10.8012 259.619 10.9612 259.971 11.0785C260.323 11.1958 260.803 11.3292 261.411 11.4785C262.243 11.6705 262.926 11.8732 263.459 12.0865C263.992 12.2892 264.446 12.6038 264.819 13.0305C265.203 13.4572 265.395 14.0332 265.395 14.7585C265.395 15.3772 265.224 15.9372 264.883 16.4385C264.552 16.9398 264.046 17.3398 263.363 17.6385C262.68 17.9372 261.848 18.0865 260.867 18.0865Z" fill="white"/>
<path d="M38.6667 0.593262L26.0099 29.9266H20.6982L8 0.593262L13.8511 0.593262L23.5201 23.2218L33.272 0.593262L38.6667 0.593262Z" fill="white"/>
</svg>
