<svg width="267" height="264" viewBox="0 0 267 264" fill="none" xmlns="http://www.w3.org/2000/svg">
<path d="M28 258.444L16.8 263.34L16.8 261.084L26.928 256.716L26.928 258.012L16.8 253.596L16.8 251.516L28 256.396L28 258.444ZM28 249.614L16.8 249.614L16.8 247.534L28 247.534L28 249.614ZM28.16 238.601C28.16 239.454 28.0213 240.249 27.744 240.985C27.456 241.71 27.056 242.345 26.544 242.889C26.0213 243.422 25.408 243.838 24.704 244.137C24 244.435 23.232 244.585 22.4 244.585C21.568 244.585 20.8 244.435 20.096 244.137C19.392 243.838 18.784 243.417 18.272 242.873C17.7493 242.329 17.3493 241.694 17.072 240.969C16.784 240.243 16.64 239.449 16.64 238.585C16.64 237.667 16.8 236.83 17.12 236.073C17.4293 235.315 17.8933 234.675 18.512 234.153L19.776 235.497C19.3387 235.902 19.0133 236.355 18.8 236.857C18.576 237.358 18.464 237.902 18.464 238.489C18.464 239.075 18.56 239.614 18.752 240.105C18.944 240.585 19.216 241.006 19.568 241.369C19.92 241.721 20.336 241.998 20.816 242.201C21.296 242.393 21.824 242.489 22.4 242.489C22.976 242.489 23.504 242.393 23.984 242.201C24.464 241.998 24.88 241.721 25.232 241.369C25.584 241.006 25.856 240.585 26.048 240.105C26.24 239.614 26.336 239.075 26.336 238.489C26.336 237.902 26.2293 237.358 26.016 236.857C25.792 236.355 25.456 235.902 25.008 235.497L26.288 234.153C26.896 234.675 27.36 235.315 27.68 236.073C28 236.83 28.16 237.673 28.16 238.601ZM16.8 223.568L16.8 221.488L28 221.488L28 223.568L16.8 223.568ZM28 229.36L28 231.44L16.8 231.44L16.8 229.36L28 229.36ZM23.2 223.408L23.2 229.536L21.424 229.536L21.424 223.408L23.2 223.408ZM28 215.014L23.568 215.014L24.848 214.55L16.8 219.414L16.8 217.19L23.28 213.286L23.28 214.534L16.8 210.598L16.8 208.55L24.848 213.414L23.568 212.934L28 212.934L28 215.014ZM28 201.326L16.8 201.326L16.8 199.246L26.24 199.246L26.24 193.39L28 193.39L28 201.326ZM28 192.597L16.8 187.557L16.8 185.509L28 180.453L28 182.629L17.904 186.965L17.904 186.133L28 190.453L28 192.597ZM25.408 190.277L23.776 189.717L23.776 183.669L25.408 183.109L25.408 190.277ZM28 178.308L16.8 178.308L16.8 173.06C16.8 171.716 17.0667 170.692 17.6 169.988C18.1227 169.284 18.8267 168.932 19.712 168.932C20.3093 168.932 20.8213 169.071 21.248 169.348C21.664 169.626 21.9893 169.999 22.224 170.468C22.448 170.927 22.56 171.428 22.56 171.972L21.984 171.684C21.984 171.055 22.1013 170.49 22.336 169.988C22.56 169.487 22.8907 169.092 23.328 168.804C23.7653 168.506 24.3093 168.356 24.96 168.356C25.92 168.356 26.6667 168.724 27.2 169.46C27.7333 170.196 28 171.29 28 172.74L28 178.308ZM26.368 176.228L26.368 172.868C26.368 172.09 26.24 171.492 25.984 171.076C25.728 170.66 25.3173 170.452 24.752 170.452C24.1973 170.452 23.792 170.66 23.536 171.076C23.2693 171.492 23.136 172.09 23.136 172.868L23.136 176.388L21.52 176.388L21.52 173.284C21.52 172.559 21.392 172.004 21.136 171.62C20.88 171.226 20.496 171.028 19.984 171.028C19.4613 171.028 19.072 171.226 18.816 171.62C18.56 172.004 18.432 172.559 18.432 173.284L18.432 176.228L26.368 176.228ZM28.16 160.168C28.16 161.043 28.016 161.848 27.728 162.584C27.44 163.32 27.04 163.96 26.528 164.504C26.0053 165.048 25.3973 165.47 24.704 165.768C24 166.067 23.232 166.216 22.4 166.216C21.568 166.216 20.8053 166.067 20.112 165.768C19.408 165.47 18.8 165.048 18.288 164.504C17.7653 163.96 17.36 163.32 17.072 162.584C16.784 161.848 16.64 161.048 16.64 160.184C16.64 159.31 16.784 158.51 17.072 157.784C17.36 157.048 17.7653 156.408 18.288 155.864C18.8 155.32 19.408 154.899 20.112 154.6C20.8053 154.302 21.568 154.152 22.4 154.152C23.232 154.152 24 154.302 24.704 154.6C25.408 154.899 26.016 155.32 26.528 155.864C27.04 156.408 27.44 157.048 27.728 157.784C28.016 158.51 28.16 159.304 28.16 160.168ZM26.336 160.184C26.336 159.619 26.24 159.096 26.048 158.616C25.856 158.136 25.584 157.72 25.232 157.368C24.8693 157.016 24.4533 156.744 23.984 156.552C23.504 156.35 22.976 156.248 22.4 156.248C21.824 156.248 21.3013 156.35 20.832 156.552C20.352 156.744 19.936 157.016 19.584 157.368C19.2213 157.72 18.944 158.136 18.752 158.616C18.56 159.096 18.464 159.619 18.464 160.184C18.464 160.75 18.56 161.272 18.752 161.752C18.944 162.222 19.2213 162.638 19.584 163C19.936 163.352 20.352 163.63 20.832 163.832C21.3013 164.024 21.824 164.12 22.4 164.12C22.9653 164.12 23.488 164.024 23.968 163.832C24.448 163.63 24.8693 163.352 25.232 163C25.584 162.648 25.856 162.232 26.048 161.752C26.24 161.272 26.336 160.75 26.336 160.184ZM28 151.228L16.8 151.228L16.8 146.62C16.8 145.628 16.96 144.78 17.28 144.076C17.6 143.361 18.0587 142.812 18.656 142.428C19.2533 142.044 19.9627 141.852 20.784 141.852C21.6053 141.852 22.3147 142.044 22.912 142.428C23.4987 142.812 23.952 143.361 24.272 144.076C24.5813 144.78 24.736 145.628 24.736 146.62L24.736 150.076L23.792 149.148L28 149.148L28 151.228ZM28 143.9L23.936 146.732L23.936 144.508L28 141.66L28 143.9ZM24.016 149.148L23.024 150.076L23.024 146.716C23.024 145.798 22.8267 145.11 22.432 144.652C22.0373 144.182 21.488 143.948 20.784 143.948C20.0693 143.948 19.52 144.182 19.136 144.652C18.752 145.11 18.56 145.798 18.56 146.716L18.56 150.076L17.536 149.148L24.016 149.148ZM28 140.389L16.8 135.349L16.8 133.301L28 128.245L28 130.421L17.904 134.757L17.904 133.925L28 138.245L28 140.389ZM25.408 138.069L23.776 137.509L23.776 131.461L25.408 130.901L25.408 138.069ZM28 124.391L18.56 124.391L18.56 128.103L16.8 128.103L16.8 118.599L18.56 118.599L18.56 122.311L28 122.311L28 124.391ZM28.16 111.226C28.16 112.101 28.016 112.906 27.728 113.642C27.44 114.378 27.04 115.018 26.528 115.562C26.0053 116.106 25.3973 116.527 24.704 116.826C24 117.125 23.232 117.274 22.4 117.274C21.568 117.274 20.8053 117.125 20.112 116.826C19.408 116.527 18.8 116.106 18.288 115.562C17.7653 115.018 17.36 114.378 17.072 113.642C16.784 112.906 16.64 112.106 16.64 111.242C16.64 110.367 16.784 109.567 17.072 108.842C17.36 108.106 17.7653 107.466 18.288 106.922C18.8 106.378 19.408 105.957 20.112 105.658C20.8053 105.359 21.568 105.21 22.4 105.21C23.232 105.21 24 105.359 24.704 105.658C25.408 105.957 26.016 106.378 26.528 106.922C27.04 107.466 27.44 108.106 27.728 108.842C28.016 109.567 28.16 110.362 28.16 111.226ZM26.336 111.242C26.336 110.677 26.24 110.154 26.048 109.674C25.856 109.194 25.584 108.778 25.232 108.426C24.8693 108.074 24.4533 107.802 23.984 107.61C23.504 107.407 22.976 107.306 22.4 107.306C21.824 107.306 21.3013 107.407 20.832 107.61C20.352 107.802 19.936 108.074 19.584 108.426C19.2213 108.778 18.944 109.194 18.752 109.674C18.56 110.154 18.464 110.677 18.464 111.242C18.464 111.807 18.56 112.33 18.752 112.81C18.944 113.279 19.2213 113.695 19.584 114.058C19.936 114.41 20.352 114.687 20.832 114.89C21.3013 115.082 21.824 115.178 22.4 115.178C22.9653 115.178 23.488 115.082 23.968 114.89C24.448 114.687 24.8693 114.41 25.232 114.058C25.584 113.706 25.856 113.29 26.048 112.81C26.24 112.33 26.336 111.807 26.336 111.242ZM28 102.285L16.8 102.285L16.8 100.205L28 100.205L28 102.285ZM28 96.4558L16.8 96.4558L16.8 91.8478C16.8 90.8558 16.96 90.0078 17.28 89.3038C17.6 88.5892 18.0587 88.0398 18.656 87.6558C19.2533 87.2718 19.9627 87.0798 20.784 87.0798C21.6053 87.0798 22.3147 87.2718 22.912 87.6558C23.4987 88.0398 23.952 88.5892 24.272 89.3038C24.5813 90.0078 24.736 90.8558 24.736 91.8478L24.736 95.3038L23.792 94.3758L28 94.3758L28 96.4558ZM28 89.1278L23.936 91.9598L23.936 89.7358L28 86.8878L28 89.1278ZM24.016 94.3758L23.024 95.3038L23.024 91.9438C23.024 91.0265 22.8267 90.3385 22.432 89.8798C22.0373 89.4105 21.488 89.1758 20.784 89.1758C20.0693 89.1758 19.52 89.4105 19.136 89.8798C18.752 90.3385 18.56 91.0265 18.56 91.9438L18.56 95.3038L17.536 94.3758L24.016 94.3758ZM21.456 82.1127L21.456 76.5447L23.168 76.5447L23.168 82.1127L21.456 82.1127ZM26.256 81.9527L26.256 75.6327L28 75.6327L28 84.0327L16.8 84.0327L16.8 75.8567L18.544 75.8567L18.544 81.9527L26.256 81.9527ZM28.16 69.1219C28.16 69.9966 28.0373 70.8339 27.792 71.6339C27.536 72.4339 27.2107 73.0686 26.816 73.5379L25.2 72.8179C25.552 72.3699 25.8453 71.8153 26.08 71.1539C26.3147 70.4926 26.432 69.8153 26.432 69.1219C26.432 68.5353 26.368 68.0606 26.24 67.6979C26.112 67.3353 25.9413 67.0686 25.728 66.8979C25.504 66.7273 25.2533 66.6419 24.976 66.6419C24.6347 66.6419 24.3627 66.7646 24.16 67.0099C23.9467 67.2553 23.7813 67.5753 23.664 67.9699C23.536 68.3539 23.4187 68.7859 23.312 69.2659C23.2053 69.7353 23.0827 70.2099 22.944 70.6899C22.7947 71.1593 22.608 71.5913 22.384 71.9859C22.1493 72.3699 21.84 72.6846 21.456 72.9299C21.072 73.1753 20.5813 73.2979 19.984 73.2979C19.376 73.2979 18.8213 73.1379 18.32 72.8179C17.808 72.4873 17.4027 71.9913 17.104 71.3299C16.7947 70.6579 16.64 69.8099 16.64 68.7859C16.64 68.1139 16.7253 67.4473 16.896 66.7859C17.0667 66.1246 17.312 65.5486 17.632 65.0579L19.248 65.7139C18.9493 66.2153 18.7307 66.7326 18.592 67.2659C18.4427 67.7993 18.368 68.3113 18.368 68.8019C18.368 69.3779 18.4373 69.8473 18.576 70.2099C18.7147 70.5619 18.896 70.8233 19.12 70.9939C19.344 71.1539 19.6 71.2339 19.888 71.2339C20.2293 71.2339 20.5067 71.1166 20.72 70.8819C20.9227 70.6366 21.0827 70.3219 21.2 69.9379C21.3173 69.5433 21.4347 69.1059 21.552 68.6259C21.6587 68.1459 21.7813 67.6713 21.92 67.2019C22.0587 66.7219 22.24 66.2899 22.464 65.9059C22.688 65.5113 22.992 65.1966 23.376 64.9619C23.76 64.7166 24.2453 64.5939 24.832 64.5939C25.4293 64.5939 25.984 64.7593 26.496 65.0899C26.9973 65.4099 27.4027 65.9059 27.712 66.5779C28.0107 67.2499 28.16 68.0979 28.16 69.1219Z" fill="black"/>
<path d="M71.4827 17.9265L66.5867 6.72651H68.8427L73.2107 16.8545H71.9147L76.3307 6.72651H78.4107L73.5307 17.9265H71.4827ZM80.3126 17.9265V6.72651L82.3926 6.72651V17.9265H80.3126ZM91.326 18.0865C90.4727 18.0865 89.678 17.9478 88.942 17.6705C88.2167 17.3825 87.582 16.9825 87.038 16.4705C86.5047 15.9478 86.0887 15.3345 85.79 14.6305C85.4913 13.9265 85.342 13.1585 85.342 12.3265C85.342 11.4945 85.4913 10.7265 85.79 10.0225C86.0887 9.31851 86.51 8.71051 87.054 8.19851C87.598 7.67585 88.2327 7.27585 88.958 6.99851C89.6833 6.71051 90.478 6.56651 91.342 6.56651C92.2593 6.56651 93.0967 6.72651 93.854 7.04651C94.6113 7.35585 95.2513 7.81985 95.774 8.43851L94.43 9.70251C94.0247 9.26518 93.5713 8.93985 93.07 8.72651C92.5687 8.50251 92.0247 8.39051 91.438 8.39051C90.8513 8.39051 90.3127 8.48651 89.822 8.67851C89.342 8.87051 88.9207 9.14251 88.558 9.49451C88.206 9.84651 87.9287 10.2625 87.726 10.7425C87.534 11.2225 87.438 11.7505 87.438 12.3265C87.438 12.9025 87.534 13.4305 87.726 13.9105C87.9287 14.3905 88.206 14.8065 88.558 15.1585C88.9207 15.5105 89.342 15.7825 89.822 15.9745C90.3127 16.1665 90.8513 16.2625 91.438 16.2625C92.0247 16.2625 92.5687 16.1558 93.07 15.9425C93.5713 15.7185 94.0247 15.3825 94.43 14.9345L95.774 16.2145C95.2513 16.8225 94.6113 17.2865 93.854 17.6065C93.0967 17.9265 92.254 18.0865 91.326 18.0865ZM106.359 6.72651L108.439 6.72651V17.9265H106.359V6.72651ZM100.567 17.9265H98.487V6.72651H100.567V17.9265ZM106.519 13.1265L100.391 13.1265V11.3505L106.519 11.3505V13.1265ZM114.912 17.9265V13.4945L115.376 14.7745L110.512 6.72651H112.736L116.64 13.2065L115.392 13.2065L119.328 6.72651H121.376L116.512 14.7745L116.992 13.4945V17.9265H114.912ZM128.6 17.9265V6.72651L130.68 6.72651V16.1665H136.536V17.9265H128.6ZM137.33 17.9265L142.37 6.72651H144.418L149.474 17.9265H147.298L142.962 7.83051H143.794L139.474 17.9265L137.33 17.9265ZM139.65 15.3345L140.21 13.7025H146.258L146.818 15.3345H139.65ZM151.618 17.9265V6.72651L156.866 6.72651C158.21 6.72651 159.234 6.99318 159.938 7.52651C160.642 8.04918 160.994 8.75318 160.994 9.63851C160.994 10.2358 160.856 10.7478 160.578 11.1745C160.301 11.5905 159.928 11.9158 159.458 12.1505C159 12.3745 158.498 12.4865 157.954 12.4865L158.242 11.9105C158.872 11.9105 159.437 12.0278 159.938 12.2625C160.44 12.4865 160.834 12.8172 161.122 13.2545C161.421 13.6918 161.57 14.2358 161.57 14.8865C161.57 15.8465 161.202 16.5932 160.466 17.1265C159.73 17.6598 158.637 17.9265 157.186 17.9265H151.618ZM153.698 16.2945H157.058C157.837 16.2945 158.434 16.1665 158.85 15.9105C159.266 15.6545 159.474 15.2438 159.474 14.6785C159.474 14.1238 159.266 13.7185 158.85 13.4625C158.434 13.1958 157.837 13.0625 157.058 13.0625H153.538V11.4465H156.642C157.368 11.4465 157.922 11.3185 158.306 11.0625C158.701 10.8065 158.898 10.4225 158.898 9.91051C158.898 9.38785 158.701 8.99851 158.306 8.74251C157.922 8.48651 157.368 8.35851 156.642 8.35851H153.698V16.2945ZM169.758 18.0865C168.883 18.0865 168.078 17.9425 167.342 17.6545C166.606 17.3665 165.966 16.9665 165.422 16.4545C164.878 15.9318 164.457 15.3238 164.158 14.6305C163.859 13.9265 163.71 13.1585 163.71 12.3265C163.71 11.4945 163.859 10.7318 164.158 10.0385C164.457 9.33451 164.878 8.72651 165.422 8.21451C165.966 7.69185 166.606 7.28651 167.342 6.99851C168.078 6.71051 168.878 6.56651 169.742 6.56651C170.617 6.56651 171.417 6.71051 172.142 6.99851C172.878 7.28651 173.518 7.69185 174.062 8.21451C174.606 8.72651 175.027 9.33451 175.326 10.0385C175.625 10.7318 175.774 11.4945 175.774 12.3265C175.774 13.1585 175.625 13.9265 175.326 14.6305C175.027 15.3345 174.606 15.9425 174.062 16.4545C173.518 16.9665 172.878 17.3665 172.142 17.6545C171.417 17.9425 170.622 18.0865 169.758 18.0865ZM169.742 16.2625C170.307 16.2625 170.83 16.1665 171.31 15.9745C171.79 15.7825 172.206 15.5105 172.558 15.1585C172.91 14.7958 173.182 14.3798 173.374 13.9105C173.577 13.4305 173.678 12.9025 173.678 12.3265C173.678 11.7505 173.577 11.2278 173.374 10.7585C173.182 10.2785 172.91 9.86251 172.558 9.51051C172.206 9.14785 171.79 8.87051 171.31 8.67851C170.83 8.48651 170.307 8.39051 169.742 8.39051C169.177 8.39051 168.654 8.48651 168.174 8.67851C167.705 8.87051 167.289 9.14785 166.926 9.51051C166.574 9.86251 166.297 10.2785 166.094 10.7585C165.902 11.2278 165.806 11.7505 165.806 12.3265C165.806 12.8918 165.902 13.4145 166.094 13.8945C166.297 14.3745 166.574 14.7958 166.926 15.1585C167.278 15.5105 167.694 15.7825 168.174 15.9745C168.654 16.1665 169.177 16.2625 169.742 16.2625ZM178.699 17.9265V6.72651L183.307 6.72651C184.299 6.72651 185.147 6.88651 185.851 7.20651C186.566 7.52651 187.115 7.98518 187.499 8.58251C187.883 9.17985 188.075 9.88918 188.075 10.7105C188.075 11.5318 187.883 12.2412 187.499 12.8385C187.115 13.4252 186.566 13.8785 185.851 14.1985C185.147 14.5078 184.299 14.6625 183.307 14.6625L179.851 14.6625L180.779 13.7185V17.9265H178.699ZM186.027 17.9265L183.195 13.8625H185.419L188.267 17.9265H186.027ZM180.779 13.9425L179.851 12.9505L183.211 12.9505C184.128 12.9505 184.816 12.7532 185.275 12.3585C185.744 11.9638 185.979 11.4145 185.979 10.7105C185.979 9.99585 185.744 9.44651 185.275 9.06251C184.816 8.67851 184.128 8.48651 183.211 8.48651H179.851L180.779 7.46251V13.9425ZM189.538 17.9265L194.578 6.72651L196.626 6.72651L201.682 17.9265H199.506L195.17 7.83051H196.002L191.682 17.9265H189.538ZM191.858 15.3345L192.418 13.7025L198.466 13.7025L199.026 15.3345L191.858 15.3345ZM205.536 17.9265V8.48651H201.824V6.72651L211.328 6.72651V8.48651H207.616V17.9265H205.536ZM218.701 18.0865C217.826 18.0865 217.021 17.9425 216.285 17.6545C215.549 17.3665 214.909 16.9665 214.365 16.4545C213.821 15.9318 213.399 15.3238 213.101 14.6305C212.802 13.9265 212.653 13.1585 212.653 12.3265C212.653 11.4945 212.802 10.7318 213.101 10.0385C213.399 9.33451 213.821 8.72651 214.365 8.21451C214.909 7.69185 215.549 7.28651 216.285 6.99851C217.021 6.71051 217.821 6.56651 218.685 6.56651C219.559 6.56651 220.359 6.71051 221.085 6.99851C221.821 7.28651 222.461 7.69185 223.005 8.21451C223.549 8.72651 223.97 9.33451 224.269 10.0385C224.567 10.7318 224.717 11.4945 224.717 12.3265C224.717 13.1585 224.567 13.9265 224.269 14.6305C223.97 15.3345 223.549 15.9425 223.005 16.4545C222.461 16.9665 221.821 17.3665 221.085 17.6545C220.359 17.9425 219.565 18.0865 218.701 18.0865ZM218.685 16.2625C219.25 16.2625 219.773 16.1665 220.253 15.9745C220.733 15.7825 221.149 15.5105 221.501 15.1585C221.853 14.7958 222.125 14.3798 222.317 13.9105C222.519 13.4305 222.621 12.9025 222.621 12.3265C222.621 11.7505 222.519 11.2278 222.317 10.7585C222.125 10.2785 221.853 9.86251 221.501 9.51051C221.149 9.14785 220.733 8.87051 220.253 8.67851C219.773 8.48651 219.25 8.39051 218.685 8.39051C218.119 8.39051 217.597 8.48651 217.117 8.67851C216.647 8.87051 216.231 9.14785 215.869 9.51051C215.517 9.86251 215.239 10.2785 215.037 10.7585C214.845 11.2278 214.749 11.7505 214.749 12.3265C214.749 12.8918 214.845 13.4145 215.037 13.8945C215.239 14.3745 215.517 14.7958 215.869 15.1585C216.221 15.5105 216.637 15.7825 217.117 15.9745C217.597 16.1665 218.119 16.2625 218.685 16.2625ZM227.641 17.9265V6.72651L229.721 6.72651V17.9265H227.641ZM233.471 17.9265V6.72651L238.079 6.72651C239.071 6.72651 239.919 6.88651 240.623 7.20651C241.337 7.52651 241.887 7.98518 242.271 8.58251C242.655 9.17985 242.847 9.88918 242.847 10.7105C242.847 11.5318 242.655 12.2412 242.271 12.8385C241.887 13.4252 241.337 13.8785 240.623 14.1985C239.919 14.5078 239.071 14.6625 238.079 14.6625L234.623 14.6625L235.551 13.7185V17.9265H233.471ZM240.799 17.9265L237.967 13.8625H240.191L243.039 17.9265H240.799ZM235.551 13.9425L234.623 12.9505L237.983 12.9505C238.9 12.9505 239.588 12.7532 240.047 12.3585C240.516 11.9638 240.751 11.4145 240.751 10.7105C240.751 9.99585 240.516 9.44651 240.047 9.06251C239.588 8.67851 238.9 8.48651 237.983 8.48651L234.623 8.48651L235.551 7.46251V13.9425ZM247.814 11.3825L253.382 11.3825V13.0945L247.814 13.0945V11.3825ZM247.974 16.1825H254.294V17.9265H245.894V6.72651L254.07 6.72651V8.47051L247.974 8.47051V16.1825ZM260.805 18.0865C259.93 18.0865 259.093 17.9638 258.293 17.7185C257.493 17.4625 256.858 17.1372 256.389 16.7425L257.109 15.1265C257.557 15.4785 258.111 15.7718 258.773 16.0065C259.434 16.2412 260.111 16.3585 260.805 16.3585C261.391 16.3585 261.866 16.2945 262.229 16.1665C262.591 16.0385 262.858 15.8678 263.029 15.6545C263.199 15.4305 263.285 15.1798 263.285 14.9025C263.285 14.5612 263.162 14.2892 262.917 14.0865C262.671 13.8732 262.351 13.7078 261.957 13.5905C261.573 13.4625 261.141 13.3452 260.661 13.2385C260.191 13.1318 259.717 13.0092 259.237 12.8705C258.767 12.7212 258.335 12.5345 257.941 12.3105C257.557 12.0758 257.242 11.7665 256.997 11.3825C256.751 10.9985 256.629 10.5078 256.629 9.91051C256.629 9.30251 256.789 8.74785 257.109 8.24651C257.439 7.73451 257.935 7.32918 258.597 7.03051C259.269 6.72118 260.117 6.56651 261.141 6.56651C261.813 6.56651 262.479 6.65185 263.141 6.82251C263.802 6.99318 264.378 7.23851 264.869 7.55851L264.213 9.17451C263.711 8.87585 263.194 8.65718 262.661 8.51851C262.127 8.36918 261.615 8.29451 261.125 8.29451C260.549 8.29451 260.079 8.36385 259.717 8.50251C259.365 8.64118 259.103 8.82251 258.933 9.04651C258.773 9.27051 258.693 9.52651 258.693 9.81451C258.693 10.1558 258.81 10.4332 259.045 10.6465C259.29 10.8492 259.605 11.0092 259.989 11.1265C260.383 11.2438 260.821 11.3612 261.301 11.4785C261.781 11.5852 262.255 11.7078 262.725 11.8465C263.205 11.9852 263.637 12.1665 264.021 12.3905C264.415 12.6145 264.73 12.9185 264.965 13.3025C265.21 13.6865 265.333 14.1718 265.333 14.7585C265.333 15.3558 265.167 15.9105 264.837 16.4225C264.517 16.9238 264.021 17.3292 263.349 17.6385C262.677 17.9372 261.829 18.0865 260.805 18.0865Z" fill="black"/>
<path d="M38.6667 0.59314L26.0099 29.9265H20.6982L8 0.59314L13.8512 0.59314L23.5201 23.2217L33.272 0.59314L38.6667 0.59314Z" fill="black"/>
</svg>
