<svg width="260" height="255" viewBox="0 0 260 255" fill="none" xmlns="http://www.w3.org/2000/svg">
<path d="M244.467 191.517L255.667 196.397L255.667 198.445L244.467 203.341L244.467 201.085L253.107 197.357L244.467 193.597L244.467 191.517ZM244.467 189.616L244.467 187.536L255.667 187.536L255.667 189.616L244.467 189.616ZM255.827 178.602C255.827 179.733 255.581 180.757 255.091 181.674C254.589 182.581 253.901 183.296 253.027 183.818C252.152 184.33 251.165 184.586 250.067 184.586C248.968 184.586 247.981 184.325 247.107 183.802C246.232 183.28 245.549 182.565 245.059 181.658C244.557 180.741 244.307 179.717 244.307 178.586C244.307 177.669 244.467 176.832 244.787 176.074C245.107 175.317 245.571 174.677 246.179 174.154L247.443 175.498C246.568 176.309 246.131 177.306 246.131 178.49C246.131 179.258 246.301 179.946 246.643 180.554C246.973 181.162 247.437 181.637 248.035 181.978C248.632 182.32 249.309 182.49 250.067 182.49C250.824 182.49 251.501 182.32 252.099 181.978C252.696 181.637 253.165 181.162 253.507 180.554C253.837 179.946 254.003 179.258 254.003 178.49C254.003 177.306 253.56 176.309 252.675 175.498L253.955 174.154C254.563 174.677 255.027 175.322 255.347 176.09C255.667 176.848 255.827 177.685 255.827 178.602ZM244.467 161.489L255.667 161.489L255.667 163.569L250.867 163.569L250.867 169.361L255.667 169.361L255.667 171.441L244.467 171.441L244.467 169.361L249.091 169.361L249.091 163.569L244.467 163.569L244.467 161.489ZM251.715 152.936L255.667 152.936L255.667 155.016L251.747 155.016L244.467 159.416L244.467 157.192L249.923 153.912L244.467 150.6L244.467 148.552L251.715 152.936ZM244.467 141.328L244.467 139.248L253.907 139.248L253.907 133.392L255.667 133.392L255.667 141.328L244.467 141.328ZM253.075 123.688L253.075 129.288L255.667 130.392L255.667 132.536L244.466 127.496L244.466 125.448L255.667 120.392L255.667 122.568L253.075 123.688ZM251.443 124.376L246.546 126.488L251.443 128.584L251.443 124.376ZM249.842 110.311C250.045 109.693 250.386 109.202 250.866 108.839C251.336 108.477 251.922 108.295 252.626 108.295C253.597 108.295 254.349 108.669 254.882 109.415C255.405 110.162 255.666 111.25 255.666 112.679L255.667 118.247L244.466 118.247L244.466 112.999C244.466 111.677 244.728 110.658 245.25 109.943C245.762 109.229 246.472 108.871 247.378 108.871C247.933 108.871 248.424 108.999 248.85 109.255C249.277 109.511 249.608 109.863 249.842 110.311ZM246.098 116.167L249.186 116.167L249.186 113.223C249.186 112.498 249.058 111.943 248.802 111.559C248.536 111.165 248.152 110.967 247.65 110.967C247.138 110.967 246.754 111.165 246.498 111.559C246.232 111.943 246.098 112.498 246.098 113.223L246.098 116.167ZM254.034 112.807C254.034 111.197 253.496 110.391 252.418 110.391C251.341 110.391 250.802 111.197 250.802 112.807L250.802 116.167L254.034 116.167L254.034 112.807ZM255.826 100.124C255.826 101.265 255.581 102.294 255.09 103.212C254.589 104.129 253.901 104.849 253.026 105.372C252.141 105.894 251.154 106.156 250.066 106.156C248.978 106.156 247.997 105.894 247.122 105.372C246.237 104.849 245.549 104.129 245.058 103.212C244.557 102.294 244.306 101.265 244.306 100.124C244.306 98.9823 244.557 97.9529 245.058 97.0356C245.549 96.1183 246.232 95.3983 247.106 94.8756C247.981 94.3529 248.968 94.0916 250.066 94.0916C251.165 94.0916 252.152 94.3529 253.026 94.8756C253.901 95.3983 254.589 96.1183 255.09 97.0356C255.581 97.9529 255.826 98.9823 255.826 100.124ZM254.002 100.124C254.002 99.3769 253.837 98.7049 253.506 98.1076C253.165 97.5103 252.696 97.0409 252.098 96.6996C251.49 96.3583 250.813 96.1876 250.066 96.1876C249.32 96.1876 248.648 96.3583 248.05 96.6996C247.442 97.0409 246.973 97.5103 246.642 98.1076C246.301 98.7049 246.13 99.3769 246.13 100.124C246.13 100.87 246.301 101.542 246.642 102.14C246.973 102.737 247.442 103.206 248.05 103.548C248.648 103.889 249.32 104.06 250.066 104.06C250.813 104.06 251.49 103.889 252.098 103.548C252.696 103.206 253.165 102.737 253.506 102.14C253.837 101.542 254.002 100.87 254.002 100.124ZM255.666 83.8389L252.386 86.1269C252.397 86.2229 252.402 86.3669 252.402 86.5589L252.402 89.0869L255.666 89.0869L255.666 91.1669L244.466 91.1669L244.466 86.5589C244.466 85.5882 244.626 84.7455 244.946 84.0309C245.266 83.3055 245.725 82.7509 246.322 82.3669C246.92 81.9829 247.629 81.7909 248.45 81.7909C249.293 81.7909 250.018 81.9989 250.626 82.4149C251.234 82.8202 251.688 83.4069 251.986 84.1749L255.666 81.5989L255.666 83.8389ZM248.45 83.8869C247.736 83.8869 247.186 84.1215 246.802 84.5909C246.418 85.0602 246.226 85.7482 246.226 86.6549L246.226 89.0869L250.69 89.0869L250.69 86.6549C250.69 85.7482 250.498 85.0602 250.114 84.5909C249.72 84.1215 249.165 83.8869 248.45 83.8869ZM253.074 71.4797L253.074 77.0797L255.666 78.1837L255.666 80.3277L244.466 75.2877L244.466 73.2397L255.666 68.1837L255.666 70.3597L253.074 71.4797ZM251.442 72.1677L246.546 74.2797L251.442 76.3757L251.442 72.1677ZM246.226 64.3298L246.226 68.0418L244.466 68.0418L244.466 58.5378L246.226 58.5378L246.226 62.2498L255.666 62.2498L255.666 64.3298L246.226 64.3298ZM255.826 51.1811C255.826 52.3224 255.581 53.3518 255.09 54.2691C254.589 55.1864 253.901 55.9064 253.026 56.4291C252.141 56.9518 251.154 57.2131 250.066 57.2131C248.978 57.2131 247.997 56.9518 247.122 56.4291C246.237 55.9064 245.549 55.1864 245.058 54.2691C244.557 53.3518 244.306 52.3224 244.306 51.1811C244.306 50.0398 244.557 49.0104 245.058 48.0931C245.549 47.1758 246.232 46.4558 247.106 45.9331C247.981 45.4104 248.968 45.1491 250.066 45.1491C251.165 45.1491 252.152 45.4104 253.026 45.9331C253.901 46.4558 254.589 47.1758 255.09 48.0931C255.581 49.0104 255.826 50.0398 255.826 51.1811ZM254.002 51.1811C254.002 50.4344 253.837 49.7624 253.506 49.1651C253.165 48.5678 252.696 48.0984 252.098 47.7571C251.49 47.4158 250.813 47.2451 250.066 47.2451C249.32 47.2451 248.648 47.4158 248.05 47.7571C247.442 48.0984 246.973 48.5678 246.642 49.1651C246.301 49.7624 246.13 50.4344 246.13 51.1811C246.13 51.9278 246.301 52.5998 246.642 53.1971C246.973 53.7944 247.442 54.2638 248.05 54.6051C248.648 54.9464 249.32 55.1171 250.066 55.1171C250.813 55.1171 251.49 54.9464 252.098 54.6051C252.696 54.2638 253.165 53.7944 253.506 53.1971C253.837 52.5998 254.002 51.9278 254.002 51.1811ZM244.466 42.2243L244.466 40.1443L255.666 40.1443L255.666 42.2243L244.466 42.2243ZM255.666 29.067L252.386 31.355C252.397 31.451 252.402 31.595 252.402 31.787L252.402 34.315L255.666 34.315L255.666 36.395L244.466 36.395L244.466 31.787C244.466 30.8163 244.626 29.9736 244.946 29.259C245.266 28.5336 245.725 27.979 246.322 27.595C246.92 27.211 247.629 27.019 248.45 27.019C249.293 27.019 250.018 27.227 250.626 27.643C251.234 28.0483 251.688 28.635 251.986 29.403L255.666 26.827L255.666 29.067ZM248.45 29.115C247.736 29.115 247.186 29.3496 246.802 29.819C246.418 30.2883 246.226 30.9763 246.226 31.883L246.226 34.315L250.69 34.315L250.69 31.883C250.69 30.9763 250.498 30.2883 250.114 29.819C249.72 29.3496 249.165 29.115 248.45 29.115ZM253.922 15.5718L255.666 15.5718L255.666 23.9718L244.466 23.9718L244.466 15.7958L246.21 15.7958L246.21 21.8918L249.122 21.8918L249.122 16.4838L250.834 16.4838L250.834 21.8918L253.922 21.8918L253.922 15.5718ZM255.826 9.06109C255.826 9.92509 255.704 10.7624 255.458 11.5731C255.213 12.3731 254.888 13.0078 254.482 13.4771L252.866 12.7571C253.229 12.2984 253.528 11.7384 253.762 11.0771C253.986 10.4051 254.098 9.73309 254.098 9.06109C254.098 8.22909 253.965 7.61043 253.698 7.20509C253.432 6.78909 253.08 6.58109 252.642 6.58109C252.322 6.58109 252.061 6.69843 251.858 6.93309C251.645 7.15709 251.48 7.44509 251.362 7.79709C251.245 8.14909 251.112 8.62909 250.962 9.23709C250.76 10.0904 250.557 10.7838 250.354 11.3171C250.152 11.8398 249.837 12.2931 249.41 12.6771C248.973 13.0504 248.386 13.2371 247.65 13.2371C247.032 13.2371 246.472 13.0718 245.97 12.7411C245.458 12.3998 245.053 11.8931 244.754 11.2211C244.456 10.5384 244.306 9.70643 244.306 8.72509C244.306 8.04243 244.392 7.37043 244.562 6.70909C244.733 6.04776 244.978 5.47709 245.298 4.99709L246.914 5.65309C246.626 6.14376 246.408 6.65576 246.258 7.18909C246.109 7.72243 246.034 8.23976 246.034 8.74109C246.034 9.56243 246.173 10.1758 246.45 10.5811C246.728 10.9758 247.096 11.1731 247.554 11.1731C247.874 11.1731 248.136 11.0611 248.338 10.8371C248.541 10.6024 248.701 10.3091 248.818 9.95709C248.936 9.60509 249.069 9.12509 249.218 8.51709C249.41 7.68509 249.613 7.00243 249.826 6.46909C250.029 5.93576 250.344 5.48243 250.77 5.10909C251.197 4.72509 251.773 4.53309 252.498 4.53309C253.117 4.53309 253.677 4.70376 254.178 5.04509C254.68 5.37576 255.08 5.88243 255.378 6.56509C255.677 7.24776 255.826 8.07976 255.826 9.06109Z" fill="black"/>
<path d="M12.4571 239.872L7.57712 251.072H5.52912L0.63312 239.872H2.88912L6.61712 248.512L10.3771 239.872H12.4571ZM14.359 239.872H16.439L16.439 251.072H14.359L14.359 239.872ZM25.3724 251.232C24.2417 251.232 23.2177 250.987 22.3004 250.496C21.3937 249.995 20.679 249.307 20.1564 248.432C19.6444 247.558 19.3884 246.571 19.3884 245.472C19.3884 244.374 19.6497 243.387 20.1724 242.512C20.695 241.638 21.4097 240.955 22.3164 240.464C23.2337 239.963 24.2577 239.712 25.3884 239.712C26.3057 239.712 27.143 239.872 27.9004 240.192C28.6577 240.512 29.2977 240.976 29.8204 241.584L28.4764 242.848C27.6657 241.974 26.6684 241.536 25.4844 241.536C24.7164 241.536 24.0284 241.707 23.4204 242.048C22.8124 242.379 22.3377 242.843 21.9964 243.44C21.655 244.038 21.4844 244.715 21.4844 245.472C21.4844 246.23 21.655 246.907 21.9964 247.504C22.3377 248.102 22.8124 248.571 23.4204 248.912C24.0284 249.243 24.7164 249.408 25.4844 249.408C26.6684 249.408 27.6657 248.966 28.4764 248.08L29.8204 249.36C29.2977 249.968 28.6524 250.432 27.8844 250.752C27.127 251.072 26.2897 251.232 25.3724 251.232ZM42.4854 239.872V251.072H40.4054V246.272H34.6134V251.072H32.5334V239.872H34.6134V244.496H40.4054V239.872H42.4854ZM51.0385 247.12V251.072H48.9585V247.152L44.5585 239.872H46.7825L50.0625 245.328L53.3745 239.872H55.4225L51.0385 247.12ZM62.6465 239.872H64.7265V249.312H70.5825V251.072H62.6465V239.872ZM80.2867 248.48H74.6867L73.5827 251.072H71.4387L76.4787 239.872H78.5267L83.5827 251.072H81.4067L80.2867 248.48ZM79.5987 246.848L77.4867 241.952L75.3907 246.848H79.5987ZM93.6631 245.248C94.2818 245.451 94.7725 245.792 95.1351 246.272C95.4978 246.742 95.6791 247.328 95.6791 248.032C95.6791 249.003 95.3058 249.755 94.5591 250.288C93.8125 250.811 92.7245 251.072 91.2951 251.072H85.7271V239.872H90.9751C92.2978 239.872 93.3165 240.134 94.0311 240.656C94.7458 241.168 95.1031 241.878 95.1031 242.784C95.1031 243.339 94.9751 243.83 94.7191 244.256C94.4631 244.683 94.1111 245.014 93.6631 245.248ZM87.8071 241.504V244.592H90.7511C91.4765 244.592 92.0311 244.464 92.4151 244.208C92.8098 243.942 93.0071 243.558 93.0071 243.056C93.0071 242.544 92.8098 242.16 92.4151 241.904C92.0311 241.638 91.4765 241.504 90.7511 241.504H87.8071ZM91.1671 249.44C92.7778 249.44 93.5831 248.902 93.5831 247.824C93.5831 246.747 92.7778 246.208 91.1671 246.208H87.8071V249.44H91.1671ZM103.851 251.232C102.71 251.232 101.68 250.987 100.763 250.496C99.8457 249.995 99.1257 249.307 98.603 248.432C98.0803 247.547 97.819 246.56 97.819 245.472C97.819 244.384 98.0803 243.403 98.603 242.528C99.1257 241.643 99.8457 240.955 100.763 240.464C101.68 239.963 102.71 239.712 103.851 239.712C104.992 239.712 106.022 239.963 106.939 240.464C107.856 240.955 108.576 241.638 109.099 242.512C109.622 243.387 109.883 244.374 109.883 245.472C109.883 246.571 109.622 247.558 109.099 248.432C108.576 249.307 107.856 249.995 106.939 250.496C106.022 250.987 104.992 251.232 103.851 251.232ZM103.851 249.408C104.598 249.408 105.27 249.243 105.867 248.912C106.464 248.571 106.934 248.102 107.275 247.504C107.616 246.896 107.787 246.219 107.787 245.472C107.787 244.726 107.616 244.054 107.275 243.456C106.934 242.848 106.464 242.379 105.867 242.048C105.27 241.707 104.598 241.536 103.851 241.536C103.104 241.536 102.432 241.707 101.835 242.048C101.238 242.379 100.768 242.848 100.427 243.456C100.086 244.054 99.915 244.726 99.915 245.472C99.915 246.219 100.086 246.896 100.427 247.504C100.768 248.102 101.238 248.571 101.835 248.912C102.432 249.243 103.104 249.408 103.851 249.408ZM120.136 251.072L117.848 247.792C117.752 247.803 117.608 247.808 117.416 247.808H114.888V251.072H112.808V239.872H117.416C118.386 239.872 119.229 240.032 119.944 240.352C120.669 240.672 121.224 241.131 121.608 241.728C121.992 242.326 122.184 243.035 122.184 243.856C122.184 244.699 121.976 245.424 121.56 246.032C121.154 246.64 120.568 247.094 119.8 247.392L122.376 251.072H120.136ZM120.088 243.856C120.088 243.142 119.853 242.592 119.384 242.208C118.914 241.824 118.226 241.632 117.32 241.632H114.888V246.096H117.32C118.226 246.096 118.914 245.904 119.384 245.52C119.853 245.126 120.088 244.571 120.088 243.856ZM132.495 248.48H126.895L125.791 251.072H123.647L128.687 239.872H130.735L135.791 251.072H133.615L132.495 248.48ZM131.807 246.848L129.695 241.952L127.599 246.848H131.807ZM139.645 241.632H135.933V239.872H145.437V241.632H141.725V251.072H139.645V241.632ZM152.793 251.232C151.652 251.232 150.623 250.987 149.705 250.496C148.788 249.995 148.068 249.307 147.545 248.432C147.023 247.547 146.761 246.56 146.761 245.472C146.761 244.384 147.023 243.403 147.545 242.528C148.068 241.643 148.788 240.955 149.705 240.464C150.623 239.963 151.652 239.712 152.793 239.712C153.935 239.712 154.964 239.963 155.881 240.464C156.799 240.955 157.519 241.638 158.041 242.512C158.564 243.387 158.825 244.374 158.825 245.472C158.825 246.571 158.564 247.558 158.041 248.432C157.519 249.307 156.799 249.995 155.881 250.496C154.964 250.987 153.935 251.232 152.793 251.232ZM152.793 249.408C153.54 249.408 154.212 249.243 154.809 248.912C155.407 248.571 155.876 248.102 156.217 247.504C156.559 246.896 156.729 246.219 156.729 245.472C156.729 244.726 156.559 244.054 156.217 243.456C155.876 242.848 155.407 242.379 154.809 242.048C154.212 241.707 153.54 241.536 152.793 241.536C152.047 241.536 151.375 241.707 150.777 242.048C150.18 242.379 149.711 242.848 149.369 243.456C149.028 244.054 148.857 244.726 148.857 245.472C148.857 246.219 149.028 246.896 149.369 247.504C149.711 248.102 150.18 248.571 150.777 248.912C151.375 249.243 152.047 249.408 152.793 249.408ZM161.75 239.872H163.83V251.072H161.75V239.872ZM174.908 251.072L172.62 247.792C172.524 247.803 172.38 247.808 172.188 247.808H169.66V251.072H167.58V239.872H172.188C173.158 239.872 174.001 240.032 174.716 240.352C175.441 240.672 175.996 241.131 176.38 241.728C176.764 242.326 176.956 243.035 176.956 243.856C176.956 244.699 176.748 245.424 176.332 246.032C175.926 246.64 175.34 247.094 174.572 247.392L177.148 251.072H174.908ZM174.86 243.856C174.86 243.142 174.625 242.592 174.156 242.208C173.686 241.824 172.998 241.632 172.092 241.632H169.66V246.096H172.092C172.998 246.096 173.686 245.904 174.156 245.52C174.625 245.126 174.86 244.571 174.86 243.856ZM188.403 249.328V251.072H180.003V239.872H188.179V241.616H182.083V244.528H187.491V246.24H182.083V249.328H188.403ZM194.914 251.232C194.05 251.232 193.212 251.11 192.402 250.864C191.602 250.619 190.967 250.294 190.498 249.888L191.218 248.272C191.676 248.635 192.236 248.934 192.898 249.168C193.57 249.392 194.242 249.504 194.914 249.504C195.746 249.504 196.364 249.371 196.77 249.104C197.186 248.838 197.394 248.486 197.394 248.048C197.394 247.728 197.276 247.467 197.042 247.264C196.818 247.051 196.53 246.886 196.178 246.768C195.826 246.651 195.346 246.518 194.738 246.368C193.884 246.166 193.191 245.963 192.658 245.76C192.135 245.558 191.682 245.243 191.298 244.816C190.924 244.379 190.738 243.792 190.738 243.056C190.738 242.438 190.903 241.878 191.234 241.376C191.575 240.864 192.082 240.459 192.754 240.16C193.436 239.862 194.268 239.712 195.25 239.712C195.932 239.712 196.604 239.798 197.266 239.968C197.927 240.139 198.498 240.384 198.977 240.704L198.322 242.32C197.831 242.032 197.319 241.814 196.786 241.664C196.252 241.515 195.735 241.44 195.234 241.44C194.412 241.44 193.799 241.579 193.394 241.856C192.999 242.134 192.802 242.502 192.802 242.96C192.802 243.28 192.914 243.542 193.138 243.744C193.372 243.947 193.666 244.107 194.018 244.224C194.37 244.342 194.85 244.475 195.458 244.624C196.29 244.816 196.972 245.019 197.506 245.232C198.039 245.435 198.492 245.75 198.866 246.176C199.25 246.603 199.442 247.179 199.442 247.904C199.442 248.523 199.271 249.083 198.93 249.584C198.599 250.086 198.092 250.486 197.41 250.784C196.727 251.083 195.895 251.232 194.914 251.232Z" fill="black"/>
<path d="M260 224.444L247.343 253.671H242.031L229.333 224.444H235.184L244.853 246.991L254.605 224.444H260Z" fill="black"/>
</svg>
