<svg width="132" height="39" viewBox="0 0 132 39" fill="none" xmlns="http://www.w3.org/2000/svg">
<path fill-rule="evenodd" clip-rule="evenodd" d="M94.4126 28.401V15.6765H78.3661V28.401H73.8011V0.0120415H78.3661V12.1787H94.4126V0.0120415H98.9736V28.401H94.4126Z" fill="white"/>
<path fill-rule="evenodd" clip-rule="evenodd" d="M25.9297 38.6434H26.6426L24.1494 32.6995L21.664 38.6434H22.3809L23.0229 37.022H25.2877L25.9297 38.6434ZM23.2395 36.4802L24.1651 34.1377L25.0907 36.4802H23.2395Z" fill="white"/>
<path fill-rule="evenodd" clip-rule="evenodd" d="M66.2466 38.6434H66.9595L64.4663 32.6995L61.9692 38.6434H62.6899L63.328 37.022H65.6046L66.2466 38.6434ZM63.5407 36.4802L64.4663 34.1377L65.384 36.4802H63.5407Z" fill="white"/>
<path d="M91.8091 33.0581V38.6434H92.522V33.0581H91.8091Z" fill="white"/>
<path d="M33.9096 0.0120415V28.401H38.4746V0.0120415H33.9096Z" fill="white"/>
<path d="M22.8447 9.1151e-05L13.821 19.2341C13.8722 19.1863 4.72649 9.1151e-05 4.72649 9.1151e-05H0L13.7856 28.401L27.5712 9.1151e-05H22.8447Z" fill="white"/>
<path d="M59.795 24.5964C53.0991 24.5964 48.1914 20.242 48.1914 14.2025C48.1914 8.163 53.0952 3.80865 59.795 3.80865C62.5823 3.78728 65.3025 4.67276 67.5543 6.33441V1.84461C65.1466 0.623046 62.4886 -0.00879746 59.795 9.25265e-05C51.0904 9.25265e-05 44.04 6.37425 44.04 14.1985C44.04 22.0228 51.0943 28.397 59.795 28.397C62.4883 28.4071 65.1462 27.7766 67.5543 26.5564V22.0706C65.3025 23.7323 62.5823 24.6178 59.795 24.5964Z" fill="white"/>
<path d="M33.4093 35.9424V38.1096H34.1065C35.0518 38.1096 35.4614 37.7112 35.4614 37.0379C35.4614 36.3647 35.0242 35.9424 34.0238 35.9424H33.4093ZM33.4093 33.5959V35.4006H33.7244C34.0347 35.4194 34.3453 35.3691 34.6343 35.2532C34.7661 35.1975 34.8762 35.0994 34.9474 34.9741C35.0186 34.8488 35.047 34.7033 35.0282 34.56C35.0423 34.4071 35.0167 34.2531 34.9538 34.1133C34.8909 33.9736 34.793 33.8529 34.6697 33.7632C34.3769 33.6412 34.0601 33.5894 33.7441 33.6118L33.4093 33.5959ZM32.8737 38.6434V33.066H33.7835C35.0177 33.066 35.6334 33.5693 35.6308 34.5759C35.6436 34.7902 35.6001 35.0041 35.5046 35.1959C35.4091 35.3876 35.2651 35.5503 35.0872 35.6675C35.4049 35.7336 35.6862 35.9186 35.875 36.1854C36.0441 36.4588 36.1215 36.7802 36.0956 37.1017C36.1093 37.3345 36.0632 37.567 35.9617 37.7764C35.8603 37.9858 35.7069 38.1651 35.5166 38.2968C35.1205 38.561 34.6511 38.6895 34.1774 38.6633L32.8737 38.6434Z" fill="white"/>
<path d="M45.0641 33.4644C44.7601 33.4584 44.4581 33.5149 44.1764 33.6307C43.8947 33.7464 43.6392 33.9189 43.4256 34.1377C43.2116 34.3499 43.0415 34.6031 42.9255 34.8825C42.8094 35.1619 42.7496 35.462 42.7496 35.7651C42.7496 36.0682 42.8094 36.3682 42.9255 36.6477C43.0415 36.9271 43.2116 37.1803 43.4256 37.3925C43.8623 37.8263 44.45 38.0694 45.0621 38.0694C45.6742 38.0694 46.2619 37.8263 46.6987 37.3925C46.9127 37.1803 47.0827 36.9271 47.1987 36.6477C47.3148 36.3682 47.3746 36.0682 47.3746 35.7651C47.3746 35.462 47.3148 35.1619 47.1987 34.8825C47.0827 34.6031 46.9127 34.3499 46.6987 34.1377C46.4853 33.9196 46.2305 33.7475 45.9495 33.6318C45.6686 33.5161 45.3674 33.4591 45.0641 33.4644ZM45.0641 32.8868C45.4492 32.8801 45.8318 32.9518 46.1891 33.0975C46.5463 33.2433 46.871 33.4602 47.1437 33.7353C47.4198 33.9962 47.64 34.3117 47.7905 34.6623C47.941 35.0128 48.0186 35.3909 48.0186 35.7731C48.0186 36.1552 47.941 36.5333 47.7905 36.8839C47.64 37.2344 47.4198 37.5499 47.1437 37.8108C46.5821 38.3476 45.8387 38.6467 45.066 38.6467C44.2934 38.6467 43.55 38.3476 42.9884 37.8108C42.7123 37.5499 42.4921 37.2344 42.3416 36.8839C42.1911 36.5333 42.1135 36.1552 42.1135 35.7731C42.1135 35.3909 42.1911 35.0128 42.3416 34.6623C42.4921 34.3117 42.7123 33.9962 42.9884 33.7353C43.2605 33.4605 43.5845 33.2438 43.9411 33.098C44.2977 32.9522 44.6795 32.8804 45.0641 32.8868Z" fill="white"/>
<path d="M82.7342 33.4644C82.4302 33.4584 82.1282 33.5149 81.8465 33.6307C81.5648 33.7464 81.3094 33.9189 81.0957 34.1377C80.8817 34.3499 80.7117 34.6031 80.5956 34.8825C80.4795 35.162 80.4198 35.462 80.4198 35.7651C80.4198 36.0682 80.4795 36.3682 80.5956 36.6477C80.7117 36.9271 80.8817 37.1803 81.0957 37.3925C81.5324 37.8263 82.1201 38.0694 82.7322 38.0694C83.3444 38.0694 83.932 37.8263 84.3688 37.3925C84.5833 37.1806 84.7537 36.9275 84.8701 36.648C84.9865 36.3685 85.0464 36.0684 85.0464 35.7651C85.0464 35.4618 84.9865 35.1617 84.8701 34.8822C84.7537 34.6027 84.5833 34.3496 84.3688 34.1377C84.1558 33.919 83.9011 33.7466 83.62 33.6308C83.339 33.5151 83.0376 33.4584 82.7342 33.4644ZM82.7342 32.8868C83.1188 32.8804 83.5006 32.9522 83.8572 33.098C84.2138 33.2438 84.5378 33.4605 84.8099 33.7353C85.086 33.9962 85.3062 34.3117 85.4566 34.6623C85.6072 35.0128 85.6848 35.3909 85.6848 35.7731C85.6848 36.1552 85.6072 36.5333 85.4566 36.8839C85.3062 37.2344 85.086 37.5499 84.8099 37.8108C84.2494 38.3482 83.5065 38.6478 82.7342 38.6478C81.9619 38.6478 81.219 38.3482 80.6585 37.8108C80.3824 37.5499 80.1623 37.2344 80.0118 36.8839C79.8613 36.5333 79.7836 36.1552 79.7836 35.7731C79.7836 35.3909 79.8613 35.0128 80.0118 34.6623C80.1623 34.3117 80.3824 33.9962 80.6585 33.7353C80.9307 33.4605 81.2546 33.2438 81.6112 33.098C81.9678 32.9522 82.3497 32.8804 82.7342 32.8868Z" fill="white"/>
<path d="M120.18 33.7473L119.691 34.066C119.606 33.8851 119.471 33.7326 119.303 33.6261C119.135 33.5196 118.94 33.4636 118.742 33.4644C118.507 33.4616 118.279 33.5483 118.104 33.7074C118.016 33.7844 117.946 33.88 117.899 33.9874C117.852 34.0949 117.83 34.2115 117.832 34.3289C117.834 34.4374 117.862 34.5437 117.913 34.6393C117.963 34.7349 118.036 34.8169 118.124 34.8787C118.299 35.0079 118.49 35.1149 118.691 35.1974L119.057 35.3607C119.396 35.4925 119.71 35.6841 119.983 35.9264C120.113 36.0559 120.215 36.2112 120.283 36.3826C120.351 36.5541 120.383 36.7379 120.377 36.9224C120.382 37.15 120.34 37.3761 120.253 37.5861C120.166 37.7961 120.036 37.9853 119.873 38.1415C119.56 38.4423 119.151 38.6185 118.72 38.6376C118.289 38.6566 117.866 38.5172 117.529 38.245C117.218 37.9782 117.008 37.6108 116.934 37.2053L117.533 37.0499C117.567 37.3298 117.697 37.589 117.899 37.7829C117.996 37.8798 118.111 37.9561 118.238 38.0074C118.364 38.0587 118.5 38.084 118.636 38.0817C118.928 38.0847 119.21 37.9734 119.424 37.771C119.533 37.675 119.62 37.5562 119.679 37.4227C119.738 37.2893 119.768 37.1444 119.766 36.9981C119.77 36.8636 119.743 36.73 119.689 36.6072C119.634 36.4844 119.553 36.3757 119.451 36.289C119.237 36.1242 119.001 35.9902 118.75 35.8906L118.415 35.7432C118.108 35.6228 117.824 35.4489 117.576 35.2293C117.46 35.1099 117.368 34.9679 117.307 34.8118C117.246 34.6557 117.217 34.4887 117.222 34.321C117.217 34.1246 117.256 33.9296 117.337 33.7509C117.417 33.5721 117.537 33.4142 117.687 33.2891C117.982 33.0256 118.364 32.8834 118.758 32.8908C119.052 32.8796 119.344 32.9554 119.596 33.1089C119.849 33.2624 120.051 33.487 120.18 33.7552V33.7473Z" fill="white"/>
<path d="M108.553 38.6434V33.0621H111.582V33.6397H109.167V35.297H111.4V35.8747H109.167V38.0658H111.582V38.6434H108.553Z" fill="white"/>
<path d="M14.4404 33.0581V38.0658H15.9607V38.6434H13.8259V33.0581H14.4404Z" fill="white"/>
<path d="M73.6003 33.6357V38.6394H72.9858V33.6357H71.6506V33.0581H74.9473V33.6357H73.6003Z" fill="white"/>
<path d="M54.1468 33.6357V35.6277H54.3556C54.6852 35.6488 55.015 35.5886 55.3166 35.4524C55.453 35.3731 55.5647 35.2569 55.6392 35.1168C55.7137 34.9767 55.7479 34.8183 55.7381 34.6596C55.7568 34.491 55.7265 34.3206 55.6509 34.1692C55.5754 34.0178 55.4578 33.8919 55.3127 33.807C55.0008 33.6837 54.6661 33.6306 54.3319 33.6517L54.1468 33.6357ZM54.1468 36.1894V38.6434H53.5324V33.066H54.3201C55.6672 33.066 56.3407 33.576 56.3407 34.6038C56.3544 34.9948 56.2207 35.3765 55.9665 35.6715C55.837 35.814 55.6809 35.9293 55.5071 36.0107C55.3334 36.092 55.1455 36.1379 54.9543 36.1456L56.7188 38.6434H55.9705L54.3004 36.1894H54.1468Z" fill="white"/>
<path d="M99.9071 33.6357V35.6277H100.1C100.428 35.648 100.757 35.5878 101.057 35.4524C101.197 35.3758 101.313 35.2608 101.391 35.1205C101.469 34.9802 101.506 34.8204 101.498 34.6596C101.517 34.491 101.487 34.3206 101.411 34.1692C101.336 34.0178 101.218 33.8919 101.073 33.807C100.761 33.6837 100.426 33.6306 100.092 33.6517L99.9071 33.6357ZM99.9071 36.1894V38.6434H99.2927V33.066H100.08C101.427 33.066 102.101 33.576 102.101 34.6038C102.115 34.9948 101.981 35.3765 101.727 35.6715C101.597 35.814 101.441 35.9293 101.267 36.0107C101.094 36.092 100.906 36.1379 100.715 36.1456L102.487 38.6434H101.731L100.045 36.1894H99.9071Z" fill="white"/>
<path d="M132 0.0120415L119.573 16.1984V28.401H115.347V16.1984L102.924 0.0120415H107.804L117.462 12.6608L127.12 0.0120415H132Z" fill="white"/>
</svg>
