<svg width="133" height="39" viewBox="0 0 133 39" fill="none" xmlns="http://www.w3.org/2000/svg">
<path fill-rule="evenodd" clip-rule="evenodd" d="M95.0791 28.401V15.6765H79.0326V28.401H74.4676V0.0120415H79.0326V12.1787H95.0791V0.0120415H99.6401V28.401H95.0791Z" fill="black"/>
<path fill-rule="evenodd" clip-rule="evenodd" d="M26.5962 38.6434H27.3091L24.8159 32.6995L22.3305 38.6434H23.0474L23.6894 37.022H25.9542L26.5962 38.6434ZM23.906 36.4802L24.8316 34.1377L25.7572 36.4802H23.906Z" fill="black"/>
<path fill-rule="evenodd" clip-rule="evenodd" d="M66.9131 38.6434H67.626L65.1328 32.6995L62.6357 38.6434H63.3565L63.9945 37.022H66.2711L66.9131 38.6434ZM64.2072 36.4802L65.1328 34.1377L66.0506 36.4802H64.2072Z" fill="black"/>
<path d="M92.4756 33.0581V38.6434H93.1885V33.0581H92.4756Z" fill="black"/>
<path d="M34.5761 0.0120415V28.401H39.1411V0.0120415H34.5761Z" fill="black"/>
<path d="M23.5112 9.1151e-05L14.4875 19.2341C14.5388 19.1863 5.39299 9.1151e-05 5.39299 9.1151e-05H0.666504L14.4521 28.401L28.2377 9.1151e-05H23.5112Z" fill="black"/>
<path d="M60.4615 24.5964C53.7656 24.5964 48.8579 20.242 48.8579 14.2025C48.8579 8.163 53.7617 3.80865 60.4615 3.80865C63.2488 3.78728 65.969 4.67276 68.2208 6.33441V1.84461C65.8131 0.623046 63.1551 -0.00879746 60.4615 9.25265e-05C51.7569 9.25265e-05 44.7065 6.37425 44.7065 14.1985C44.7065 22.0228 51.7608 28.397 60.4615 28.397C63.1548 28.4071 65.8127 27.7766 68.2208 26.5564V22.0706C65.969 23.7323 63.2488 24.6178 60.4615 24.5964Z" fill="black"/>
<path d="M34.0758 35.9424V38.1096H34.773C35.7183 38.1096 36.1279 37.7112 36.1279 37.0379C36.1279 36.3647 35.6907 35.9424 34.6903 35.9424H34.0758ZM34.0758 33.5959V35.4006H34.3909C34.7012 35.4194 35.0118 35.3691 35.3008 35.2532C35.4327 35.1975 35.5427 35.0994 35.6139 34.9741C35.6851 34.8488 35.7135 34.7033 35.6947 34.56C35.7088 34.4071 35.6832 34.2531 35.6203 34.1133C35.5574 33.9736 35.4595 33.8529 35.3362 33.7632C35.0434 33.6412 34.7266 33.5894 34.4106 33.6118L34.0758 33.5959ZM33.5402 38.6434V33.066H34.45C35.6842 33.066 36.2999 33.5693 36.2973 34.5759C36.3101 34.7902 36.2666 35.0041 36.1711 35.1959C36.0756 35.3876 35.9316 35.5503 35.7537 35.6675C36.0714 35.7336 36.3528 35.9186 36.5415 36.1854C36.7106 36.4588 36.788 36.7802 36.7621 37.1017C36.7758 37.3345 36.7297 37.567 36.6282 37.7764C36.5268 37.9858 36.3734 38.1651 36.1831 38.2968C35.787 38.561 35.3176 38.6895 34.8439 38.6633L33.5402 38.6434Z" fill="black"/>
<path d="M45.7306 33.4644C45.4266 33.4584 45.1246 33.5149 44.8429 33.6307C44.5612 33.7464 44.3057 33.9189 44.0921 34.1377C43.8781 34.3499 43.708 34.6031 43.592 34.8825C43.4759 35.1619 43.4161 35.462 43.4161 35.7651C43.4161 36.0682 43.4759 36.3682 43.592 36.6477C43.708 36.9271 43.8781 37.1803 44.0921 37.3925C44.5288 37.8263 45.1165 38.0694 45.7286 38.0694C46.3407 38.0694 46.9284 37.8263 47.3652 37.3925C47.5792 37.1803 47.7492 36.9271 47.8652 36.6477C47.9813 36.3682 48.0411 36.0682 48.0411 35.7651C48.0411 35.462 47.9813 35.1619 47.8652 34.8825C47.7492 34.6031 47.5792 34.3499 47.3652 34.1377C47.1518 33.9196 46.897 33.7475 46.616 33.6318C46.3351 33.5161 46.0339 33.4591 45.7306 33.4644ZM45.7306 32.8868C46.1158 32.8801 46.4983 32.9518 46.8556 33.0975C47.2128 33.2433 47.5375 33.4602 47.8102 33.7353C48.0863 33.9962 48.3065 34.3117 48.457 34.6623C48.6075 35.0128 48.6851 35.3909 48.6851 35.7731C48.6851 36.1552 48.6075 36.5333 48.457 36.8839C48.3065 37.2344 48.0863 37.5499 47.8102 37.8108C47.2486 38.3476 46.5052 38.6467 45.7326 38.6467C44.9599 38.6467 44.2165 38.3476 43.6549 37.8108C43.3788 37.5499 43.1586 37.2344 43.0081 36.8839C42.8576 36.5333 42.78 36.1552 42.78 35.7731C42.78 35.3909 42.8576 35.0128 43.0081 34.6623C43.1586 34.3117 43.3788 33.9962 43.6549 33.7353C43.927 33.4605 44.251 33.2438 44.6076 33.098C44.9642 32.9522 45.346 32.8804 45.7306 32.8868Z" fill="black"/>
<path d="M83.4007 33.4644C83.0967 33.4584 82.7947 33.5149 82.513 33.6307C82.2313 33.7464 81.9759 33.9189 81.7622 34.1377C81.5482 34.3499 81.3782 34.6031 81.2621 34.8825C81.1461 35.162 81.0863 35.462 81.0863 35.7651C81.0863 36.0682 81.1461 36.3682 81.2621 36.6477C81.3782 36.9271 81.5482 37.1803 81.7622 37.3925C82.1989 37.8263 82.7866 38.0694 83.3987 38.0694C84.0109 38.0694 84.5985 37.8263 85.0353 37.3925C85.2498 37.1806 85.4202 36.9275 85.5366 36.648C85.653 36.3685 85.7129 36.0684 85.7129 35.7651C85.7129 35.4618 85.653 35.1617 85.5366 34.8822C85.4202 34.6027 85.2498 34.3496 85.0353 34.1377C84.8223 33.919 84.5676 33.7466 84.2866 33.6308C84.0055 33.5151 83.7041 33.4584 83.4007 33.4644ZM83.4007 32.8868C83.7853 32.8804 84.1671 32.9522 84.5237 33.098C84.8803 33.2438 85.2043 33.4605 85.4764 33.7353C85.7525 33.9962 85.9727 34.3117 86.1232 34.6623C86.2737 35.0128 86.3513 35.3909 86.3513 35.7731C86.3513 36.1552 86.2737 36.5333 86.1232 36.8839C85.9727 37.2344 85.7525 37.5499 85.4764 37.8108C84.9159 38.3482 84.173 38.6478 83.4007 38.6478C82.6284 38.6478 81.8855 38.3482 81.325 37.8108C81.0489 37.5499 80.8288 37.2344 80.6783 36.8839C80.5278 36.5333 80.4501 36.1552 80.4501 35.7731C80.4501 35.3909 80.5278 35.0128 80.6783 34.6623C80.8288 34.3117 81.0489 33.9962 81.325 33.7353C81.5972 33.4605 81.9211 33.2438 82.2777 33.098C82.6343 32.9522 83.0162 32.8804 83.4007 32.8868Z" fill="black"/>
<path d="M120.846 33.7473L120.358 34.066C120.272 33.8851 120.137 33.7326 119.969 33.6261C119.801 33.5196 119.607 33.4636 119.409 33.4644C119.173 33.4616 118.946 33.5483 118.771 33.7074C118.683 33.7844 118.613 33.88 118.566 33.9874C118.519 34.0949 118.496 34.2115 118.499 34.3289C118.501 34.4374 118.528 34.5437 118.579 34.6393C118.63 34.7349 118.702 34.8169 118.79 34.8787C118.966 35.0079 119.156 35.1149 119.357 35.1974L119.724 35.3607C120.063 35.4925 120.376 35.6841 120.649 35.9264C120.78 36.0559 120.882 36.2112 120.95 36.3826C121.017 36.5541 121.049 36.7379 121.043 36.9224C121.048 37.15 121.006 37.3761 120.919 37.5861C120.832 37.7961 120.703 37.9853 120.539 38.1415C120.227 38.4423 119.817 38.6185 119.387 38.6376C118.956 38.6566 118.533 38.5172 118.196 38.245C117.885 37.9782 117.675 37.6108 117.601 37.2053L118.199 37.0499C118.234 37.3298 118.363 37.589 118.566 37.7829C118.663 37.8798 118.778 37.9561 118.904 38.0074C119.031 38.0587 119.166 38.084 119.302 38.0817C119.595 38.0847 119.877 37.9734 120.09 37.771C120.199 37.675 120.286 37.5562 120.346 37.4227C120.405 37.2893 120.435 37.1444 120.433 36.9981C120.436 36.8636 120.41 36.73 120.355 36.6072C120.301 36.4844 120.219 36.3757 120.118 36.289C119.903 36.1242 119.667 35.9902 119.417 35.8906L119.082 35.7432C118.775 35.6228 118.491 35.4489 118.243 35.2293C118.126 35.1099 118.035 34.9679 117.974 34.8118C117.913 34.6557 117.884 34.4887 117.888 34.321C117.883 34.1246 117.923 33.9296 118.003 33.7509C118.084 33.5721 118.203 33.4142 118.353 33.2891C118.648 33.0256 119.031 32.8834 119.424 32.8908C119.719 32.8796 120.01 32.9554 120.263 33.1089C120.515 33.2624 120.718 33.487 120.846 33.7552V33.7473Z" fill="black"/>
<path d="M109.219 38.6434V33.0621H112.248V33.6397H109.834V35.297H112.067V35.8747H109.834V38.0658H112.248V38.6434H109.219Z" fill="black"/>
<path d="M15.1069 33.0581V38.0658H16.6272V38.6434H14.4924V33.0581H15.1069Z" fill="black"/>
<path d="M74.2668 33.6357V38.6394H73.6523V33.6357H72.3171V33.0581H75.6138V33.6357H74.2668Z" fill="black"/>
<path d="M54.8133 33.6357V35.6277H55.0221C55.3517 35.6488 55.6815 35.5886 55.9831 35.4524C56.1195 35.3731 56.2312 35.2569 56.3057 35.1168C56.3802 34.9767 56.4144 34.8183 56.4046 34.6596C56.4233 34.491 56.393 34.3206 56.3174 34.1692C56.2419 34.0178 56.1243 33.8919 55.9792 33.807C55.6673 33.6837 55.3326 33.6306 54.9984 33.6517L54.8133 33.6357ZM54.8133 36.1894V38.6434H54.1989V33.066H54.9866C56.3337 33.066 57.0072 33.576 57.0072 34.6038C57.0209 34.9948 56.8872 35.3765 56.633 35.6715C56.5035 35.814 56.3474 35.9293 56.1736 36.0107C55.9999 36.092 55.812 36.1379 55.6208 36.1456L57.3853 38.6434H56.637L54.9669 36.1894H54.8133Z" fill="black"/>
<path d="M100.574 33.6357V35.6277H100.767C101.095 35.648 101.423 35.5878 101.724 35.4524C101.864 35.3758 101.98 35.2608 102.058 35.1205C102.136 34.9802 102.173 34.8204 102.165 34.6596C102.184 34.491 102.153 34.3206 102.078 34.1692C102.002 34.0178 101.885 33.8919 101.739 33.807C101.428 33.6837 101.093 33.6306 100.759 33.6517L100.574 33.6357ZM100.574 36.1894V38.6434H99.9592V33.066H100.747C102.094 33.066 102.767 33.576 102.767 34.6038C102.781 34.9948 102.647 35.3765 102.393 35.6715C102.264 35.814 102.108 35.9293 101.934 36.0107C101.76 36.092 101.572 36.1379 101.381 36.1456L103.153 38.6434H102.397L100.711 36.1894H100.574Z" fill="black"/>
<path d="M132.667 0.0120415L120.24 16.1984V28.401H116.014V16.1984L103.591 0.0120415H108.471L118.129 12.6608L127.786 0.0120415H132.667Z" fill="black"/>
</svg>
