<svg width="97" height="96" viewBox="0 0 97 96" fill="none" xmlns="http://www.w3.org/2000/svg">
<path d="M23.8431 13.3082L18.8196 10.5011L20.3141 9.63084L20.5373 9.50087L20.4001 9.28203L16.4977 3.05613L16.4977 3.05612L16.496 3.05345C16.1233 2.47536 15.5621 2.17539 14.9834 2.17873C14.4063 2.18205 13.8446 2.48658 13.466 3.04936L13.4658 3.04924L13.4604 3.0581L10.0781 8.56677L8.35893 7.54023L11.7386 2.00064C12.0852 1.46358 12.5615 1.02179 13.1239 0.715882C13.6574 0.425724 14.2522 0.266656 14.8588 0.251239L14.8589 0.251366L14.9625 0.251248C15.6042 0.250517 16.2358 0.410739 16.7992 0.717128C17.3619 1.02317 17.8383 1.46521 18.1849 2.00258L22.0861 8.30126L22.2145 8.5086L22.425 8.38535L23.8431 7.55482V13.3082ZM4.34644 23.9458H10.9646V25.9361H4.34644C1.23385 25.9361 -0.730594 22.4972 0.758964 19.9128L0.771227 19.9243L0.931045 19.6619L4.13038 14.4098L4.26147 14.1946L4.04522 14.0652L2.85007 13.3501L7.7241 10.5486V16.2849L6.19369 15.3513L5.98171 15.222L5.85096 15.4331L2.57296 20.7251L2.53549 20.7856V20.7994C2.07123 21.481 2.07391 22.2705 2.42449 22.8897C2.77646 23.5114 3.46901 23.9458 4.34644 23.9458ZM18.4572 26.1861V28.2311L13.0609 24.9397L18.4572 21.6494V23.6945V23.9445H18.7072H25.6928C27.3386 23.9445 28.3667 22.2486 27.469 20.7284L27.4691 20.7283L27.4656 20.7227L24.4774 15.9553L26.1967 14.8946L29.1491 19.605V19.6387L29.1838 19.6975C30.7862 22.4149 28.7877 25.9361 25.6928 25.9361H18.7072H18.4572V26.1861Z" fill="#6A6969" stroke="#E0BC86" stroke-width="0.5"/>
<path d="M14.6763 10.977H15.8763V19.377H14.4963V12.453L12.8043 12.933L12.4683 11.757L14.6763 10.977Z" fill="#E0BC86"/>
<path d="M4.609 32.7768H1.109V37.6768H1.48V33.1268H4.231V37.6768H4.609V32.7768ZM7.79996 32.6998C6.90396 32.6998 6.10596 33.1618 5.69996 33.8758L6.02896 34.0648C6.35796 33.4628 7.03696 33.0568 7.79996 33.0568C9.02496 33.0568 9.87196 33.9318 9.94896 35.0518H7.18396V35.4018H9.94896C9.87196 36.5218 9.02496 37.3968 7.79996 37.3968C7.02296 37.3968 6.34396 36.9838 6.02196 36.3678L5.68596 36.5568C6.08496 37.2778 6.88996 37.7538 7.79996 37.7538C9.29096 37.7538 10.327 36.6268 10.327 35.2268C10.327 33.8268 9.29096 32.6998 7.79996 32.6998ZM14.205 32.7768H10.747V33.1268H12.287V37.6768H12.665V33.1268H14.205V32.7768ZM18.9275 32.7768H17.2615V37.6768H17.6325V35.8078H18.9275C19.8095 35.8078 20.4535 35.1568 20.4535 34.2958C20.4535 33.4278 19.8095 32.7768 18.9275 32.7768ZM18.9275 35.4578H17.6325V33.1268H18.9275C19.5995 33.1268 20.0825 33.6168 20.0825 34.2958C20.0825 34.9678 19.5995 35.4578 18.9275 35.4578ZM21.9509 37.3268V35.3808H24.1909V35.0308H21.9509V33.1268H24.3659V32.7768H21.5799V37.6768H24.4009V37.3268H21.9509ZM28.5323 32.7768H25.0743V33.1268H26.6143V37.6768H26.9923V33.1268H28.5323V32.7768Z" fill="#E0BC86"/>
<path d="M90.8431 13.3082L85.8196 10.5011L87.3141 9.63084L87.5373 9.50087L87.4001 9.28203L83.4977 3.05613L83.4977 3.05612L83.496 3.05345C83.1233 2.47536 82.5621 2.17539 81.9834 2.17873C81.4063 2.18205 80.8446 2.48658 80.466 3.04936L80.4658 3.04924L80.4604 3.0581L77.0781 8.56677L75.3589 7.54023L78.7386 2.00064C79.0852 1.46358 79.5615 1.02179 80.1239 0.715883C80.6574 0.425724 81.2522 0.266656 81.8588 0.251239L81.8589 0.251366L81.9625 0.251248C82.6042 0.250517 83.2358 0.410739 83.7992 0.717128C84.3619 1.02317 84.8383 1.4652 85.1849 2.00257L89.0861 8.30126L89.2145 8.5086L89.425 8.38535L90.8431 7.55482V13.3082ZM71.3464 23.9458H77.9646V25.9361H71.3464C68.2338 25.9361 66.2694 22.4972 67.759 19.9128L67.7712 19.9243L67.931 19.6619L71.1304 14.4098L71.2615 14.1946L71.0452 14.0652L69.8501 13.3501L74.7241 10.5486V16.2849L73.1937 15.3513L72.9817 15.222L72.851 15.4331L69.573 20.7251L69.5355 20.7856V20.7994C69.0712 21.481 69.0739 22.2705 69.4245 22.8897C69.7765 23.5114 70.469 23.9458 71.3464 23.9458ZM85.4572 26.1861V28.2312L80.0609 24.9397L85.4572 21.6494V23.6945V23.9445H85.7072H92.6928C94.3386 23.9445 95.3667 22.2486 94.469 20.7284L94.4691 20.7283L94.4656 20.7227L91.4774 15.9553L93.1967 14.8946L96.1491 19.605V19.6387L96.1838 19.6975C97.7862 22.4149 95.7877 25.9361 92.6928 25.9361H85.7072H85.4572V26.1861Z" fill="#6A6969" stroke="#E0BC86" stroke-width="0.5"/>
<path d="M78.6825 19.377V18.297L81.6105 15.309C82.3225 14.597 82.6785 13.981 82.6785 13.461C82.6785 13.053 82.5545 12.737 82.3065 12.513C82.0665 12.281 81.7585 12.165 81.3825 12.165C80.6785 12.165 80.1585 12.513 79.8225 13.209L78.6585 12.525C78.9225 11.965 79.2945 11.541 79.7745 11.253C80.2545 10.965 80.7865 10.821 81.3705 10.821C82.1065 10.821 82.7385 11.053 83.2665 11.517C83.7945 11.981 84.0585 12.613 84.0585 13.413C84.0585 14.269 83.5825 15.181 82.6305 16.149L80.7345 18.045H84.2145V19.377H78.6825Z" fill="#E0BC86"/>
<path d="M72.109 32.7768H68.609V37.6768H68.98V33.1268H71.731V37.6768H72.109V32.7768ZM75.3 32.6998C74.404 32.6998 73.606 33.1618 73.2 33.8758L73.529 34.0648C73.858 33.4628 74.537 33.0568 75.3 33.0568C76.525 33.0568 77.372 33.9318 77.449 35.0518H74.684V35.4018H77.449C77.372 36.5218 76.525 37.3968 75.3 37.3968C74.523 37.3968 73.844 36.9838 73.522 36.3678L73.186 36.5568C73.585 37.2778 74.39 37.7538 75.3 37.7538C76.791 37.7538 77.827 36.6268 77.827 35.2268C77.827 33.8268 76.791 32.6998 75.3 32.6998ZM84.5515 32.7768H81.0515V37.6768H81.4225V33.1268H84.1735V37.6768H84.5515V32.7768ZM89.1915 32.7768V34.9818H86.3425V32.7768H85.9715V37.6768H86.3425V35.3318H89.1915V37.6768H89.5625V32.7768H89.1915ZM94.4241 37.3268V32.7768H91.4001V35.5698C91.4001 36.5218 91.1691 37.0188 90.8961 37.3268H90.5041V38.6148H90.8821V37.6768H94.5641V38.6148H94.9421V37.3268H94.4241ZM91.7711 35.5768V33.1268H94.0531V37.3268H91.3371C91.5751 36.9908 91.7711 36.4728 91.7711 35.5768Z" fill="#E0BC86"/>
<path d="M57.3431 40.985L52.3196 38.1779L53.8141 37.3076L54.0373 37.1776L53.9001 36.9588L49.9977 30.7329L49.9977 30.7329L49.996 30.7302C49.6233 30.1521 49.0621 29.8522 48.4834 29.8555C47.9063 29.8588 47.3446 30.1633 46.966 30.7261L46.9658 30.726L46.9604 30.7349L43.5781 36.2435L41.8589 35.217L45.2386 29.6774C45.5852 29.1403 46.0615 28.6986 46.6239 28.3926C47.1574 28.1025 47.7522 27.9434 48.3588 27.928L48.3589 27.9281L48.4625 27.928C49.1042 27.9273 49.7358 28.0875 50.2992 28.3939C50.8619 28.6999 51.3383 29.142 51.6849 29.6793L55.5861 35.978L55.7145 36.1854L55.925 36.0621L57.3431 35.2316V40.985ZM37.8464 51.6225H44.4646V53.6129H37.8464C34.7338 53.6129 32.7694 50.174 34.259 47.5896L34.2712 47.601L34.431 47.3387L37.6304 42.0865L37.7615 41.8713L37.5452 41.7419L36.3501 41.0269L41.2241 38.2254V43.9616L39.6937 43.0281L39.4817 42.8988L39.351 43.1098L36.073 48.4019L36.0355 48.4623V48.4761C35.5712 49.1578 35.5739 49.9473 35.9245 50.5665C36.2765 51.1881 36.969 51.6225 37.8464 51.6225ZM51.9572 53.8629V55.9079L46.5609 52.6165L51.9572 49.3262V51.3713V51.6213H52.2072H59.1928C60.8386 51.6213 61.8667 49.9253 60.969 48.4051L60.9691 48.4051L60.9656 48.3995L57.9774 43.6321L59.6967 42.5714L62.6491 47.2818V47.3155L62.6838 47.3742C64.2862 50.0917 62.2877 53.6129 59.1928 53.6129H52.2072H51.9572V53.8629Z" fill="#6A6969" stroke="#E0BC86" stroke-width="0.5"/>
<path d="M51.672 43.2577V44.5417H50.712V46.0537H49.32V44.5417H45.192V43.2577L48.084 37.6537H49.584L46.692 43.2577H49.32V41.0737H50.712V43.2577H51.672Z" fill="#E0BC86"/>
<path d="M34.109 60.4535H30.609V65.3535H30.98V60.8035H33.731V65.3535H34.109V60.4535ZM38.14 62.8125C38.518 62.6095 38.77 62.2175 38.77 61.7415C38.77 61.0345 38.196 60.4535 37.482 60.4535H35.529V65.3535H37.643C38.385 65.3535 38.98 64.7585 38.98 64.0165C38.98 63.4565 38.63 63.0015 38.14 62.8125ZM37.482 60.8035C37.986 60.8035 38.399 61.2235 38.399 61.7415C38.399 62.2595 37.986 62.6795 37.482 62.6795H35.9V60.8035H37.482ZM37.643 65.0035H35.9V63.0295H37.643C38.175 63.0295 38.609 63.4705 38.609 64.0165C38.609 64.5625 38.175 65.0035 37.643 65.0035ZM43.4006 65.0035V60.4535H40.3766V63.2465C40.3766 64.1985 40.1456 64.6955 39.8726 65.0035H39.4806V66.2915H39.8586V65.3535H43.5406V66.2915H43.9186V65.0035H43.4006ZM40.7476 63.2535V60.8035H43.0296V65.0035H40.3136C40.5516 64.6675 40.7476 64.1495 40.7476 63.2535ZM50.5828 60.4535H47.0828V65.3535H47.4538V60.8035H50.2048V65.3535H50.5828V60.4535ZM53.7737 60.3765C52.8777 60.3765 52.0797 60.8385 51.6737 61.5525L52.0027 61.7415C52.3317 61.1395 53.0107 60.7335 53.7737 60.7335C54.9987 60.7335 55.8457 61.6085 55.9227 62.7285H53.1577V63.0785H55.9227C55.8457 64.1985 54.9987 65.0735 53.7737 65.0735C52.9967 65.0735 52.3177 64.6605 51.9957 64.0445L51.6597 64.2335C52.0587 64.9545 52.8637 65.4305 53.7737 65.4305C55.2647 65.4305 56.3007 64.3035 56.3007 62.9035C56.3007 61.5035 55.2647 60.3765 53.7737 60.3765ZM60.6691 60.4535V62.6585H57.8201V60.4535H57.4491V65.3535H57.8201V63.0085H60.6691V65.3535H61.0401V60.4535H60.6691ZM65.9647 60.4535H62.4647V65.3535H62.8357V60.8035H65.5867V65.3535H65.9647V60.4535Z" fill="#E0BC86"/>
<path d="M23.8431 68.6608L18.8196 65.8536L20.3141 64.9834L20.5373 64.8534L20.4001 64.6346L16.4977 58.4087L16.4977 58.4087L16.496 58.406C16.1233 57.8279 15.5621 57.5279 14.9834 57.5313C14.4063 57.5346 13.8446 57.8391 13.466 58.4019L13.4658 58.4018L13.4604 58.4106L10.0781 63.9193L8.35893 62.8928L11.7386 57.3532C12.0852 56.8161 12.5615 56.3743 13.1239 56.0684C13.6574 55.7783 14.2522 55.6192 14.8588 55.6038L14.8589 55.6039L14.9625 55.6038C15.6042 55.6031 16.2358 55.7633 16.7992 56.0697C17.3619 56.3757 17.8383 56.8177 18.1849 57.3551L22.0861 63.6538L22.2145 63.8611L22.425 63.7379L23.8431 62.9074V68.6608ZM4.34644 79.2983H10.9646V81.2887H4.34644C1.23385 81.2887 -0.730598 77.8498 0.758968 75.2654L0.771231 75.2768L0.931045 75.0145L4.13038 69.7623L4.26147 69.5471L4.04522 69.4177L2.85007 68.7027L7.7241 65.9011V71.6374L6.19369 70.7039L5.98171 70.5745L5.85096 70.7856L2.57296 76.0776L2.53549 76.1381V76.1519C2.07123 76.8336 2.07391 77.6231 2.42449 78.2423C2.77646 78.8639 3.46901 79.2983 4.34644 79.2983ZM18.4572 81.5387V83.5837L13.0609 80.2923L18.4572 77.0019V79.0471V79.2971H18.7072H25.6928C27.3386 79.2971 28.3667 77.6011 27.469 76.0809L27.4691 76.0809L27.4656 76.0753L24.4774 71.3079L26.1967 70.2472L29.1491 74.9575V74.9912L29.1838 75.05C30.7862 77.7675 28.7877 81.2887 25.6928 81.2887H18.7072H18.4572V81.5387Z" fill="#6A6969" stroke="#E0BC86" stroke-width="0.5"/>
<path d="M14.6105 69.4994C15.4105 69.4994 16.0865 69.7394 16.6385 70.2194C17.1905 70.6914 17.4665 71.3474 17.4665 72.1874C17.4665 73.0274 17.1825 73.6874 16.6145 74.1674C16.0465 74.6474 15.3505 74.8874 14.5265 74.8874C13.8625 74.8874 13.2745 74.7354 12.7625 74.4314C12.2505 74.1194 11.8865 73.6714 11.6705 73.0874L12.8585 72.4034C13.0825 73.1634 13.6385 73.5434 14.5265 73.5434C14.9985 73.5434 15.3745 73.4234 15.6545 73.1834C15.9425 72.9354 16.0865 72.6034 16.0865 72.1874C16.0865 71.7714 15.9465 71.4434 15.6665 71.2034C15.3865 70.9634 15.0145 70.8434 14.5505 70.8434H12.1025L12.4265 66.3314H17.1065V67.6274H13.6985L13.5545 69.4994H14.6105Z" fill="#E0BC86"/>
<path d="M8.609 88.1293H5.109V93.0293H5.48V88.4793H8.231V93.0293H8.609V88.1293ZM13.529 88.1293H10.029V93.0293H10.4V88.4793H13.151V93.0293H13.529V88.1293ZM18.6911 88.1293H17.0251V93.0293H17.3961V91.1603H18.6911C19.5731 91.1603 20.2171 90.5093 20.2171 89.6483C20.2171 88.7803 19.5731 88.1293 18.6911 88.1293ZM18.6911 90.8103H17.3961V88.4793H18.6911C19.3631 88.4793 19.8461 88.9693 19.8461 89.6483C19.8461 90.3203 19.3631 90.8103 18.6911 90.8103ZM23.0095 88.1293H21.3435V93.0293H21.7145V91.1603H23.0095C23.8915 91.1603 24.5355 90.5093 24.5355 89.6483C24.5355 88.7803 23.8915 88.1293 23.0095 88.1293ZM23.0095 90.8103H21.7145V88.4793H23.0095C23.6815 88.4793 24.1645 88.9693 24.1645 89.6483C24.1645 90.3203 23.6815 90.8103 23.0095 90.8103Z" fill="#E0BC86"/>
<path d="M90.8431 68.6608L85.8196 65.8536L87.3141 64.9834L87.5373 64.8534L87.4001 64.6346L83.4977 58.4087L83.4977 58.4087L83.496 58.406C83.1233 57.8279 82.5621 57.5279 81.9834 57.5313C81.4063 57.5346 80.8446 57.8391 80.466 58.4019L80.4658 58.4018L80.4604 58.4106L77.0781 63.9193L75.3589 62.8928L78.7386 57.3532C79.0852 56.8161 79.5615 56.3743 80.1239 56.0684C80.6574 55.7783 81.2522 55.6192 81.8588 55.6038L81.8589 55.6039L81.9625 55.6038C82.6042 55.6031 83.2358 55.7633 83.7992 56.0697C84.3619 56.3757 84.8383 56.8177 85.1849 57.3551L89.0861 63.6538L89.2145 63.8611L89.425 63.7379L90.8431 62.9074V68.6608ZM71.3464 79.2983H77.9646V81.2887H71.3464C68.2338 81.2887 66.2694 77.8498 67.759 75.2654L67.7712 75.2768L67.931 75.0145L71.1304 69.7623L71.2615 69.5471L71.0452 69.4177L69.8501 68.7027L74.7241 65.9011V71.6374L73.1937 70.7039L72.9817 70.5745L72.851 70.7856L69.573 76.0776L69.5355 76.1381V76.1519C69.0712 76.8336 69.0739 77.6231 69.4245 78.2423C69.7765 78.8639 70.469 79.2983 71.3464 79.2983ZM85.4572 81.5387V83.5837L80.0609 80.2923L85.4572 77.0019V79.0471V79.2971H85.7072H92.6928C94.3386 79.2971 95.3667 77.6011 94.469 76.0809L94.4691 76.0809L94.4656 76.0753L91.4774 71.3079L93.1967 70.2472L96.1491 74.9575V74.9912L96.1838 75.05C97.7862 77.7675 95.7877 81.2887 92.6928 81.2887H85.7072H85.4572V81.5387Z" fill="#6A6969" stroke="#E0BC86" stroke-width="0.5"/>
<path d="M81.5865 69.1495C82.4585 69.1495 83.1705 69.4175 83.7225 69.9535C84.2745 70.4815 84.5505 71.1695 84.5505 72.0175C84.5505 72.8655 84.2745 73.5575 83.7225 74.0935C83.1705 74.6215 82.4585 74.8855 81.5865 74.8855C80.7065 74.8855 79.9905 74.6215 79.4385 74.0935C78.8865 73.5575 78.6105 72.8655 78.6105 72.0175C78.6105 71.3775 78.7785 70.8135 79.1145 70.3255L81.7785 66.3295H83.3505L81.4305 69.1495H81.5865ZM81.5865 73.5775C82.0505 73.5775 82.4305 73.4375 82.7265 73.1575C83.0225 72.8695 83.1705 72.4895 83.1705 72.0175C83.1705 71.5455 83.0225 71.1695 82.7265 70.8895C82.4305 70.6015 82.0505 70.4575 81.5865 70.4575C81.1145 70.4575 80.7305 70.6015 80.4345 70.8895C80.1385 71.1695 79.9905 71.5455 79.9905 72.0175C79.9905 72.4895 80.1385 72.8695 80.4345 73.1575C80.7305 73.4375 81.1145 73.5775 81.5865 73.5775Z" fill="#E0BC86"/>
<path d="M75.609 88.1293H72.109V93.0293H72.48V88.4793H75.231V93.0293H75.609V88.1293ZM79.297 93.1063C80.214 93.1063 81.012 92.6303 81.411 91.9093L81.082 91.7203C80.76 92.3363 80.074 92.7493 79.297 92.7493C78.009 92.7493 77.12 91.7833 77.12 90.5793C77.12 89.3753 78.009 88.4093 79.297 88.4093C80.067 88.4093 80.746 88.8153 81.068 89.4173L81.397 89.2283C80.991 88.5143 80.2 88.0523 79.297 88.0523C77.806 88.0523 76.749 89.1793 76.749 90.5793C76.749 91.9793 77.806 93.1063 79.297 93.1063ZM86.238 88.1293H84.572V93.0293H84.943V91.1603H86.238C87.12 91.1603 87.764 90.5093 87.764 89.6483C87.764 88.7803 87.12 88.1293 86.238 88.1293ZM86.238 90.8103H84.943V88.4793H86.238C86.91 88.4793 87.393 88.9693 87.393 89.6483C87.393 90.3203 86.91 90.8103 86.238 90.8103ZM90.2517 93.1063C91.2247 93.1063 91.8617 92.5743 91.8617 91.7623C91.8617 90.9153 91.1057 90.6423 90.2377 90.3553C89.5377 90.1243 89.0407 89.9423 89.0407 89.3543C89.0407 88.8083 89.4677 88.4093 90.1467 88.4093C90.8467 88.4093 91.2247 88.8153 91.4067 89.2563L91.7217 89.0813C91.4837 88.5143 90.9517 88.0523 90.1467 88.0523C89.3137 88.0523 88.6627 88.5633 88.6627 89.3683C88.6627 90.2223 89.3977 90.4533 90.2167 90.7193C90.9657 90.9573 91.4837 91.1813 91.4837 91.7693C91.4837 92.3293 91.0707 92.7493 90.2517 92.7493C89.4467 92.7493 88.9497 92.3503 88.7817 91.7623L88.4597 91.9513C88.6837 92.6443 89.3347 93.1063 90.2517 93.1063Z" fill="#E0BC86"/>
</svg>
