<svg width="83" height="122" viewBox="0 0 83 122" fill="none" xmlns="http://www.w3.org/2000/svg">
<path d="M23.8431 13.4703L18.8196 10.6632L20.3141 9.79295L20.5373 9.66298L20.4001 9.44413L16.4977 3.21824L16.4977 3.21823L16.496 3.21556C16.1233 2.63747 15.5621 2.3375 14.9834 2.34084C14.4063 2.34416 13.8446 2.64869 13.466 3.21147L13.4658 3.21135L13.4604 3.2202L10.0781 8.72888L8.35893 7.70233L11.7386 2.16272C12.0852 1.62568 12.5615 1.1839 13.1239 0.877992C13.6574 0.587836 14.2521 0.428769 14.8587 0.413349L14.8589 0.413475L14.9625 0.413357C15.6042 0.412626 16.2358 0.572849 16.7992 0.879238C17.3619 1.18528 17.8383 1.62731 18.1849 2.16469L22.0861 8.46337L22.2146 8.67071L22.425 8.54746L23.8431 7.71693V13.4703ZM7.7241 10.7107V16.447L6.19369 15.5134L5.98171 15.3841L5.85096 15.5952L2.57296 20.8872L2.53549 20.9477V20.9615C2.07123 21.6432 2.07391 22.4326 2.42449 23.0518C2.77646 23.6735 3.46901 24.1079 4.34644 24.1079H10.9646V26.0982H4.34644C1.23385 26.0982 -0.730596 22.6593 0.758966 20.0749L0.771228 20.0864L0.931045 19.824L4.13038 14.5719L4.26147 14.3567L4.04522 14.2273L2.85008 13.5123L7.7241 10.7107ZM18.4572 26.3482V28.3933L13.0609 25.1018L18.4572 21.8115V23.8566V24.1066H18.7072H25.6928C27.3386 24.1066 28.3667 22.4107 27.469 20.8905L27.4691 20.8905L27.4656 20.8848L24.4774 16.1175L26.1967 15.0567L29.1491 19.7671V19.8008L29.1838 19.8596C30.7862 22.577 28.7877 26.0982 25.6928 26.0982H18.7072H18.4572V26.3482Z" fill="#DCC096" stroke="#333333" stroke-width="0.5"/>
<path d="M14.6763 11.1391L12.4683 11.9191L12.8043 13.0951L14.4963 12.6151V19.5391H15.8763V11.1391H14.6763Z" fill="#333333"/>
<path d="M5.095 32.9379H1.49V37.8379H2.295V33.7079H4.29V37.8379H5.095V32.9379ZM8.08673 32.8469C7.18373 32.8469 6.39273 33.3019 5.97273 34.0159L6.67273 34.4219C6.93173 33.9389 7.47073 33.6309 8.08673 33.6309C9.00373 33.6309 9.64073 34.1979 9.78773 35.0099H7.43573V35.7659H9.78773C9.64073 36.5779 9.00373 37.1449 8.08673 37.1449C7.47073 37.1449 6.93173 36.8369 6.67273 36.3539L5.97273 36.7529C6.38573 37.4669 7.17673 37.9289 8.08673 37.9289C9.57773 37.9289 10.6277 36.8089 10.6277 35.3879C10.6277 33.9669 9.57773 32.8469 8.08673 32.8469ZM14.4807 32.9379H10.9107V33.7079H12.2967V37.8379H13.1017V33.7079H14.4807V32.9379ZM19.052 32.9379H17.246V37.8379H18.051V36.1579H19.052C19.976 36.1579 20.676 35.4509 20.676 34.5479C20.676 33.6379 19.976 32.9379 19.052 32.9379ZM19.052 35.4019H18.051V33.6939H19.052C19.528 33.6939 19.871 34.0509 19.871 34.5479C19.871 35.0379 19.528 35.4019 19.052 35.4019ZM22.3899 37.0679V35.7449H24.3499V34.9819H22.3899V33.7079H24.5249V32.9379H21.5849V37.8379H24.5599V37.0679H22.3899ZM28.6918 32.9379H25.1218V33.7079H26.5078V37.8379H27.3128V33.7079H28.6918V32.9379Z" fill="#333333"/>
<path d="M76.8431 13.4704L71.8196 10.6632L73.3141 9.79295L73.5373 9.66298L73.4001 9.44414L69.4977 3.21824L69.4977 3.21823L69.496 3.21556C69.1233 2.63747 68.5621 2.3375 67.9834 2.34084C67.4063 2.34416 66.8446 2.64869 66.466 3.21147L66.4658 3.21135L66.4604 3.2202L63.0781 8.72888L61.3589 7.70233L64.7386 2.16273C65.0852 1.62568 65.5615 1.1839 66.1239 0.877992C66.6574 0.587836 67.2521 0.428769 67.8587 0.413349L67.8589 0.413475L67.9625 0.413357C68.6042 0.412626 69.2358 0.572849 69.7992 0.879238C70.3619 1.18528 70.8383 1.62731 71.1849 2.16468L75.0861 8.46337L75.2146 8.67071L75.425 8.54746L76.8431 7.71693V13.4704ZM57.3464 24.1079H63.9646V26.0982H57.3464C54.2338 26.0982 52.2694 22.6593 53.759 20.0749L53.7712 20.0864L53.931 19.824L57.1304 14.5719L57.2615 14.3567L57.0452 14.2273L55.8501 13.5123L60.7241 10.7107V16.447L59.1937 15.5134L58.9817 15.3841L58.851 15.5952L55.573 20.8872L55.5355 20.9477V20.9615C55.0712 21.6432 55.0739 22.4326 55.4245 23.0518C55.7765 23.6735 56.469 24.1079 57.3464 24.1079ZM71.4572 26.3482V28.3933L66.0609 25.1018L71.4572 21.8115V23.8566V24.1066H71.7072H78.6928C80.3386 24.1066 81.3667 22.4107 80.469 20.8905L80.4691 20.8905L80.4656 20.8848L77.4774 16.1175L79.1967 15.0567L82.1491 19.7671V19.8008L82.1838 19.8596C83.7862 22.577 81.7877 26.0982 78.6928 26.0982H71.7072H71.4572V26.3482Z" fill="#DCC096" stroke="#333333" stroke-width="0.5"/>
<path d="M64.6825 19.5391H70.2145V18.2071H66.7345L68.6305 16.3111C69.4345 15.4951 70.0585 14.6191 70.0585 13.5751C70.0585 11.9071 68.7505 10.9831 67.3705 10.9831C66.2545 10.9831 65.1985 11.5351 64.6585 12.6871L65.8225 13.3711C66.1465 12.6991 66.6865 12.3271 67.3825 12.3271C68.1025 12.3271 68.6785 12.7831 68.6785 13.6231C68.6785 14.2591 68.2105 14.8711 67.6105 15.4711L64.6825 18.4591V19.5391Z" fill="#333333"/>
<path d="M58.595 32.9379H54.99V37.8379H55.795V33.7079H57.79V37.8379H58.595V32.9379ZM61.5867 32.8469C60.6837 32.8469 59.8927 33.3019 59.4727 34.0159L60.1727 34.4219C60.4317 33.9389 60.9707 33.6309 61.5867 33.6309C62.5037 33.6309 63.1407 34.1979 63.2877 35.0099H60.9357V35.7659H63.2877C63.1407 36.5779 62.5037 37.1449 61.5867 37.1449C60.9707 37.1449 60.4317 36.8369 60.1727 36.3539L59.4727 36.7529C59.8857 37.4669 60.6767 37.9289 61.5867 37.9289C63.0777 37.9289 64.1277 36.8089 64.1277 35.3879C64.1277 33.9669 63.0777 32.8469 61.5867 32.8469ZM70.641 32.9379H67.036V37.8379H67.841V33.7079H69.836V37.8379H70.641V32.9379ZM74.7379 32.9379V34.9469H72.6379V32.9379H71.8329V37.8379H72.6379V35.7169H74.7379V37.8379H75.5429V32.9379H74.7379ZM80.4074 37.0679V32.9379H77.2294V35.3809C77.2294 36.2699 77.0474 36.7459 76.8024 37.0679H76.3474V38.7759H77.1524V37.8379H80.1274V38.7759H80.9324V37.0679H80.4074ZM77.6844 37.0679C77.8734 36.7529 78.0344 36.2559 78.0344 35.3949V33.6939H79.6024V37.0679H77.6844Z" fill="#333333"/>
<path d="M50.3431 55.4704L45.3196 52.6632L46.8141 51.7929L47.0373 51.663L46.9001 51.4441L42.9977 45.2182L42.9977 45.2182L42.996 45.2156C42.6233 44.6375 42.0621 44.3375 41.4834 44.3408C40.9063 44.3442 40.3446 44.6487 39.966 45.2115L39.9658 45.2113L39.9604 45.2202L36.5781 50.7289L34.8589 49.7023L38.2386 44.1627C38.5852 43.6257 39.0615 43.1839 39.6239 42.878C40.1574 42.5878 40.7521 42.4288 41.3587 42.4133L41.3589 42.4135L41.4625 42.4134C42.1042 42.4126 42.7358 42.5728 43.2992 42.8792C43.8619 43.1853 44.3383 43.6273 44.6849 44.1647L48.5861 50.4634L48.7146 50.6707L48.925 50.5475L50.3431 49.7169V55.4704ZM30.8464 66.1079H37.4646V68.0982H30.8464C27.7338 68.0982 25.7694 64.6593 27.259 62.0749L27.2712 62.0864L27.431 61.824L30.6304 56.5719L30.7615 56.3567L30.5452 56.2273L29.3501 55.5123L34.2241 52.7107V58.447L32.6937 57.5134L32.4817 57.3841L32.351 57.5952L29.073 62.8872L29.0355 62.9477V62.9615C28.5712 63.6432 28.5739 64.4326 28.9245 65.0518C29.2765 65.6735 29.969 66.1079 30.8464 66.1079ZM44.9572 68.3482V70.3933L39.5609 67.1018L44.9572 63.8115V65.8566V66.1066H45.2072H52.1928C53.8386 66.1066 54.8667 64.4107 53.969 62.8905L53.9691 62.8905L53.9656 62.8848L50.9774 58.1175L52.6967 57.0567L55.6491 61.7671V61.8008L55.6838 61.8596C57.2862 64.577 55.2877 68.0982 52.1928 68.0982H45.2072H44.9572V68.3482Z" fill="#DCC096" stroke="#333333" stroke-width="0.5"/>
<path d="M44.672 57.7431H43.712V55.5591H42.32V57.7431H39.692L42.584 52.1391H41.084L38.192 57.7431V59.0271H42.32V60.5391H43.712V59.0271H44.672V57.7431Z" fill="#333333"/>
<path d="M27.595 74.9379H23.99V79.8379H24.795V75.7079H26.79V79.8379H27.595V74.9379ZM31.6709 77.2969C31.9789 77.0729 32.1679 76.7229 32.1679 76.2959C32.1679 75.5119 31.5239 74.9379 30.7329 74.9379H28.7869V79.8379H30.8869C31.6989 79.8379 32.3569 79.2499 32.3569 78.4379C32.3569 77.9129 32.0839 77.5139 31.6709 77.2969ZM30.7329 75.6939C31.0899 75.6939 31.3629 75.9739 31.3629 76.3379C31.3629 76.7019 31.0899 76.9819 30.7329 76.9819H29.5919V75.6939H30.7329ZM30.8869 79.0819H29.5919V77.7099H30.8869C31.2649 77.7099 31.5519 78.0109 31.5519 78.3959C31.5519 78.7809 31.2649 79.0819 30.8869 79.0819ZM36.8418 79.0679V74.9379H33.6638V77.3809C33.6638 78.2699 33.4818 78.7459 33.2368 79.0679H32.7818V80.7759H33.5868V79.8379H36.5618V80.7759H37.3668V79.0679H36.8418ZM34.1188 79.0679C34.3078 78.7529 34.4688 78.2559 34.4688 77.3949V75.6939H36.0368V79.0679H34.1188ZM43.8432 74.9379H40.2382V79.8379H41.0432V75.7079H43.0382V79.8379H43.8432V74.9379ZM46.8349 74.8469C45.9319 74.8469 45.1409 75.3019 44.7209 76.0159L45.4209 76.4219C45.6799 75.9389 46.2189 75.6309 46.8349 75.6309C47.7519 75.6309 48.3889 76.1979 48.5359 77.0099H46.1839V77.7659H48.5359C48.3889 78.5779 47.7519 79.1449 46.8349 79.1449C46.2189 79.1449 45.6799 78.8369 45.4209 78.3539L44.7209 78.7529C45.1339 79.4669 45.9249 79.9289 46.8349 79.9289C48.3259 79.9289 49.3759 78.8089 49.3759 77.3879C49.3759 75.9669 48.3259 74.8469 46.8349 74.8469ZM53.2292 74.9379V76.9469H51.1292V74.9379H50.3242V79.8379H51.1292V77.7169H53.2292V79.8379H54.0342V74.9379H53.2292ZM58.8287 74.9379H55.2237V79.8379H56.0287V75.7079H58.0237V79.8379H58.8287V74.9379Z" fill="#333333"/>
<path d="M23.8431 97.4704L18.8196 94.6632L20.3141 93.7929L20.5373 93.663L20.4001 93.4441L16.4977 87.2182L16.4977 87.2182L16.496 87.2156C16.1233 86.6375 15.5621 86.3375 14.9834 86.3408C14.4063 86.3442 13.8446 86.6487 13.466 87.2115L13.4658 87.2113L13.4604 87.2202L10.0781 92.7289L8.35893 91.7023L11.7386 86.1627C12.0852 85.6257 12.5615 85.1839 13.1239 84.878C13.6574 84.5878 14.2521 84.4288 14.8587 84.4133L14.8589 84.4135L14.9625 84.4134C15.6042 84.4126 16.2358 84.5728 16.7992 84.8792C17.3619 85.1853 17.8383 85.6273 18.1849 86.1647L22.0861 92.4634L22.2146 92.6707L22.425 92.5475L23.8431 91.7169V97.4704ZM4.34644 108.108H10.9646V110.098H4.34644C1.23385 110.098 -0.730596 106.659 0.758966 104.075L0.771228 104.086L0.931045 103.824L4.13038 98.5719L4.26147 98.3567L4.04522 98.2273L2.85008 97.5123L7.7241 94.7107V100.447L6.19369 99.5134L5.98171 99.3841L5.85096 99.5952L2.57296 104.887L2.53549 104.948V104.961C2.07123 105.643 2.07391 106.433 2.42449 107.052C2.77646 107.673 3.46901 108.108 4.34644 108.108ZM18.4572 110.348V112.393L13.0609 109.102L18.4572 105.812V107.857V108.107H18.7072H25.6928C27.3386 108.107 28.3667 106.411 27.469 104.89L27.4691 104.89L27.4656 104.885L24.4774 100.117L26.1967 99.0567L29.1491 103.767V103.801L29.1838 103.86C30.7862 106.577 28.7877 110.098 25.6928 110.098H18.7072H18.4572V110.348Z" fill="#DCC096" stroke="#333333" stroke-width="0.5"/>
<path d="M14.6105 98.309H13.5545L13.6985 96.437H17.1065V95.141H12.4265L12.1025 99.653H14.5505C15.4625 99.653 16.0865 100.157 16.0865 100.997C16.0865 101.837 15.4625 102.353 14.5265 102.353C13.6505 102.353 13.0745 101.957 12.8585 101.213L11.6705 101.897C12.1145 103.109 13.2545 103.697 14.5265 103.697C16.0745 103.697 17.4665 102.761 17.4665 100.997C17.4665 99.245 16.1345 98.309 14.6105 98.309Z" fill="#333333"/>
<path d="M8.595 116.938H4.99V121.838H5.795V117.708H7.79V121.838H8.595V116.938ZM13.3919 116.938H9.78691V121.838H10.5919V117.708H12.5869V121.838H13.3919V116.938ZM18.3498 116.938H16.5438V121.838H17.3488V120.158H18.3498C19.2738 120.158 19.9738 119.451 19.9738 118.548C19.9738 117.638 19.2738 116.938 18.3498 116.938ZM18.3498 119.402H17.3488V117.694H18.3498C18.8258 117.694 19.1688 118.051 19.1688 118.548C19.1688 119.038 18.8258 119.402 18.3498 119.402ZM22.6887 116.938H20.8827V121.838H21.6877V120.158H22.6887C23.6127 120.158 24.3127 119.451 24.3127 118.548C24.3127 117.638 23.6127 116.938 22.6887 116.938ZM22.6887 119.402H21.6877V117.694H22.6887C23.1647 117.694 23.5077 118.051 23.5077 118.548C23.5077 119.038 23.1647 119.402 22.6887 119.402Z" fill="#333333"/>
<path d="M76.8431 97.4704L71.8196 94.6632L73.3141 93.7929L73.5373 93.663L73.4001 93.4441L69.4977 87.2182L69.4977 87.2182L69.496 87.2156C69.1233 86.6375 68.5621 86.3375 67.9834 86.3408C67.4063 86.3442 66.8446 86.6487 66.466 87.2115L66.4658 87.2113L66.4604 87.2202L63.0781 92.7289L61.3589 91.7023L64.7386 86.1627C65.0852 85.6257 65.5615 85.1839 66.1239 84.878C66.6574 84.5878 67.2521 84.4288 67.8587 84.4133L67.8589 84.4135L67.9625 84.4134C68.6042 84.4126 69.2358 84.5728 69.7992 84.8792C70.3619 85.1853 70.8383 85.6273 71.1849 86.1647L75.0861 92.4634L75.2146 92.6707L75.425 92.5475L76.8431 91.7169V97.4704ZM57.3464 108.108H63.9646V110.098H57.3464C54.2338 110.098 52.2694 106.659 53.759 104.075L53.7712 104.086L53.931 103.824L57.1304 98.5719L57.2615 98.3567L57.0452 98.2273L55.8501 97.5123L60.7241 94.7107V100.447L59.1937 99.5134L58.9817 99.3841L58.851 99.5952L55.573 104.887L55.5355 104.948V104.961C55.0712 105.643 55.0739 106.433 55.4245 107.052C55.7765 107.673 56.469 108.108 57.3464 108.108ZM71.4572 110.348V112.393L66.0609 109.102L71.4572 105.812V107.857V108.107H71.7072H78.6928C80.3386 108.107 81.3667 106.411 80.469 104.89L80.4691 104.89L80.4656 104.885L77.4774 100.117L79.1967 99.0567L82.1491 103.767V103.801L82.1838 103.86C83.7862 106.577 81.7877 110.098 78.6928 110.098H71.7072H71.4572V110.348Z" fill="#DCC096" stroke="#333333" stroke-width="0.5"/>
<path d="M67.5865 97.9591H67.4305L69.3505 95.1391H67.7785L65.1145 99.1351C64.7905 99.6031 64.6105 100.179 64.6105 100.827C64.6105 102.519 65.8345 103.695 67.5865 103.695C69.3265 103.695 70.5505 102.519 70.5505 100.827C70.5505 99.1351 69.3265 97.9591 67.5865 97.9591ZM67.5865 102.387C66.6625 102.387 65.9905 101.787 65.9905 100.827C65.9905 99.8671 66.6625 99.2671 67.5865 99.2671C68.4985 99.2671 69.1705 99.8671 69.1705 100.827C69.1705 101.775 68.4985 102.387 67.5865 102.387Z" fill="#333333"/>
<path d="M61.595 116.938H57.99V121.838H58.795V117.708H60.79V121.838H61.595V116.938ZM65.1039 121.929C66.0069 121.929 66.8049 121.467 67.2109 120.753L66.5109 120.354C66.2589 120.837 65.7199 121.145 65.1039 121.145C64.0469 121.145 63.3469 120.396 63.3469 119.388C63.3469 118.38 64.0469 117.631 65.1039 117.631C65.7199 117.631 66.2519 117.939 66.5109 118.422L67.2109 118.016C66.7979 117.302 65.9999 116.847 65.1039 116.847C63.6129 116.847 62.5419 117.967 62.5419 119.388C62.5419 120.809 63.6129 121.929 65.1039 121.929ZM71.8899 116.938H70.0839V121.838H70.8889V120.158H71.8899C72.8139 120.158 73.5139 119.451 73.5139 118.548C73.5139 117.638 72.8139 116.938 71.8899 116.938ZM71.8899 119.402H70.8889V117.694H71.8899C72.3659 117.694 72.7089 118.051 72.7089 118.548C72.7089 119.038 72.3659 119.402 71.8899 119.402ZM75.9171 121.929C76.9391 121.929 77.6531 121.383 77.6531 120.487C77.6531 119.514 76.8341 119.262 76.0221 119.003C75.3081 118.779 75.0351 118.618 75.0351 118.24C75.0351 117.869 75.3361 117.631 75.8051 117.631C76.3511 117.631 76.6591 117.925 76.8341 118.317L77.5131 117.925C77.2051 117.274 76.6101 116.847 75.8051 116.847C74.9791 116.847 74.2301 117.358 74.2301 118.261C74.2301 119.185 74.9721 119.465 75.7351 119.696C76.4631 119.92 76.8481 120.067 76.8481 120.501C76.8481 120.858 76.5751 121.145 75.9381 121.145C75.2731 121.145 74.8951 120.816 74.7201 120.319L74.0271 120.725C74.2861 121.453 74.9511 121.929 75.9171 121.929Z" fill="#333333"/>
</svg>
