<?xml version="1.0" encoding="utf-8"?>
<!-- Generator: Adobe Illustrator 25.4.1, SVG Export Plug-In . SVG Version: 6.00 Build 0)  -->
<svg version="1.1" id="Слой_1" xmlns="http://www.w3.org/2000/svg" xmlns:xlink="http://www.w3.org/1999/xlink" x="0px" y="0px"
	 viewBox="0 0 122 122" style="enable-background:new 0 0 122 122;" xml:space="preserve">
<style type="text/css">
	.st0{fill:#F5D19B;}
	.st1{fill:none;stroke:#000000;stroke-miterlimit:10;}
</style>
<path class="st0" d="M60.9,121.8c33.6,0,60.9-27.3,60.9-60.9S94.5,0,60.9,0S0,27.3,0,60.9S27.3,121.8,60.9,121.8z"/>
<path class="st1" d="M85.3,67.7c0,13.3-10.8,24.2-24.2,24.2c-13.3,0-24.2-10.8-24.2-24.2"/>
<path class="st1" d="M60.9,114.4c29.5,0,53.5-24,53.5-53.5S90.4,7.4,60.9,7.4S7.4,31.4,7.4,60.9S31.4,114.4,60.9,114.4z"/>
<path class="st1" d="M90.7,40.5c0,5.6-4.5,10.1-10.1,10.1s-10.1-4.5-10.1-10.1"/>
<path class="st1" d="M51.7,40.5c0,5.6-4.5,10.1-10.1,10.1s-10.1-4.5-10.1-10.1"/>
<path class="st1" d="M63.3,49.2L52.7,71.7h13.5"/>
</svg>
