<svg width="73" height="73" viewBox="0 0 73 73" fill="none" xmlns="http://www.w3.org/2000/svg">
<path d="M36.4994 72.6438C56.4611 72.6438 72.6433 56.4616 72.6433 36.4999C72.6433 16.5381 56.4611 0.355957 36.4994 0.355957C16.5376 0.355957 0.355469 16.5381 0.355469 36.4999C0.355469 56.4616 16.5376 72.6438 36.4994 72.6438Z" fill="#D9D9D9"/>
<path d="M36.4415 68.2521C53.9776 68.2521 68.1935 54.0362 68.1935 36.5001C68.1935 18.9639 53.9776 4.74805 36.4415 4.74805C18.9053 4.74805 4.68945 18.9639 4.68945 36.5001C4.68945 54.0362 18.9053 68.2521 36.4415 68.2521Z" stroke="black" stroke-miterlimit="10"/>
<path d="M54.1273 29.9121C54.1273 33.2357 51.4566 35.9064 48.133 35.9064C44.8094 35.9064 42.1387 33.2357 42.1387 29.9121" stroke="black" stroke-miterlimit="10"/>
<path d="M42.1387 30.0309C42.1387 26.7074 44.8094 24.0366 48.133 24.0366C51.4566 24.0366 54.1273 26.7074 54.1273 30.0309" stroke="black" stroke-miterlimit="10"/>
<path d="M18.9316 30.0309C18.9316 26.7074 21.6024 24.0366 24.9259 24.0366C28.2495 24.0366 30.9203 26.7074 30.9203 30.0309" stroke="black" stroke-miterlimit="10"/>
<path d="M30.9203 29.9121C30.9203 33.2357 28.2495 35.9064 24.9259 35.9064C21.6024 35.9064 18.9316 33.2357 18.9316 29.9121" stroke="black" stroke-miterlimit="10"/>
<path d="M37.8059 29.5562L31.5742 42.9098H39.5864" stroke="black" stroke-miterlimit="10"/>
<path d="M27.5977 52.7617H45.2838" stroke="black" stroke-miterlimit="10"/>
</svg>
