<svg width="37" height="43" viewBox="0 0 37 43" fill="none" xmlns="http://www.w3.org/2000/svg">
<path d="M20.0061 27.623C19.3373 28.2049 19.3655 29.2435 19.4632 29.69L18.8599 29.5316L17.8781 29.5891C17.8807 29.1689 17.9479 28.0923 18.1961 27.1476C16.9893 26.8306 14.2148 23.8921 15.2835 22.2788C16.1384 20.9882 18.0468 23.2152 18.8941 24.49C19.0982 24.1227 19.4925 23.195 19.437 22.4232C17.5968 20.8351 17.4205 19.0523 18.11 17.6551C18.6615 16.5373 20.546 18.6108 21.4193 19.7873L22.0399 17.4247C20.0147 15.3146 20.0145 15.3144 20.5575 13.2474C20.9918 11.5938 22.6459 13.4804 23.4187 14.6303L24.5647 12.7217C23.3869 11.8862 21.4724 9.76297 23.2374 7.95386C25.0024 6.14475 25.7769 8.51567 25.9436 9.92727L27.3224 7.13288C26.7249 6.13417 26.0589 4.08638 28.1756 3.88482C30.2922 3.68326 30.356 5.40453 30.1233 6.29035C33.6223 2.79018 36.8628 3.95697 36.0182 5.94474C35.397 7.40681 32.1395 7.76725 30.2097 7.77289C31.7649 7.83564 34.0126 8.32903 33.3467 9.9778C32.609 11.8042 29.5173 10.2346 28.0637 9.2215L26.1591 11.5621C27.5753 10.6715 30.3423 9.63058 30.0804 12.5921C29.753 16.294 25.3231 12.2895 25.0129 13.4707L24.3148 16.1283C25.2513 15.4273 27.2278 14.3682 27.6415 15.7395C28.5241 19.2541 25.079 18.5386 23.2462 17.7416L22.3154 21.2853C23.4818 20.1185 25.9006 18.4391 26.2454 21.0549C26.5902 23.6707 23.4588 23.4795 21.8501 23.057L20.7041 24.9654C22.4967 24.2789 25.8507 23.5395 24.9269 26.0746C23.7721 29.2435 20.8421 26.8956 20.0061 27.623Z" fill="#87D6F7"/>
<path d="M24.2204 33.2644C24.577 34.4102 25.4703 34.5511 26.4518 36.3402L26.8088 37.487C26.3026 37.2253 24.9867 36.5451 23.7724 35.9186C22.8486 37.044 17.8153 38.6106 16.7418 40.6205C11.861 35.8557 21.5988 35.7572 22.2846 33.8669C12.2512 30.2859 9.44922 34.9307 8.61707 32.2572C14.4312 29.107 19.0601 31.241 20.6478 32.7018C19.9435 31.8037 18.3623 29.726 17.6721 28.6002C16.8094 27.193 4.89776 27.1303 5.82176 26.0055C6.41977 22.4689 13.217 25.6583 16.5409 27.695C16.3325 27.4806 15.8443 26.8229 15.5593 25.9071C14.5777 24.1192 6.68763 21.965 4.15747 20.6585C6.06488 18.054 11.7408 21.3703 14.3403 23.354C13.7255 22.2884 12.4246 19.928 12.1392 19.0113C11.7826 17.8654 3.74307 16.5982 3.02981 14.3067C7.43834 12.0966 11.3954 17.9861 11.545 17.1023C11.6947 16.2185 5.05782 9.90507 6.04275 6.24707C9.73534 6.10315 11.9242 13.7721 12.557 17.6245C12.7676 14.2075 13.5937 7.5827 15.213 8.41925C17.2371 9.46495 13.688 18.5292 14.0446 19.6751C14.33 20.5917 15.5516 22.6971 16.1267 23.6352C15.9387 22.5766 15.6525 19.9286 16.0114 17.806C16.4599 15.1529 19.9747 12.8021 20.2125 13.5659C20.4027 14.177 18.143 21.4715 16.9894 25.0424L19.2211 28.1181C18.6958 26.8853 18.1519 23.5916 20.1787 20.2793C22.7121 16.1391 27.6543 18.3714 24.4379 18.9536C21.8648 19.4194 20.463 26.1955 20.0838 29.5253L23.0588 33.6259C22.4146 32.0111 21.2933 28.2267 21.9617 26.0078C22.7972 23.2342 29.8855 21.4468 27.1446 23.5567C24.4037 25.6666 23.8637 32.1186 24.2204 33.2644Z" fill="#00AEEF"/>
</svg>
