<svg width="616" height="340" viewBox="0 0 616 340" fill="none" xmlns="http://www.w3.org/2000/svg">
<path d="M137.891 61.178C160.346 38.7231 181.308 72.9702 186.668 127.644" stroke="white" stroke-width="1.5" stroke-dasharray="4 4"/>
<path d="M310.487 239.135C315.748 163.86 405.898 146.405 444.693 189.294" stroke="white" stroke-width="1.5" stroke-dasharray="4 4"/>
<path d="M308.879 233.774C312.095 173.205 365.161 76.7224 388.209 113.707" stroke="white" stroke-width="1.5" stroke-dasharray="4 4"/>
<path d="M386.181 283.256C382.965 213.574 408.157 177.662 440.854 190.526" stroke="white" stroke-width="1.5" stroke-dasharray="4 4"/>
<path d="M534.005 210.19C534.005 174.813 490.588 148.012 449.851 188.75" stroke="white" stroke-width="1.5" stroke-dasharray="4 4"/>
<path d="M391.961 111.563C391.961 81.0103 338.896 59.5701 325.496 97.6268" stroke="white" stroke-width="1.5" stroke-dasharray="4 4"/>
<path d="M442.883 181.245C438.059 110.492 408.578 80.4748 394.641 113.708" stroke="white" stroke-width="1.5" stroke-dasharray="4 4"/>
<path d="M312.111 235.383C325.627 216.287 373.737 218.23 388.209 253.607" stroke="white" stroke-width="1.5" stroke-dasharray="4 4"/>
<path d="M250.454 210.726C252.769 185.255 298.607 179.041 307.332 238.68" stroke="white" stroke-width="1.5" stroke-dasharray="4 4"/>
<path d="M308.995 234.478C308.995 141.212 230.761 149.595 228.057 173.373" stroke="white" stroke-width="1.5" stroke-dasharray="4 4"/>
<path d="M155.043 178.03C146.351 145.701 158.26 104.596 186.668 131.396" stroke="white" stroke-width="1.5" stroke-dasharray="4 4"/>
<path d="M118.595 172.669C122.347 154.445 144.859 148.549 150.755 172.669" stroke="white" stroke-width="1.5" stroke-dasharray="4 4"/>
<path d="M224.305 171.765C224.305 111.196 194.097 108.558 184.64 135.782" stroke="white" stroke-width="1.5" stroke-dasharray="4 4"/>
<path d="M578.494 159.805C550.085 144.797 531.861 173.741 539.365 206.438" stroke="white" stroke-width="1.5" stroke-dasharray="4 4"/>
<path d="M552.765 69.7546C552.765 43.4896 504.524 34.3774 493.804 56.3542" stroke="white" stroke-width="1.5" stroke-dasharray="4 4"/>
<path d="M37.1206 188.214C41.7902 163.619 82.6817 148.013 104.871 181.71" stroke="white" stroke-width="1.5" stroke-dasharray="4 4"/>
<path d="M77.8577 107.275C86.2641 89.3636 123.693 107.065 112.809 178.503" stroke="white" stroke-width="1.5" stroke-dasharray="4 4"/>
<path d="M68.6852 126.803C72.0771 92.4359 86.9698 29.0171 131.995 63.3221" stroke="white" stroke-width="1.5" stroke-dasharray="4 4"/>
<path d="M225.737 171.952C225.737 105.667 279.399 47.2417 322.28 90.6585" stroke="white" stroke-width="1.5" stroke-dasharray="4 4"/>
<path d="M253.67 204.83C248.846 159.269 271.358 78.8666 316.384 94.4111" stroke="white" stroke-width="1.5" stroke-dasharray="4 4"/>
<path d="M449.431 187.31C431.627 82.0833 459.499 35.4497 492.196 59.5703" stroke="white" stroke-width="1.5" stroke-dasharray="4 4"/>
<path d="M451.039 189.989C451.039 139.972 543.653 82.6185 579.03 154.98" stroke="white" stroke-width="1.5" stroke-dasharray="4 4"/>
<g opacity="0.1" filter="url(#filter0_f_6064_17140)">
<path d="M389.066 288.173C386.353 289.903 389.066 295.024 389.066 295.024C389.066 295.024 372.478 289.818 369.898 288.173C364.605 284.799 364.605 279.329 369.898 275.954C375.191 272.58 383.773 272.58 389.066 275.954C394.359 279.329 394.359 284.799 389.066 288.173Z" fill="black"/>
</g>
<path d="M400.615 281.161C398.948 282.859 395.938 286.205 393.358 289.111C392.065 290.567 390.876 291.918 390.009 292.905C389.695 293.264 389.423 293.574 389.204 293.824C388.998 293.572 388.743 293.261 388.449 292.902C387.63 291.902 386.504 290.535 385.28 289.067C382.84 286.143 379.982 282.787 378.385 281.161C372.237 274.901 372.237 264.747 378.385 258.487C384.525 252.235 394.475 252.235 400.615 258.487C406.763 264.747 406.763 274.901 400.615 281.161Z" fill="#009FE3" stroke="white" stroke-width="1.54744"/>
<path fill-rule="evenodd" clip-rule="evenodd" d="M386.86 272.806C385.403 274.462 383.948 276.003 382.9 277.066C383.33 277.819 384.421 279.777 385.339 281.584C386.018 281.109 387.765 278.975 389.634 276.433C391.203 278.4 392.771 280.249 393.948 281.584C394.139 281.333 394.837 280.078 396.1 277.066C394.748 275.99 393.381 274.484 392.127 272.895C394.078 269.997 395.67 267.28 395.67 266.374C395.67 264.266 393.517 261.404 392.8 260.651C391.796 259.597 387.922 259.296 386.344 260.651C384.706 262.058 383.33 264.078 383.33 266.374C383.33 267.551 384.864 270.058 386.86 272.806ZM392.37 265.019C392.099 266.059 391.023 267.691 389.643 269.466C388.249 267.389 387.234 265.617 386.917 265.019C387.348 264.266 390.648 263.211 392.37 265.019Z" fill="white"/>
<g opacity="0.1" filter="url(#filter1_f_6064_17140)">
<path d="M581.066 189.173C578.353 190.903 581.066 196.024 581.066 196.024C581.066 196.024 564.479 190.818 561.898 189.173C556.605 185.799 556.605 180.329 561.898 176.954C567.191 173.58 575.773 173.58 581.066 176.954C586.359 180.329 586.359 185.799 581.066 189.173Z" fill="black"/>
</g>
<path d="M592.615 182.161C590.948 183.859 587.938 187.205 585.358 190.111C584.065 191.567 582.876 192.918 582.009 193.905C581.695 194.264 581.423 194.574 581.204 194.824C580.998 194.572 580.743 194.261 580.449 193.902C579.63 192.902 578.504 191.535 577.28 190.067C574.84 187.143 571.982 183.787 570.385 182.161C564.237 175.901 564.237 165.747 570.385 159.487C576.525 153.235 586.475 153.235 592.615 159.487C598.763 165.747 598.763 175.901 592.615 182.161Z" fill="#009FE3" stroke="white" stroke-width="1.54744"/>
<path fill-rule="evenodd" clip-rule="evenodd" d="M578.86 173.806C577.403 175.462 575.948 177.003 574.9 178.066C575.33 178.819 576.421 180.777 577.339 182.584C578.018 182.109 579.765 179.975 581.634 177.433C583.203 179.4 584.771 181.249 585.948 182.584C586.139 182.333 586.837 181.078 588.1 178.066C586.748 176.99 585.381 175.484 584.127 173.895C586.078 170.997 587.67 168.28 587.67 167.374C587.67 165.266 585.517 162.404 584.8 161.651C583.796 160.597 579.922 160.296 578.344 161.651C576.706 163.058 575.33 165.078 575.33 167.374C575.33 168.551 576.864 171.058 578.86 173.806ZM584.37 166.019C584.099 167.059 583.023 168.691 581.643 170.466C580.249 168.389 579.234 166.617 578.917 166.019C579.348 165.266 582.648 164.211 584.37 166.019Z" fill="white"/>
<g opacity="0.1" filter="url(#filter2_f_6064_17140)">
<path d="M540.553 241.336C537.758 243.024 540.553 248.024 540.553 248.024C540.553 248.024 523.463 242.942 520.804 241.336C515.351 238.042 515.351 232.702 520.804 229.408C526.258 226.115 535.099 226.115 540.553 229.408C546.006 232.702 546.006 238.042 540.553 241.336Z" fill="black"/>
</g>
<path d="M541.556 245.928C541.216 246.295 540.924 246.611 540.694 246.861C540.477 246.608 540.204 246.292 539.886 245.925C539.042 244.949 537.882 243.614 536.62 242.182C534.107 239.327 531.162 236.051 529.516 234.464C523.193 228.363 523.193 218.485 529.516 212.384C535.856 206.269 546.144 206.269 552.484 212.384C558.807 218.485 558.807 228.363 552.484 234.464C550.766 236.121 547.665 239.387 545.006 242.224C543.674 243.646 542.449 244.965 541.556 245.928Z" fill="#009FE3" stroke="white" stroke-width="1.54744"/>
<path fill-rule="evenodd" clip-rule="evenodd" d="M538.28 226.335C536.778 227.951 535.28 229.455 534.2 230.494C534.643 231.229 535.767 233.14 536.713 234.904C537.412 234.441 539.213 232.357 541.138 229.875C542.755 231.795 544.37 233.6 545.583 234.904C545.78 234.659 546.499 233.434 547.8 230.494C546.407 229.443 544.998 227.973 543.706 226.422C545.717 223.593 547.357 220.941 547.357 220.056C547.357 217.998 545.139 215.205 544.4 214.469C543.365 213.44 539.374 213.146 537.748 214.469C536.06 215.843 534.643 217.815 534.643 220.056C534.643 221.205 536.223 223.652 538.28 226.335ZM543.957 218.733C543.678 219.749 542.57 221.342 541.147 223.075C539.712 221.046 538.665 219.317 538.339 218.733C538.783 217.998 542.183 216.969 543.957 218.733Z" fill="white"/>
<g opacity="0.1" filter="url(#filter3_f_6064_17140)">
<path d="M553.066 98.1732C550.353 99.9026 553.066 105.024 553.066 105.024C553.066 105.024 536.479 99.818 533.898 98.1732C528.605 94.7991 528.605 89.3286 533.898 85.9544C539.191 82.5803 547.773 82.5803 553.066 85.9544C558.359 89.3286 558.359 94.7991 553.066 98.1732Z" fill="black"/>
</g>
<path d="M564.615 91.1612C562.948 92.859 559.938 96.2046 557.358 99.1109C556.065 100.567 554.876 101.918 554.009 102.905C553.695 103.264 553.423 103.574 553.204 103.824C552.998 103.572 552.743 103.261 552.449 102.902C551.63 101.902 550.504 100.535 549.28 99.0673C546.84 96.1432 543.982 92.7871 542.385 91.1612C536.237 84.9014 536.237 74.7465 542.385 68.4867C548.525 62.2346 558.475 62.2346 564.615 68.4867C570.763 74.7465 570.763 84.9014 564.615 91.1612Z" fill="#009FE3" stroke="white" stroke-width="1.54744"/>
<path fill-rule="evenodd" clip-rule="evenodd" d="M550.86 82.8057C549.403 84.462 547.948 86.0026 546.9 87.0663C547.33 87.8192 548.421 89.777 549.339 91.5841C550.018 91.1094 551.765 88.9747 553.634 86.4329C555.203 88.3997 556.771 90.2489 557.948 91.5841C558.139 91.3331 558.837 90.0782 560.1 87.0663C558.748 85.9897 557.381 84.4839 556.127 82.8949C558.078 79.9969 559.67 77.2805 559.67 76.3739C559.67 74.2655 557.517 71.4042 556.8 70.6512C555.796 69.597 551.922 69.2959 550.344 70.6512C548.706 72.0577 547.33 74.0784 547.33 76.3739C547.33 77.5514 548.864 80.0577 550.86 82.8057ZM556.37 75.0185C556.099 76.0593 555.023 77.6914 553.643 79.4662C552.249 77.3885 551.234 75.6168 550.917 75.0185C551.348 74.2655 554.648 73.2114 556.37 75.0185Z" fill="white"/>
<g opacity="0.1" filter="url(#filter4_f_6064_17140)">
<path d="M491.066 90.3362C488.353 92.0244 491.066 97.0237 491.066 97.0237C491.066 97.0237 474.478 91.9419 471.898 90.3362C466.605 87.0424 466.605 81.7021 471.898 78.4083C477.191 75.1145 485.773 75.1145 491.066 78.4083C496.359 81.7021 496.359 87.0424 491.066 90.3362Z" fill="black"/>
</g>
<path d="M502.622 83.4717C500.954 85.1293 497.944 88.3955 495.364 91.2326C494.071 92.6542 492.882 93.9731 492.016 94.9364C491.698 95.2898 491.423 95.5955 491.203 95.8408C490.997 95.5935 490.74 95.287 490.444 94.9337C489.624 93.9574 488.498 92.6228 487.274 91.1903C484.834 88.3359 481.975 85.0593 480.378 83.4717C474.239 77.3697 474.239 67.4782 480.378 61.3761C486.52 55.2715 496.48 55.2715 502.622 61.3761C508.761 67.4782 508.761 77.3697 502.622 83.4717Z" fill="#009FE3" stroke="white" stroke-width="1.54744"/>
<path fill-rule="evenodd" clip-rule="evenodd" d="M488.86 75.3345C487.403 76.9514 485.948 78.4554 484.9 79.4937C485.33 80.2287 486.421 82.1399 487.339 83.904C488.018 83.4406 489.765 81.3567 491.634 78.8754C493.203 80.7953 494.771 82.6005 495.948 83.904C496.139 83.659 496.837 82.4339 498.1 79.4937C496.748 78.4428 495.381 76.9728 494.127 75.4216C496.078 72.5926 497.67 69.9409 497.67 69.0559C497.67 66.9977 495.517 64.2045 494.8 63.4695C493.796 62.4404 489.922 62.1464 488.344 63.4695C486.706 64.8425 485.33 66.815 485.33 69.0559C485.33 70.2054 486.864 72.652 488.86 75.3345ZM494.37 67.7328C494.099 68.7488 493.023 70.342 491.643 72.0746C490.249 70.0463 489.234 68.3168 488.917 67.7328C489.348 66.9977 492.648 65.9687 494.37 67.7328Z" fill="white"/>
<g opacity="0.1" filter="url(#filter5_f_6064_17140)">
<path d="M391.553 144.173C388.758 145.903 391.553 151.024 391.553 151.024C391.553 151.024 374.463 145.818 371.804 144.173C366.351 140.799 366.351 135.329 371.804 131.954C377.258 128.58 386.099 128.58 391.553 131.954C397.006 135.329 397.006 140.799 391.553 144.173Z" fill="black"/>
</g>
<path d="M403.477 137.153C401.759 138.851 398.659 142.196 396 145.102C394.668 146.559 393.442 147.91 392.55 148.896C392.213 149.269 391.924 149.59 391.694 149.845C391.478 149.588 391.207 149.266 390.892 148.893C390.048 147.893 388.888 146.526 387.626 145.059C385.113 142.134 382.168 138.779 380.523 137.153C374.191 130.895 374.191 120.753 380.523 114.495C386.861 108.232 397.139 108.232 403.477 114.495C409.809 120.753 409.809 130.895 403.477 137.153Z" fill="#009FE3" stroke="white" stroke-width="1.54744"/>
<path fill-rule="evenodd" clip-rule="evenodd" d="M389.28 128.806C387.778 130.462 386.28 132.003 385.2 133.066C385.643 133.819 386.767 135.777 387.713 137.584C388.412 137.109 390.213 134.975 392.138 132.433C393.755 134.4 395.37 136.249 396.583 137.584C396.78 137.333 397.499 136.078 398.8 133.066C397.407 131.99 395.998 130.484 394.706 128.895C396.717 125.997 398.356 123.28 398.356 122.374C398.356 120.266 396.139 117.404 395.4 116.651C394.365 115.597 390.374 115.296 388.748 116.651C387.06 118.058 385.643 120.078 385.643 122.374C385.643 123.551 387.223 126.058 389.28 128.806ZM394.956 121.019C394.678 122.059 393.57 123.691 392.147 125.466C390.712 123.389 389.665 121.617 389.339 121.019C389.783 120.266 393.183 119.211 394.956 121.019Z" fill="white"/>
<g opacity="0.1" filter="url(#filter6_f_6064_17140)">
<path d="M447.066 214.173C444.353 215.903 447.066 221.024 447.066 221.024C447.066 221.024 430.478 215.818 427.898 214.173C422.605 210.799 422.605 205.329 427.898 201.954C433.191 198.58 441.773 198.58 447.066 201.954C452.359 205.329 452.359 210.799 447.066 214.173Z" fill="black"/>
</g>
<path d="M458.615 207.161C456.948 208.859 453.938 212.205 451.358 215.111C450.065 216.567 448.876 217.918 448.009 218.905C447.695 219.264 447.423 219.574 447.204 219.824C446.998 219.572 446.743 219.261 446.449 218.902C445.63 217.902 444.504 216.535 443.28 215.067C440.84 212.143 437.982 208.787 436.385 207.161C430.237 200.901 430.237 190.747 436.385 184.487C442.525 178.235 452.475 178.235 458.615 184.487C464.763 190.747 464.763 200.901 458.615 207.161Z" fill="#009FE3" stroke="white" stroke-width="1.54744"/>
<path fill-rule="evenodd" clip-rule="evenodd" d="M444.86 198.806C443.403 200.462 441.948 202.003 440.9 203.066C441.33 203.819 442.421 205.777 443.339 207.584C444.018 207.109 445.765 204.975 447.634 202.433C449.203 204.4 450.771 206.249 451.948 207.584C452.139 207.333 452.837 206.078 454.1 203.066C452.748 201.99 451.381 200.484 450.127 198.895C452.078 195.997 453.67 193.28 453.67 192.374C453.67 190.266 451.517 187.404 450.8 186.651C449.796 185.597 445.922 185.296 444.344 186.651C442.706 188.058 441.33 190.078 441.33 192.374C441.33 193.551 442.864 196.058 444.86 198.806ZM450.37 191.019C450.099 192.059 449.023 193.691 447.643 195.466C446.249 193.389 445.234 191.617 444.917 191.019C445.348 190.266 448.648 189.211 450.37 191.019Z" fill="white"/>
<g opacity="0.1" filter="url(#filter7_f_6064_17140)">
<path d="M309.066 255.336C306.353 257.024 309.066 262.024 309.066 262.024C309.066 262.024 292.478 256.942 289.898 255.336C284.605 252.042 284.605 246.702 289.898 243.408C295.191 240.115 303.773 240.115 309.066 243.408C314.359 246.702 314.359 252.042 309.066 255.336Z" fill="black"/>
</g>
<path d="M320.622 248.472C318.954 250.129 315.944 253.395 313.364 256.233C312.071 257.654 310.882 258.973 310.016 259.936C309.698 260.29 309.423 260.595 309.203 260.841C308.997 260.594 308.74 260.287 308.444 259.934C307.624 258.957 306.498 257.623 305.274 256.19C302.834 253.336 299.975 250.059 298.378 248.472C292.239 242.37 292.239 232.478 298.378 226.376C304.52 220.271 314.48 220.271 320.622 226.376C326.761 232.478 326.761 242.37 320.622 248.472Z" fill="#009FE3" stroke="white" stroke-width="1.54744"/>
<path fill-rule="evenodd" clip-rule="evenodd" d="M306.86 240.335C305.403 241.951 303.948 243.455 302.9 244.494C303.33 245.229 304.421 247.14 305.339 248.904C306.018 248.441 307.765 246.357 309.634 243.875C311.203 245.795 312.771 247.6 313.948 248.904C314.139 248.659 314.837 247.434 316.1 244.494C314.748 243.443 313.381 241.973 312.127 240.422C314.078 237.593 315.67 234.941 315.67 234.056C315.67 231.998 313.517 229.205 312.8 228.469C311.796 227.44 307.922 227.146 306.344 228.469C304.706 229.843 303.33 231.815 303.33 234.056C303.33 235.205 304.864 237.652 306.86 240.335ZM312.37 232.733C312.099 233.749 311.023 235.342 309.643 237.075C308.249 235.046 307.234 233.317 306.917 232.733C307.348 231.998 310.648 230.969 312.37 232.733Z" fill="white"/>
<g opacity="0.1" filter="url(#filter8_f_6064_17140)">
<path d="M248.066 238.336C245.353 240.024 248.066 245.024 248.066 245.024C248.066 245.024 231.478 239.942 228.898 238.336C223.605 235.042 223.605 229.702 228.898 226.408C234.191 223.115 242.773 223.115 248.066 226.408C253.359 229.702 253.359 235.042 248.066 238.336Z" fill="black"/>
</g>
<path d="M259.622 231.472C257.954 233.129 254.944 236.395 252.364 239.233C251.071 240.654 249.882 241.973 249.016 242.936C248.698 243.29 248.423 243.595 248.203 243.841C247.997 243.594 247.74 243.287 247.444 242.934C246.624 241.957 245.498 240.623 244.274 239.19C241.834 236.336 238.975 233.059 237.378 231.472C231.239 225.37 231.239 215.478 237.378 209.376C243.52 203.271 253.48 203.271 259.622 209.376C265.761 215.478 265.761 225.37 259.622 231.472Z" fill="#009FE3" stroke="white" stroke-width="1.54744"/>
<path fill-rule="evenodd" clip-rule="evenodd" d="M245.86 223.335C244.403 224.951 242.948 226.455 241.9 227.494C242.33 228.229 243.421 230.14 244.339 231.904C245.018 231.441 246.765 229.357 248.634 226.875C250.203 228.795 251.771 230.6 252.948 231.904C253.139 231.659 253.837 230.434 255.1 227.494C253.748 226.443 252.381 224.973 251.127 223.422C253.078 220.593 254.67 217.941 254.67 217.056C254.67 214.998 252.517 212.205 251.8 211.469C250.796 210.44 246.922 210.146 245.344 211.469C243.706 212.843 242.33 214.815 242.33 217.056C242.33 218.205 243.864 220.652 245.86 223.335ZM251.37 215.733C251.099 216.749 250.023 218.342 248.643 220.075C247.249 218.046 246.234 216.317 245.917 215.733C246.348 214.998 249.648 213.969 251.37 215.733Z" fill="white"/>
<g opacity="0.1" filter="url(#filter9_f_6064_17140)">
<path d="M184.553 161.336C181.758 163.024 184.553 168.024 184.553 168.024C184.553 168.024 167.463 162.942 164.804 161.336C159.351 158.042 159.351 152.702 164.804 149.408C170.258 146.115 179.099 146.115 184.553 149.408C190.006 152.702 190.006 158.042 184.553 161.336Z" fill="black"/>
</g>
<path d="M185.556 165.928C185.216 166.295 184.924 166.611 184.694 166.861C184.477 166.608 184.204 166.292 183.886 165.925C183.042 164.949 181.882 163.614 180.62 162.182C178.107 159.327 175.162 156.051 173.516 154.464C167.193 148.363 167.193 138.485 173.516 132.384C179.856 126.269 190.144 126.269 196.484 132.384C202.807 138.485 202.807 148.363 196.484 154.464C194.766 156.121 191.665 159.387 189.006 162.224C187.674 163.646 186.449 164.965 185.556 165.928Z" fill="#009FE3" stroke="white" stroke-width="1.54744"/>
<path fill-rule="evenodd" clip-rule="evenodd" d="M182.28 146.335C180.778 147.951 179.28 149.455 178.2 150.494C178.643 151.229 179.767 153.14 180.713 154.904C181.412 154.441 183.213 152.357 185.138 149.875C186.755 151.795 188.37 153.6 189.583 154.904C189.78 154.659 190.499 153.434 191.8 150.494C190.407 149.443 188.998 147.973 187.706 146.422C189.717 143.593 191.356 140.941 191.356 140.056C191.356 137.998 189.139 135.205 188.4 134.469C187.365 133.44 183.374 133.146 181.748 134.469C180.06 135.843 178.643 137.815 178.643 140.056C178.643 141.205 180.223 143.652 182.28 146.335ZM187.956 138.733C187.678 139.749 186.57 141.342 185.147 143.075C183.712 141.046 182.665 139.317 182.339 138.733C182.783 137.998 186.183 136.969 187.956 138.733Z" fill="white"/>
<g opacity="0.1" filter="url(#filter10_f_6064_17140)">
<path d="M324.066 126.173C321.353 127.903 324.066 133.024 324.066 133.024C324.066 133.024 307.478 127.818 304.898 126.173C299.605 122.799 299.605 117.329 304.898 113.954C310.191 110.58 318.773 110.58 324.066 113.954C329.359 117.329 329.359 122.799 324.066 126.173Z" fill="black"/>
</g>
<path d="M335.615 119.161C333.948 120.859 330.938 124.205 328.358 127.111C327.065 128.567 325.876 129.918 325.009 130.905C324.695 131.264 324.423 131.574 324.204 131.824C323.998 131.572 323.743 131.261 323.449 130.902C322.63 129.902 321.504 128.535 320.28 127.067C317.84 124.143 314.982 120.787 313.385 119.161C307.237 112.901 307.237 102.747 313.385 96.4867C319.525 90.2346 329.475 90.2346 335.615 96.4867C341.763 102.747 341.763 112.901 335.615 119.161Z" fill="#009FE3" stroke="white" stroke-width="1.54744"/>
<path fill-rule="evenodd" clip-rule="evenodd" d="M321.86 110.806C320.403 112.462 318.948 114.003 317.9 115.066C318.33 115.819 319.421 117.777 320.339 119.584C321.018 119.109 322.765 116.975 324.634 114.433C326.203 116.4 327.771 118.249 328.948 119.584C329.139 119.333 329.837 118.078 331.1 115.066C329.748 113.99 328.381 112.484 327.127 110.895C329.078 107.997 330.67 105.28 330.67 104.374C330.67 102.266 328.517 99.4042 327.8 98.6512C326.796 97.597 322.922 97.2959 321.344 98.6512C319.706 100.058 318.33 102.078 318.33 104.374C318.33 105.551 319.864 108.058 321.86 110.806ZM327.37 103.019C327.099 104.059 326.023 105.691 324.643 107.466C323.249 105.389 322.234 103.617 321.917 103.019C322.348 102.266 325.648 101.211 327.37 103.019Z" fill="white"/>
<g opacity="0.1" filter="url(#filter11_f_6064_17140)">
<path d="M134.066 96.1732C131.353 97.9026 134.066 103.024 134.066 103.024C134.066 103.024 117.478 97.818 114.898 96.1732C109.605 92.7991 109.605 87.3286 114.898 83.9544C120.191 80.5803 128.773 80.5803 134.066 83.9544C139.359 87.3286 139.359 92.7991 134.066 96.1732Z" fill="black"/>
</g>
<path d="M145.615 89.1612C143.948 90.859 140.938 94.2046 138.358 97.1109C137.065 98.5672 135.876 99.9182 135.009 100.905C134.695 101.264 134.423 101.574 134.204 101.824C133.998 101.572 133.743 101.261 133.449 100.902C132.63 99.9018 131.504 98.5347 130.28 97.0673C127.84 94.1432 124.982 90.7871 123.385 89.1612C117.237 82.9014 117.237 72.7465 123.385 66.4867C129.525 60.2346 139.475 60.2346 145.615 66.4867C151.763 72.7465 151.763 82.9014 145.615 89.1612Z" fill="#009FE3" stroke="white" stroke-width="1.54744"/>
<path fill-rule="evenodd" clip-rule="evenodd" d="M131.86 80.8057C130.403 82.462 128.948 84.0026 127.9 85.0663C128.33 85.8192 129.421 87.777 130.339 89.5841C131.018 89.1094 132.765 86.9747 134.634 84.4329C136.203 86.3997 137.771 88.2489 138.948 89.5841C139.139 89.3331 139.837 88.0782 141.1 85.0663C139.748 83.9897 138.381 82.4839 137.127 80.8949C139.078 77.9969 140.67 75.2805 140.67 74.3739C140.67 72.2655 138.517 69.4042 137.8 68.6512C136.796 67.597 132.922 67.2959 131.344 68.6512C129.706 70.0577 128.33 72.0784 128.33 74.3739C128.33 75.5514 129.864 78.0577 131.86 80.8057ZM137.37 73.0185C137.099 74.0593 136.023 75.6914 134.643 77.4662C133.249 75.3885 132.234 73.6168 131.917 73.0185C132.348 72.2655 135.648 71.2114 137.37 73.0185Z" fill="white"/>
<g opacity="0.1" filter="url(#filter12_f_6064_17140)">
<path d="M71.0659 137.336C68.3531 139.024 71.0659 144.024 71.0659 144.024C71.0659 144.024 54.4784 138.942 51.8982 137.336C46.6052 134.042 46.6052 128.702 51.8982 125.408C57.1912 122.115 65.7729 122.115 71.0659 125.408C76.3589 128.702 76.3589 134.042 71.0659 137.336Z" fill="black"/>
</g>
<path d="M82.6218 130.472C80.9541 132.129 77.9443 135.395 75.3641 138.233C74.0712 139.654 72.8817 140.973 72.0155 141.936C71.6977 142.29 71.4234 142.595 71.2035 142.841C70.9968 142.594 70.7402 142.287 70.4436 141.934C69.6239 140.957 68.4981 139.623 67.2738 138.19C64.8343 135.336 61.9754 132.059 60.3782 130.472C54.2389 124.37 54.2389 114.478 60.3782 108.376C66.5201 102.271 76.4799 102.271 82.6218 108.376C88.7611 114.478 88.7611 124.37 82.6218 130.472Z" fill="#009FE3" stroke="white" stroke-width="1.54744"/>
<path fill-rule="evenodd" clip-rule="evenodd" d="M68.8598 122.335C67.4025 123.951 65.9483 125.455 64.9 126.494C65.3305 127.229 66.4209 129.14 67.3392 130.904C68.0176 130.441 69.7651 128.357 71.6341 125.875C73.2031 127.795 74.7711 129.6 75.9479 130.904C76.1392 130.659 76.8374 129.434 78.1 126.494C76.748 125.443 75.3809 123.973 74.1265 122.422C76.0779 119.593 77.6696 116.941 77.6696 116.056C77.6696 113.998 75.5174 111.205 74.8 110.469C73.7957 109.44 69.9218 109.146 68.3435 110.469C66.7056 111.843 65.3305 113.815 65.3305 116.056C65.3305 117.205 66.8637 119.652 68.8598 122.335ZM74.3696 114.733C74.0992 115.749 73.0235 117.342 71.6429 119.075C70.2495 117.046 69.2341 115.317 68.9174 114.733C69.3479 113.998 72.6479 112.969 74.3696 114.733Z" fill="white"/>
<g opacity="0.1" filter="url(#filter13_f_6064_17140)">
<path d="M113.066 206.336C110.353 208.024 113.066 213.024 113.066 213.024C113.066 213.024 96.4784 207.942 93.8982 206.336C88.6052 203.042 88.6052 197.702 93.8982 194.408C99.1912 191.115 107.773 191.115 113.066 194.408C118.359 197.702 118.359 203.042 113.066 206.336Z" fill="black"/>
</g>
<path d="M124.622 199.472C122.954 201.129 119.944 204.395 117.364 207.233C116.071 208.654 114.882 209.973 114.016 210.936C113.698 211.29 113.423 211.595 113.203 211.841C112.997 211.594 112.74 211.287 112.444 210.934C111.624 209.957 110.498 208.623 109.274 207.19C106.834 204.336 103.975 201.059 102.378 199.472C96.2389 193.37 96.2389 183.478 102.378 177.376C108.52 171.271 118.48 171.271 124.622 177.376C130.761 183.478 130.761 193.37 124.622 199.472Z" fill="#009FE3" stroke="white" stroke-width="1.54744"/>
<path fill-rule="evenodd" clip-rule="evenodd" d="M110.86 191.335C109.403 192.951 107.948 194.455 106.9 195.494C107.33 196.229 108.421 198.14 109.339 199.904C110.018 199.441 111.765 197.357 113.634 194.875C115.203 196.795 116.771 198.6 117.948 199.904C118.139 199.659 118.837 198.434 120.1 195.494C118.748 194.443 117.381 192.973 116.127 191.422C118.078 188.593 119.67 185.941 119.67 185.056C119.67 182.998 117.517 180.205 116.8 179.469C115.796 178.44 111.922 178.146 110.344 179.469C108.706 180.843 107.33 182.815 107.33 185.056C107.33 186.205 108.864 188.652 110.86 191.335ZM116.37 183.733C116.099 184.749 115.023 186.342 113.643 188.075C112.249 186.046 111.234 184.317 110.917 183.733C111.348 182.998 114.648 181.969 116.37 183.733Z" fill="white"/>
<g opacity="0.1" filter="url(#filter14_f_6064_17140)">
<path d="M153.553 201.173C150.758 202.903 153.553 208.024 153.553 208.024C153.553 208.024 136.463 202.818 133.804 201.173C128.351 197.799 128.351 192.329 133.804 188.954C139.258 185.58 148.099 185.58 153.553 188.954C159.006 192.329 159.006 197.799 153.553 201.173Z" fill="black"/>
</g>
<path d="M165.477 194.153C163.759 195.851 160.659 199.196 158 202.102C156.668 203.559 155.442 204.91 154.55 205.896C154.213 206.269 153.924 206.59 153.694 206.845C153.478 206.588 153.207 206.266 152.892 205.893C152.048 204.893 150.888 203.526 149.626 202.059C147.113 199.134 144.168 195.779 142.523 194.153C136.191 187.895 136.191 177.753 142.523 171.495C148.861 165.232 159.139 165.232 165.477 171.495C171.809 177.753 171.809 187.895 165.477 194.153Z" fill="#009FE3" stroke="white" stroke-width="1.54744"/>
<path fill-rule="evenodd" clip-rule="evenodd" d="M151.28 185.806C149.778 187.462 148.28 189.003 147.2 190.066C147.643 190.819 148.767 192.777 149.713 194.584C150.412 194.109 152.213 191.975 154.138 189.433C155.755 191.4 157.37 193.249 158.583 194.584C158.78 194.333 159.499 193.078 160.8 190.066C159.407 188.99 157.998 187.484 156.706 185.895C158.717 182.997 160.356 180.28 160.356 179.374C160.356 177.266 158.139 174.404 157.4 173.651C156.365 172.597 152.374 172.296 150.748 173.651C149.06 175.058 147.643 177.078 147.643 179.374C147.643 180.551 149.223 183.058 151.28 185.806ZM156.956 178.019C156.678 179.059 155.57 180.691 154.147 182.466C152.712 180.389 151.665 178.617 151.339 178.019C151.783 177.266 155.183 176.211 156.956 178.019Z" fill="white"/>
<g opacity="0.1" filter="url(#filter15_f_6064_17140)">
<path d="M228.553 186.173C225.758 187.903 228.553 193.024 228.553 193.024C228.553 193.024 211.463 187.818 208.804 186.173C203.351 182.799 203.351 177.329 208.804 173.954C214.258 170.58 223.099 170.58 228.553 173.954C234.006 177.329 234.006 182.799 228.553 186.173Z" fill="black"/>
</g>
<path d="M240.477 179.153C238.759 180.851 235.659 184.196 233 187.102C231.668 188.559 230.442 189.91 229.55 190.896C229.213 191.269 228.924 191.59 228.694 191.845C228.478 191.588 228.207 191.266 227.892 190.893C227.048 189.893 225.888 188.526 224.626 187.059C222.113 184.134 219.168 180.779 217.523 179.153C211.191 172.895 211.191 162.753 217.523 156.495C223.861 150.232 234.139 150.232 240.477 156.495C246.809 162.753 246.809 172.895 240.477 179.153Z" fill="#009FE3" stroke="white" stroke-width="1.54744"/>
<path fill-rule="evenodd" clip-rule="evenodd" d="M226.28 170.806C224.778 172.462 223.28 174.003 222.2 175.066C222.643 175.819 223.767 177.777 224.713 179.584C225.412 179.109 227.213 176.975 229.138 174.433C230.755 176.4 232.37 178.249 233.583 179.584C233.78 179.333 234.499 178.078 235.8 175.066C234.407 173.99 232.998 172.484 231.706 170.895C233.717 167.997 235.356 165.28 235.356 164.374C235.356 162.266 233.139 159.404 232.4 158.651C231.365 157.597 227.374 157.296 225.748 158.651C224.06 160.058 222.643 162.078 222.643 164.374C222.643 165.551 224.223 168.058 226.28 170.806ZM231.956 163.019C231.678 164.059 230.57 165.691 229.147 167.466C227.712 165.389 226.665 163.617 226.339 163.019C226.783 162.266 230.183 161.211 231.956 163.019Z" fill="white"/>
<g opacity="0.1" filter="url(#filter16_f_6064_17140)">
<path d="M34.5528 216.173C31.7578 217.903 34.5528 223.024 34.5528 223.024C34.5528 223.024 17.4627 217.818 14.8043 216.173C9.35089 212.799 9.35089 207.329 14.8043 203.954C20.2577 200.58 29.0994 200.58 34.5528 203.954C40.0062 207.329 40.0062 212.799 34.5528 216.173Z" fill="black"/>
</g>
<path d="M46.477 209.153C44.7592 210.851 41.6585 214.196 39.0001 217.102C37.668 218.559 36.4425 219.91 35.5501 220.896C35.2132 221.269 34.9237 221.59 34.6938 221.845C34.4777 221.588 34.2068 221.266 33.8922 220.893C33.0477 219.893 31.8878 218.526 30.6265 217.059C28.1129 214.134 25.1679 210.779 23.523 209.153C17.1906 202.895 17.1906 192.753 23.523 186.495C29.8606 180.232 40.1394 180.232 46.477 186.495C52.8094 192.753 52.8094 202.895 46.477 209.153Z" fill="#009FE3" stroke="white" stroke-width="1.54744"/>
<path fill-rule="evenodd" clip-rule="evenodd" d="M32.2797 200.806C30.7783 202.462 29.28 204.003 28.2 205.066C28.6434 205.819 29.7669 207.777 30.713 209.584C31.4119 209.109 33.2125 206.975 35.138 204.433C36.7546 206.4 38.3701 208.249 39.5826 209.584C39.7797 209.333 40.4991 208.078 41.8 205.066C40.407 203.99 38.9984 202.484 37.706 200.895C39.7166 197.997 41.3565 195.28 41.3565 194.374C41.3565 192.266 39.1391 189.404 38.4 188.651C37.3652 187.597 33.3739 187.296 31.7478 188.651C30.0603 190.058 28.6434 192.078 28.6434 194.374C28.6434 195.551 30.2231 198.058 32.2797 200.806ZM37.9565 193.019C37.6779 194.059 36.5696 195.691 35.1472 197.466C33.7115 195.389 32.6653 193.617 32.3391 193.019C32.7826 192.266 36.1826 191.211 37.9565 193.019Z" fill="white"/>
<defs>
<filter id="filter0_f_6064_17140" x="359.739" y="267.234" width="39.4867" height="33.9796" filterUnits="userSpaceOnUse" color-interpolation-filters="sRGB">
<feFlood flood-opacity="0" result="BackgroundImageFix"/>
<feBlend mode="normal" in="SourceGraphic" in2="BackgroundImageFix" result="shape"/>
<feGaussianBlur stdDeviation="3.09487" result="effect1_foregroundBlur_6064_17140"/>
</filter>
<filter id="filter1_f_6064_17140" x="551.739" y="168.234" width="39.4866" height="33.9796" filterUnits="userSpaceOnUse" color-interpolation-filters="sRGB">
<feFlood flood-opacity="0" result="BackgroundImageFix"/>
<feBlend mode="normal" in="SourceGraphic" in2="BackgroundImageFix" result="shape"/>
<feGaussianBlur stdDeviation="3.09487" result="effect1_foregroundBlur_6064_17140"/>
</filter>
<filter id="filter2_f_6064_17140" x="510.525" y="220.748" width="40.3081" height="33.4652" filterUnits="userSpaceOnUse" color-interpolation-filters="sRGB">
<feFlood flood-opacity="0" result="BackgroundImageFix"/>
<feBlend mode="normal" in="SourceGraphic" in2="BackgroundImageFix" result="shape"/>
<feGaussianBlur stdDeviation="3.09487" result="effect1_foregroundBlur_6064_17140"/>
</filter>
<filter id="filter3_f_6064_17140" x="523.739" y="77.2341" width="39.4866" height="33.9796" filterUnits="userSpaceOnUse" color-interpolation-filters="sRGB">
<feFlood flood-opacity="0" result="BackgroundImageFix"/>
<feBlend mode="normal" in="SourceGraphic" in2="BackgroundImageFix" result="shape"/>
<feGaussianBlur stdDeviation="3.09487" result="effect1_foregroundBlur_6064_17140"/>
</filter>
<filter id="filter4_f_6064_17140" x="461.739" y="69.7482" width="39.4866" height="33.4652" filterUnits="userSpaceOnUse" color-interpolation-filters="sRGB">
<feFlood flood-opacity="0" result="BackgroundImageFix"/>
<feBlend mode="normal" in="SourceGraphic" in2="BackgroundImageFix" result="shape"/>
<feGaussianBlur stdDeviation="3.09487" result="effect1_foregroundBlur_6064_17140"/>
</filter>
<filter id="filter5_f_6064_17140" x="361.524" y="123.234" width="40.3081" height="33.9796" filterUnits="userSpaceOnUse" color-interpolation-filters="sRGB">
<feFlood flood-opacity="0" result="BackgroundImageFix"/>
<feBlend mode="normal" in="SourceGraphic" in2="BackgroundImageFix" result="shape"/>
<feGaussianBlur stdDeviation="3.09487" result="effect1_foregroundBlur_6064_17140"/>
</filter>
<filter id="filter6_f_6064_17140" x="417.739" y="193.234" width="39.4867" height="33.9796" filterUnits="userSpaceOnUse" color-interpolation-filters="sRGB">
<feFlood flood-opacity="0" result="BackgroundImageFix"/>
<feBlend mode="normal" in="SourceGraphic" in2="BackgroundImageFix" result="shape"/>
<feGaussianBlur stdDeviation="3.09487" result="effect1_foregroundBlur_6064_17140"/>
</filter>
<filter id="filter7_f_6064_17140" x="279.739" y="234.748" width="39.4867" height="33.4652" filterUnits="userSpaceOnUse" color-interpolation-filters="sRGB">
<feFlood flood-opacity="0" result="BackgroundImageFix"/>
<feBlend mode="normal" in="SourceGraphic" in2="BackgroundImageFix" result="shape"/>
<feGaussianBlur stdDeviation="3.09487" result="effect1_foregroundBlur_6064_17140"/>
</filter>
<filter id="filter8_f_6064_17140" x="218.739" y="217.748" width="39.4867" height="33.4652" filterUnits="userSpaceOnUse" color-interpolation-filters="sRGB">
<feFlood flood-opacity="0" result="BackgroundImageFix"/>
<feBlend mode="normal" in="SourceGraphic" in2="BackgroundImageFix" result="shape"/>
<feGaussianBlur stdDeviation="3.09487" result="effect1_foregroundBlur_6064_17140"/>
</filter>
<filter id="filter9_f_6064_17140" x="154.524" y="140.748" width="40.3081" height="33.4652" filterUnits="userSpaceOnUse" color-interpolation-filters="sRGB">
<feFlood flood-opacity="0" result="BackgroundImageFix"/>
<feBlend mode="normal" in="SourceGraphic" in2="BackgroundImageFix" result="shape"/>
<feGaussianBlur stdDeviation="3.09487" result="effect1_foregroundBlur_6064_17140"/>
</filter>
<filter id="filter10_f_6064_17140" x="294.739" y="105.234" width="39.4867" height="33.9796" filterUnits="userSpaceOnUse" color-interpolation-filters="sRGB">
<feFlood flood-opacity="0" result="BackgroundImageFix"/>
<feBlend mode="normal" in="SourceGraphic" in2="BackgroundImageFix" result="shape"/>
<feGaussianBlur stdDeviation="3.09487" result="effect1_foregroundBlur_6064_17140"/>
</filter>
<filter id="filter11_f_6064_17140" x="104.739" y="75.2341" width="39.4867" height="33.9796" filterUnits="userSpaceOnUse" color-interpolation-filters="sRGB">
<feFlood flood-opacity="0" result="BackgroundImageFix"/>
<feBlend mode="normal" in="SourceGraphic" in2="BackgroundImageFix" result="shape"/>
<feGaussianBlur stdDeviation="3.09487" result="effect1_foregroundBlur_6064_17140"/>
</filter>
<filter id="filter12_f_6064_17140" x="41.7387" y="116.748" width="39.4867" height="33.4652" filterUnits="userSpaceOnUse" color-interpolation-filters="sRGB">
<feFlood flood-opacity="0" result="BackgroundImageFix"/>
<feBlend mode="normal" in="SourceGraphic" in2="BackgroundImageFix" result="shape"/>
<feGaussianBlur stdDeviation="3.09487" result="effect1_foregroundBlur_6064_17140"/>
</filter>
<filter id="filter13_f_6064_17140" x="83.7387" y="185.748" width="39.4867" height="33.4652" filterUnits="userSpaceOnUse" color-interpolation-filters="sRGB">
<feFlood flood-opacity="0" result="BackgroundImageFix"/>
<feBlend mode="normal" in="SourceGraphic" in2="BackgroundImageFix" result="shape"/>
<feGaussianBlur stdDeviation="3.09487" result="effect1_foregroundBlur_6064_17140"/>
</filter>
<filter id="filter14_f_6064_17140" x="123.524" y="180.234" width="40.3081" height="33.9796" filterUnits="userSpaceOnUse" color-interpolation-filters="sRGB">
<feFlood flood-opacity="0" result="BackgroundImageFix"/>
<feBlend mode="normal" in="SourceGraphic" in2="BackgroundImageFix" result="shape"/>
<feGaussianBlur stdDeviation="3.09487" result="effect1_foregroundBlur_6064_17140"/>
</filter>
<filter id="filter15_f_6064_17140" x="198.524" y="165.234" width="40.3081" height="33.9796" filterUnits="userSpaceOnUse" color-interpolation-filters="sRGB">
<feFlood flood-opacity="0" result="BackgroundImageFix"/>
<feBlend mode="normal" in="SourceGraphic" in2="BackgroundImageFix" result="shape"/>
<feGaussianBlur stdDeviation="3.09487" result="effect1_foregroundBlur_6064_17140"/>
</filter>
<filter id="filter16_f_6064_17140" x="4.52449" y="195.234" width="40.3081" height="33.9796" filterUnits="userSpaceOnUse" color-interpolation-filters="sRGB">
<feFlood flood-opacity="0" result="BackgroundImageFix"/>
<feBlend mode="normal" in="SourceGraphic" in2="BackgroundImageFix" result="shape"/>
<feGaussianBlur stdDeviation="3.09487" result="effect1_foregroundBlur_6064_17140"/>
</filter>
</defs>
</svg>
