<svg width="663" height="183" viewBox="0 0 663 183" fill="none" xmlns="http://www.w3.org/2000/svg">
<g clip-path="url(#clip0_374_1243)">
<rect width="663" height="183" fill="white" fill-opacity="0.1"/>
<g clip-path="url(#clip1_374_1243)">
<rect y="-753" width="664" height="937" rx="4" fill="#8CB1E2"/>
<g clip-path="url(#clip2_374_1243)">
<path d="M412.218 24.5941C428.219 8.59347 443.156 32.9968 446.975 71.9554" stroke="white" stroke-width="1.06885" stroke-dasharray="2.85 2.85"/>
<path d="M535.205 151.4C538.953 97.7614 603.191 85.3235 630.835 115.885" stroke="white" stroke-width="1.06885" stroke-dasharray="2.85 2.85"/>
<path d="M534.059 147.581C536.351 104.421 574.163 35.6706 590.587 62.0249" stroke="white" stroke-width="1.06885" stroke-dasharray="2.85 2.85"/>
<path d="M589.142 182.839C586.85 133.186 604.801 107.596 628.1 116.763" stroke="white" stroke-width="1.06885" stroke-dasharray="2.85 2.85"/>
<path d="M694.476 130.775C694.476 105.567 663.538 86.4696 634.511 115.498" stroke="white" stroke-width="1.06885" stroke-dasharray="2.85 2.85"/>
<path d="M593.261 60.4966C593.261 38.7255 555.448 23.4479 545.899 50.5659" stroke="white" stroke-width="1.06885" stroke-dasharray="2.85 2.85"/>
<path d="M629.545 110.15C626.108 59.7335 605.101 38.3444 595.17 62.0251" stroke="white" stroke-width="1.06885" stroke-dasharray="2.85 2.85"/>
<path d="M536.362 148.727C545.992 135.119 580.274 136.504 590.587 161.713" stroke="white" stroke-width="1.06885" stroke-dasharray="2.85 2.85"/>
<path d="M492.427 131.157C494.077 113.007 526.74 108.579 532.957 151.076" stroke="white" stroke-width="1.06885" stroke-dasharray="2.85 2.85"/>
<path d="M534.142 148.082C534.142 81.6236 478.394 87.5971 476.468 104.54" stroke="white" stroke-width="1.06885" stroke-dasharray="2.85 2.85"/>
<path d="M424.44 107.859C418.247 84.8221 426.732 55.5319 446.975 74.6293" stroke="white" stroke-width="1.06885" stroke-dasharray="2.85 2.85"/>
<path d="M398.468 104.04C401.142 91.0532 417.184 86.8519 421.385 104.039" stroke="white" stroke-width="1.06885" stroke-dasharray="2.85 2.85"/>
<path d="M473.794 103.395C473.794 60.2355 452.269 58.3555 445.53 77.7544" stroke="white" stroke-width="1.06885" stroke-dasharray="2.85 2.85"/>
<path d="M340.413 115.116C343.74 97.5898 372.878 86.4696 388.689 110.482" stroke="white" stroke-width="1.06885" stroke-dasharray="2.85 2.85"/>
<path d="M369.44 57.4409C375.431 44.6779 402.101 57.2914 394.346 108.196" stroke="white" stroke-width="1.06885" stroke-dasharray="2.85 2.85"/>
<path d="M362.904 71.3564C365.321 46.8673 375.933 1.67718 408.017 26.1218" stroke="white" stroke-width="1.06885" stroke-dasharray="2.85 2.85"/>
<path d="M474.814 103.527C474.814 56.2953 513.052 14.6633 543.608 45.6007" stroke="white" stroke-width="1.06885" stroke-dasharray="2.85 2.85"/>
<path d="M494.719 126.956C491.281 94.4905 507.323 37.1985 539.406 48.2751" stroke="white" stroke-width="1.06885" stroke-dasharray="2.85 2.85"/>
<path d="M634.211 114.472C621.524 39.4907 641.386 6.26111 664.684 23.4487" stroke="white" stroke-width="1.06885" stroke-dasharray="2.85 2.85"/>
<path d="M635.357 116.381C635.357 80.7399 701.351 39.8717 726.559 91.4343" stroke="white" stroke-width="1.06885" stroke-dasharray="2.85 2.85"/>
<g opacity="0.1" filter="url(#filter0_f_374_1243)">
<path d="M591.197 186.343C589.264 187.576 591.197 191.225 591.197 191.225C591.197 191.225 579.378 187.515 577.539 186.343C573.768 183.939 573.768 180.041 577.539 177.637C581.311 175.232 587.426 175.232 591.197 177.637C594.969 180.041 594.969 183.939 591.197 186.343Z" fill="black"/>
</g>
<path d="M583.587 181.347C579.206 176.886 579.206 169.65 583.587 165.189C587.962 160.734 595.052 160.734 599.427 165.189C603.808 169.65 603.808 176.886 599.427 181.347C598.239 182.556 596.095 184.94 594.256 187.011C593.335 188.049 592.487 189.012 591.87 189.715C591.646 189.97 591.452 190.192 591.296 190.37C591.149 190.19 590.968 189.968 590.758 189.713C590.174 189 589.372 188.026 588.5 186.98C586.761 184.897 584.724 182.505 583.587 181.347Z" fill="#009FE3" stroke="white" stroke-width="1.10265"/>
<path fill-rule="evenodd" clip-rule="evenodd" d="M589.625 175.392C588.587 176.572 587.551 177.67 586.804 178.428C587.11 178.965 587.887 180.36 588.542 181.647C589.025 181.309 590.27 179.788 591.602 177.977C592.72 179.378 593.838 180.696 594.676 181.647C594.812 181.469 595.31 180.574 596.21 178.428C595.246 177.661 594.272 176.588 593.378 175.456C594.769 173.391 595.903 171.455 595.903 170.809C595.903 169.307 594.369 167.268 593.858 166.731C593.142 165.98 590.382 165.766 589.257 166.731C588.09 167.734 587.11 169.173 587.11 170.809C587.11 171.648 588.203 173.434 589.625 175.392ZM593.551 169.843C593.359 170.585 592.592 171.748 591.608 173.013C590.616 171.532 589.892 170.27 589.666 169.843C589.973 169.307 592.325 168.556 593.551 169.843Z" fill="white"/>
<g opacity="0.1" filter="url(#filter1_f_374_1243)">
<path d="M663.88 45.3696C661.946 46.5725 663.88 50.1349 663.88 50.1349C663.88 50.1349 652.06 46.5137 650.221 45.3696C646.45 43.0225 646.45 39.2172 650.221 36.8702C653.993 34.5231 660.108 34.5231 663.88 36.8702C667.651 39.2172 667.651 43.0225 663.88 45.3696Z" fill="black"/>
</g>
<path d="M656.263 40.4783C651.889 36.1302 651.889 29.0819 656.263 24.7337C660.64 20.3838 667.737 20.3838 672.114 24.7337C676.488 29.0819 676.488 36.1302 672.114 40.4783C670.925 41.6595 668.781 43.9868 666.942 46.0085C666.021 47.0215 665.173 47.9612 664.556 48.6477C664.329 48.8995 664.134 49.1173 663.977 49.2921C663.83 49.1159 663.647 48.8975 663.436 48.6458C662.852 47.95 662.049 46.9991 661.177 45.9783C659.439 43.9444 657.402 41.6096 656.263 40.4783Z" fill="#009FE3" stroke="white" stroke-width="1.10265"/>
<path fill-rule="evenodd" clip-rule="evenodd" d="M662.307 34.6799C661.269 35.832 660.232 36.9037 659.485 37.6435C659.792 38.1673 660.569 39.5291 661.223 40.7862C661.707 40.456 662.952 38.9711 664.284 37.203C665.402 38.571 666.519 39.8573 667.358 40.7862C667.494 40.6116 667.992 39.7386 668.891 37.6435C667.928 36.8947 666.954 35.8472 666.06 34.7419C667.45 32.726 668.585 30.8365 668.585 30.2059C668.585 28.7393 667.051 26.749 666.54 26.2252C665.824 25.4919 663.064 25.2824 661.939 26.2252C660.772 27.2036 659.792 28.6091 659.792 30.2059C659.792 31.025 660.885 32.7683 662.307 34.6799ZM666.233 29.2631C666.04 29.9871 665.274 31.1223 664.29 32.3569C663.297 30.9117 662.574 29.6792 662.348 29.2631C662.655 28.7393 665.006 28.006 666.233 29.2631Z" fill="white"/>
<g opacity="0.1" filter="url(#filter2_f_374_1243)">
<path d="M592.969 83.7331C590.978 84.9654 592.969 88.6146 592.969 88.6146C592.969 88.6146 580.792 84.9051 578.897 83.7331C575.011 81.3288 575.011 77.4307 578.897 75.0264C582.783 72.6221 589.084 72.6221 592.969 75.0264C596.855 77.4307 596.855 81.3288 592.969 83.7331Z" fill="black"/>
</g>
<path d="M585.11 78.7304C580.598 74.2712 580.598 67.0441 585.11 62.5849C589.626 58.1222 596.95 58.1222 601.466 62.5849C605.978 67.0441 605.978 74.2712 601.466 78.7304C600.242 79.94 598.033 82.3238 596.138 84.3949C595.189 85.4326 594.316 86.3952 593.68 87.0984C593.44 87.3639 593.234 87.5924 593.07 87.774C592.916 87.5908 592.723 87.3616 592.499 87.0961C591.897 86.3834 591.07 85.4093 590.172 84.3637C588.38 82.28 586.282 79.8887 585.11 78.7304Z" fill="#009FE3" stroke="white" stroke-width="1.10265"/>
<path fill-rule="evenodd" clip-rule="evenodd" d="M591.35 72.7818C590.28 73.9621 589.212 75.0599 588.443 75.8178C588.759 76.3543 589.559 77.7494 590.234 79.0371C590.732 78.6988 592.015 77.1777 593.387 75.3665C594.539 76.7679 595.69 78.0856 596.554 79.0371C596.694 78.8582 597.207 77.964 598.134 75.8178C597.141 75.0507 596.137 73.9777 595.217 72.8454C596.649 70.7804 597.818 68.8447 597.818 68.1987C597.818 66.6964 596.238 64.6575 595.711 64.121C594.974 63.3698 592.13 63.1552 590.971 64.121C589.768 65.1232 588.759 66.563 588.759 68.1987C588.759 69.0378 589.885 70.8237 591.35 72.7818ZM595.395 67.233C595.197 67.9746 594.407 69.1375 593.393 70.4022C592.37 68.9217 591.625 67.6592 591.392 67.233C591.708 66.6964 594.131 65.9452 595.395 67.233Z" fill="white"/>
<g opacity="0.1" filter="url(#filter3_f_374_1243)">
<path d="M632.527 133.613C630.593 134.845 632.527 138.494 632.527 138.494C632.527 138.494 620.707 134.785 618.868 133.613C615.097 131.209 615.097 127.311 618.868 124.906C622.64 122.502 628.755 122.502 632.527 124.906C636.298 127.311 636.298 131.209 632.527 133.613Z" fill="black"/>
</g>
<path d="M624.915 128.616C620.534 124.156 620.534 116.92 624.915 112.459C629.291 108.004 636.38 108.004 640.756 112.459C645.137 116.92 645.137 124.156 640.756 128.616C639.568 129.826 637.423 132.21 635.585 134.281C634.663 135.319 633.816 136.281 633.198 136.984C632.974 137.24 632.78 137.461 632.624 137.639C632.478 137.46 632.296 137.238 632.087 136.982C631.503 136.269 630.701 135.295 629.828 134.25C628.09 132.166 626.053 129.775 624.915 128.616Z" fill="#009FE3" stroke="white" stroke-width="1.10265"/>
<path fill-rule="evenodd" clip-rule="evenodd" d="M630.954 122.662C629.916 123.842 628.88 124.94 628.133 125.698C628.44 126.234 629.217 127.629 629.871 128.917C630.354 128.579 631.6 127.058 632.931 125.246C634.049 126.648 635.167 127.965 636.005 128.917C636.141 128.738 636.639 127.844 637.539 125.698C636.575 124.931 635.601 123.858 634.707 122.725C636.098 120.66 637.232 118.725 637.232 118.079C637.232 116.576 635.698 114.537 635.187 114.001C634.472 113.25 631.711 113.035 630.587 114.001C629.419 115.003 628.44 116.443 628.44 118.079C628.44 118.918 629.532 120.704 630.954 122.662ZM634.881 117.113C634.688 117.854 633.921 119.017 632.938 120.282C631.945 118.802 631.221 117.539 630.995 117.113C631.302 116.576 633.654 115.825 634.881 117.113Z" fill="white"/>
<g opacity="0.1" filter="url(#filter4_f_374_1243)">
<path d="M534.192 162.944C532.259 164.147 534.192 167.709 534.192 167.709C534.192 167.709 522.372 164.088 520.534 162.944C516.762 160.597 516.762 156.791 520.534 154.444C524.305 152.097 530.42 152.097 534.192 154.444C537.964 156.791 537.964 160.597 534.192 162.944Z" fill="black"/>
</g>
<path d="M526.576 158.053C522.202 153.704 522.202 146.656 526.576 142.308C530.953 137.958 538.05 137.958 542.427 142.308C546.801 146.656 546.801 153.704 542.427 158.053C541.238 159.234 539.094 161.561 537.255 163.583C536.334 164.596 535.486 165.535 534.869 166.222C534.642 166.474 534.447 166.692 534.29 166.866C534.143 166.69 533.96 166.472 533.749 166.22C533.165 165.524 532.362 164.573 531.49 163.553C529.752 161.519 527.715 159.184 526.576 158.053Z" fill="#009FE3" stroke="white" stroke-width="1.10265"/>
<path fill-rule="evenodd" clip-rule="evenodd" d="M532.62 152.254C531.582 153.406 530.545 154.478 529.798 155.218C530.105 155.742 530.882 157.103 531.536 158.36C532.02 158.03 533.265 156.545 534.597 154.777C535.715 156.145 536.832 157.432 537.671 158.36C537.807 158.186 538.305 157.313 539.204 155.218C538.241 154.469 537.267 153.421 536.373 152.316C537.763 150.3 538.898 148.411 538.898 147.78C538.898 146.314 537.364 144.323 536.853 143.799C536.137 143.066 533.377 142.857 532.252 143.799C531.085 144.778 530.105 146.183 530.105 147.78C530.105 148.599 531.198 150.343 532.62 152.254ZM536.546 146.837C536.353 147.561 535.587 148.697 534.603 149.931C533.61 148.486 532.887 147.253 532.661 146.837C532.968 146.314 535.319 145.58 536.546 146.837Z" fill="white"/>
<g opacity="0.1" filter="url(#filter5_f_374_1243)">
<path d="M490.726 150.83C488.793 152.032 490.726 155.595 490.726 155.595C490.726 155.595 478.906 151.974 477.067 150.83C473.296 148.482 473.296 144.677 477.067 142.33C480.839 139.983 486.954 139.983 490.726 142.33C494.497 144.677 494.497 148.482 490.726 150.83Z" fill="black"/>
</g>
<path d="M483.11 145.938C478.735 141.59 478.735 134.542 483.11 130.194C487.486 125.844 494.583 125.844 498.96 130.194C503.334 134.542 503.334 141.59 498.96 145.938C497.771 147.119 495.627 149.447 493.788 151.468C492.867 152.481 492.019 153.421 491.402 154.108C491.176 154.359 490.98 154.577 490.823 154.752C490.676 154.576 490.493 154.357 490.282 154.106C489.698 153.41 488.896 152.459 488.023 151.438C486.285 149.404 484.248 147.07 483.11 145.938Z" fill="#009FE3" stroke="white" stroke-width="1.10265"/>
<path fill-rule="evenodd" clip-rule="evenodd" d="M489.153 140.14C488.115 141.292 487.079 142.364 486.332 143.103C486.638 143.627 487.415 144.989 488.07 146.246C488.553 145.916 489.798 144.431 491.13 142.663C492.248 144.031 493.365 145.317 494.204 146.246C494.34 146.072 494.838 145.199 495.737 143.103C494.774 142.355 493.8 141.307 492.906 140.202C494.297 138.186 495.431 136.296 495.431 135.666C495.431 134.199 493.897 132.209 493.386 131.685C492.67 130.952 489.91 130.742 488.785 131.685C487.618 132.664 486.638 134.069 486.638 135.666C486.638 136.485 487.731 138.228 489.153 140.14ZM493.079 134.723C492.887 135.447 492.12 136.582 491.136 137.817C490.143 136.372 489.42 135.139 489.194 134.723C489.501 134.199 491.852 133.466 493.079 134.723Z" fill="white"/>
<g opacity="0.1" filter="url(#filter6_f_374_1243)">
<path d="M445.468 95.9623C443.476 97.1653 445.468 100.728 445.468 100.728C445.468 100.728 433.29 97.1065 431.396 95.9623C427.51 93.6153 427.51 89.81 431.396 87.4629C435.282 85.1159 441.582 85.1159 445.468 87.4629C449.354 89.81 449.354 93.6153 445.468 95.9623Z" fill="black"/>
</g>
<path d="M437.604 91.0653C433.098 86.7184 433.098 79.6792 437.604 75.3323C442.121 70.9746 449.452 70.9746 453.969 75.3323C458.475 79.6792 458.475 86.7184 453.969 91.0653C452.745 92.2463 450.536 94.5735 448.641 96.5952C447.692 97.6082 446.819 98.548 446.183 99.2344C445.941 99.496 445.733 99.7208 445.568 99.899C445.413 99.7193 445.219 99.4938 444.993 99.2323C444.391 98.5366 443.565 97.5857 442.666 96.565C440.875 94.5309 438.776 92.1963 437.604 91.0653Z" fill="#009FE3" stroke="white" stroke-width="1.10265"/>
<path fill-rule="evenodd" clip-rule="evenodd" d="M443.849 85.2726C442.779 86.4248 441.711 87.4964 440.941 88.2363C441.257 88.7601 442.058 90.1219 442.732 91.3789C443.23 91.0487 444.513 89.5638 445.885 87.7958C447.037 89.1638 448.188 90.4501 449.052 91.3789C449.193 91.2044 449.705 90.3314 450.632 88.2363C449.64 87.4875 448.636 86.44 447.715 85.3347C449.148 83.3188 450.316 81.4293 450.316 80.7987C450.316 79.3321 448.736 77.3417 448.21 76.818C447.472 76.0847 444.628 75.8752 443.469 76.818C442.267 77.7964 441.257 79.2019 441.257 80.7987C441.257 81.6178 442.383 83.3611 443.849 85.2726ZM447.894 79.8559C447.695 80.5798 446.905 81.7151 445.892 82.9497C444.869 81.5044 444.123 80.272 443.891 79.8559C444.207 79.3321 446.63 78.5988 447.894 79.8559Z" fill="white"/>
<g opacity="0.1" filter="url(#filter7_f_374_1243)">
<path d="M544.881 70.9069C542.947 72.1392 544.881 75.7884 544.881 75.7884C544.881 75.7884 533.061 72.079 531.222 70.9069C527.451 68.5026 527.451 64.6045 531.222 62.2002C534.994 59.7959 541.109 59.7959 544.881 62.2002C548.652 64.6045 548.652 68.5026 544.881 70.9069Z" fill="black"/>
</g>
<path d="M537.27 65.91C532.889 61.4495 532.889 54.2135 537.27 49.7529C541.645 45.2979 548.735 45.2979 553.11 49.7529C557.491 54.2135 557.491 61.4495 553.11 65.91C551.922 67.1199 549.778 69.5038 547.939 71.5748C547.018 72.6125 546.17 73.5751 545.553 74.2783C545.329 74.5338 545.135 74.7551 544.979 74.9333C544.832 74.7537 544.651 74.5317 544.441 74.2761C543.857 73.5634 543.055 72.5893 542.183 71.5437C540.444 69.4601 538.407 67.0686 537.27 65.91Z" fill="#009FE3" stroke="white" stroke-width="1.10265"/>
<path fill-rule="evenodd" clip-rule="evenodd" d="M543.308 59.9557C542.27 61.1359 541.234 62.2337 540.487 62.9916C540.794 63.5282 541.571 64.9232 542.225 66.2109C542.708 65.8726 543.954 64.3515 545.285 62.5403C546.403 63.9418 547.521 65.2594 548.359 66.2109C548.495 66.0321 548.993 65.1378 549.893 62.9916C548.929 62.2245 547.955 61.1515 547.061 60.0192C548.452 57.9542 549.586 56.0186 549.586 55.3726C549.586 53.8702 548.052 51.8313 547.541 51.2948C546.826 50.5436 544.065 50.329 542.941 51.2948C541.773 52.297 540.794 53.7369 540.794 55.3726C540.794 56.2116 541.886 57.9975 543.308 59.9557ZM547.235 54.4068C547.042 55.1484 546.275 56.3114 545.292 57.5761C544.299 56.0956 543.575 54.8331 543.349 54.4068C543.656 53.8702 546.008 53.1191 547.235 54.4068Z" fill="white"/>
<g opacity="0.1" filter="url(#filter8_f_374_1243)">
<path d="M409.493 49.53C407.56 50.7622 409.493 54.4115 409.493 54.4115C409.493 54.4115 397.673 50.702 395.835 49.53C392.063 47.1257 392.063 43.2275 395.835 40.8232C399.606 38.4189 405.721 38.4189 409.493 40.8232C413.264 43.2275 413.264 47.1257 409.493 49.53Z" fill="black"/>
</g>
<path d="M401.881 44.5331C397.501 40.0725 397.501 32.8365 401.881 28.376C406.257 23.921 413.347 23.921 417.722 28.376C422.103 32.8365 422.103 40.0725 417.722 44.5331C416.534 45.7429 414.389 48.1268 412.551 50.1978C411.63 51.2355 410.782 52.1982 410.165 52.9014C409.94 53.1569 409.747 53.3782 409.591 53.5564C409.444 53.3767 409.263 53.1547 409.053 52.8991C408.469 52.1865 407.667 51.2124 406.795 50.1667C405.056 48.0831 403.019 45.6916 401.881 44.5331Z" fill="#009FE3" stroke="white" stroke-width="1.10265"/>
<path fill-rule="evenodd" clip-rule="evenodd" d="M407.921 38.5787C406.882 39.759 405.846 40.8568 405.099 41.6147C405.406 42.1512 406.183 43.5462 406.837 44.834C407.321 44.4957 408.566 42.9746 409.898 41.1634C411.016 42.5648 412.133 43.8825 412.971 44.834C413.108 44.6551 413.605 43.7609 414.505 41.6147C413.542 40.8475 412.567 39.7745 411.674 38.6423C413.064 36.5772 414.198 34.6416 414.198 33.9956C414.198 32.4933 412.665 30.4544 412.154 29.9178C411.438 29.1667 408.677 28.9521 407.553 29.9178C406.386 30.9201 405.406 32.3599 405.406 33.9956C405.406 34.8347 406.498 36.6206 407.921 38.5787ZM411.847 33.0298C411.654 33.7714 410.888 34.9344 409.904 36.1991C408.911 34.7186 408.187 33.4561 407.962 33.0298C408.268 32.4933 410.62 31.7421 411.847 33.0298Z" fill="white"/>
<g opacity="0.1" filter="url(#filter9_f_374_1243)">
<path d="M364.601 78.8608C362.668 80.0637 364.601 83.6261 364.601 83.6261C364.601 83.6261 352.782 80.0049 350.943 78.8608C347.171 76.5137 347.171 72.7084 350.943 70.3614C354.715 68.0143 360.83 68.0143 364.601 70.3614C368.373 72.7084 368.373 76.5137 364.601 78.8608Z" fill="black"/>
</g>
<path d="M356.985 73.9695C352.61 69.6214 352.61 62.5731 356.985 58.2249C361.362 53.875 368.459 53.875 372.835 58.2249C377.21 62.5731 377.21 69.6214 372.835 73.9695C371.647 75.1507 369.502 77.478 367.664 79.4997C366.742 80.5127 365.895 81.4524 365.278 82.1389C365.051 82.3907 364.856 82.6085 364.699 82.7833C364.552 82.6071 364.369 82.3887 364.157 82.137C363.573 81.4413 362.771 80.4903 361.899 79.4695C360.16 77.4356 358.123 75.1008 356.985 73.9695Z" fill="#009FE3" stroke="white" stroke-width="1.10265"/>
<path fill-rule="evenodd" clip-rule="evenodd" d="M363.029 68.1711C361.991 69.3232 360.954 70.3949 360.208 71.1347C360.514 71.6585 361.291 73.0203 361.946 74.2774C362.429 73.9472 363.674 72.4623 365.006 70.6942C366.124 72.0623 367.241 73.3486 368.08 74.2774C368.216 74.1028 368.714 73.2298 369.613 71.1347C368.65 70.3859 367.676 69.3384 366.782 68.2331C368.173 66.2173 369.307 64.3277 369.307 63.6971C369.307 62.2305 367.773 60.2402 367.262 59.7164C366.546 58.9831 363.786 58.7736 362.661 59.7164C361.494 60.6948 360.514 62.1003 360.514 63.6971C360.514 64.5162 361.607 66.2596 363.029 68.1711ZM366.955 62.7543C366.763 63.4783 365.996 64.6135 365.012 65.8481C364.019 64.4029 363.296 63.1704 363.07 62.7543C363.377 62.2305 365.728 61.4973 366.955 62.7543Z" fill="white"/>
<g opacity="0.1" filter="url(#filter10_f_374_1243)">
<path d="M394.529 128.028C392.596 129.231 394.529 132.794 394.529 132.794C394.529 132.794 382.709 129.172 380.871 128.028C377.099 125.681 377.099 121.876 380.871 119.529C384.642 117.182 390.757 117.182 394.529 119.529C398.301 121.876 398.301 125.681 394.529 128.028Z" fill="black"/>
</g>
<path d="M386.913 123.137C382.538 118.788 382.538 111.74 386.913 107.392C391.289 103.042 398.386 103.042 402.763 107.392C407.138 111.74 407.138 118.788 402.763 123.137C401.575 124.318 399.43 126.645 397.591 128.667C396.67 129.68 395.823 130.619 395.205 131.306C394.979 131.558 394.783 131.776 394.627 131.95C394.479 131.774 394.297 131.556 394.085 131.304C393.501 130.608 392.699 129.657 391.826 128.637C390.088 126.603 388.051 124.268 386.913 123.137Z" fill="#009FE3" stroke="white" stroke-width="1.10265"/>
<path fill-rule="evenodd" clip-rule="evenodd" d="M392.957 117.338C391.918 118.49 390.882 119.562 390.135 120.302C390.442 120.826 391.219 122.187 391.873 123.444C392.357 123.114 393.602 121.629 394.934 119.861C396.052 121.229 397.169 122.516 398.008 123.444C398.144 123.27 398.641 122.397 399.541 120.302C398.578 119.553 397.604 118.505 396.71 117.4C398.1 115.384 399.234 113.495 399.234 112.864C399.234 111.398 397.701 109.407 397.19 108.883C396.474 108.15 393.714 107.941 392.589 108.883C391.422 109.862 390.442 111.267 390.442 112.864C390.442 113.683 391.535 115.427 392.957 117.338ZM396.883 111.921C396.69 112.645 395.924 113.781 394.94 115.015C393.947 113.57 393.224 112.337 392.998 111.921C393.305 111.398 395.656 110.664 396.883 111.921Z" fill="white"/>
<g opacity="0.1" filter="url(#filter11_f_374_1243)">
<path d="M423.379 124.349C421.387 125.582 423.379 129.231 423.379 129.231C423.379 129.231 411.201 125.521 409.307 124.349C405.421 121.945 405.421 118.047 409.307 115.643C413.192 113.238 419.493 113.238 423.379 115.643C427.265 118.047 427.265 121.945 423.379 124.349Z" fill="black"/>
</g>
<path d="M415.519 119.347C411.007 114.887 411.007 107.66 415.519 103.201C420.035 98.7384 427.359 98.7384 431.875 103.201C436.388 107.66 436.388 114.887 431.875 119.347C430.651 120.556 428.442 122.94 426.547 125.011C425.598 126.049 424.725 127.011 424.089 127.715C423.849 127.98 423.643 128.209 423.479 128.39C423.325 128.207 423.132 127.978 422.908 127.712C422.306 127 421.48 126.025 420.581 124.98C418.79 122.896 416.691 120.505 415.519 119.347Z" fill="#009FE3" stroke="white" stroke-width="1.10265"/>
<path fill-rule="evenodd" clip-rule="evenodd" d="M421.759 113.399C420.689 114.579 419.621 115.677 418.852 116.434C419.168 116.971 419.968 118.366 420.642 119.654C421.14 119.316 422.423 117.794 423.795 115.983C424.947 117.385 426.099 118.702 426.962 119.654C427.103 119.475 427.616 118.581 428.542 116.434C427.55 115.667 426.546 114.594 425.625 113.462C427.058 111.397 428.226 109.461 428.226 108.815C428.226 107.313 426.646 105.274 426.12 104.738C425.382 103.986 422.538 103.772 421.38 104.738C420.177 105.74 419.168 107.18 419.168 108.815C419.168 109.655 420.293 111.44 421.759 113.399ZM425.804 107.85C425.605 108.591 424.815 109.754 423.802 111.019C422.779 109.538 422.033 108.276 421.801 107.85C422.117 107.313 424.54 106.562 425.804 107.85Z" fill="white"/>
<g opacity="0.1" filter="url(#filter12_f_374_1243)">
<path d="M476.821 113.661C474.829 114.893 476.821 118.542 476.821 118.542C476.821 118.542 464.643 114.833 462.749 113.661C458.863 111.257 458.863 107.358 462.749 104.954C466.635 102.55 472.935 102.55 476.821 104.954C480.707 107.358 480.707 111.257 476.821 113.661Z" fill="black"/>
</g>
<path d="M468.961 108.658C464.449 104.199 464.449 96.9719 468.961 92.5127C473.477 88.0499 480.802 88.0499 485.318 92.5127C489.83 96.9719 489.83 104.199 485.318 108.658C484.094 109.868 481.884 112.252 479.99 114.323C479.041 115.36 478.167 116.323 477.531 117.026C477.291 117.292 477.085 117.52 476.921 117.702C476.767 117.519 476.574 117.289 476.35 117.024C475.748 116.311 474.922 115.337 474.023 114.291C472.232 112.208 470.134 109.816 468.961 108.658Z" fill="#009FE3" stroke="white" stroke-width="1.10265"/>
<path fill-rule="evenodd" clip-rule="evenodd" d="M475.202 102.71C474.132 103.89 473.064 104.988 472.294 105.746C472.61 106.283 473.411 107.678 474.085 108.965C474.583 108.627 475.866 107.106 477.238 105.295C478.39 106.696 479.541 108.014 480.405 108.965C480.546 108.786 481.058 107.892 481.985 105.746C480.993 104.979 479.989 103.906 479.068 102.774C480.501 100.709 481.669 98.773 481.669 98.127C481.669 96.6246 480.089 94.5857 479.563 94.0492C478.825 93.298 475.981 93.0834 474.822 94.0492C473.62 95.0514 472.61 96.4913 472.61 98.127C472.61 98.966 473.736 100.752 475.202 102.71ZM479.247 97.1612C479.048 97.9028 478.258 99.0658 477.245 100.33C476.222 98.85 475.476 97.5875 475.244 97.1612C475.56 96.6246 477.983 95.8735 479.247 97.1612Z" fill="white"/>
<g opacity="0.1" filter="url(#filter13_f_374_1243)">
<path d="M338.583 135.038C336.591 136.27 338.583 139.919 338.583 139.919C338.583 139.919 326.405 136.21 324.511 135.038C320.625 132.633 320.625 128.735 324.511 126.331C328.397 123.927 334.697 123.927 338.583 126.331C342.469 128.735 342.469 132.633 338.583 135.038Z" fill="black"/>
</g>
<path d="M330.724 130.035C326.211 125.576 326.211 118.349 330.724 113.89C335.24 109.427 342.564 109.427 347.08 113.89C351.592 118.349 351.592 125.576 347.08 130.035C345.856 131.245 343.646 133.629 341.752 135.7C340.803 136.737 339.93 137.7 339.294 138.403C339.054 138.669 338.847 138.897 338.684 139.079C338.53 138.896 338.337 138.666 338.112 138.401C337.511 137.688 336.684 136.714 335.785 135.668C333.994 133.585 331.896 131.193 330.724 130.035Z" fill="#009FE3" stroke="white" stroke-width="1.10265"/>
<path fill-rule="evenodd" clip-rule="evenodd" d="M336.963 124.087C335.893 125.267 334.826 126.365 334.056 127.123C334.372 127.66 335.173 129.055 335.847 130.342C336.345 130.004 337.628 128.483 339 126.672C340.152 128.073 341.303 129.391 342.167 130.342C342.307 130.163 342.82 129.269 343.747 127.123C342.754 126.356 341.751 125.283 340.83 124.151C342.263 122.086 343.431 120.15 343.431 119.504C343.431 118.002 341.851 115.963 341.324 115.426C340.587 114.675 337.743 114.46 336.584 115.426C335.382 116.428 334.372 117.868 334.372 119.504C334.372 120.343 335.498 122.129 336.963 124.087ZM341.008 118.538C340.81 119.28 340.02 120.443 339.007 121.707C337.984 120.227 337.238 118.964 337.006 118.538C337.322 118.002 339.744 117.25 341.008 118.538Z" fill="white"/>
</g>
</g>
</g>
<defs>
<filter id="filter0_f_374_1243" x="570.3" y="171.423" width="28.1367" height="24.2128" filterUnits="userSpaceOnUse" color-interpolation-filters="sRGB">
<feFlood flood-opacity="0" result="BackgroundImageFix"/>
<feBlend mode="normal" in="SourceGraphic" in2="BackgroundImageFix" result="shape"/>
<feGaussianBlur stdDeviation="2.20531" result="effect1_foregroundBlur_374_1243"/>
</filter>
<filter id="filter1_f_374_1243" x="642.982" y="30.6993" width="28.1367" height="23.8461" filterUnits="userSpaceOnUse" color-interpolation-filters="sRGB">
<feFlood flood-opacity="0" result="BackgroundImageFix"/>
<feBlend mode="normal" in="SourceGraphic" in2="BackgroundImageFix" result="shape"/>
<feGaussianBlur stdDeviation="2.20531" result="effect1_foregroundBlur_374_1243"/>
</filter>
<filter id="filter2_f_374_1243" x="571.572" y="68.8125" width="28.7221" height="24.2128" filterUnits="userSpaceOnUse" color-interpolation-filters="sRGB">
<feFlood flood-opacity="0" result="BackgroundImageFix"/>
<feBlend mode="normal" in="SourceGraphic" in2="BackgroundImageFix" result="shape"/>
<feGaussianBlur stdDeviation="2.20531" result="effect1_foregroundBlur_374_1243"/>
</filter>
<filter id="filter3_f_374_1243" x="611.629" y="118.692" width="28.1367" height="24.2128" filterUnits="userSpaceOnUse" color-interpolation-filters="sRGB">
<feFlood flood-opacity="0" result="BackgroundImageFix"/>
<feBlend mode="normal" in="SourceGraphic" in2="BackgroundImageFix" result="shape"/>
<feGaussianBlur stdDeviation="2.20531" result="effect1_foregroundBlur_374_1243"/>
</filter>
<filter id="filter4_f_374_1243" x="513.294" y="148.273" width="28.1367" height="23.8461" filterUnits="userSpaceOnUse" color-interpolation-filters="sRGB">
<feFlood flood-opacity="0" result="BackgroundImageFix"/>
<feBlend mode="normal" in="SourceGraphic" in2="BackgroundImageFix" result="shape"/>
<feGaussianBlur stdDeviation="2.20531" result="effect1_foregroundBlur_374_1243"/>
</filter>
<filter id="filter5_f_374_1243" x="469.828" y="136.159" width="28.1367" height="23.8461" filterUnits="userSpaceOnUse" color-interpolation-filters="sRGB">
<feFlood flood-opacity="0" result="BackgroundImageFix"/>
<feBlend mode="normal" in="SourceGraphic" in2="BackgroundImageFix" result="shape"/>
<feGaussianBlur stdDeviation="2.20531" result="effect1_foregroundBlur_374_1243"/>
</filter>
<filter id="filter6_f_374_1243" x="424.071" y="81.292" width="28.7221" height="23.8461" filterUnits="userSpaceOnUse" color-interpolation-filters="sRGB">
<feFlood flood-opacity="0" result="BackgroundImageFix"/>
<feBlend mode="normal" in="SourceGraphic" in2="BackgroundImageFix" result="shape"/>
<feGaussianBlur stdDeviation="2.20531" result="effect1_foregroundBlur_374_1243"/>
</filter>
<filter id="filter7_f_374_1243" x="523.983" y="55.9864" width="28.1367" height="24.2128" filterUnits="userSpaceOnUse" color-interpolation-filters="sRGB">
<feFlood flood-opacity="0" result="BackgroundImageFix"/>
<feBlend mode="normal" in="SourceGraphic" in2="BackgroundImageFix" result="shape"/>
<feGaussianBlur stdDeviation="2.20531" result="effect1_foregroundBlur_374_1243"/>
</filter>
<filter id="filter8_f_374_1243" x="388.595" y="34.6094" width="28.1367" height="24.2128" filterUnits="userSpaceOnUse" color-interpolation-filters="sRGB">
<feFlood flood-opacity="0" result="BackgroundImageFix"/>
<feBlend mode="normal" in="SourceGraphic" in2="BackgroundImageFix" result="shape"/>
<feGaussianBlur stdDeviation="2.20531" result="effect1_foregroundBlur_374_1243"/>
</filter>
<filter id="filter9_f_374_1243" x="343.704" y="64.1905" width="28.1367" height="23.8461" filterUnits="userSpaceOnUse" color-interpolation-filters="sRGB">
<feFlood flood-opacity="0" result="BackgroundImageFix"/>
<feBlend mode="normal" in="SourceGraphic" in2="BackgroundImageFix" result="shape"/>
<feGaussianBlur stdDeviation="2.20531" result="effect1_foregroundBlur_374_1243"/>
</filter>
<filter id="filter10_f_374_1243" x="373.631" y="113.358" width="28.1367" height="23.8461" filterUnits="userSpaceOnUse" color-interpolation-filters="sRGB">
<feFlood flood-opacity="0" result="BackgroundImageFix"/>
<feBlend mode="normal" in="SourceGraphic" in2="BackgroundImageFix" result="shape"/>
<feGaussianBlur stdDeviation="2.20531" result="effect1_foregroundBlur_374_1243"/>
</filter>
<filter id="filter11_f_374_1243" x="401.981" y="109.429" width="28.7221" height="24.2128" filterUnits="userSpaceOnUse" color-interpolation-filters="sRGB">
<feFlood flood-opacity="0" result="BackgroundImageFix"/>
<feBlend mode="normal" in="SourceGraphic" in2="BackgroundImageFix" result="shape"/>
<feGaussianBlur stdDeviation="2.20531" result="effect1_foregroundBlur_374_1243"/>
</filter>
<filter id="filter12_f_374_1243" x="455.424" y="98.7403" width="28.7221" height="24.2128" filterUnits="userSpaceOnUse" color-interpolation-filters="sRGB">
<feFlood flood-opacity="0" result="BackgroundImageFix"/>
<feBlend mode="normal" in="SourceGraphic" in2="BackgroundImageFix" result="shape"/>
<feGaussianBlur stdDeviation="2.20531" result="effect1_foregroundBlur_374_1243"/>
</filter>
<filter id="filter13_f_374_1243" x="317.186" y="120.117" width="28.7221" height="24.2128" filterUnits="userSpaceOnUse" color-interpolation-filters="sRGB">
<feFlood flood-opacity="0" result="BackgroundImageFix"/>
<feBlend mode="normal" in="SourceGraphic" in2="BackgroundImageFix" result="shape"/>
<feGaussianBlur stdDeviation="2.20531" result="effect1_foregroundBlur_374_1243"/>
</filter>
<clipPath id="clip0_374_1243">
<rect width="663" height="183" fill="white"/>
</clipPath>
<clipPath id="clip1_374_1243">
<rect y="-753" width="664" height="937" rx="4" fill="white"/>
</clipPath>
<clipPath id="clip2_374_1243">
<rect width="561" height="186" fill="white" transform="translate(103 -1)"/>
</clipPath>
</defs>
</svg>
