<svg width="292" height="292" viewBox="0 0 292 292" fill="none" xmlns="http://www.w3.org/2000/svg">
<path d="M292 146C292 226.634 226.634 292 146 292C65.3664 292 0 226.634 0 146C0 65.3664 65.3664 0 146 0C226.634 0 292 65.3664 292 146ZM31.2702 146C31.2702 209.364 82.6365 260.73 146 260.73C209.364 260.73 260.73 209.364 260.73 146C260.73 82.6365 209.364 31.2702 146 31.2702C82.6365 31.2702 31.2702 82.6365 31.2702 146Z" fill="white"/>
<path d="M280.826 169.94L282.057 161.122L270.409 159.496L270.038 162.158L279.123 163.426L278.635 166.921L269.55 165.653L269.179 168.315L280.826 169.94Z" fill="#8CCF3A"/>
<path d="M278.908 178.805L279.941 174.474L268.502 171.745L267.879 174.359L271.474 175.217L271.064 176.933C270.526 179.188 271.857 181.354 274.031 181.872C276.204 182.391 278.37 181.06 278.908 178.805ZM273.515 177.518L273.925 175.802L276.866 176.504L276.457 178.22C276.266 179.021 275.488 179.457 274.655 179.258C273.821 179.059 273.324 178.319 273.515 177.518Z" fill="#8CCF3A"/>
<path d="M263.455 189.349L262.495 192.127L274.916 192.188L276.035 188.949L266.226 181.33L265.266 184.109L266.82 185.268L265.394 189.396L263.455 189.349ZM268.939 186.853L272.57 189.565L268.039 189.457L268.939 186.853Z" fill="#8CCF3A"/>
<path d="M257.465 203.329L264.665 202.059L268.242 208.038L269.506 205.254L266.343 199.869L270.993 201.98L272.104 199.533L261.396 194.671L260.285 197.118L265.241 199.369L258.729 200.545L257.465 203.329Z" fill="#8CCF3A"/>
<path d="M263.156 217.068L267.46 209.466L265.209 208.191L263.719 210.823L255.737 206.304L254.413 208.643L262.395 213.162L260.905 215.794L263.156 217.068Z" fill="#8CCF3A"/>
<path d="M247.892 218.785L246.359 220.993L256.019 227.701L257.168 226.045L254.512 218.678L259.756 222.319L261.289 220.111L251.629 213.404L250.479 215.059L253.136 222.426L247.892 218.785Z" fill="#8CCF3A"/>
<path d="M237.711 231.457L244.985 232.195L246.8 238.921L248.774 236.586L247.195 230.543L251.095 233.84L252.831 231.787L243.85 224.195L242.114 226.248L246.271 229.762L239.685 229.122L237.711 231.457Z" fill="#8CCF3A"/>
<path d="M239.781 245.866L237.663 240.746L242.903 242.811L244.825 240.931L236.483 237.787C236.232 236.881 236.395 236.087 237.354 235.314L235.592 233.512C233.936 234.967 233.452 236.899 234.481 239.44L237.86 247.746L239.781 245.866Z" fill="#8CCF3A"/>
<path d="M226.202 257.196L228.311 255.529L227.574 249.45L233.319 251.569L235.427 249.902L228.134 240.677L226.025 242.344L230.266 247.708L224.786 245.68L224.549 245.867L225.258 251.667L221.017 246.304L218.909 247.971L226.202 257.196Z" fill="#8CCF3A"/>
<path d="M209.129 267.631L216.894 263.273L211.138 253.018L208.794 254.334L213.283 262.333L210.207 264.059L205.717 256.061L203.373 257.376L209.129 267.631Z" fill="#8CCF3A"/>
<path d="M195.637 260.676C192.532 262.003 191.057 265.52 192.417 268.702C193.777 271.884 197.338 273.249 200.443 271.922C203.548 270.595 205.023 267.078 203.663 263.896C202.303 260.713 198.742 259.349 195.637 260.676ZM196.667 263.085C198.428 262.333 200.366 263.021 201.191 264.952C202.017 266.883 201.174 268.759 199.413 269.512C197.652 270.265 195.714 269.577 194.889 267.646C194.063 265.715 194.906 263.838 196.667 263.085Z" fill="#8CCF3A"/>
<path d="M175.64 267.338C173.554 267.861 171.987 269.346 171.413 271.204L173.989 271.944C174.257 270.941 175.121 270.171 176.278 269.881C178.298 269.374 179.941 270.4 180.452 272.437C180.962 274.474 179.998 276.153 177.977 276.66C176.82 276.95 175.712 276.673 174.986 275.92L173.064 277.787C174.462 279.151 176.545 279.72 178.614 279.202C182.053 278.34 183.901 275.14 183.059 271.783C182.217 268.426 179.079 266.476 175.64 267.338Z" fill="#8CCF3A"/>
<path d="M163.627 269.597C160.281 270.05 157.924 273.049 158.389 276.478C158.854 279.908 161.925 282.17 165.271 281.716C168.617 281.262 170.974 278.264 170.508 274.834C170.043 271.405 166.973 269.143 163.627 269.597ZM163.979 272.194C165.877 271.936 167.563 273.115 167.845 275.196C168.127 277.276 166.816 278.861 164.919 279.119C163.021 279.376 161.335 278.198 161.053 276.117C160.77 274.036 162.081 272.451 163.979 272.194Z" fill="#8CCF3A"/>
<path d="M150.19 282.714L154.64 282.576L154.277 270.822L151.59 270.905L151.704 274.599L149.941 274.654C147.624 274.725 145.883 276.577 145.952 278.811C146.021 281.044 147.873 282.785 150.19 282.714ZM150.019 277.172L151.782 277.118L151.875 280.14L150.112 280.195C149.289 280.22 148.665 279.584 148.638 278.728C148.612 277.871 149.196 277.198 150.019 277.172Z" fill="#8CCF3A"/>
<path d="M134.314 282.287L143.036 282.793L143.185 280.21L140.166 280.035L140.697 270.878L138.014 270.722L137.483 279.88L134.464 279.705L134.314 282.287Z" fill="#8CCF3A"/>
<path d="M126.063 269.344L123.406 268.942L121.646 280.57L123.64 280.871L129.08 275.238L128.124 281.55L130.782 281.952L132.542 270.325L130.548 270.023L125.108 275.656L126.063 269.344Z" fill="#8CCF3A"/>
<path d="M112.453 278.474L116.771 279.557L119.631 268.15L117.024 267.496L116.125 271.081L114.414 270.652C112.165 270.088 109.984 271.395 109.441 273.562C108.898 275.729 110.204 277.91 112.453 278.474ZM113.801 273.096L115.512 273.525L114.777 276.459L113.066 276.03C112.267 275.829 111.84 275.047 112.048 274.216C112.257 273.385 113.003 272.896 113.801 273.096Z" fill="#8CCF3A"/>
<path d="M104.069 263.335C100.898 262.173 97.4134 263.722 96.222 266.972C95.0305 270.221 96.6877 273.656 99.8581 274.818C103.028 275.981 106.513 274.431 107.705 271.182C108.896 267.933 107.239 264.498 104.069 263.335ZM103.166 265.796C104.965 266.455 105.904 268.285 105.181 270.257C104.458 272.228 102.558 273.017 100.76 272.358C98.9622 271.698 98.0227 269.869 98.7457 267.897C99.4686 265.925 101.368 265.137 103.166 265.796Z" fill="#8CCF3A"/>
<path d="M85.6256 262.138C84.8083 262.355 84.1211 262.878 83.692 263.753C82.7969 265.578 83.7058 267.502 85.5459 268.405L89.6788 270.432L94.8573 259.873L90.4227 257.698C88.5373 256.774 86.4146 257.248 85.4973 259.118C84.9721 260.189 85.0854 261.255 85.6256 262.138ZM86.6556 266.142C86.0975 265.868 85.9279 265.299 86.1942 264.756C86.4605 264.213 87.0299 264.005 87.5729 264.272L89.2925 265.115L88.3751 266.986L86.6556 266.142ZM89.3131 259.961L91.3342 260.952L90.3429 262.973L88.3217 261.982C87.7184 261.686 87.5334 261.071 87.8219 260.483C88.1104 259.895 88.7097 259.665 89.3131 259.961Z" fill="#8CCF3A"/>
<path d="M76.7478 249.805L77.1311 257.106L70.7615 259.929L73.3709 261.523L79.1011 259.038L76.4391 263.396L78.733 264.798L84.8628 254.761L82.5688 253.36L79.7316 258.006L79.3572 251.399L76.7478 249.805Z" fill="#8CCF3A"/>
<path d="M71.6404 249.214L70.4027 250.89L67.0244 248.394L65.5072 250.448L68.8855 252.944L67.7277 254.511L64.0115 251.766L62.4744 253.847L68.3526 258.189L75.3397 248.73L69.3939 244.338L67.8567 246.419L71.6404 249.214Z" fill="#8CCF3A"/>
<path d="M57.9314 232.981L42.041 237.592L42.6909 238.363L58.5813 233.751L57.9314 232.981Z" fill="#8CCF3A"/>
<path d="M54.0265 226.142L37.9823 230.187L38.6044 230.98L54.6486 226.935L54.0265 226.142Z" fill="#8CCF3A"/>
<path d="M35.6263 203.243L34.2349 200.653L25.7677 209.741L27.3898 212.76L39.6416 210.717L38.2502 208.127L36.344 208.484L34.2767 204.636L35.6263 203.243ZM33.7424 208.966L29.287 209.796L32.4384 206.539L33.7424 208.966Z" fill="#8CCF3A"/>
<path d="M31.1923 193.283C30.3768 191.293 28.684 189.953 26.7627 189.651L26.3983 192.306C27.4288 192.428 28.3149 193.173 28.7672 194.276C29.5571 196.204 28.7765 197.976 26.8334 198.773C24.8902 199.569 23.0903 198.854 22.3004 196.927C21.848 195.823 21.9633 194.686 22.6052 193.86L20.4825 192.225C19.3321 193.804 19.0662 195.946 19.8753 197.92C21.2195 201.201 24.6504 202.572 27.8527 201.26C31.055 199.948 32.5365 196.563 31.1923 193.283Z" fill="#8CCF3A"/>
<path d="M15.5894 184.427L16.8884 188.948L28.1911 185.7L26.892 181.179C25.9966 178.063 22.8603 176.394 19.6633 177.313C16.4662 178.231 14.6939 181.31 15.5894 184.427ZM24.4055 181.893L24.9622 183.831L18.6327 185.65L18.076 183.712C17.5656 181.936 18.4402 180.356 20.3778 179.799C22.3154 179.243 23.8951 180.117 24.4055 181.893Z" fill="#8CCF3A"/>
<path d="M23.8423 162.059L7.76612 158.144L7.94593 159.136L24.0221 163.051L23.8423 162.059Z" fill="#8CCF3A"/>
<path d="M23.4401 153.314L7.49762 148.886L7.64554 149.883L23.588 154.311L23.4401 153.314Z" fill="#8CCF3A"/>
<path d="M11.9917 124.157L10.8286 132.985L22.4879 134.521L22.839 131.856L13.7448 130.658L14.2056 127.16L23.2998 128.358L23.651 125.693L11.9917 124.157Z" fill="#8CCF3A"/>
<path d="M13.8206 115.339L12.8202 119.677L24.2795 122.32L24.8835 119.701L21.282 118.87L21.6784 117.151C22.1993 114.892 20.8516 112.736 18.6743 112.234C16.497 111.732 14.3415 113.08 13.8206 115.339ZM19.2228 116.585L18.8264 118.304L15.8798 117.624L16.2761 115.905C16.4611 115.103 17.2354 114.661 18.0703 114.854C18.9052 115.046 19.4078 115.783 19.2228 116.585Z" fill="#8CCF3A"/>
<path d="M29.216 104.566L30.1551 101.78L17.734 101.812L16.6392 105.06L26.5059 112.605L27.445 109.819L25.8817 108.672L27.2769 104.532L29.216 104.566ZM23.7513 107.102L20.0999 104.418L24.6314 104.492L23.7513 107.102Z" fill="#8CCF3A"/>
<path d="M34.9753 90.8139L27.7847 92.1369L24.1633 86.1851L22.9199 88.9784L26.1237 94.3398L21.4578 92.2629L20.3647 94.7186L31.1084 99.501L32.2015 97.0453L27.2287 94.8317L33.7319 93.6073L34.9753 90.8139Z" fill="#8CCF3A"/>
<path d="M29.1563 77.1005L24.9084 84.7342L27.1692 85.9922L28.6396 83.3498L36.655 87.81L37.962 85.4612L29.9466 81.001L31.417 78.3585L29.1563 77.1005Z" fill="#8CCF3A"/>
<path d="M44.3429 75.3069L45.8599 73.0879L36.1516 66.4512L35.0139 68.1154L37.7242 75.4629L32.454 71.8601L30.937 74.0791L40.6453 80.7159L41.7831 79.0516L39.0727 71.7041L44.3429 75.3069Z" fill="#8CCF3A"/>
<path d="M54.3062 62.6517L47.027 61.9672L45.1627 55.2543L43.2058 57.6036L44.8291 63.6347L40.9049 60.3661L39.1845 62.4314L48.2205 69.958L49.9408 67.8926L45.7585 64.4089L52.3493 65.0011L54.3062 62.6517Z" fill="#8CCF3A"/>
<path d="M52.4612 47.8554L54.6166 52.9595L49.3613 50.9328L47.4537 52.8266L55.8176 55.91C56.0756 56.8137 55.9183 57.6091 54.9651 58.3897L56.7405 60.178C58.3852 58.711 58.8556 56.7763 57.8075 54.2422L54.3688 45.9616L52.4612 47.8554Z" fill="#8CCF3A"/>
<path d="M65.7563 36.5811L63.66 38.2636L64.4409 44.3363L58.6812 42.2595L56.5848 43.9419L63.9456 53.1134L66.042 51.431L61.7622 46.0984L67.2568 48.0864L67.4926 47.8972L66.741 42.1025L71.0208 47.4351L73.1171 45.7526L65.7563 36.5811Z" fill="#8CCF3A"/>
<path d="M82.8306 25.9226L75.0984 30.338L80.93 40.5502L83.2642 39.2173L78.7156 31.2517L81.7793 29.5023L86.3279 37.4678L88.6621 36.1349L82.8306 25.9226Z" fill="#8CCF3A"/>
<path d="M96.3204 32.7812C99.4155 31.431 100.864 27.9031 99.4804 24.731C98.0967 21.5589 94.5253 20.2208 91.4302 21.571C88.3351 22.9211 86.8865 26.449 88.2702 29.6212C89.654 32.7933 93.2253 34.1313 96.3204 32.7812ZM95.2725 30.379C93.5171 31.1448 91.5737 30.4712 90.734 28.5464C89.8943 26.6216 90.7227 24.7389 92.4781 23.9732C94.2336 23.2074 96.177 23.8809 97.0166 25.8057C97.8563 27.7306 97.028 29.6132 95.2725 30.379Z" fill="#8CCF3A"/>
<path d="M116.205 25.9502C118.287 25.4114 119.843 23.9153 120.402 22.0526L117.821 21.3323C117.56 22.3369 116.703 23.1141 115.548 23.413C113.532 23.9349 111.881 22.9217 111.355 20.8887C110.829 18.8557 111.78 17.169 113.797 16.6471C114.952 16.3482 116.062 16.6161 116.794 17.3639L118.702 15.4819C117.293 14.1285 115.206 13.5753 113.141 14.1099C109.709 14.998 107.885 18.2118 108.753 21.5622C109.62 24.9126 112.773 26.8383 116.205 25.9502Z" fill="#8CCF3A"/>
<path d="M127.956 23.6074C131.299 23.1277 133.633 20.1113 133.141 16.6856C132.649 13.2599 129.562 11.0213 126.219 11.501C122.877 11.9806 120.543 14.997 121.035 18.4227C121.526 21.8484 124.614 24.087 127.956 23.6074ZM127.584 21.0131C125.688 21.2852 123.994 20.1196 123.695 18.0409C123.397 15.9622 124.696 14.3672 126.591 14.0952C128.487 13.8232 130.182 14.9887 130.48 17.0674C130.779 19.1461 129.48 20.7411 127.584 21.0131Z" fill="#8CCF3A"/>
<path d="M141.557 10.3284L137.108 10.5001L137.562 22.2514L140.248 22.1477L140.105 18.4544L141.868 18.3864C144.185 18.2969 145.912 16.4313 145.825 14.1986C145.739 11.9658 143.874 10.2389 141.557 10.3284ZM141.771 15.8682L140.008 15.9363L139.891 12.9146L141.654 12.8465C142.477 12.8147 143.106 13.4461 143.139 14.3023C143.172 15.1584 142.593 15.8365 141.771 15.8682Z" fill="#8CCF3A"/>
<path d="M156.969 10.5918L148.244 10.1538L148.114 12.7377L151.134 12.8893L150.674 22.0506L153.359 22.1854L153.819 13.0241L156.839 13.1758L156.969 10.5918Z" fill="#8CCF3A"/>
<path d="M165.542 23.4407L168.203 23.8225L169.873 12.1817L167.878 11.8953L162.481 17.5704L163.388 11.2511L160.727 10.8693L159.057 22.5101L161.052 22.7964L166.449 17.1214L165.542 23.4407Z" fill="#8CCF3A"/>
<path d="M178.932 14.1248L174.605 13.075L171.832 24.5034L174.445 25.1372L175.316 21.5454L177.03 21.9614C179.283 22.5081 181.454 21.1851 181.981 19.0137C182.508 16.8423 181.185 14.6715 178.932 14.1248ZM177.625 19.5125L175.91 19.0965L176.623 16.1578L178.338 16.5737C179.138 16.7678 179.571 17.5472 179.369 18.3798C179.167 19.2125 178.425 19.7066 177.625 19.5125Z" fill="#8CCF3A"/>
<path d="M187.846 29.2774C191.025 30.416 194.498 28.8405 195.665 25.5824C196.832 22.3242 195.149 18.9019 191.97 17.7633C188.791 16.6246 185.318 18.2001 184.151 21.4582C182.984 24.7164 184.667 28.1387 187.846 29.2774ZM188.73 26.81C186.927 26.1642 185.973 24.3417 186.682 22.3646C187.39 20.3876 189.283 19.5848 191.086 20.2306C192.889 20.8764 193.843 22.699 193.135 24.676C192.426 26.653 190.533 27.4559 188.73 26.81Z" fill="#8CCF3A"/>
<path d="M206.426 30.3722C207.242 30.1495 207.925 29.6207 208.348 28.7427C209.229 26.911 208.306 24.9938 206.459 24.1049L202.312 22.1087L197.212 32.7053L201.662 34.8473C203.555 35.758 205.674 35.2676 206.577 33.3905C207.094 32.3157 206.973 31.2506 206.426 30.3722ZM205.367 26.3757C205.927 26.6452 206.101 27.2137 205.838 27.7586C205.576 28.3036 205.008 28.5151 204.463 28.2528L202.737 27.4222L203.641 25.5451L205.367 26.3757ZM202.755 32.5766L200.727 31.6003L201.703 29.5718L203.731 30.5481C204.337 30.8395 204.527 31.4528 204.242 32.0432C203.958 32.6336 203.361 32.868 202.755 32.5766Z" fill="#8CCF3A"/>
<path d="M215.445 42.6578L215.008 35.3596L221.356 32.4903L218.735 30.9159L213.023 33.4425L215.653 29.0645L213.349 27.6803L207.293 37.7613L209.598 39.1455L212.401 34.4794L212.823 41.0833L215.445 42.6578Z" fill="#8CCF3A"/>
<path d="M220.556 43.206L221.781 41.5214L225.178 43.992L226.68 41.927L223.283 39.4563L224.43 37.8804L228.166 40.5981L229.688 38.5059L223.778 34.2069L216.86 43.717L222.838 48.0653L224.36 45.9731L220.556 43.206Z" fill="#8CCF3A"/>
<path d="M234.033 59.3701L249.926 54.7651L249.276 53.9943L233.384 58.5993L234.033 59.3701Z" fill="#8CCF3A"/>
<path d="M238.518 65.8215L254.568 61.798L253.947 61.004L237.897 65.0276L238.518 65.8215Z" fill="#8CCF3A"/>
<path d="M256.865 88.7827L258.275 91.3623L266.675 82.2119L265.031 79.2049L252.794 81.339L254.205 83.9185L256.108 83.5478L258.204 87.3802L256.865 88.7827ZM258.706 83.0463L263.155 82.1834L260.028 85.4636L258.706 83.0463Z" fill="#8CCF3A"/>
<path d="M260.575 98.4997C261.405 100.483 263.108 101.81 265.031 102.098L265.376 99.4405C264.345 99.3258 263.453 98.5881 262.992 97.4878C262.188 95.5661 262.955 93.788 264.893 92.9771C266.83 92.1663 268.635 92.8677 269.439 94.7893C269.9 95.8897 269.793 97.0271 269.157 97.8577L271.292 99.4774C272.431 97.8899 272.681 95.7456 271.857 93.7774C270.488 90.5075 267.047 89.1613 263.855 90.4976C260.662 91.8338 259.206 95.2298 260.575 98.4997Z" fill="#8CCF3A"/>
<path d="M277.116 107.568L275.783 103.057L264.505 106.39L265.838 110.901C266.757 114.011 269.906 115.655 273.096 114.712C276.286 113.77 278.035 110.678 277.116 107.568ZM268.319 110.168L267.748 108.235L274.063 106.368L274.635 108.301C275.159 110.074 274.296 111.66 272.363 112.231C270.429 112.803 268.843 111.94 268.319 110.168Z" fill="#8CCF3A"/>
<path d="M268.108 131.844L284.387 134.802L284.149 133.823L267.87 130.864L268.108 131.844Z" fill="#8CCF3A"/>
<path d="M268.917 139.764L285.105 143.189L284.895 142.203L268.708 138.778L268.917 139.764Z" fill="#8CCF3A"/>
</svg>
