<?xml version="1.0" encoding="utf-8"?>
<!-- Generator: Adobe Illustrator 25.4.1, SVG Export Plug-In . SVG Version: 6.00 Build 0)  -->
<svg version="1.1" id="Слой_1" xmlns="http://www.w3.org/2000/svg" xmlns:xlink="http://www.w3.org/1999/xlink" x="0px" y="0px"
	 viewBox="0 0 209 187" style="enable-background:new 0 0 209 187;" xml:space="preserve">
<style type="text/css">
	.st0{fill:#8CCF3A;}
	.st1{fill:#F5D19B;}
	.st2{fill:none;stroke:#000000;stroke-miterlimit:10;}
</style>
<g>
	<g>
		<path class="st0" d="M147.1,41.6c2.7-1.7,5.2-3.4,7.8-5c-1.6-2.8-3-5.6-4.5-8.3c-2.9-5.3-5.7-10.7-8.9-15.8
			c-2.9-4.8-7-8.6-12.4-10.6c0.3,0,0.7,0,1,0c10.8-0.1,21.5-0.2,32.3-0.2c6,0,10.3,2.8,13.2,8.1c2,3.6,3.9,7.3,6,10.9
			c0.5,0.9,0.9,0.6,1.5,0.3c2.5-1.4,5-2.6,7.8-4.1c-1,1.7-1.9,3.2-2.7,4.5c-3.9,6.5-8,13.2-12.1,19.7c-0.2,0.5-0.9,0.8-1.4,0.8
			c-9,0-17.9-0.1-26.9-0.2C147.6,41.7,147.5,41.7,147.1,41.6z"/>
		<path class="st0" d="M161,117.7c0,3.2,0,6.3,0,9.6c-0.1,0-0.2,0-0.3,0.1c-1.1-2.1-2.4-4.3-3.5-6.4c-3.3-6-6.5-11.9-9.8-17.9
			c-0.3-0.7-0.5-1.1,0-1.8c4.4-7.9,8.8-15.9,13.2-23.8c0.1-0.1,0.1-0.2,0.3-0.6c0.2,3.3,0.3,6.2,0.6,9.4c0.5,0,0.9,0,1.2,0
			c7.8,0,15.5,0.1,23.4,0c6.4-0.1,12.4-1.7,17.5-6.1c-0.8,1.5-1.5,2.8-2.3,4.3c-4.7,8.8-9.2,17.6-14.1,26.3c-2.7,4.7-7.1,7-12.6,7
			c-4.2,0-8.5,0-12.6,0C161.7,117.4,161.4,117.5,161,117.7z"/>
		<path class="st0" d="M137,86.1c0,10.5,0,21,0,31.6c-0.6,0-1.2,0-1.8,0c-6.4,0-12.8,0-19.4,0c-3.5,0-7-0.3-10.3-1.7
			c-2.7-1.1-4.8-2.8-6.3-5.5c-5.2-9.9-10.6-19.7-15.9-29.5c-0.1-0.2-0.3-0.6-0.6-1c1.6,1.1,2.8,2.1,4.3,2.9c3.4,2.1,7.2,3,11.2,3
			c12.5,0.1,25.1,0.1,37.6,0.2C136.3,86,136.6,86.1,137,86.1z"/>
		<path class="st0" d="M81.5,43.3c1.6,0,3.2,0,4.6,0c7.9-0.1,15.7-0.1,23.5-0.2c0.5,0,1.1,0.3,1.4,0.7c4.5,8.3,9.1,16.7,13.6,25
			c0.1,0.2,0.2,0.6,0.5,1c-2.8-1.6-5.4-2.9-8.1-4.4c-1.9,3.2-3.8,6.3-5.7,9.5c-1.6,2.7-3.3,5.3-4.8,8c-0.2,0.5-0.8,0.9-1.2,0.9
			c-4.6,0.1-9.2,0.1-13.6-1.4c-5.7-1.9-9.8-5.6-11-11.8c-0.5-1.9,0.2-3.7,1-5.3c2.5-4.7,5-9.6,7.4-14.3c0.5-0.8,0.3-1.2-0.3-1.8
			c-2.4-1.8-4.7-3.6-7.1-5.5C81.5,43.5,81.5,43.4,81.5,43.3z"/>
		<path class="st0" d="M129,44.4c-9-5.4-18-10.7-27-16c1.8-2.8,3.6-5.5,5.4-8.3c2.8-4.3,5.6-8.7,8.5-13c2-2.9,5-4.2,8.5-4.1
			c4.6,0.2,8,2.8,11,5.9c3.3,3.3,5.9,7.1,7.8,11.3c0.2,0.3,0.2,1,0,1.4c-4.5,7.4-9.1,14.9-13.6,22.4C129.3,44.1,129.2,44.2,129,44.4
			z"/>
		<path class="st0" d="M167.2,59.2c9-5.5,17.9-10.9,26.9-16.5c1.8,3.6,3.6,7.2,5.4,10.7c1.9,3.8,3.8,7.7,5.9,11.5
			c2.1,4.2,1.2,9.2-2.5,12.6c-3,2.8-6.8,4.2-10.7,5.1c-3.7,0.8-7.4,1.1-11.2,0.9c-0.3,0-0.9-0.2-1.1-0.6
			C175.7,75.1,171.5,67.2,167.2,59.2z"/>
	</g>
	<circle class="st1" cx="63" cy="123.4" r="60.9"/>
	<g>
		<path class="st2" d="M87.4,130.2c0,13.3-10.8,24.2-24.2,24.2c-13.3,0-24.2-10.8-24.2-24.2"/>
		<g>
			<circle class="st2" cx="63" cy="123.4" r="53.5"/>
			<path class="st2" d="M92.8,103c0,5.6-4.5,10.1-10.1,10.1s-10.1-4.5-10.1-10.1"/>
			<path class="st2" d="M53.8,103c0,5.6-4.5,10.1-10.1,10.1s-10.1-4.5-10.1-10.1"/>
			<polyline class="st2" points="65.4,111.7 54.8,134.2 68.3,134.2 			"/>
		</g>
	</g>
</g>
</svg>
