<?xml version="1.0" encoding="utf-8"?>
<!-- Generator: Adobe Illustrator 25.4.1, SVG Export Plug-In . SVG Version: 6.00 Build 0)  -->
<svg version="1.1" id="Слой_1" xmlns="http://www.w3.org/2000/svg" xmlns:xlink="http://www.w3.org/1999/xlink" x="0px" y="0px"
	 viewBox="0 0 158 175" style="enable-background:new 0 0 158 175;" xml:space="preserve">
<style type="text/css">
	.st0{fill:#80B83A;}
	.st1{fill:none;stroke:#1D1D1B;stroke-miterlimit:10;}
	.st2{fill:#FFFFFF;stroke:#1D1D1B;stroke-miterlimit:10;}
</style>
<g>
	<polygon class="st0" points="102.6,28.8 111.3,37.3 120.4,29.3 119.3,41.4 131.2,43.5 121,50.1 126.8,60.8 115.3,56.9 110.6,68.1 
		106.4,56.7 94.7,60 101,49.6 91.2,42.5 103.2,41 	"/>
	<path class="st1" d="M93.1,173.4H10.3l-8.5-57.8c-1-6.9,0.2-13.8,3.5-20l22.3-42c3.9-7.4,12.9-10.4,20.5-6.8l21.7,10.2"/>
	<path class="st1" d="M61.6,118.2L39,99.3l8.1-24c0.6-1.9,2.8-2.8,4.6-1.9l18,9"/>
	<path class="st1" d="M66.1,93.8L62,92c-1.3-0.6-2.9,0.1-3.4,1.5l-6.1,16.8"/>
	<line class="st1" x1="59.4" y1="116.3" x2="66.3" y2="100.2"/>
	<path class="st1" d="M124,114.6l2.8,6.6c1.2,2.8,0,6.1-2.7,7.6l-2,1c-4.8,2.5-9.9,1.9-12.8-2.6l-1.1-1.9"/>
	<path class="st1" d="M108.5,116l-0.7,15.5c-0.1,2.8-1.8,5.2-4.3,6.4h0c-2.4,1.1-5.1,1.1-7.4-0.1l-5.2-2.4"/>
	<path class="st1" d="M112.1,115l5.9,7c2,2.4,5.3,3.2,8.2,2.1l0.9-0.3"/>
	<path class="st1" d="M108.2,124.7l-1.1-3.6c-0.4-1.6-1.9-2.7-3.5-2.5l-1.9,0.2c-2.2,0.2-3.8,2-3.8,4.2l0.2,9.1
		c0.1,2.4,1,4.7,2.7,6.3l0.1,0.1"/>
	<path class="st1" d="M99.8,86.1l-4.1,8.5c-1.6,3.3-5.7,4.6-8.9,2.7l-1.3-0.8c-3.3-2-4.4-6.1-2.5-9.5l4.2-7.6
		c1.8-3.1,5.7-4.3,8.9-2.5l1,0.5C100.1,79.2,101.3,83,99.8,86.1z"/>
	<polygon class="st2" points="102.6,90.8 144.6,90.8 144.6,13.5 76.5,13.5 76.5,90.8 76.8,90.8 65.9,110.5 65.9,1.7 156.5,1.7 
		156.5,116.2 95,116.2 	"/>
	<path class="st1" d="M54,132l29.4-53.1c2.6-4.7,8.4-6.6,13.2-4.4l0,0c5.5,2.5,8.3,8.6,6.6,14.4l-13.4,44.9
		c12.9,16.5,2.9,39.6,2.9,39.6"/>
</g>
</svg>
