<svg width="42" height="42" viewBox="0 0 42 42" fill="none" xmlns="http://www.w3.org/2000/svg">
<circle cx="21" cy="21" r="19.2917" stroke="black" stroke-width="1.66667"/>
<path d="M17.8369 17.2827H16.2085C16.2235 15.7703 16.6727 14.5762 17.5562 13.7002C18.4471 12.8167 19.6375 12.375 21.1274 12.375C22.5949 12.375 23.7479 12.7456 24.5864 13.4868C25.425 14.228 25.8442 15.1489 25.8442 16.2495C25.8442 16.7736 25.7282 17.2603 25.4961 17.7095C25.2715 18.1512 24.9271 18.5518 24.4629 18.9111C23.9987 19.263 23.1864 19.6673 22.0259 20.124C20.5659 20.708 19.6825 21.1423 19.3755 21.4268C19.061 21.7188 18.9038 22.0706 18.9038 22.4824C18.9038 22.9167 19.1134 23.306 19.5327 23.6504C19.9595 23.9948 20.5098 24.167 21.1836 24.167C21.9248 24.167 22.4938 23.9798 22.8906 23.6055C23.2874 23.2236 23.5308 22.6172 23.6206 21.7861H25.2603C25.2078 23.0365 24.8185 24.0098 24.0923 24.7061C23.3735 25.3949 22.404 25.7393 21.1836 25.7393C19.9707 25.7393 19.0049 25.4248 18.2861 24.7959C17.5674 24.167 17.208 23.3921 17.208 22.4712C17.208 22.022 17.3053 21.599 17.5 21.2021C17.7021 20.7979 17.9829 20.4609 18.3423 20.1914C18.7091 19.9219 19.3942 19.5812 20.3975 19.1694C22.0146 18.5106 23.0516 18.0164 23.5083 17.687C23.9575 17.3576 24.1821 16.8859 24.1821 16.272C24.1821 15.6206 23.9051 15.0703 23.3511 14.6211C22.8045 14.1719 22.0708 13.9473 21.1499 13.9473C20.0269 13.9473 19.1546 14.3179 18.5332 15.0591C18.099 15.5757 17.8669 16.3169 17.8369 17.2827ZM21.1162 26.8398C21.498 26.8398 21.8237 26.9746 22.0933 27.2441C22.3628 27.5137 22.4976 27.8431 22.4976 28.2324C22.4976 28.6143 22.3628 28.9437 22.0933 29.2207C21.8237 29.4902 21.498 29.625 21.1162 29.625C20.7344 29.625 20.4087 29.4902 20.1392 29.2207C19.8696 28.9437 19.7349 28.6143 19.7349 28.2324C19.7349 27.8431 19.8696 27.5137 20.1392 27.2441C20.4087 26.9746 20.7344 26.8398 21.1162 26.8398Z" fill="black"/>
</svg>
