<?xml version="1.0" encoding="utf-8"?>
<!-- Generator: Adobe Illustrator 25.4.1, SVG Export Plug-In . SVG Version: 6.00 Build 0)  -->
<svg version="1.1" id="Слой_1" xmlns="http://www.w3.org/2000/svg" xmlns:xlink="http://www.w3.org/1999/xlink" x="0px" y="0px"
	 viewBox="0 0 316 356" style="enable-background:new 0 0 316 356;" xml:space="preserve">
<style type="text/css">
	.st0{fill:none;stroke:#1D1D1B;stroke-miterlimit:10;}
	.st1{fill:#FFFFFF;stroke:#1D1D1B;stroke-miterlimit:10;}
</style>
<g>
	<path class="st0" d="M314.1,236.4l-15.9-5.5c-7-2.4-12.1-8.4-13.5-15.6l-18.7-96.8l-12-59.4c-2.8-12.7-11.5-23.3-23.4-28.5
		c0,0-46.2-19.9-63.4-27.3c-3.6-1.6-7.8-0.2-9.9,3.3l-0.2,0.3c-6.8,11.4-4,26.1,6.6,34.1l8.3,6.3"/>
	<path class="st0" d="M182.9,146.8l-4.3-9.8c-5.9-13.5-16.8-24.1-30.4-29.6L73,76.9c-7.8-3.1-16.6,0.7-19.6,8.6l0,0
		c-6.7,17.7,0.1,37.6,16.3,47.5l57.6,33.4c4.6,2.7,7.8,7.4,8.4,12.7l3.3,42.2c0.2,3.2-3.1,5.3-5.9,3.8L83,197.4
		c-3.4-1.9-5.5-5.6-5.3-9.5l1-26.5c0.7-20.2-14.7-37.3-34.9-38.6l-0.5,0c-7.5-0.5-13.8,5.2-14,12.6c-0.8,21.5-2.2,63-2.8,80.2
		c-0.2,5,1.8,9.8,5.4,13.3l28.1,26.7l67.1,53.4c10.8,8.6,24,13.4,37.8,13.7h0c4.3,0.1,8.4,1.9,11.3,5l24.7,25.9"/>
	<path class="st0" d="M217.6,116.8l-8.8-17.2c-4.7-9.3-13.1-16.3-23-19.3l-98.3-30c-8.4-2.6-17.2,2.3-19.4,10.8l0,0
		c-1.5,5.6,0.1,11.3,3.8,15.3"/>
	<path class="st0" d="M238.9,98.3l-12-24.6c-6.2-12.6-18.2-21.3-32.1-23.2L108,38.4c-5.2-0.7-10.1,2.6-11.3,7.6L95,52.5"/>
	<circle class="st1" cx="25.9" cy="101.5" r="21.1"/>
	<path class="st0" d="M32.8,81.5c5.3-4.3,9.6-6.2,11.4-4.7c3.3,2.7-2.8,15.5-13.5,28.6s-22,21.7-25.3,19c-1.8-1.5-0.8-6.1,2.4-12.2"
		/>
	<path class="st0" d="M28.2,170.8l9.5,0.4c6.7,0.3,12.5-4.7,13.2-11.4l1.2-11.5c0.4-4-0.3-8-1.9-11.5c-2.4-5.3-7.4-9-13.1-10
		l-3.6-0.7"/>
	<path class="st0" d="M66.4,76L66.4,76c-2.1,2.4-3.6,5.4-4.4,8.5l-0.3,1c-0.9,7.7,3.3,15,10.4,18.1l5.5,2.4
		c7.7,3.4,16.7,0.8,21.4-6.2l0.1-0.2c1.7-3.4,2.6-7.7,1.1-11.6"/>
	<path class="st0" d="M77,50.7l-0.5,1.8c-0.6,2.2-0.6,4.5,0.3,6.6c0.9,2.1,2.3,3.9,4.1,5.3L99.6,73c5.1,2.4,11.4,1.3,15.1-3
		c0.4-0.4,0.7-0.9,1.1-1.4l1-1.5c1.4-2.2,1.9-4.8,1.4-7.3v0"/>
	<path class="st0" d="M108,38.4L108,38.4c-0.3,6.8,4.1,12.9,10.6,14.8l7.3,2.1c1.6,0.4,3.3,0.6,4.9,0.3c4.2-0.9,7.7-4.2,8.6-8.7
		l0.8-3.9"/>
	<path class="st0" d="M165.2,2.9l-0.7,1.7c-1,2.3-1.3,4.9-0.7,7.3v0c0.5,2.2,1.9,4.1,3.8,5.2l2.9,1.8c2.3,1.4,4.9,2.1,7.5,2.1
		l2.6-0.1c2.2-0.1,4.4-0.8,6.2-2.2v0c1.4-1,2.4-2.4,2.9-4.1l0.5-1.5"/>
</g>
</svg>
