<svg width="271" height="61" viewBox="0 0 271 61" fill="none" xmlns="http://www.w3.org/2000/svg">
<path d="M36.4345 23.7287L29.0997 19.6301L31.3435 18.3235L31.5667 18.1935L31.4295 17.9747L25.9661 9.25845L25.9662 9.25844L25.9644 9.25577C25.4597 8.47273 24.7047 8.07252 23.9314 8.07698C23.1598 8.08142 22.403 8.48843 21.8895 9.25168L21.8893 9.25156L21.8839 9.26042L17.097 17.0567L14.5187 15.5172L19.3035 7.67447C19.7978 6.90803 20.4774 6.2776 21.2798 5.84115C22.0532 5.4205 22.9169 5.19305 23.7968 5.1776L23.7978 5.17862L23.9014 5.1785C24.8166 5.17746 25.7174 5.40595 26.5207 5.84289C27.3234 6.27948 28.0032 6.91017 28.4975 7.67693L33.9597 16.4959L34.0881 16.7032L34.2986 16.58L36.4345 15.3291V23.7287ZM9.03912 38.3508H18.4046V41.3373H9.03912C4.56362 41.3373 1.74984 36.3447 3.99397 32.6466L4.01234 32.6638L4.17216 32.4014L8.65123 25.0484L8.78232 24.8332L8.56607 24.7038L6.74654 23.6152L13.8678 19.522V27.9037L11.5732 26.504L11.3612 26.3747L11.2305 26.5857L6.64126 33.9946L6.60379 34.055V34.0769L6.59543 34.089C5.95819 35.0145 5.96085 36.0849 6.4354 36.9231C6.90969 37.7608 7.84525 38.3508 9.03912 38.3508ZM28.8942 41.5873V44.6285L21.0474 39.8424L28.8942 35.0578V38.0991V38.3491H29.1442H38.924C41.1508 38.3491 42.5419 36.0589 41.3246 33.9973L41.3247 33.9973L41.3212 33.9917L37.0842 27.232L39.6614 25.642L43.8629 32.345V32.3936L43.8975 32.4524C46.1793 36.3219 43.3361 41.3373 38.924 41.3373H29.1442H28.8942V41.5873Z" fill="#A2A2A2" stroke="#333333" stroke-width="0.5"/>
<path d="M22.5564 21.0551H23.7564V29.4551H22.3764V22.5311L20.6844 23.0111L20.3484 21.8351L22.5564 21.0551Z" fill="#333333"/>
<path d="M14.0491 49.1732V54.0732H13.2441V49.9432H11.2491V54.0732H10.4441V49.1732H14.0491ZM17.0408 49.0822C17.7782 49.0822 18.3848 49.3272 18.8608 49.8172C19.3415 50.3026 19.5818 50.9046 19.5818 51.6232C19.5818 52.3419 19.3415 52.9462 18.8608 53.4362C18.3848 53.9216 17.7782 54.1642 17.0408 54.1642C16.5928 54.1642 16.1798 54.0592 15.8018 53.8492C15.4285 53.6346 15.1368 53.3476 14.9268 52.9882L15.6268 52.5892C15.7575 52.8319 15.9488 53.0256 16.2008 53.1702C16.4528 53.3102 16.7328 53.3802 17.0408 53.3802C17.4935 53.3802 17.8715 53.2542 18.1748 53.0022C18.4782 52.7502 18.6672 52.4166 18.7418 52.0012H16.3898V51.2452H18.7418C18.6672 50.8299 18.4782 50.4962 18.1748 50.2442C17.8715 49.9922 17.4935 49.8662 17.0408 49.8662C16.7328 49.8662 16.4528 49.9386 16.2008 50.0832C15.9488 50.2232 15.7575 50.4146 15.6268 50.6572L14.9268 50.2512C15.1368 49.8919 15.4285 49.6072 15.8018 49.3972C16.1798 49.1872 16.5928 49.0822 17.0408 49.0822ZM23.4348 49.1732V49.9432H22.0558V54.0732H21.2508V49.9432H19.8648V49.1732H23.4348ZM28.0061 49.1732C28.4681 49.1732 28.8531 49.3272 29.1611 49.6352C29.4738 49.9432 29.6301 50.3259 29.6301 50.7832C29.6301 51.2359 29.4738 51.6186 29.1611 51.9312C28.8531 52.2392 28.4681 52.3932 28.0061 52.3932H27.0051V54.0732H26.2001V49.1732H28.0061ZM28.0061 51.6372C28.2441 51.6372 28.4401 51.5579 28.5941 51.3992C28.7481 51.2359 28.8251 51.0306 28.8251 50.7832C28.8251 50.5359 28.7481 50.3329 28.5941 50.1742C28.4401 50.0109 28.2441 49.9292 28.0061 49.9292H27.0051V51.6372H28.0061ZM31.344 53.3032H33.514V54.0732H30.539V49.1732H33.479V49.9432H31.344V51.2172H33.304V51.9802H31.344V53.3032ZM37.6459 49.1732V49.9432H36.2669V54.0732H35.4619V49.9432H34.0759V49.1732H37.6459Z" fill="#A2A2A2"/>
<path d="M95.4345 23.7287L88.0997 19.6301L90.3435 18.3235L90.5667 18.1935L90.4295 17.9747L84.9661 9.25845L84.9662 9.25844L84.9644 9.25577C84.4597 8.47273 83.7047 8.07252 82.9314 8.07698C82.1598 8.08142 81.403 8.48843 80.8895 9.25168L80.8893 9.25156L80.8839 9.26042L76.097 17.0567L73.5187 15.5172L78.3035 7.67447C78.7978 6.90803 79.4774 6.2776 80.2798 5.84115C81.0532 5.4205 81.9169 5.19305 82.7968 5.1776L82.7978 5.17862L82.9014 5.1785C83.8166 5.17746 84.7174 5.40595 85.5207 5.84289C86.3234 6.27948 87.0032 6.91017 87.4975 7.67693L92.9597 16.4959L93.0881 16.7032L93.2986 16.58L95.4345 15.3291V23.7287ZM68.0391 38.3508H77.4046V41.3373H68.0391C63.5636 41.3373 60.7498 36.3447 62.994 32.6466L63.0123 32.6638L63.1722 32.4014L67.6512 25.0484L67.7823 24.8332L67.5661 24.7038L65.7465 23.6152L72.8678 19.522V27.9037L70.5732 26.504L70.3612 26.3747L70.2305 26.5857L65.6413 33.9946L65.6038 34.055V34.0769L65.5954 34.089C64.9582 35.0145 64.9608 36.0849 65.4354 36.9231C65.9097 37.7608 66.8452 38.3508 68.0391 38.3508ZM87.8942 41.5873V44.6285L80.0474 39.8424L87.8942 35.0578V38.0991V38.3491H88.1442H97.924C100.151 38.3491 101.542 36.0589 100.325 33.9973L100.325 33.9973L100.321 33.9917L96.0842 27.232L98.6614 25.642L102.863 32.345V32.3936L102.898 32.4524C105.179 36.3219 102.336 41.3373 97.924 41.3373H88.1442H87.8942V41.5873Z" fill="#A2A2A2" stroke="#333333" stroke-width="0.5"/>
<path d="M80.1601 29.0547V27.9747L83.0881 24.9867C83.8001 24.2747 84.1561 23.6587 84.1561 23.1387C84.1561 22.7307 84.0321 22.4147 83.7841 22.1907C83.5441 21.9587 83.2361 21.8427 82.8601 21.8427C82.1561 21.8427 81.6361 22.1907 81.3001 22.8867L80.1361 22.2027C80.4001 21.6427 80.7721 21.2187 81.2521 20.9307C81.7321 20.6427 82.2641 20.4987 82.8481 20.4987C83.5841 20.4987 84.2161 20.7307 84.7441 21.1947C85.2721 21.6587 85.5361 22.2907 85.5361 23.0907C85.5361 23.9467 85.0601 24.8587 84.1081 25.8267L82.2121 27.7227H85.6921V29.0547H80.1601Z" fill="#333333"/>
<path d="M73.5491 49.1732V54.0732H72.7441V49.9432H70.7491V54.0732H69.9441V49.1732H73.5491ZM76.5408 49.0822C77.2782 49.0822 77.8848 49.3272 78.3608 49.8172C78.8415 50.3026 79.0818 50.9046 79.0818 51.6232C79.0818 52.3419 78.8415 52.9462 78.3608 53.4362C77.8848 53.9216 77.2782 54.1642 76.5408 54.1642C76.0928 54.1642 75.6798 54.0592 75.3018 53.8492C74.9285 53.6346 74.6368 53.3476 74.4268 52.9882L75.1268 52.5892C75.2575 52.8319 75.4488 53.0256 75.7008 53.1702C75.9528 53.3102 76.2328 53.3802 76.5408 53.3802C76.9935 53.3802 77.3715 53.2542 77.6748 53.0022C77.9782 52.7502 78.1672 52.4166 78.2418 52.0012H75.8898V51.2452H78.2418C78.1672 50.8299 77.9782 50.4962 77.6748 50.2442C77.3715 49.9922 76.9935 49.8662 76.5408 49.8662C76.2328 49.8662 75.9528 49.9386 75.7008 50.0832C75.4488 50.2232 75.2575 50.4146 75.1268 50.6572L74.4268 50.2512C74.6368 49.8919 74.9285 49.6072 75.3018 49.3972C75.6798 49.1872 76.0928 49.0822 76.5408 49.0822ZM85.5951 49.1732V54.0732H84.7901V49.9432H82.7951V54.0732H81.9901V49.1732H85.5951ZM89.692 49.1732H90.497V54.0732H89.692V51.9522H87.592V54.0732H86.787V49.1732H87.592V51.1822H89.692V49.1732ZM95.3615 53.3032H95.8865V55.0112H95.0815V54.0732H92.1065V55.0112H91.3015V53.3032H91.7565C92.0412 52.9299 92.1835 52.3676 92.1835 51.6162V49.1732H95.3615V53.3032ZM92.6385 53.3032H94.5565V49.9292H92.9885V51.6302C92.9885 52.3582 92.8718 52.9159 92.6385 53.3032Z" fill="#A2A2A2"/>
<path d="M153.934 23.7287L146.599 19.6301L148.843 18.3235L149.066 18.1935L148.929 17.9747L143.466 9.25845L143.466 9.25844L143.464 9.25577C142.959 8.47273 142.204 8.07252 141.431 8.07698C140.659 8.08142 139.902 8.48843 139.389 9.25168L139.389 9.25156L139.383 9.26042L134.596 17.0567L132.018 15.5172L136.803 7.67447C137.297 6.90803 137.977 6.2776 138.779 5.84115C139.553 5.4205 140.416 5.19305 141.296 5.1776L141.297 5.17862L141.401 5.1785C142.316 5.17746 143.217 5.40595 144.02 5.84289C144.823 6.27948 145.503 6.91017 145.997 7.67693L151.459 16.4959L151.588 16.7032L151.798 16.58L153.934 15.3291V23.7287ZM126.539 38.3508H135.904V41.3373H126.539C122.063 41.3373 119.249 36.3447 121.493 32.6466L121.512 32.6638L121.672 32.4014L126.151 25.0484L126.282 24.8332L126.066 24.7038L124.246 23.6152L131.367 19.522V27.9037L129.073 26.504L128.861 26.3747L128.73 26.5857L124.141 33.9946L124.103 34.055V34.0769L124.095 34.089C123.458 35.0145 123.46 36.0849 123.935 36.9231C124.409 37.7608 125.345 38.3508 126.539 38.3508ZM146.394 41.5873V44.6285L138.547 39.8424L146.394 35.0578V38.0991V38.3491H146.644H156.424C158.65 38.3491 160.041 36.0589 158.824 33.9973L158.824 33.9973L158.821 33.9917L154.584 27.232L157.161 25.642L161.362 32.345V32.3936L161.397 32.4524C163.679 36.3219 160.836 41.3373 156.424 41.3373H146.644H146.394V41.5873Z" fill="#A2A2A2" stroke="#333333" stroke-width="0.5"/>
<path d="M140.589 24.226C141.389 24.226 142.065 24.466 142.617 24.946C143.169 25.418 143.445 26.074 143.445 26.914C143.445 27.754 143.161 28.414 142.593 28.894C142.025 29.374 141.329 29.614 140.505 29.614C139.841 29.614 139.253 29.462 138.741 29.158C138.229 28.846 137.865 28.398 137.649 27.814L138.837 27.13C139.061 27.89 139.617 28.27 140.505 28.27C140.977 28.27 141.353 28.15 141.633 27.91C141.921 27.662 142.065 27.33 142.065 26.914C142.065 26.498 141.925 26.17 141.645 25.93C141.365 25.69 140.993 25.57 140.529 25.57H138.081L138.405 21.058H143.085V22.354H139.677L139.533 24.226H140.589Z" fill="#333333"/>
<path d="M135.049 49.1732V54.0732H134.244V49.9432H132.249V54.0732H131.444V49.1732H135.049ZM139.846 49.1732V54.0732H139.041V49.9432H137.046V54.0732H136.241V49.1732H139.846ZM144.803 49.1732C145.265 49.1732 145.65 49.3272 145.958 49.6352C146.271 49.9432 146.427 50.3259 146.427 50.7832C146.427 51.2359 146.271 51.6186 145.958 51.9312C145.65 52.2392 145.265 52.3932 144.803 52.3932H143.802V54.0732H142.997V49.1732H144.803ZM144.803 51.6372C145.041 51.6372 145.237 51.5579 145.391 51.3992C145.545 51.2359 145.622 51.0306 145.622 50.7832C145.622 50.5359 145.545 50.3329 145.391 50.1742C145.237 50.0109 145.041 49.9292 144.803 49.9292H143.802V51.6372H144.803ZM149.142 49.1732C149.604 49.1732 149.989 49.3272 150.297 49.6352C150.61 49.9432 150.766 50.3259 150.766 50.7832C150.766 51.2359 150.61 51.6186 150.297 51.9312C149.989 52.2392 149.604 52.3932 149.142 52.3932H148.141V54.0732H147.336V49.1732H149.142ZM149.142 51.6372C149.38 51.6372 149.576 51.5579 149.73 51.3992C149.884 51.2359 149.961 51.0306 149.961 50.7832C149.961 50.5359 149.884 50.3329 149.73 50.1742C149.576 50.0109 149.38 49.9292 149.142 49.9292H148.141V51.6372H149.142Z" fill="#A2A2A2"/>
<path d="M188.035 19L182.931 25.608V19H182.131V27H182.835L187.923 20.392V27H188.739V19H188.035ZM197.706 19H192.074V23.64C192.074 25.704 191.418 26.36 190.186 26.248V27C191.69 27.112 192.874 26.44 192.874 23.64V19.784H196.906V27H197.706V19ZM206.067 19L200.963 25.608V19H200.163V27H200.867L205.955 20.392V27H206.771V19H206.067Z" fill="black"/>
<path d="M261.976 9.84379C261.144 20.9149 258.131 38.336 256.508 46.7403C256.508 55.9644 256.508 55.9644 253.664 55.9644C252.005 56.3192 245.545 55.9644 242.496 55.9644M261.976 9.84379C262.116 7.98492 262.195 6.30506 262.195 4.87695C257.645 4.87695 241.816 4.87695 234.47 4.87695C234.602 6.3799 234.753 8.05393 234.917 9.84379H261.976Z" stroke="#6D6D6D" stroke-width="2"/>
<path d="M234.932 9.84379C235.765 20.9149 238.778 38.336 240.401 46.7403C240.401 55.9644 240.401 55.9644 243.244 55.9644C244.903 56.3192 251.363 55.9644 254.413 55.9644M234.932 9.84379C234.792 7.98492 234.714 6.30506 234.714 4.87695C239.263 4.87695 255.092 4.87695 262.438 4.87695C262.306 6.3799 262.156 8.05393 261.991 9.84379H234.932Z" stroke="#6D6D6D" stroke-width="2"/>
<path d="M240.429 46.8291C243.428 47.1534 250.886 47.6073 256.723 46.8291" stroke="#6D6D6D" stroke-width="2"/>
<path d="M245.414 55.8267C245.455 54.6512 245.438 52.2517 247.968 52.0571C250.497 51.8626 251.129 54.4891 251.129 55.8267" stroke="#6D6D6D" stroke-width="2"/>
<g clip-path="url(#clip0_791_28977)">
<path d="M251.473 24.3237L248.857 20.2381C248.827 20.1908 248.785 20.152 248.736 20.125C248.687 20.0981 248.632 20.084 248.576 20.084C248.519 20.084 248.464 20.0981 248.415 20.125C248.366 20.152 248.324 20.1908 248.294 20.2381L245.678 24.3238C245.225 24.939 244.981 25.6836 244.983 26.4479C244.983 28.4289 246.595 30.0406 248.576 30.0406C250.557 30.0406 252.168 28.4289 252.168 26.4479C252.17 25.6836 251.926 24.9389 251.473 24.3237ZM248.576 29.3718C246.963 29.3718 245.652 28.0602 245.652 26.4479C245.65 25.8229 245.85 25.214 246.223 24.712C246.227 24.706 246.231 24.6999 246.235 24.6936L248.576 21.0386L250.916 24.6936C250.92 24.6999 250.924 24.706 250.928 24.712C251.301 25.214 251.501 25.8229 251.499 26.4479C251.499 28.0601 250.188 29.3718 248.576 29.3718Z" fill="black"/>
</g>
<defs>
<clipPath id="clip0_791_28977">
<rect width="10.7006" height="10.7006" fill="white" transform="translate(243.225 19.7119)"/>
</clipPath>
</defs>
</svg>
