<svg width="134" height="40" viewBox="0 0 134 40" fill="none" xmlns="http://www.w3.org/2000/svg">
<path fill-rule="evenodd" clip-rule="evenodd" d="M95.3662 29.3803V16.2171H79.1577V29.3803H74.5466V0.0124568H79.1577V12.5987H95.3662V0.0124568H99.9734V29.3803H95.3662Z" fill="black"/>
<path fill-rule="evenodd" clip-rule="evenodd" d="M26.1916 39.976H26.9117L24.3933 33.8271L21.8828 39.976H22.6069L23.2554 38.2986H25.5431L26.1916 39.976ZM23.4743 37.7381L24.4092 35.3149L25.3442 37.7381H23.4743Z" fill="black"/>
<path fill-rule="evenodd" clip-rule="evenodd" d="M66.9158 39.976H67.6359L65.1175 33.8271L62.5951 39.976H63.3232L63.9677 38.2986H66.2673L66.9158 39.976ZM64.1825 37.7381L65.1175 35.3149L66.0445 37.7381H64.1825Z" fill="black"/>
<path d="M92.7364 34.198V39.976H93.4565V34.198H92.7364Z" fill="black"/>
<path d="M34.2521 0.0124568V29.3803H38.8632V0.0124568H34.2521Z" fill="black"/>
<path d="M23.0755 9.42941e-05L13.9607 19.8974C14.0124 19.8479 4.77423 9.42941e-05 4.77423 9.42941e-05H0L13.9248 29.3803L27.8497 9.42941e-05H23.0755Z" fill="black"/>
<path d="M60.399 25.4445C53.6355 25.4445 48.6782 20.94 48.6782 14.6923C48.6782 8.44448 53.6315 3.93999 60.399 3.93999C63.2144 3.91787 65.9621 4.83389 68.2367 6.55284V1.90822C65.8046 0.64453 63.1198 -0.00910082 60.399 9.57171e-05C51.6064 9.57171e-05 44.4849 6.59405 44.4849 14.6881C44.4849 22.7822 51.6104 29.3762 60.399 29.3762C63.1195 29.3866 65.8043 28.7344 68.2367 27.4722V22.8317C65.9621 24.5506 63.2144 25.4666 60.399 25.4445Z" fill="black"/>
<path d="M33.7468 37.1818V39.4237H34.451C35.4059 39.4237 35.8196 39.0116 35.8196 38.3151C35.8196 37.6186 35.378 37.1818 34.3675 37.1818H33.7468ZM33.7468 34.7544V36.6213H34.0651C34.3785 36.6408 34.6923 36.5887 34.9841 36.4688C35.1173 36.4112 35.2285 36.3097 35.3004 36.1801C35.3723 36.0505 35.401 35.8999 35.382 35.7517C35.3963 35.5935 35.3704 35.4343 35.3069 35.2897C35.2433 35.1451 35.1444 35.0202 35.0199 34.9275C34.7241 34.8012 34.4041 34.7476 34.085 34.7709L33.7468 34.7544ZM33.2057 39.976V34.2062H34.1248C35.3714 34.2062 35.9934 34.7269 35.9907 35.7682C36.0036 35.9899 35.9597 36.2112 35.8632 36.4095C35.7668 36.6079 35.6213 36.7762 35.4417 36.8974C35.7626 36.9658 36.0467 37.1572 36.2374 37.4332C36.4082 37.716 36.4864 38.0485 36.4602 38.381C36.474 38.6219 36.4275 38.8624 36.325 39.079C36.2225 39.2957 36.0676 39.4812 35.8753 39.6174C35.4753 39.8907 35.0011 40.0236 34.5226 39.9966L33.2057 39.976Z" fill="black"/>
<path d="M45.5193 34.6184C45.2122 34.6121 44.9071 34.6706 44.6226 34.7903C44.3381 34.9101 44.08 35.0885 43.8642 35.3149C43.648 35.5343 43.4763 35.7963 43.3591 36.0854C43.2418 36.3744 43.1815 36.6848 43.1815 36.9984C43.1815 37.3119 43.2418 37.6223 43.3591 37.9114C43.4763 38.2005 43.648 38.4624 43.8642 38.6819C44.3054 39.1307 44.899 39.3821 45.5173 39.3821C46.1356 39.3821 46.7292 39.1307 47.1704 38.6819C47.3865 38.4624 47.5583 38.2005 47.6755 37.9114C47.7927 37.6223 47.8531 37.3119 47.8531 36.9984C47.8531 36.6848 47.7927 36.3744 47.6755 36.0854C47.5583 35.7963 47.3865 35.5343 47.1704 35.3149C46.9549 35.0892 46.6974 34.9112 46.4137 34.7915C46.1299 34.6718 45.8256 34.6129 45.5193 34.6184ZM45.5193 34.0208C45.9083 34.0139 46.2948 34.088 46.6556 34.2388C47.0165 34.3896 47.3444 34.614 47.6199 34.8986C47.8988 35.1685 48.1212 35.4949 48.2732 35.8575C48.4252 36.2201 48.5037 36.6113 48.5037 37.0066C48.5037 37.402 48.4252 37.7931 48.2732 38.1557C48.1212 38.5183 47.8988 38.8447 47.6199 39.1146C47.0527 39.6699 46.3018 39.9793 45.5213 39.9793C44.7408 39.9793 43.9899 39.6699 43.4226 39.1146C43.1437 38.8447 42.9214 38.5183 42.7693 38.1557C42.6173 37.7931 42.5389 37.402 42.5389 37.0066C42.5389 36.6113 42.6173 36.2201 42.7693 35.8575C42.9214 35.4949 43.1437 35.1685 43.4226 34.8986C43.6975 34.6143 44.0248 34.3901 44.3849 34.2393C44.7451 34.0885 45.1309 34.0142 45.5193 34.0208Z" fill="black"/>
<path d="M83.5699 34.6184C83.2629 34.6121 82.9578 34.6706 82.6733 34.7903C82.3887 34.9101 82.1307 35.0885 81.9148 35.3149C81.6987 35.5343 81.527 35.7963 81.4097 36.0854C81.2925 36.3744 81.2321 36.6848 81.2321 36.9984C81.2321 37.3119 81.2925 37.6223 81.4097 37.9114C81.527 38.2005 81.6987 38.4624 81.9148 38.6819C82.356 39.1307 82.9496 39.3821 83.5679 39.3821C84.1862 39.3821 84.7798 39.1307 85.221 38.6819C85.4377 38.4627 85.6098 38.2009 85.7274 37.9117C85.8449 37.6226 85.9055 37.3121 85.9055 36.9984C85.9055 36.6847 85.8449 36.3741 85.7274 36.085C85.6098 35.7959 85.4377 35.534 85.221 35.3149C85.0059 35.0887 84.7486 34.9102 84.4647 34.7905C84.1808 34.6707 83.8764 34.6122 83.5699 34.6184ZM83.5699 34.0208C83.9583 34.0142 84.3441 34.0885 84.7043 34.2393C85.0644 34.3901 85.3917 34.6143 85.6666 34.8986C85.9455 35.1685 86.1678 35.4949 86.3199 35.8575C86.4719 36.2202 86.5503 36.6113 86.5503 37.0066C86.5503 37.402 86.4719 37.7931 86.3199 38.1557C86.1678 38.5183 85.9455 38.8447 85.6666 39.1146C85.1005 39.6706 84.35 39.9805 83.5699 39.9805C82.7898 39.9805 82.0394 39.6706 81.4732 39.1146C81.1944 38.8447 80.972 38.5183 80.82 38.1557C80.668 37.7931 80.5895 37.402 80.5895 37.0066C80.5895 36.6113 80.668 36.2202 80.82 35.8575C80.972 35.4949 81.1944 35.1685 81.4732 34.8986C81.7482 34.6143 82.0754 34.3901 82.4356 34.2393C82.7957 34.0885 83.1815 34.0142 83.5699 34.0208Z" fill="black"/>
<path d="M121.394 34.911L120.9 35.2407C120.814 35.0536 120.678 34.8958 120.508 34.7856C120.338 34.6755 120.142 34.6175 119.942 34.6184C119.704 34.6154 119.474 34.7051 119.297 34.8698C119.208 34.9493 119.138 35.0482 119.09 35.1594C119.043 35.2705 119.02 35.3912 119.023 35.5127C119.025 35.6248 119.052 35.7349 119.104 35.8338C119.155 35.9326 119.228 36.0175 119.317 36.0814C119.494 36.2151 119.687 36.3258 119.89 36.4111L120.26 36.5801C120.602 36.7164 120.919 36.9146 121.195 37.1653C121.326 37.2992 121.43 37.4599 121.498 37.6372C121.567 37.8146 121.599 38.0047 121.593 38.1956C121.598 38.431 121.555 38.6649 121.467 38.8822C121.38 39.0994 121.249 39.2951 121.083 39.4567C120.768 39.7679 120.354 39.9502 119.919 39.9699C119.484 39.9896 119.057 39.8453 118.716 39.5638C118.402 39.2878 118.19 38.9078 118.115 38.4882L118.72 38.3275C118.755 38.6171 118.886 38.8852 119.09 39.0858C119.188 39.186 119.304 39.2649 119.432 39.318C119.56 39.3711 119.697 39.3972 119.834 39.3949C120.13 39.3979 120.415 39.2828 120.63 39.0734C120.74 38.9741 120.828 38.8512 120.888 38.7132C120.948 38.5751 120.978 38.4252 120.976 38.2739C120.98 38.1347 120.953 37.9965 120.898 37.8695C120.843 37.7425 120.761 37.63 120.658 37.5403C120.441 37.3699 120.203 37.2312 119.95 37.1282L119.611 36.9757C119.301 36.8512 119.014 36.6713 118.764 36.4441C118.646 36.3206 118.554 36.1737 118.492 36.0122C118.431 35.8507 118.401 35.678 118.406 35.5044C118.401 35.3013 118.44 35.0996 118.522 34.9147C118.603 34.7297 118.724 34.5664 118.875 34.437C119.174 34.1644 119.56 34.0173 119.958 34.0249C120.255 34.0133 120.549 34.0918 120.804 34.2506C121.059 34.4094 121.264 34.6417 121.394 34.9192V34.911Z" fill="black"/>
<path d="M109.649 39.976V34.2021H112.709V34.7997H110.27V36.5141H112.526V37.1117H110.27V39.3784H112.709V39.976H109.649Z" fill="black"/>
<path d="M14.5862 34.198V39.3784H16.1219V39.976H13.9656V34.198H14.5862Z" fill="black"/>
<path d="M74.3437 34.7956V39.9718H73.7231V34.7956H72.3743V34.198H75.7044V34.7956H74.3437Z" fill="black"/>
<path d="M54.6938 34.7956V36.8562H54.9046C55.2376 36.878 55.5707 36.8158 55.8754 36.6749C56.0131 36.5929 56.126 36.4727 56.2012 36.3277C56.2765 36.1828 56.3111 36.019 56.3011 35.8547C56.32 35.6804 56.2894 35.5041 56.2131 35.3475C56.1368 35.1908 56.018 35.0606 55.8714 34.9728C55.5564 34.8452 55.2183 34.7903 54.8808 34.8121L54.6938 34.7956ZM54.6938 37.4373V39.976H54.0731V34.2062H54.8688C56.2295 34.2062 56.9098 34.7338 56.9098 35.797C56.9237 36.2015 56.7886 36.5964 56.5318 36.9015C56.401 37.049 56.2433 37.1682 56.0678 37.2524C55.8924 37.3366 55.7026 37.384 55.5094 37.392L57.2917 39.976H56.5358L54.8489 37.4373H54.6938Z" fill="black"/>
<path d="M100.916 34.7956V36.8562H101.111C101.443 36.8772 101.775 36.815 102.078 36.6749C102.219 36.5957 102.336 36.4766 102.415 36.3315C102.494 36.1864 102.532 36.0211 102.524 35.8547C102.542 35.6804 102.512 35.5041 102.436 35.3475C102.359 35.1908 102.241 35.0606 102.094 34.9728C101.779 34.8452 101.441 34.7903 101.103 34.8121L100.916 34.7956ZM100.916 37.4373V39.976H100.296V34.2062H101.091C102.452 34.2062 103.132 34.7338 103.132 35.797C103.146 36.2015 103.011 36.5964 102.754 36.9015C102.624 37.049 102.466 37.1682 102.29 37.2524C102.115 37.3366 101.925 37.384 101.732 37.392L103.522 39.976H102.758L101.056 37.4373H100.916Z" fill="black"/>
<path d="M133.333 0.0124568L120.781 16.757V29.3803H116.512V16.757L103.964 0.0124568H108.893L118.649 13.0973L128.404 0.0124568H133.333Z" fill="black"/>
</svg>
