<svg width="245" height="46" viewBox="0 0 245 46" fill="none" xmlns="http://www.w3.org/2000/svg">
<rect x="1" y="4.99902" width="19" height="36" rx="1" stroke="black" stroke-width="2"/>
<rect x="23.5" y="4.49902" width="20" height="37" rx="1.5" stroke="black" stroke-dasharray="2 2"/>
<rect x="225" y="5.04492" width="19" height="36" rx="1" stroke="black" stroke-width="2"/>
<path d="M209.358 11.0984C209.358 11.0984 207.5 11.5842 207.5 12.3792C207.5 13.1741 207.5 26.9361 207.5 27.6869C207.5 28.4377 216.5 28.4377 216.5 27.6869C216.5 26.9361 216.5 13.0858 216.5 12.3792C216.5 11.6725 214.758 11.0984 214.758 11.0984M209.358 11.0984V9.15523H208.894C208.894 8.49278 208.894 7.07072 208.894 6.68209C208.894 6.19629 209.823 6.01964 210.171 6.01964C210.171 5.75466 210.171 4.7389 210.171 4.03229C210.171 3.32568 210.171 1.25 212.087 1.25C214.003 1.25 214.177 2.79572 214.177 4.03229C214.177 5.02155 214.177 5.31302 214.177 6.01964C214.506 6.04908 215.165 6.20512 215.165 6.59376C215.165 6.9824 215.203 8.46334 215.223 9.15523H214.758V11.0984M209.358 11.0984H210.171M214.758 11.0984H214.003" stroke="black" stroke-width="2" stroke-linecap="round" stroke-linejoin="round"/>
<circle cx="212" cy="39.499" r="5.5" stroke="black" stroke-width="2"/>
<path d="M209.5 36.999L212 39.499M214.5 41.999L212 39.499M212 39.499L214.5 36.999M212 39.499L209.5 41.999" stroke="black"/>
<path fill-rule="evenodd" clip-rule="evenodd" d="M122.637 26.5536L131.693 27.0661C132.283 27.0792 132.608 26.9574 132.771 26.6345C132.926 26.3307 132.814 25.8918 132.32 25.6412L110.67 14.6502C109.265 13.9368 108.806 12.5814 109.452 11.309C110.05 10.1315 111.434 9.6637 112.839 10.3771L127.425 17.7816C128.184 18.1672 128.757 17.9802 129.008 17.4864C129.239 17.0306 129.062 16.439 128.302 16.0533L123.991 13.8648C123.364 13.5466 123.215 12.9933 123.591 12.2526C124.42 10.6193 126.121 9.85818 128.324 10.9766L130.356 12.0082C131.115 12.3938 131.698 12.1878 131.948 11.694C132.18 11.2382 131.993 10.6656 131.233 10.2799L129.03 9.16156C128.384 8.83376 128.235 8.32801 128.63 7.54936C129.488 5.85912 131.426 5.2423 133.382 6.23534L134.445 6.77524C135.205 7.16089 135.778 6.97388 136.028 6.4801C136.26 6.02431 136.082 5.43267 135.323 5.04702L133.708 4.22752C133.31 4.02505 133.207 3.7101 133.419 3.29228C134.335 1.4881 137.186 0.905426 140.529 2.60227L144.175 4.45338C152.949 8.9076 155.762 16.2592 151.693 24.2736C148.589 30.3888 143.388 33.5289 133.822 32.4703L122.371 31.2193C120.714 31.0472 119.884 29.8134 119.995 28.652C120.108 27.443 121.076 26.4774 122.637 26.5536ZM118.91 28.5496C118.991 27.6813 119.384 26.8689 120.067 26.2895C120.754 25.7064 121.667 25.4144 122.69 25.4644L122.699 25.4648L130.425 25.9022L110.176 15.6226C109.266 15.1604 108.583 14.446 108.265 13.5558C107.945 12.6603 108.034 11.6927 108.48 10.8153C109.378 9.04616 111.447 8.44733 113.333 9.40478L122.663 14.1413C122.527 13.9524 122.421 13.7343 122.358 13.485C122.201 12.8655 122.364 12.2618 122.619 11.759C123.139 10.7348 123.978 9.90266 125.113 9.54312C125.954 9.27677 126.869 9.2975 127.812 9.59156C127.621 9.3785 127.467 9.11717 127.384 8.79818C127.22 8.1639 127.406 7.55297 127.658 7.05574C128.218 5.95293 129.153 5.16724 130.292 4.83841C131.053 4.61874 131.869 4.61262 132.683 4.81477C132.518 4.6452 132.377 4.43224 132.294 4.16724C132.13 3.64511 132.264 3.15751 132.447 2.79866C133.105 1.5008 134.413 0.745981 135.926 0.552696C137.435 0.359888 139.204 0.706513 141.023 1.62991L144.669 3.48101C149.222 5.79269 152.356 8.92169 153.77 12.6409C155.19 16.3778 154.811 20.5413 152.666 24.7672C151.033 27.9843 148.804 30.4968 145.662 32.0409C142.534 33.5776 138.617 34.0981 133.702 33.5543C133.702 33.5543 133.702 33.5543 133.702 33.5543L122.258 32.3039C122.257 32.3038 122.256 32.3037 122.255 32.3036C120.036 32.0716 118.739 30.3361 118.91 28.5496Z" fill="black"/>
<path fill-rule="evenodd" clip-rule="evenodd" d="M131.672 27.5658L122.612 27.053C122.612 27.053 122.611 27.053 122.61 27.0529C121.942 27.0207 121.439 27.2111 121.096 27.5021C120.751 27.7949 120.538 28.215 120.493 28.6983L120.493 28.7C120.409 29.574 121.025 30.5769 122.422 30.722L122.424 30.7223L133.876 31.9733C138.598 32.4959 142.187 31.9757 144.96 30.6134C147.725 29.2545 149.732 27.0317 151.247 24.0473C153.23 20.1404 153.515 16.4465 152.283 13.2061C151.047 9.95762 148.259 7.08759 143.948 4.89925L140.302 3.04815C138.699 2.2341 137.251 1.98677 136.127 2.13039C135.004 2.2738 134.23 2.79802 133.864 3.51865C133.808 3.63038 133.81 3.68076 133.811 3.69079C133.817 3.70032 133.842 3.73499 133.934 3.78171L135.549 4.60121C136.004 4.83235 136.337 5.15221 136.505 5.53742C136.676 5.92928 136.656 6.34741 136.474 6.70647C136.286 7.07576 135.963 7.35006 135.536 7.44544C135.122 7.53819 134.668 7.4495 134.219 7.22112L133.155 6.68121C132.275 6.23435 131.432 6.16473 130.733 6.36654C130.035 6.56779 129.445 7.04876 129.076 7.77573C128.903 8.11558 128.899 8.30379 128.923 8.39909C128.944 8.47727 129.009 8.59045 129.256 8.71575L131.459 9.83413C131.909 10.0627 132.245 10.3747 132.417 10.754C132.594 11.143 132.577 11.5595 132.394 11.9204C132.207 12.2881 131.884 12.5656 131.459 12.6672C131.042 12.7669 130.584 12.685 130.129 12.454L128.097 11.4224C127.083 10.9078 126.244 10.8532 125.593 11.0594C124.941 11.266 124.403 11.7575 124.037 12.479C123.88 12.7886 123.871 12.9836 123.899 13.0944C123.924 13.1901 123.996 13.3069 124.217 13.419L128.528 15.6075C128.983 15.8387 129.316 16.1585 129.484 16.5437C129.655 16.9356 129.635 17.3537 129.453 17.7128C129.266 18.0821 128.942 18.3564 128.516 18.4518C128.101 18.5445 127.648 18.4558 127.198 18.2274L112.613 10.823C111.428 10.2215 110.358 10.6292 109.898 11.5353C109.631 12.061 109.603 12.5755 109.762 13.0212C109.922 13.4693 110.289 13.896 110.896 14.2044L132.546 25.1954C133.235 25.5452 133.52 26.2629 133.217 26.8609C133.078 27.1338 132.862 27.3285 132.575 27.4415C132.309 27.5462 132.003 27.5732 131.681 27.566L131.672 27.5658ZM133.811 3.69079C133.811 3.69155 133.812 3.6927 133.812 3.6927L133.811 3.69079ZM122.637 26.5536L131.692 27.0661C132.283 27.0793 132.607 26.9574 132.771 26.6346C132.925 26.3307 132.814 25.8919 132.32 25.6412L110.67 14.6503C109.264 13.9368 108.806 12.5814 109.452 11.309C110.05 10.1315 111.434 9.66373 112.839 10.3772L127.424 17.7816C128.184 18.1672 128.757 17.9802 129.007 17.4865C129.239 17.0307 129.061 16.439 128.302 16.0534L123.991 13.8648C123.364 13.5467 123.215 12.9933 123.591 12.2526C124.42 10.6194 126.12 9.85821 128.323 10.9766L130.355 12.0082C131.115 12.3938 131.697 12.1878 131.948 11.6941C132.179 11.2383 131.992 10.6656 131.233 10.28L129.03 9.16159C128.384 8.83379 128.235 8.32805 128.63 7.5494C129.488 5.85916 131.425 5.24233 133.381 6.23537L134.445 6.77528C135.205 7.16092 135.777 6.97392 136.028 6.48014C136.259 6.02434 136.082 5.4327 135.322 5.04705L133.708 4.22755C133.309 4.02509 133.206 3.71013 133.418 3.29232C134.334 1.48813 137.186 0.905461 140.528 2.60231L144.175 4.45341C152.949 8.90763 155.762 16.2592 151.693 24.2736C148.588 30.3888 143.388 33.529 133.821 32.4704L122.37 31.2193C120.714 31.0473 119.883 29.8135 119.995 28.6521C120.107 27.4431 121.075 26.4774 122.637 26.5536ZM133.481 33.5302L122.257 32.304L122.254 32.3036C120.036 32.0717 118.738 30.3361 118.909 28.5496C118.99 27.6814 119.384 26.8689 120.067 26.2895C120.754 25.7065 121.667 25.4145 122.69 25.4644L122.698 25.4648L130.425 25.9022L110.176 15.6226C109.266 15.1605 108.582 14.446 108.264 13.5558C107.945 12.6604 108.034 11.6927 108.479 10.8154C109.378 9.0462 111.447 8.44737 113.333 9.40482L122.663 14.1413C122.527 13.9524 122.421 13.7344 122.358 13.485C122.352 13.4626 122.347 13.4401 122.342 13.4177C122.213 12.8219 122.373 12.2436 122.619 11.759C123.138 10.7348 123.977 9.9027 125.113 9.54315C125.737 9.34548 126.402 9.30593 127.089 9.41888C127.327 9.45813 127.568 9.51577 127.811 9.59159C127.657 9.41972 127.527 9.21644 127.439 8.97681C127.418 8.91939 127.4 8.85988 127.384 8.79821C127.219 8.16393 127.405 7.55301 127.658 7.05577C128.217 5.95297 129.152 5.16728 130.291 4.83845C130.832 4.68248 131.4 4.63416 131.975 4.69162C132.21 4.71508 132.447 4.75619 132.683 4.8148C132.531 4.65907 132.4 4.46674 132.315 4.23112C132.308 4.21018 132.301 4.1889 132.294 4.16727C132.13 3.64514 132.264 3.15754 132.446 2.79869C133.105 1.50083 134.412 0.746016 135.925 0.55273C137.434 0.359922 139.203 0.706548 141.022 1.62994L144.668 3.48105C149.222 5.79273 152.355 8.92173 153.769 12.6409C155.19 16.3778 154.811 20.5413 152.665 24.7672C151.032 27.9844 148.804 30.4969 145.661 32.0409C142.581 33.5546 138.734 34.0822 133.923 33.5781C133.923 33.5781 133.923 33.5781 133.923 33.5781C133.849 33.5704 133.776 33.5625 133.702 33.5543L133.481 33.5302ZM133.647 34.0513L122.206 32.8013L122.203 32.801C122.203 32.801 122.203 32.801 122.203 32.801C119.727 32.5421 118.213 30.5768 118.412 28.502C118.504 27.5132 118.954 26.5777 119.743 25.9083C120.538 25.2334 121.58 24.9097 122.714 24.965L122.727 24.9656L128.072 25.2682L109.95 16.0685C108.944 15.5581 108.161 14.7533 107.794 13.7239C107.423 12.6868 107.532 11.5767 108.034 10.589C109.071 8.54625 111.455 7.89089 113.559 8.95898L121.801 13.143C121.764 12.5395 121.945 11.982 122.173 11.5327C122.741 10.4137 123.674 9.47423 124.962 9.06649C125.581 8.8702 126.23 8.81413 126.891 8.88713C126.699 8.09701 126.939 7.36725 127.212 6.82944C127.831 5.60858 128.875 4.72703 130.153 4.35806C130.679 4.20617 131.226 4.14645 131.777 4.17527C131.625 3.54071 131.799 2.96932 132 2.57236C132.752 1.09232 134.227 0.265603 135.862 0.0567612C137.492 -0.151519 139.362 0.226372 141.248 1.1841L144.895 3.03521C149.525 5.38561 152.766 8.59599 154.237 12.4632C155.717 16.3563 155.307 20.6675 153.111 24.9936C151.441 28.2838 149.143 30.8874 145.882 32.4896M133.647 34.0513C133.647 34.0513 133.647 34.0513 133.647 34.0513V34.0513Z" fill="black"/>
<path d="M96.8581 11.0984C96.8581 11.0984 95 11.5842 95 12.3792C95 13.1741 95 26.9361 95 27.6869C95 28.4377 104 28.4377 104 27.6869C104 26.9361 104 13.0858 104 12.3792C104 11.6725 102.258 11.0984 102.258 11.0984M96.8581 11.0984V9.15523H96.3935C96.3935 8.49278 96.3935 7.07072 96.3935 6.68209C96.3935 6.19629 97.3226 6.01964 97.671 6.01964C97.671 5.75466 97.671 4.7389 97.671 4.03229C97.671 3.32568 97.671 1.25 99.5871 1.25C101.503 1.25 101.677 2.79572 101.677 4.03229C101.677 5.02155 101.677 5.31302 101.677 6.01964C102.006 6.04908 102.665 6.20512 102.665 6.59376C102.665 6.9824 102.703 8.46334 102.723 9.15523H102.258V11.0984M96.8581 11.0984H97.671M102.258 11.0984H101.503" stroke="black" stroke-width="2" stroke-linecap="round" stroke-linejoin="round"/>
<circle cx="167.5" cy="24.9531" r="3" fill="black"/>
<path d="M196.207 25.7061C196.598 25.3156 196.598 24.6824 196.207 24.2919L189.843 17.928C189.453 17.5374 188.819 17.5374 188.429 17.928C188.038 18.3185 188.038 18.9516 188.429 19.3422L194.086 24.999L188.429 30.6559C188.038 31.0464 188.038 31.6796 188.429 32.0701C188.819 32.4606 189.453 32.4606 189.843 32.0701L196.207 25.7061ZM168.5 25.999H195.5V23.999H168.5V25.999Z" fill="black"/>
<circle cx="57.5" cy="24.9531" r="3" fill="black"/>
<path d="M86.2071 25.7061C86.5976 25.3156 86.5976 24.6824 86.2071 24.2919L79.8431 17.928C79.4526 17.5374 78.8195 17.5374 78.4289 17.928C78.0384 18.3185 78.0384 18.9516 78.4289 19.3422L84.0858 24.999L78.4289 30.6559C78.0384 31.0464 78.0384 31.6796 78.4289 32.0701C78.8195 32.4606 79.4526 32.4606 79.8431 32.0701L86.2071 25.7061ZM58.5 25.999H85.5V23.999H58.5V25.999Z" fill="black"/>
</svg>
